<?xml version="1.0" encoding="utf-8"?>
<!-- Generator: Adobe Illustrator 25.2.0, SVG Export Plug-In . SVG Version: 6.00 Build 0)  -->
<svg version="1.1" id="Layer_1" xmlns="http://www.w3.org/2000/svg" xmlns:xlink="http://www.w3.org/1999/xlink" x="0px" y="0px"
	 viewBox="0 0 50 50" style="enable-background:new 0 0 50 50;" xml:space="preserve">
<style type="text/css">
	.st0{fill:#FFFFFF;}
</style>
<g>
	<path class="st0" d="M24.8,40.1c-0.5-0.2-10.4-4.3-13.9-10l0.5-0.3c3.4,5.6,13.5,9.6,13.6,9.7L24.8,40.1z"/>
	<path class="st0" d="M38.7,30.1c-0.2,0-6.6-0.7-9.9-3.1c-2-1.6-3.5-3.7-4.3-6.2L19.7,20c-1.5-0.2-2.7-0.9-3.5-2.2
		c-0.3-0.5-0.5-1.1-0.1-1.7l0.1-0.1l0.6,0.3l0,0c-0.1,0.3-0.1,0.7,0.1,0.9c0.8,1,1.9,1.7,3.2,1.9l5,0.8h0.2v0.2
		c0.7,2.4,2.2,4.5,4.1,6c3.2,2.3,9.4,2.9,9.5,2.9L38.7,30.1z"/>
	<path class="st0" d="M44.1,29.3c-0.2,0-0.5,0-0.6-0.1c-0.5-0.1-0.9-0.5-1.1-0.9L34.8,13c-0.5-0.9-0.1-2,0.8-2.5l5.6-2.7
		c0.3-0.1,0.7,0,0.8,0.2l0,0c0.1,0.3,0,0.7-0.2,0.8l-5.6,2.7c-0.3,0.1-0.5,0.6-0.2,0.9l7.6,15.3c0.1,0.1,0.2,0.2,0.3,0.3
		c0.1,0.1,0.3,0.1,0.5,0l4.5-2.3c0.3-0.1,0.7,0,0.8,0.3c0.1,0.3,0,0.7-0.3,0.8l-4.5,2.3C44.7,29.3,44.3,29.4,44.1,29.3"/>
	<path class="st0" d="M6,29.3c-0.3,0-0.6-0.1-0.8-0.2l-4.5-2.3c-0.3-0.1-0.5-0.5-0.3-0.8c0.1-0.3,0.6-0.5,0.8-0.2l4.5,2.3
		c0.1,0,0.3,0,0.5,0c0.1,0,0.3-0.1,0.3-0.3l7.6-15.3c0-0.1,0-0.3,0-0.5c0-0.1-0.1-0.3-0.3-0.3L8.2,8.9C7.8,8.8,7.7,8.4,7.9,8.1l0,0
		c0.1-0.3,0.6-0.5,0.8-0.2l5.6,2.7c0.9,0.5,1.2,1.6,0.8,2.5L7.5,28.4c-0.2,0.5-0.6,0.8-1,0.9C6.4,29.3,6.1,29.3,6,29.3"/>
	<path class="st0" d="M18,14c-0.8,0-1.6,0.5-2,1.1l-1.9-0.5l-0.9-0.2l-0.5,0.9L7.4,26.2L7,27.1l0.9,0.6c0,0,1,0.7,2,1.2
		c0.1,0.2,0.1,0.5,0.2,0.7l-3.5,2.5c-0.7,0.3-1.1,1-1.4,1.7c-0.2,0.8-0.1,1.6,0.2,2.3l0.1,0.2c0.6,1,1.6,1.6,2.7,1.6
		c0.5,0,0.9-0.1,1.4-0.3l0,0c0.5,1,1.5,1.7,2.6,1.7c0.3,0,0.8-0.1,1.1-0.2l0.5-0.2c0.5,1,1.5,1.8,2.6,1.8c0.3,0,0.7-0.1,1.1-0.2
		l0.6-0.2l0,0c0.5,1.2,1.7,2,2.9,2.2c0.3,0,0.6,0,0.9-0.2l2.3-0.9l0,0l0.8-0.3l0.8,0.3l0,0l2.3,0.9c0.2,0.1,0.6,0.2,0.9,0.2
		c1.4-0.1,2.5-0.9,2.9-2.2l0,0l0.6,0.2c0.3,0.1,0.7,0.2,1,0.2c1.1,0,2.3-0.7,2.6-1.8l0.5,0.2c1.5,0.6,3.1-0.1,3.6-1.5l0,0
		c0.5,0.2,0.9,0.3,1.4,0.3c1.1,0,2.2-0.6,2.7-1.6l0.1-0.2c0.3-0.7,0.5-1.5,0.2-2.3c-0.2-0.8-0.7-1.4-1.4-1.7l-3.5-2.5
		c0.1-0.2,0.1-0.5,0.2-0.7c0.9-0.6,1.9-1.1,2-1.2l0.9-0.6l-0.5-1l-5.3-10.8l-0.5-0.9l-0.9,0.2c-1.4,0.3-2.9,0.7-3.3,0.8
		c-0.6-0.1-1.1-0.2-1.7-0.5c-1.5-0.6-3.1-0.8-4.6-0.9H26h-1.6c-0.8,0-1.6,0-2.6-0.1S19.6,13.9,18,14L18,14L18,14z M18,15.3L18,15.3
		c3.3,0.1,4.8,0.1,6.3,0.1c0.6,0,1,0,1.7,0h0.2c2.4,0,5.1,1.4,6.3,1.4h0.1c0.2,0,3.4-0.8,3.4-0.8l5.2,10.8c0,0-1.4,0.9-2.4,1.5
		c-0.1,0.7-0.3,1.4-0.6,1.9l0,0l4.3,3.1c0.8,0.5,1.1,1.6,0.7,2.4l-0.1,0.1c-0.3,0.6-0.9,1-1.6,1c-0.2,0-0.6-0.1-0.8-0.2l-1.6-0.8
		c0.1,0.3,0.1,0.8,0,1.1l0,0.1c-0.3,0.8-1.2,1.2-2.2,0.9l0,0L35.4,37c0.1,0.3,0.1,0.7-0.1,1l-0.1,0.2c-0.3,0.8-1.2,1.2-2.2,0.9
		l-2.2-0.8c0.1,0.3,0.1,0.8,0,1.1l-0.1,0.1c-0.3,0.8-1,1.2-1.8,1.4c-0.1,0-0.3,0-0.5-0.1L26.2,40l-1.2-0.6l0,0L23.7,40l-2.3,0.9
		c-0.1,0-0.2,0.1-0.5,0.1c-0.8-0.1-1.5-0.6-1.8-1.4L19,39.5c-0.1-0.3-0.1-0.8,0-1.1l-2,0.8c-0.2,0.1-0.5,0.1-0.6,0.1
		c-0.7,0-1.2-0.5-1.6-1l-0.1-0.2c-0.1-0.3-0.2-0.7-0.1-1l-1.8,0.8c-0.2,0.1-0.5,0.1-0.6,0.1c-0.7,0-1.2-0.5-1.5-1l-0.1-0.2
		c-0.1-0.3-0.1-0.8,0-1.1l-1.6,0.8c-0.2,0.1-0.5,0.2-0.8,0.2c-0.7,0-1.2-0.3-1.6-1l-0.1-0.2c-0.5-0.7-0.1-1.8,0.7-2.3l4.3-3.1l0,0
		c-0.2-0.7-0.5-1.2-0.6-1.9c-1-0.6-2.4-1.5-2.4-1.5l5.3-10.8l2.8,0.7l0.1-0.3l0,0C16.9,15.7,17.5,15.3,18,15.3"/>
</g>
</svg>
