<svg xmlns="http://www.w3.org/2000/svg" width="492.211" height="90.306" viewBox="0 0 492.211 90.306">
  <g id="Group_392" data-name="Group 392" transform="translate(595.472)">
    <g id="Group_133" data-name="Group 133" transform="translate(-595.472)">
      <g id="Group_130" data-name="Group 130" transform="translate(24.617 25.048)">
        <path id="Path_85" data-name="Path 85" d="M-558.052,51.318a12.748,12.748,0,0,1-5.489-1.157,13.58,13.58,0,0,1-4.219-3.042,13.774,13.774,0,0,1-2.726-4.313,13.343,13.343,0,0,1-.971-5,13.014,13.014,0,0,1,1.009-5.04,13.362,13.362,0,0,1,2.818-4.275,13.734,13.734,0,0,1,4.295-2.949,13.247,13.247,0,0,1,5.432-1.1,12.763,12.763,0,0,1,5.489,1.157,13.421,13.421,0,0,1,4.219,3.062,13.719,13.719,0,0,1,2.706,4.331,13.474,13.474,0,0,1,.952,4.966,12.869,12.869,0,0,1-1.008,5.022,13.574,13.574,0,0,1-2.8,4.257A13.756,13.756,0,0,1-552.62,50.2,13.047,13.047,0,0,1-558.052,51.318Zm-6.012-13.441a9.007,9.007,0,0,0,.373,2.594,6.794,6.794,0,0,0,1.12,2.222,5.633,5.633,0,0,0,1.886,1.567,5.746,5.746,0,0,0,2.706.6,5.7,5.7,0,0,0,2.726-.617,5.508,5.508,0,0,0,1.886-1.605,6.933,6.933,0,0,0,1.084-2.259,9.554,9.554,0,0,0,.354-2.576,9.048,9.048,0,0,0-.373-2.594,6.377,6.377,0,0,0-1.139-2.2,5.74,5.74,0,0,0-1.9-1.531,5.824,5.824,0,0,0-2.669-.579,5.748,5.748,0,0,0-2.707.6,5.565,5.565,0,0,0-1.886,1.586,6.757,6.757,0,0,0-1.1,2.241A9.312,9.312,0,0,0-564.064,37.877Z" transform="translate(571.456 -24.436)" fill="#97d700"/>
        <path id="Path_86" data-name="Path 86" d="M-536.528,38.06V51.091h-7.281V24.582h5.676l10.642,13.478V24.582h7.281V51.091H-526Z" transform="translate(572.148 -24.432)" fill="#97d700"/>
      </g>
      <g id="Group_131" data-name="Group 131" transform="translate(110.494)">
        <path id="Path_87" data-name="Path 87" d="M-429,69.577a29.313,29.313,0,0,1-9.488,5.585,32.819,32.819,0,0,1-10.7,1.681,35.852,35.852,0,0,1-14.938-3.161,39.833,39.833,0,0,1-12.247-8.547,40.519,40.519,0,0,1-8.276-12.448,37.344,37.344,0,0,1-3.028-14.871,35.576,35.576,0,0,1,3.095-14.8A37.765,37.765,0,0,1-476.1,11.035,39.971,39.971,0,0,1-463.385,2.96,41.87,41.87,0,0,1-447.572,0,40.239,40.239,0,0,1-428.26,4.441a29.77,29.77,0,0,1,12.448,12.112l-14.534,10.9a18.721,18.721,0,0,0-7.469-7.468,21.243,21.243,0,0,0-10.564-2.759,19.309,19.309,0,0,0-7.94,1.615,18.9,18.9,0,0,0-6.258,4.44,19.536,19.536,0,0,0-4.038,6.729,24.733,24.733,0,0,0-1.414,8.478,22.641,22.641,0,0,0,1.548,8.547,20.817,20.817,0,0,0,4.239,6.661,18.49,18.49,0,0,0,6.46,4.375,21.4,21.4,0,0,0,8.21,1.547,22.771,22.771,0,0,0,9.824-2.22A28.943,28.943,0,0,0-429,50.87V50.2H-445.15V36.336h32.3V76.305H-429Z" transform="translate(487.676)" fill="#97d700"/>
        <path id="Path_88" data-name="Path 88" d="M-372.092,59.739a17.948,17.948,0,0,0,8.345-1.749,14.965,14.965,0,0,0,5.382-4.576,18.435,18.435,0,0,0,2.894-6.46,32.138,32.138,0,0,0,.874-7.537V.525h19.245V39.418a48.586,48.586,0,0,1-2.154,14.737,32.726,32.726,0,0,1-6.662,11.91,30.764,30.764,0,0,1-11.438,8.008,42.646,42.646,0,0,1-16.487,2.894q-9.96,0-16.889-3.1a32.115,32.115,0,0,1-11.372-8.209,31.666,31.666,0,0,1-6.46-11.91,50.066,50.066,0,0,1-2.018-14.333V.525h19.379V39.418a30.445,30.445,0,0,0,.942,7.671,19.32,19.32,0,0,0,2.96,6.46,14.493,14.493,0,0,0,5.316,4.509A17.774,17.774,0,0,0-372.092,59.739Z" transform="translate(489.649 0.013)" fill="#97d700"/>
        <path id="Path_89" data-name="Path 89" d="M-342.8,76.292-310.1.525h15.745l32.433,75.767H-282.38l-6.729-15.88H-315.62l-6.46,15.88Zm40.508-52.35-9.151,19.648h18.033Z" transform="translate(491.302 0.013)" fill="#97d700"/>
        <path id="Path_90" data-name="Path 90" d="M-260.617,76.292V.525h38.085a26.6,26.6,0,0,1,11.1,2.288,29.184,29.184,0,0,1,8.68,5.922,27.674,27.674,0,0,1,5.72,8.277,22.957,22.957,0,0,1,2.086,9.487,23.027,23.027,0,0,1-3.7,12.651A26.079,26.079,0,0,1-208.8,48.3l19.513,27.991h-21.937l-16.956-23.685h-13.055V76.292Zm19.378-40.642H-223.2a8.516,8.516,0,0,0,6.056-2.422,8.831,8.831,0,0,0,2.556-6.729,8.3,8.3,0,0,0-2.894-6.728,9.728,9.728,0,0,0-6.392-2.422h-17.361Z" transform="translate(493.359 0.013)" fill="#97d700"/>
        <path id="Path_91" data-name="Path 91" d="M-187.228,76.292V.525h31.491a52.089,52.089,0,0,1,18.371,2.961,38.092,38.092,0,0,1,13.188,8.074,33.333,33.333,0,0,1,8.008,11.977,39.833,39.833,0,0,1,2.692,14.669,39.408,39.408,0,0,1-3.028,15.679,34.1,34.1,0,0,1-8.546,12.044,38.183,38.183,0,0,1-13.323,7.67,52.972,52.972,0,0,1-17.361,2.692Zm54.1-38.085q0-9.287-5.921-15.073t-16.688-5.786h-12.112V59.47h12.112a26.875,26.875,0,0,0,9.623-1.615,20.5,20.5,0,0,0,7.132-4.44,18.421,18.421,0,0,0,4.374-6.729A23.72,23.72,0,0,0-133.128,38.207Z" transform="translate(495.196 0.013)" fill="#97d700"/>
      </g>
      <g id="Group_132" data-name="Group 132">
        <path id="Path_92" data-name="Path 92" d="M-510.219,18.451V58.527h-66.8V18.451h66.8M-501.853,0h-83.536a10.083,10.083,0,0,0-10.083,10.083V66.894a10.083,10.083,0,0,0,10.083,10.083h11.776l.121,13.328,18.131-13.328h53.509a10.084,10.084,0,0,0,10.084-10.083V10.083A10.084,10.084,0,0,0-501.853,0Z" transform="translate(595.472)" fill="#97d700"/>
      </g>
    </g>
  </g>
</svg>
