<svg id="Final" xmlns="http://www.w3.org/2000/svg" viewBox="0 0 41.34 32.51"><defs><style>.cls-1{fill:#fff;}</style></defs><path class="cls-1" d="M49.39,25.05H36.89V18a2.32,2.32,0,0,0-2.31-2.31H12.67A2.31,2.31,0,0,0,10.36,18V31.9a2.3,2.3,0,0,0,2.31,2.31h4.41a5.12,5.12,0,0,1-1.68,2.4,1.31,1.31,0,0,0-.4,1.5,1.29,1.29,0,0,0,1.21.81h.13a7.86,7.86,0,0,0,6.38-4.71h2.45v7a2.31,2.31,0,0,0,2.31,2.31H39.34a7.86,7.86,0,0,0,6.38,4.71h.13a1.3,1.3,0,0,0,.81-2.31A5.21,5.21,0,0,1,45,43.53h4.42a2.31,2.31,0,0,0,2.31-2.31V27.36A2.32,2.32,0,0,0,49.39,25.05ZM21.8,32.91a6.49,6.49,0,0,1-5.59,4.71,6.48,6.48,0,0,0,2.44-4.71h-6a1,1,0,0,1-1-1V18a1,1,0,0,1,1-1H34.58a1,1,0,0,1,1,1v7H27.15a1.86,1.86,0,0,0-.48.06h-.1a1.34,1.34,0,0,0-1.34,1.34v.1a1.85,1.85,0,0,0-.07.48v5.88Zm28.6,8.31a1,1,0,0,1-1,1h-6A6.48,6.48,0,0,0,45.85,47a6.48,6.48,0,0,1-5.59-4.72H27.48a1,1,0,0,1-1-1V33.5h0v-.26a1.21,1.21,0,0,0,.07-.33V26.74a.75.75,0,0,1,.33-.33h8.73a1.3,1.3,0,0,0,.33-.07H49.39a1,1,0,0,1,1,1Z" transform="translate(-10.36 -15.73)"/></svg>