<?xml version="1.0" encoding="utf-8"?>
<!-- Generator: Adobe Illustrator 25.1.0, SVG Export Plug-In . SVG Version: 6.00 Build 0)  -->
<svg version="1.1" id="Layer_1" xmlns="http://www.w3.org/2000/svg" xmlns:xlink="http://www.w3.org/1999/xlink" x="0px" y="0px"
	 viewBox="0 0 268.5 113.4" style="enable-background:new 0 0 268.5 113.4;" xml:space="preserve">
<style type="text/css">
	.st0{fill:#FFFFFF;}
</style>
<g>
	<path class="st0" d="M92.9,0l15.5,111H83.8L72.9,33.5l-0.3-0.2L54.1,68.6H74l3,20.6H43.3L31.8,111H4.4l10.8-21.8H0l10.6-20.6h15.5
		L62.3,0H92.9z M268.5,25.7L253.6,111H229l-18.6-42.9c-2.8,14.2-5.1,28.7-7.6,42.9H178c0.9-6.5,2.2-13.2,2.8-19.7
		c-8,14.1-22.3,22.4-38.3,22.1c-11.7-0.1-25.9-7.5-32.4-17l-6.4-44.6c5.7-15,21.2-26.6,37.1-27.9c16.2-0.9,30,5.9,39.4,19.4
		c3.3,4.9,5.2,10.4,6.4,16.2l6.1-33.8h24.1l19,43.1c2.6-14.3,5.2-28.7,7.6-43.1C243.4,25.7,268.5,25.7,268.5,25.7z M157.8,53.1
		c-4.8-6-12.5-7.9-19.6-5.6c-5.9,1.6-10.6,8.1-12.6,13.4c-3.5,9.3,0.5,22.1,6.9,26c4.4,2.7,9.4,4.1,14.6,2.6
		c5.2-1.7,10.4-5.9,12.7-11.2C163.3,70.9,163.9,59.6,157.8,53.1"/>
</g>
</svg>
