<svg id="White" xmlns="http://www.w3.org/2000/svg" viewBox="0 0 480 270"><defs><style>.cls-1{fill:#fff;}</style></defs><g id="AWS"><path class="cls-1" d="M287.21,134h0a43.7,43.7,0,0,0,7.26,2.5,55.73,55.73,0,0,0,9.76,1.11,31.7,31.7,0,0,0,8.93-1.39,26.76,26.76,0,0,0,7-3.33,17.13,17.13,0,0,0,4.47-5.55,16.2,16.2,0,0,0,1.67-7.21,14.23,14.23,0,0,0-3.07-8.88c-1.95-2.5-5-4.44-9.48-5.83l-8.93-3c-3.35-1.11-5.86-2.22-7-3.33a6.57,6.57,0,0,1-1.95-4.44,6.08,6.08,0,0,1,3.07-5.55q2.93-1.67,8.37-1.67a33,33,0,0,1,12,2.22,6.31,6.31,0,0,0,2.51.83c.83,0,1.39-.55,1.39-1.94v-3a4,4,0,0,0-.56-1.94,5.9,5.9,0,0,0-1.95-1.67,13.72,13.72,0,0,0-2.51-.83,14.17,14.17,0,0,0-3.63-1.11,18.89,18.89,0,0,0-4.18-.55c-1.4,0-2.79-.28-4.19-.28a35.76,35.76,0,0,0-7.81.83A19.79,19.79,0,0,0,292,83.25a20.31,20.31,0,0,0-4.75,5,15.05,15.05,0,0,0-1.67,6.94,14.26,14.26,0,0,0,3.35,9.16c1.95,2.77,5.3,5,10,6.38l8.93,2.78c3.07,1.11,5.3,2.22,6.41,3.33a5.81,5.81,0,0,1,1.68,4.43,6.53,6.53,0,0,1-3.35,5.83c-2,1.39-5,1.94-9.21,1.94a68.28,68.28,0,0,1-7.25-.55,52.16,52.16,0,0,1-7-2.22l-1.68-.83h-1.11c-.84,0-1.4.55-1.4,1.94v3a3.51,3.51,0,0,0,.28,1.67,6.62,6.62,0,0,0,1.95,1.94"/><path class="cls-1" d="M181.2,103.51h0a53.71,53.71,0,0,0-6.7-.28c-6.42,0-11.44,1.66-15.34,4.72a16.52,16.52,0,0,0-5.58,12.76c0,5.27,1.39,9.16,4.46,12.21a18.16,18.16,0,0,0,12.55,4.44,23.33,23.33,0,0,0,18.42-8.6c.84,1.38,1.39,2.49,2,3.6a11,11,0,0,0,2.23,2.78,3.06,3.06,0,0,0,2,.83,3.53,3.53,0,0,0,1.67-.28l3.91-2.77a2.1,2.1,0,0,0,1.11-1.94,3,3,0,0,0-.28-1.39,34.14,34.14,0,0,1-2.23-4.44,28.4,28.4,0,0,1-.56-5.55V99.34c0-6.93-1.67-11.93-5.3-15.26-3.35-3.33-8.93-5-16.46-5a37.71,37.71,0,0,0-9.76,1.11A42,42,0,0,0,159.44,83c-.84.56-1.4.84-1.68,1.39a3.57,3.57,0,0,0-.56,2.22v3c0,1.11.56,1.94,1.4,1.94.28,0,.56-.27,1.11-.27a4.87,4.87,0,0,0,2-.84,52.16,52.16,0,0,1,7-2.22,27.58,27.58,0,0,1,6.7-.55c4.74,0,8.09.83,10,2.77s3.07,5.28,3.07,10v4.44c-2.51-.55-5-.83-7.25-1.38m7.25,11.1h0a25.32,25.32,0,0,1-.56,5.27,10,10,0,0,1-2.23,4.16,13.56,13.56,0,0,1-5.86,3.88,18.21,18.21,0,0,1-6.42,1.11c-3.06,0-5-.55-6.69-2.22-1.4-1.38-2.23-3.6-2.23-6.65a8.56,8.56,0,0,1,3.07-6.94c1.95-1.94,5-2.78,9.2-2.78a41.35,41.35,0,0,1,5.86.56,36.27,36.27,0,0,1,5.86,1.11Z"/><path class="cls-1" d="M220,132.92h0a5.38,5.38,0,0,0,1.39,2.5,3.69,3.69,0,0,0,2.23.55h5.3c1.4,0,2.24-.28,2.51-.83a3.48,3.48,0,0,0,1.4-2.5l9.49-40,9.76,40a3.51,3.51,0,0,0,1.39,2.5A3.46,3.46,0,0,0,256,136h5.3a5.73,5.73,0,0,0,2.51-.55,5.24,5.24,0,0,0,1.11-2.5l15.35-48.28c0-.56.28-1.11.28-1.67a1,1,0,0,0,.28-.83,1.47,1.47,0,0,0-1.68-1.66h-5.86a5.59,5.59,0,0,0-2.51.55,11,11,0,0,0-1.11,2.5l-10.88,41.9L249,83.53A5.47,5.47,0,0,0,247.6,81a5.59,5.59,0,0,0-2.51-.55h-5a5.59,5.59,0,0,0-2.51.55,5.24,5.24,0,0,0-1.11,2.5l-9.77,41.34-10.6-41.34A11,11,0,0,0,215,81a5.52,5.52,0,0,0-2.51-.55h-6.13a1.47,1.47,0,0,0-1.68,1.66c0,.28.28,1.11.56,2.5Z"/><path class="cls-1" d="M313.16,163.16h0a188.55,188.55,0,0,1-71.42,14.43,189.55,189.55,0,0,1-93.19-24.69c-2.23-1.39-3.62,1.11-2.23,2.77,24.83,22.2,57.2,35.24,93.46,35.24,25.67,0,55.52-8,76.17-23,3.63-2.5.56-6.38-2.79-4.72"/><path class="cls-1" d="M300.05,154.56h0c-2,1.11-1.68,3.05.55,2.78,6.7-.84,21.49-2.5,24,.83,2.79,3.33-2.79,17.2-5.3,23.31-.84,1.94.83,2.77,2.51,1.11,11.16-9.16,13.95-28.31,11.72-31.08s-21.77-5.27-33.48,3.05"/></g></svg>