<?xml version="1.0" encoding="utf-8"?>
<!-- Generator: Adobe Illustrator 25.1.0, SVG Export Plug-In . SVG Version: 6.00 Build 0)  -->
<svg version="1.1" id="Layer_1" xmlns="http://www.w3.org/2000/svg" xmlns:xlink="http://www.w3.org/1999/xlink" x="0px" y="0px"
	 viewBox="0 0 460 460" style="enable-background:new 0 0 460 460;" xml:space="preserve">
<style type="text/css">
	.st0{fill:#FFFFFF;}
</style>
<path class="st0" d="M164.2,210.6c2.1,0.7,4.2,1.4,6.2,2.2c0.2,0.1,0.4,0.1,0.5,0.2c0,0.2,0.1,0.4,0.2,0.6c0.4,1.8,0.8,3.5,1.3,5.3
	c0.1,0.2,0.1,0.4,0.2,0.6c0.5,1.8,1.1,3.6,1.7,5.4c0.1,0.4,0.2,0.7,0.4,1.1c0.6,1.8,1.3,3.5,2,5.2c0.1,0.2,0.2,0.4,0.3,0.6
	c0.7,1.6,1.4,3.1,2.1,4.6c0.1,0.1,0.1,0.3,0.2,0.4l-0.2-0.1l0.1,0.2c-0.1,0-0.3-0.1-0.4-0.1c-1.6-0.5-3.2-0.9-4.9-1.3
	c-0.3-0.1-0.5-0.1-0.8-0.2c-1.8-0.4-3.6-0.7-5.4-1c-0.4-0.1-0.8-0.1-1.2-0.2c-1.8-0.3-3.7-0.5-5.6-0.7c-0.2,0-0.4,0-0.7,0
	c-1.8-0.2-3.6-0.3-5.4-0.3c-0.2,0-0.4,0-0.7,0c-0.3-0.5-0.6-1-0.9-1.6c-0.2-0.4-0.5-0.9-0.7-1.3c-0.5-0.8-0.9-1.7-1.4-2.5
	c-0.2-0.3-0.3-0.6-0.4-0.8c-0.6-1.1-1.2-2.3-1.7-3.5c-0.2-0.4-0.4-0.8-0.5-1.2c-0.4-0.8-0.8-1.6-1.1-2.4c-0.2-0.5-0.4-1-0.6-1.5
	c-0.3-0.8-0.6-1.5-1-2.3c-0.2-0.5-0.4-1-0.6-1.6c-0.3-0.8-0.6-1.5-0.9-2.3c-0.2-0.5-0.4-1.1-0.6-1.6c-0.3-0.8-0.6-1.6-0.8-2.4
	c-0.2-0.5-0.4-1.1-0.6-1.6c-0.1-0.3-0.2-0.6-0.3-0.9c0.2,0,0.3,0,0.5,0.1c2.3,0.3,4.5,0.7,6.7,1.1c0.4,0.1,0.8,0.2,1.1,0.2
	c2.2,0.4,4.4,0.9,6.6,1.5c0.3,0.1,0.5,0.1,0.8,0.2c2.2,0.6,4.4,1.2,6.5,1.8C164.1,210.5,164.1,210.5,164.2,210.6 M140.7,201.8
	c-4.7-15.5-6.4-29.5-7.3-36.8c7.3,2.2,20.5,6.3,35,13.6c0,0.2,0,0.5,0,0.7c-0.1,2.4-0.2,4.8-0.1,7.1c0,0,0,0,0,0.1
	c0,2.4,0.1,4.7,0.2,7c0,0.3,0,0.7,0.1,1c0.1,2.2,0.3,4.3,0.5,6.5c0,0.4,0.1,0.8,0.1,1.2c0.2,2.1,0.5,4.2,0.9,6.3c0,0.1,0,0.2,0,0.3
	l0,0l0,0.1c-0.1,0-0.2-0.1-0.2-0.1c-2-0.7-4-1.4-6.1-2c-0.4-0.1-0.8-0.2-1.2-0.3c-2.1-0.6-4.2-1.2-6.3-1.7c-0.3-0.1-0.7-0.2-1-0.2
	c-2.2-0.5-4.5-1-6.8-1.4c0,0,0,0,0,0c-2.3-0.4-4.7-0.8-7.1-1.1C141.1,201.9,140.9,201.9,140.7,201.8 M171.9,188.9c0-0.4,0-0.8,0-1.2
	c0-2.2,0-4.5,0.1-6.8c0-0.2,0-0.3,0-0.5c0.3,0.1,0.5,0.3,0.8,0.4c0.5,0.3,1,0.6,1.6,0.9c0.7,0.4,1.4,0.8,2.1,1.2
	c0.5,0.3,1,0.6,1.5,0.9c0.7,0.4,1.4,0.8,2.1,1.3c0.5,0.3,1,0.6,1.4,0.9c0.7,0.4,1.4,0.9,2.1,1.4c0.4,0.3,0.9,0.6,1.3,0.8
	c0.8,0.5,1.5,1.1,2.3,1.6c0.3,0.2,0.7,0.5,1,0.7c1.1,0.8,2.1,1.5,3.1,2.3c0.2,0.2,0.4,0.3,0.6,0.5c0.8,0.6,1.6,1.3,2.4,1.9
	c0.4,0.3,0.7,0.6,1.1,0.9c0.5,0.4,0.9,0.8,1.4,1.2c0,0.2,0,0.4-0.1,0.7c-0.2,1.8-0.4,3.5-0.6,5.3c0,0.2,0,0.5-0.1,0.7
	c-0.2,1.9-0.2,3.7-0.3,5.6c0,0.4,0,0.8,0,1.2c0,1.8,0,3.7,0.1,5.5c0,0.3,0,0.5,0,0.8c0.1,1.7,0.2,3.4,0.4,5.1c0,0.1,0,0.3,0,0.4
	l-0.2-0.1l0,0.2c-0.1-0.1-0.2-0.2-0.3-0.2c-1.3-1-2.7-1.9-4.2-2.9c-0.2-0.1-0.4-0.3-0.6-0.4c-1.5-1-3.1-1.9-4.7-2.8
	c-0.3-0.2-0.7-0.4-1-0.6c-1.6-0.9-3.3-1.7-5-2.6c-0.2-0.1-0.4-0.2-0.6-0.3c-1.6-0.8-3.3-1.5-5-2.2c-0.2-0.1-0.4-0.2-0.6-0.3
	c0-0.2-0.1-0.4-0.1-0.6c-0.4-2.1-0.8-4.3-1-6.5c0-0.1,0-0.1,0-0.2c-0.3-2.2-0.5-4.4-0.7-6.7c0-0.3,0-0.5-0.1-0.8
	C172,193.4,171.9,191.1,171.9,188.9 M184.8,284.3c1.9,0.3,3.7,0.5,5.6,0.7c-1.7,0.8-3.4,1.6-5,2.5c-0.5,0.3-1,0.6-1.5,0.9
	c-1.1,0.6-2.2,1.3-3.3,2c-0.6,0.4-1.2,0.8-1.8,1.2c-0.9,0.6-1.9,1.3-2.8,1.9c-0.7,0.5-1.3,1-1.9,1.5c-0.7,0.6-1.5,1.1-2.2,1.8
	c-0.7,0-1.5,0-2.2-0.1c-0.3,0-0.5,0-0.8,0c-1.1-0.1-2.2-0.1-3.4-0.2c-0.3,0-0.6-0.1-0.9-0.1c-0.8-0.1-1.7-0.2-2.5-0.3
	c-0.4-0.1-0.8-0.1-1.2-0.2c-0.7-0.1-1.5-0.2-2.2-0.3c-0.4-0.1-0.9-0.2-1.3-0.2c-0.7-0.1-1.4-0.3-2.1-0.4c-0.5-0.1-0.9-0.2-1.4-0.3
	c-0.7-0.2-1.5-0.3-2.2-0.5c-0.4-0.1-0.9-0.2-1.3-0.3c-0.8-0.2-1.6-0.4-2.4-0.7c-0.4-0.1-0.7-0.2-1.1-0.3c-0.1,0-0.2-0.1-0.3-0.1
	c0.1-0.1,0.1-0.1,0.2-0.2c0.3-0.3,0.7-0.5,1-0.7c0.6-0.5,1.3-0.9,1.9-1.4c0.4-0.3,0.8-0.5,1.2-0.8c0.6-0.4,1.2-0.8,1.8-1.2
	c0.4-0.3,0.8-0.5,1.2-0.8c0.6-0.4,1.2-0.7,1.8-1.1c0.4-0.2,0.8-0.5,1.2-0.7c0.6-0.4,1.3-0.7,1.9-1.1c0.4-0.2,0.7-0.4,1.1-0.6
	c0.8-0.4,1.5-0.8,2.3-1.1c0.3-0.1,0.5-0.3,0.8-0.4c1-0.5,2-0.9,3.1-1.4c0.2-0.1,0.4-0.2,0.6-0.3c0.7-0.3,1.4-0.6,2.1-0.9
	c0.9,0.3,1.8,0.6,2.7,0.9c0.8,0.3,1.5,0.5,2.3,0.8c1.1,0.3,2.2,0.6,3.3,0.9c0.7,0.2,1.4,0.4,2.2,0.6c1.2,0.3,2.5,0.5,3.8,0.7
	C183.6,284,184.2,284.2,184.8,284.3 M112.1,276.1c-13.5-8.9-23.9-18.5-29.2-23.5c6.8-3,19.8-8.4,35.5-12.1c0.5,0.6,1,1.3,1.5,1.9
	c0.3,0.3,0.5,0.7,0.8,1c0.9,1.1,1.8,2.2,2.7,3.3c0,0,0.1,0.1,0.1,0.1c0.9,1,1.8,2,2.7,3c0.3,0.3,0.6,0.7,0.9,1
	c0.6,0.7,1.3,1.4,1.9,2c0.4,0.4,0.7,0.7,1.1,1.1c0.6,0.6,1.2,1.2,1.8,1.8c0.4,0.4,0.8,0.8,1.1,1.1c0.6,0.6,1.2,1.1,1.8,1.7
	c0.4,0.4,0.8,0.7,1.2,1.1c0.6,0.6,1.2,1.1,1.8,1.6c0.4,0.3,0.7,0.6,1.1,1c0.1,0.1,0.2,0.2,0.3,0.3l-0.1,0l0,0
	c-0.1,0-0.3,0.1-0.4,0.2c-0.5,0.2-0.9,0.4-1.4,0.5c-0.7,0.3-1.5,0.6-2.3,0.9c-0.5,0.2-1,0.4-1.5,0.6c-0.7,0.3-1.5,0.6-2.2,1
	c-0.5,0.2-1,0.4-1.5,0.7c-0.7,0.3-1.5,0.7-2.2,1.1c-0.5,0.2-1,0.5-1.4,0.7c-0.8,0.4-1.6,0.8-2.4,1.2c-0.4,0.2-0.8,0.4-1.3,0.7
	c-1.1,0.6-2.2,1.2-3.4,1.9c-0.1,0.1-0.2,0.1-0.3,0.2c-1.2,0.7-2.4,1.4-3.7,2.1c-0.4,0.2-0.8,0.5-1.2,0.8
	C113.4,275.3,112.8,275.7,112.1,276.1 M119.8,236.5c-9.7-13-16.1-25.6-19.4-32.1c7.3-0.5,21.5-1.2,37.5,0.8c0.1,0.2,0.2,0.4,0.2,0.6
	c0.7,2.3,1.5,4.6,2.3,6.8c0,0,0,0,0,0.1c0.8,2.2,1.7,4.4,2.6,6.5c0.1,0.3,0.3,0.7,0.4,1c0.9,2,1.8,4,2.7,5.9
	c0.2,0.4,0.4,0.7,0.5,1.1c1,1.9,1.9,3.8,3,5.6c0,0.1,0.1,0.2,0.1,0.2h0l0,0c-0.1,0-0.3,0-0.4,0c-0.6,0-1.2,0-1.8,0
	c-0.7,0-1.3,0-2,0.1c-0.7,0-1.3,0.1-2,0.1c-0.6,0-1.3,0.1-1.9,0.1c-0.7,0-1.4,0.1-2.1,0.2c-0.6,0.1-1.3,0.1-1.9,0.2
	c-0.7,0.1-1.4,0.1-2.1,0.2c-0.7,0.1-1.4,0.2-2.1,0.3c-0.6,0.1-1.3,0.2-1.9,0.2c-1.1,0.2-2.1,0.3-3.2,0.5c-0.4,0.1-0.9,0.1-1.3,0.2
	c-1.2,0.2-2.5,0.4-3.7,0.7c-0.4,0.1-0.9,0.2-1.3,0.3C121.4,236.1,120.6,236.3,119.8,236.5 M138,351.4c-16.1,1.9-29.9,1.2-37.5,0.8
	c3.3-6.6,9.7-19.2,19.4-32.1c0.6,0.1,1.1,0.2,1.6,0.3c0.6,0.1,1.2,0.3,1.8,0.4c0.8,0.2,1.5,0.3,2.3,0.4c0.6,0.1,1.1,0.2,1.7,0.3
	c0.8,0.1,1.6,0.3,2.3,0.4c0.5,0.1,1.1,0.2,1.6,0.3c0.8,0.1,1.6,0.2,2.4,0.3c0.5,0.1,1,0.1,1.5,0.2c0.9,0.1,1.9,0.2,2.8,0.3
	c0.4,0,0.7,0.1,1.1,0.1c1.3,0.1,2.5,0.2,3.8,0.3c0.4,0,0.8,0,1.3,0.1c0.8,0,1.7,0.1,2.5,0.1c0.6,0,1.1,0,1.6,0c0.6,0,1.2,0,1.8,0
	l0,0h0c0,0.1-0.1,0.2-0.1,0.2c-1,1.8-2,3.7-3,5.6c-0.2,0.4-0.4,0.7-0.5,1.1c-0.9,1.9-1.8,3.9-2.7,5.9c-0.1,0.3-0.3,0.6-0.4,1
	c-0.9,2.1-1.8,4.3-2.6,6.5c0,0,0,0,0,0c-0.8,2.2-1.6,4.5-2.3,6.8C138.1,350.9,138,351.1,138,351.4 M174.2,177.6
	c-0.7-0.4-1.4-0.8-2.1-1.1c0.9-16.2,4-29.9,5.8-37.1c5.9,4.4,17.2,12.9,28.3,24.7c-0.3,0.7-0.6,1.4-0.8,2.1
	c-0.2,0.5-0.4,0.9-0.5,1.3c-0.5,1.3-1,2.6-1.5,3.9c0,0.1-0.1,0.2-0.1,0.4c-0.4,1.2-0.8,2.4-1.2,3.6c-0.1,0.5-0.3,0.9-0.4,1.3
	c-0.3,0.9-0.5,1.7-0.8,2.6c-0.1,0.5-0.3,1-0.4,1.5c-0.2,0.8-0.5,1.6-0.7,2.4c-0.1,0.5-0.3,1-0.4,1.5c-0.2,0.8-0.4,1.6-0.6,2.4
	c-0.1,0.5-0.2,1-0.3,1.5c-0.2,0.8-0.4,1.7-0.5,2.5c-0.1,0.4-0.2,0.9-0.3,1.3c0,0.2-0.1,0.3-0.1,0.5l0,0l0,0.1
	c-0.1-0.1-0.2-0.2-0.3-0.3c-0.4-0.3-0.7-0.6-1.1-0.9c-0.6-0.5-1.3-1-1.9-1.5c-0.4-0.3-0.8-0.6-1.3-1c-0.6-0.5-1.3-1-1.9-1.4
	c-0.4-0.3-0.9-0.6-1.3-0.9c-0.7-0.5-1.4-0.9-2.1-1.4c-0.4-0.3-0.9-0.6-1.3-0.9c-0.8-0.5-1.5-1-2.3-1.5c-0.4-0.2-0.8-0.5-1.2-0.7
	c-1.1-0.7-2.3-1.4-3.4-2.1c0,0-0.1-0.1-0.1-0.1c-1.2-0.7-2.5-1.4-3.7-2.1C175,178,174.6,177.8,174.2,177.6 M138.3,299.5
	c0.8-0.7,1.5-1.4,2.3-2.1c0.3-0.3,0.7-0.6,1-0.9c0.5-0.4,1-0.8,1.5-1.2c0.8,0.3,1.6,0.5,2.3,0.7c0.2,0.1,0.4,0.1,0.6,0.2
	c1.2,0.4,2.3,0.7,3.5,1c0.3,0.1,0.6,0.2,1,0.2c0.9,0.2,1.7,0.4,2.6,0.6c0.4,0.1,0.8,0.2,1.3,0.3c0.8,0.2,1.5,0.3,2.3,0.5
	c0.4,0.1,0.9,0.2,1.3,0.2c0.8,0.1,1.6,0.3,2.4,0.4c0.4,0.1,0.7,0.1,1.1,0.2c1.1,0.2,2.3,0.3,3.4,0.4c0.1,0,0.2,0,0.3,0
	c0.8,0.1,1.7,0.1,2.5,0.2l-0.1,0.1l0.2,0c-0.1,0.1-0.2,0.2-0.3,0.3c-1.2,1.1-2.4,2.3-3.5,3.6c-0.2,0.2-0.4,0.4-0.5,0.6
	c-1.2,1.3-2.4,2.7-3.6,4.2c-0.2,0.3-0.5,0.6-0.7,0.9c-1.2,1.5-2.3,2.9-3.4,4.5c-0.1,0.2-0.2,0.4-0.4,0.5c-1,1.5-2,3-3,4.5
	c-0.1,0.2-0.2,0.3-0.4,0.5c-0.5,0-1,0-1.5,0c-0.7,0-1.4,0-2.1,0c-0.1,0-0.1,0-0.2,0c-3.5-0.1-7.1-0.3-10.8-0.7c0,0,0,0,0,0
	c-1-0.1-2-0.2-3-0.4c-0.4,0-0.7-0.1-1.1-0.1c-0.8-0.1-1.7-0.2-2.5-0.4c-0.6-0.1-1.1-0.2-1.7-0.3c-0.7-0.1-1.4-0.2-2.1-0.4
	c-0.7-0.1-1.4-0.3-2.1-0.4c-0.6-0.1-1.3-0.2-1.9-0.4c-0.3-0.1-0.5-0.1-0.8-0.2c0.2-0.2,0.4-0.5,0.6-0.7c0.4-0.5,0.7-0.9,1.1-1.4
	c0.5-0.6,1-1.3,1.6-1.9c0.4-0.4,0.8-0.9,1.1-1.3c0.5-0.6,1.1-1.2,1.6-1.8c0.4-0.4,0.8-0.8,1.1-1.3c0.6-0.6,1.1-1.2,1.7-1.8
	c0.4-0.4,0.7-0.8,1.1-1.1c0.6-0.7,1.3-1.3,1.9-2c0.3-0.3,0.6-0.6,0.9-0.9c0.9-0.9,1.9-1.8,2.8-2.7
	C137.9,299.8,138.1,299.7,138.3,299.5 M136.5,267.4c0.9-0.4,1.9-0.8,2.8-1.1c0.4-0.2,0.9-0.3,1.3-0.5c0.6-0.2,1.2-0.4,1.7-0.6
	c0.6,0.5,1.3,1,1.9,1.5c0.2,0.1,0.4,0.3,0.6,0.4c1,0.7,2,1.4,3,2.1c0.3,0.2,0.5,0.4,0.8,0.5c0.7,0.5,1.5,1,2.2,1.5
	c0.3,0.2,0.7,0.4,1.1,0.7c0.7,0.4,1.4,0.8,2,1.2c0.4,0.2,0.7,0.4,1.1,0.6c0.7,0.4,1.5,0.8,2.2,1.2c0.3,0.2,0.6,0.3,0.9,0.5
	c1,0.5,2.1,1.1,3.1,1.6c0.1,0,0.2,0.1,0.2,0.1c0.8,0.4,1.6,0.7,2.3,1.1l-0.2,0.1l0.2,0.1c-0.7,0.3-1.5,0.7-2.2,1
	c-0.1,0.1-0.3,0.1-0.4,0.2c-1,0.5-2.1,1-3.1,1.5c-0.3,0.2-0.6,0.3-0.9,0.5c-0.7,0.4-1.4,0.8-2.2,1.2c-0.4,0.2-0.7,0.4-1.1,0.6
	c-0.7,0.4-1.3,0.8-2,1.2c-0.4,0.2-0.7,0.4-1.1,0.7c-0.7,0.5-1.5,1-2.2,1.5c-0.3,0.2-0.6,0.4-0.8,0.5c-1,0.7-2,1.4-3,2.1
	c-0.2,0.1-0.4,0.3-0.6,0.4c-0.6,0.5-1.3,1-1.9,1.5c-0.6-0.2-1.3-0.4-1.9-0.7c-0.4-0.1-0.8-0.3-1.2-0.4c-1-0.4-2-0.8-3.1-1.2
	c-0.2-0.1-0.4-0.1-0.5-0.2c-1.2-0.5-2.4-1-3.6-1.6c-0.3-0.2-0.7-0.3-1-0.5c-0.9-0.4-1.7-0.8-2.6-1.2c-0.4-0.2-0.9-0.5-1.3-0.7
	c-0.8-0.4-1.5-0.8-2.3-1.2c-0.5-0.3-1-0.5-1.5-0.8c-0.7-0.4-1.4-0.8-2.1-1.2c-0.5-0.3-1-0.6-1.5-0.9c-0.7-0.4-1.4-0.8-2.1-1.3
	c-0.5-0.3-1-0.6-1.5-0.9c-0.3-0.2-0.5-0.3-0.8-0.5c0.3-0.2,0.5-0.3,0.8-0.5c0.5-0.3,1-0.6,1.5-0.9c0.7-0.4,1.4-0.8,2.1-1.2
	c0.5-0.3,1-0.6,1.5-0.9c0.7-0.4,1.4-0.8,2.1-1.2c0.5-0.3,1-0.5,1.5-0.8c0.7-0.4,1.5-0.8,2.2-1.1c0.5-0.2,0.9-0.5,1.4-0.7
	c0.8-0.4,1.7-0.8,2.5-1.2c0.4-0.2,0.7-0.3,1.1-0.5c1.2-0.5,2.4-1.1,3.6-1.6C136,267.6,136.2,267.5,136.5,267.4 M199.3,345.5
	c0-0.5,0-1,0-1.5c0-0.7,0-1.4,0-2.1c0-0.5,0-0.9,0-1.4c0-0.8,0.1-1.5,0.1-2.3c0-0.4,0-0.8,0.1-1.2c0.1-1.1,0.2-2.2,0.3-3.3
	c0-0.4,0.1-0.7,0.1-1.1c0.1-0.7,0.2-1.3,0.3-2c0.7-0.6,1.4-1.3,2.1-1.9c0.6-0.5,1.2-1.1,1.8-1.6c0.8-0.8,1.6-1.6,2.4-2.4
	c0.5-0.5,1.1-1.1,1.6-1.6c0.8-0.9,1.6-1.8,2.4-2.8c0.4-0.5,0.9-1,1.3-1.5c1.2-1.5,2.3-2.9,3.4-4.5c-0.2,1.9-0.3,3.7-0.3,5.6
	c0,0.6,0,1.2,0,1.8c0,1.3,0,2.5,0.1,3.8c0,0.7,0.1,1.5,0.2,2.2c0.1,1.1,0.2,2.3,0.3,3.4c0.1,0.8,0.2,1.6,0.3,2.4
	c0.1,1,0.2,1.9,0.4,2.9c-0.4,0.6-0.7,1.2-1.1,1.7c-0.2,0.3-0.3,0.6-0.5,0.8c-0.6,0.9-1.2,1.8-1.9,2.8c-0.2,0.3-0.4,0.5-0.6,0.8
	c-0.5,0.7-1,1.3-1.5,2c-0.3,0.3-0.5,0.7-0.8,1c-0.5,0.6-0.9,1.1-1.4,1.7c-0.3,0.4-0.6,0.7-0.9,1c-0.5,0.5-0.9,1.1-1.4,1.6
	c-0.3,0.3-0.6,0.7-0.9,1c-0.5,0.5-1,1.1-1.5,1.6c-0.3,0.3-0.6,0.7-1,1c-0.6,0.6-1.1,1.1-1.7,1.7c-0.3,0.3-0.6,0.6-0.9,0.9
	c-0.1,0.1-0.1,0.1-0.2,0.2c0-0.1,0-0.2,0-0.3c0-0.4-0.1-0.8-0.1-1.2c-0.1-0.8-0.2-1.6-0.2-2.4c0-0.5-0.1-0.9-0.1-1.4
	c-0.1-0.7-0.1-1.4-0.1-2.1c0-0.5,0-1-0.1-1.5C199.3,346.8,199.3,346.1,199.3,345.5 M179,328.8c0.7-1.8,1.4-3.5,2.2-5.2
	c0.1-0.1,0.1-0.3,0.2-0.4c0.8-1.6,1.6-3.2,2.4-4.8c0.1-0.1,0.2-0.3,0.2-0.4c0.9-0.3,1.8-0.7,2.7-1.1c0.7-0.3,1.5-0.6,2.2-0.9
	c1-0.4,2-0.9,3-1.4c0.7-0.3,1.4-0.6,2.1-1c1.1-0.6,2.1-1.2,3.2-1.8c0.6-0.3,1.1-0.6,1.7-1c1.6-1,3.2-2,4.7-3.1
	c-0.8,1.7-1.5,3.4-2.2,5.2c-0.2,0.6-0.4,1.2-0.6,1.8c-0.4,1.2-0.8,2.3-1.2,3.5c-0.2,0.7-0.4,1.4-0.6,2.1c-0.3,1.1-0.6,2.2-0.9,3.3
	c-0.2,0.7-0.3,1.5-0.5,2.3c-0.2,1-0.4,1.9-0.6,2.9c-0.1,0.1-0.3,0.2-0.4,0.3c-1.4,1.1-2.9,2.2-4.4,3.3c-0.1,0.1-0.2,0.1-0.3,0.2
	c-1.5,1.1-3.2,2.1-4.8,3.1c-0.3,0.2-0.5,0.3-0.8,0.5c-1.6,0.9-3.2,1.8-4.9,2.7c-0.3,0.2-0.6,0.3-0.9,0.5c-1.7,0.9-3.5,1.7-5.3,2.5
	c0,0-0.1,0-0.1,0.1c0-0.1,0-0.1,0-0.2c0.5-1.9,1-3.8,1.5-5.7c0.1-0.4,0.2-0.7,0.3-1.1c0.6-1.8,1.1-3.6,1.8-5.3
	C178.7,329.4,178.9,329.1,179,328.8 M156.7,319.8c-0.1,0-0.2,0-0.3,0c0.1-0.1,0.1-0.2,0.1-0.2c0.2-0.3,0.4-0.7,0.7-1
	c0.4-0.7,0.9-1.3,1.3-2c0.3-0.4,0.5-0.8,0.8-1.1c0.4-0.6,0.9-1.2,1.3-1.7c0.3-0.4,0.6-0.8,0.9-1.1c0.4-0.6,0.9-1.1,1.3-1.6
	c0.3-0.4,0.6-0.7,0.9-1.1c0.5-0.6,0.9-1.1,1.4-1.6c0.3-0.3,0.6-0.7,0.9-1c0.5-0.6,1.1-1.2,1.7-1.7c0.2-0.2,0.5-0.5,0.7-0.7
	c0.8-0.8,1.6-1.6,2.4-2.3c0.2-0.2,0.5-0.4,0.7-0.6c0.5-0.5,1-0.9,1.6-1.4c0.6,0,1.1,0,1.7-0.1c6.9-0.1,13.6-1,20.2-2.8
	c-1.3,1.3-2.6,2.7-3.9,4.1c-0.4,0.5-0.8,1-1.3,1.5c-0.8,0.9-1.6,1.9-2.3,2.8c-0.5,0.6-0.9,1.3-1.3,1.9c-0.6,0.9-1.3,1.8-1.9,2.7
	c-0.4,0.7-0.9,1.4-1.3,2.1c-0.5,0.8-1,1.6-1.5,2.4c-0.7,0.2-1.4,0.5-2.1,0.7c-0.2,0.1-0.5,0.2-0.7,0.2c-1.1,0.3-2.2,0.6-3.3,0.9
	c-0.3,0.1-0.6,0.1-0.9,0.2c-0.8,0.2-1.6,0.4-2.5,0.6c-0.4,0.1-0.8,0.2-1.2,0.3c-0.7,0.1-1.4,0.3-2.2,0.4c-0.5,0.1-0.9,0.2-1.4,0.2
	c-0.7,0.1-1.4,0.2-2.1,0.3c-0.5,0.1-0.9,0.1-1.4,0.2c-0.7,0.1-1.5,0.2-2.2,0.3c-0.5,0-0.9,0.1-1.4,0.1c-0.8,0.1-1.6,0.1-2.4,0.2
	C157.5,319.7,157.1,319.8,156.7,319.8 M118.4,316c-15.7-3.7-28.8-9.2-35.5-12.1c5.3-5,15.7-14.7,29.2-23.5c0.7,0.4,1.3,0.8,2,1.2
	c0.4,0.2,0.8,0.5,1.2,0.7c1.2,0.7,2.4,1.5,3.7,2.2c0.1,0,0.1,0.1,0.2,0.1c1.2,0.7,2.3,1.3,3.5,1.9c0.4,0.2,0.8,0.4,1.2,0.6
	c0.8,0.4,1.6,0.8,2.4,1.3c0.5,0.2,0.9,0.5,1.4,0.7c0.8,0.4,1.5,0.7,2.3,1.1c0.5,0.2,1,0.5,1.5,0.7c0.7,0.3,1.5,0.7,2.2,1
	c0.5,0.2,1,0.4,1.5,0.6c0.8,0.3,1.5,0.6,2.3,0.9c0.5,0.2,0.9,0.4,1.4,0.5c0.1,0,0.3,0.1,0.4,0.2l0,0l0,0c-0.1,0.1-0.2,0.2-0.3,0.3
	c-0.4,0.3-0.8,0.7-1.2,1c-0.6,0.5-1.2,1-1.8,1.6c-0.4,0.4-0.8,0.7-1.2,1.1c-0.6,0.5-1.1,1.1-1.7,1.6c-0.4,0.4-0.8,0.8-1.2,1.2
	c-0.6,0.6-1.1,1.1-1.7,1.7c-0.4,0.4-0.8,0.8-1.1,1.2c-0.6,0.6-1.2,1.3-1.8,2c-0.3,0.4-0.7,0.7-1,1.1c-0.9,0.9-1.7,1.9-2.5,2.9
	c-0.1,0.1-0.1,0.2-0.2,0.3c-0.9,1.1-1.8,2.2-2.7,3.3c-0.3,0.4-0.6,0.7-0.9,1.1C119.3,314.8,118.9,315.4,118.4,316 M292.7,345.9
	c-2.1-0.7-4.2-1.4-6.3-2.2c-0.2-0.1-0.3-0.1-0.5-0.2c0-0.2-0.1-0.4-0.2-0.6c-0.4-1.8-0.8-3.5-1.3-5.2c-0.1-0.2-0.1-0.4-0.2-0.7
	c-0.5-1.8-1.1-3.6-1.6-5.4c-0.1-0.4-0.3-0.8-0.4-1.1c-0.6-1.7-1.2-3.4-1.9-5.1c-0.1-0.2-0.2-0.5-0.3-0.7c-0.7-1.5-1.3-3.1-2.1-4.5
	c-0.1-0.1-0.1-0.3-0.2-0.4l0.2,0.1l-0.1-0.2c0.1,0,0.3,0.1,0.4,0.1c1.6,0.5,3.3,0.9,4.9,1.3c0.2,0.1,0.5,0.1,0.7,0.2
	c1.8,0.4,3.6,0.7,5.4,1c0.4,0.1,0.8,0.1,1.1,0.2c1.8,0.3,3.7,0.5,5.6,0.7c0.2,0,0.4,0,0.6,0c1.8,0.2,3.6,0.3,5.5,0.3
	c0.2,0,0.4,0,0.6,0c0.1,0.2,0.2,0.3,0.3,0.5c1.1,1.9,2.2,3.8,3.2,5.8c0,0,0,0.1,0,0.1c1,2,2,4,2.9,6.1c0.1,0.2,0.2,0.5,0.3,0.7
	c0.9,2,1.7,4.1,2.6,6.2c0.1,0.4,0.3,0.7,0.4,1.1c0.8,2.1,1.5,4.2,2.3,6.4c0.1,0.2,0.1,0.3,0.2,0.5c-0.2,0-0.3,0-0.5-0.1
	c-2.3-0.3-4.5-0.7-6.7-1.1c-0.4-0.1-0.8-0.2-1.2-0.2c-2.2-0.4-4.4-0.9-6.5-1.5c-0.3-0.1-0.5-0.1-0.8-0.2c-2.2-0.6-4.4-1.2-6.5-1.8
	C292.7,345.9,292.7,345.9,292.7,345.9 M316.1,354.6c4.7,15.5,6.5,29.5,7.3,36.8c-7-2.1-20.6-6.3-35-13.5c0-0.2,0-0.4,0-0.7
	c0.1-2.4,0.2-4.8,0.1-7.2c0,0,0,0,0,0c0-2.4-0.1-4.7-0.2-7c0-0.3,0-0.7,0-1c-0.1-2.2-0.3-4.4-0.6-6.5c0-0.4-0.1-0.8-0.1-1.2
	c-0.3-2.1-0.6-4.2-0.9-6.3c0-0.1,0-0.2,0-0.2l0,0l0,0c0.1,0,0.2,0.1,0.3,0.1c2,0.7,4,1.4,6,2c0.4,0.1,0.8,0.2,1.1,0.3
	c2.1,0.6,4.2,1.2,6.3,1.7c0.3,0.1,0.7,0.2,1,0.2c2.3,0.5,4.5,1,6.9,1.4c0,0,0,0,0,0c2.3,0.4,4.7,0.8,7.1,1.1
	C315.7,354.5,315.9,354.6,316.1,354.6 M170.1,347.7L170.1,347.7c0,0.1,0,0.2,0,0.2c-0.4,2.1-0.6,4.2-0.9,6.3c0,0.4-0.1,0.8-0.1,1.2
	c-0.2,2.1-0.4,4.3-0.6,6.5c0,0.3,0,0.7-0.1,1c-0.1,2.3-0.2,4.7-0.2,7c0,2.4,0,4.8,0.1,7.2c0,0.2,0,0.4,0,0.7
	c-14.5,7.3-27.7,11.4-35,13.5c0.8-7.3,2.6-21.3,7.3-36.8c0.2,0,0.4-0.1,0.7-0.1c2.4-0.3,4.7-0.7,7.1-1.1c0,0,0.1,0,0.1,0
	c2.3-0.4,4.6-0.9,6.8-1.4c0.4-0.1,0.7-0.2,1.1-0.2c2.1-0.5,4.2-1.1,6.2-1.7c0.4-0.1,0.8-0.2,1.2-0.4c2-0.6,4-1.3,6-2
	C169.9,347.7,170,347.7,170.1,347.7L170.1,347.7z M284.9,367.5c0,0.4,0,0.8,0,1.2c0,2.2,0,4.5-0.1,6.8c0,0.2,0,0.4,0,0.5
	c-0.3-0.1-0.5-0.3-0.8-0.4c-0.5-0.3-1-0.6-1.6-0.9c-0.7-0.4-1.4-0.8-2.1-1.2c-0.5-0.3-1-0.6-1.6-0.9c-0.7-0.4-1.3-0.8-2-1.2
	c-0.5-0.3-1-0.6-1.5-0.9c-0.7-0.4-1.3-0.9-2-1.3c-0.5-0.3-0.9-0.6-1.4-0.9c-0.7-0.5-1.4-1-2.1-1.5c-0.4-0.3-0.8-0.5-1.1-0.8
	c-1-0.8-2.1-1.5-3.1-2.3c-0.3-0.2-0.5-0.4-0.8-0.6c-0.7-0.6-1.5-1.2-2.2-1.7c-0.4-0.3-0.8-0.7-1.2-1c-0.5-0.4-0.9-0.8-1.3-1.1
	c0-0.2,0-0.5,0.1-0.7c0.2-1.8,0.4-3.5,0.6-5.3c0-0.2,0-0.5,0.1-0.7c0.2-1.9,0.2-3.8,0.3-5.6c0-0.4,0-0.8,0-1.2c0-1.8,0-3.7-0.1-5.5
	c0-0.2,0-0.5,0-0.7c-0.1-1.7-0.2-3.4-0.4-5c0-0.1,0-0.3,0-0.4l0.2,0.1l0-0.2c0.1,0.1,0.2,0.2,0.3,0.2c1.4,1,2.8,2,4.2,2.9
	c0.2,0.1,0.4,0.3,0.6,0.4c1.5,1,3.1,1.9,4.7,2.8c0.3,0.2,0.7,0.4,1,0.6c1.6,0.9,3.3,1.7,5,2.6c0.2,0.1,0.4,0.2,0.5,0.2
	c1.6,0.8,3.3,1.5,5,2.2c0.2,0.1,0.4,0.2,0.6,0.2c0,0.2,0.1,0.4,0.1,0.6c0.4,2.1,0.7,4.2,1,6.4c0,0.1,0,0.1,0,0.2
	c0.3,2.2,0.5,4.4,0.7,6.6c0,0.3,0,0.6,0.1,0.8C284.8,363.1,284.9,365.3,284.9,367.5 M337,320c9.7,13,16.2,25.6,19.4,32.1
	c-7.6,0.5-21.4,1.1-37.5-0.8c-0.1-0.2-0.1-0.4-0.2-0.6c-0.7-2.3-1.5-4.6-2.3-6.8c0,0,0,0,0,0c-0.8-2.2-1.7-4.4-2.6-6.5
	c-0.1-0.3-0.3-0.7-0.4-1c-0.9-2-1.8-4-2.7-5.9c-0.2-0.4-0.4-0.7-0.5-1.1c-1-1.9-2-3.8-3-5.6c0-0.1-0.1-0.2-0.1-0.2h0l0,0
	c0.6,0,1.2,0,1.8,0c0.6,0,1.1,0,1.7,0c0.8,0,1.6-0.1,2.4-0.1c0.4,0,0.9,0,1.3-0.1c1.2-0.1,2.5-0.2,3.8-0.3c0.5,0,0.9-0.1,1.4-0.1
	c0.8-0.1,1.6-0.2,2.5-0.3c0.6-0.1,1.1-0.2,1.7-0.2c0.7-0.1,1.5-0.2,2.2-0.3c0.6-0.1,1.2-0.2,1.8-0.3c0.7-0.1,1.4-0.2,2.2-0.4
	c0.6-0.1,1.2-0.2,1.8-0.3c0.7-0.1,1.4-0.3,2.2-0.4c0.6-0.1,1.2-0.2,1.8-0.4C335.9,320.2,336.5,320.1,337,320 M344.7,280.3
	c13.5,8.9,23.9,18.5,29.2,23.6c-6.8,3-19.7,8.4-35.5,12.1c-0.5-0.6-0.9-1.2-1.4-1.8c-0.3-0.4-0.6-0.7-0.9-1.1
	c-0.9-1.1-1.8-2.2-2.7-3.2c-0.1-0.1-0.1-0.1-0.2-0.2c-0.9-1-1.7-2-2.6-2.9c-0.3-0.4-0.6-0.7-1-1c-0.6-0.7-1.2-1.3-1.8-2
	c-0.4-0.4-0.7-0.8-1.1-1.2c-0.6-0.6-1.2-1.2-1.7-1.8c-0.4-0.4-0.8-0.8-1.2-1.2c-0.6-0.6-1.2-1.1-1.7-1.7c-0.4-0.4-0.8-0.7-1.2-1.1
	c-0.6-0.5-1.2-1.1-1.8-1.6c-0.4-0.3-0.8-0.7-1.2-1c-0.1-0.1-0.2-0.2-0.3-0.3l0.1,0l0,0c0.1-0.1,0.3-0.1,0.4-0.2
	c0.4-0.2,0.9-0.3,1.3-0.5c0.8-0.3,1.6-0.6,2.3-0.9c0.5-0.2,0.9-0.4,1.4-0.6c0.8-0.3,1.5-0.7,2.3-1c0.5-0.2,0.9-0.4,1.4-0.6
	c0.8-0.4,1.6-0.7,2.3-1.1c0.4-0.2,0.9-0.4,1.3-0.6c0.9-0.4,1.7-0.9,2.6-1.3c0.4-0.2,0.7-0.4,1.1-0.6c2.5-1.3,4.9-2.7,7.4-4.2
	c0.4-0.2,0.7-0.4,1.1-0.7C343.4,281.2,344,280.8,344.7,280.3 M338.4,240.4c15.8,3.7,28.7,9.1,35.5,12.1c-5.3,5-15.7,14.7-29.2,23.5
	c-0.6-0.4-1.3-0.8-1.9-1.2c-0.4-0.3-0.8-0.5-1.3-0.8c-1.2-0.7-2.4-1.5-3.7-2.1c-0.1,0-0.2-0.1-0.2-0.1c-1.1-0.6-2.3-1.3-3.4-1.9
	c-0.4-0.2-0.8-0.4-1.2-0.6c-0.8-0.4-1.6-0.9-2.5-1.3c-0.5-0.2-0.9-0.5-1.4-0.7c-0.8-0.4-1.5-0.7-2.3-1.1c-0.5-0.2-1-0.4-1.5-0.7
	c-0.7-0.3-1.5-0.7-2.2-1c-0.5-0.2-1-0.4-1.4-0.6c-0.8-0.3-1.5-0.6-2.3-0.9c-0.4-0.2-0.9-0.4-1.3-0.5c-0.1-0.1-0.3-0.1-0.4-0.2l0,0
	l-0.1,0c0.1-0.1,0.3-0.2,0.4-0.3c0.3-0.3,0.7-0.6,1-0.9c0.7-0.6,1.3-1.2,2-1.7c0.4-0.3,0.7-0.7,1.1-1c0.6-0.6,1.2-1.2,1.8-1.7
	c0.4-0.4,0.7-0.7,1.1-1.1c0.6-0.6,1.2-1.2,1.8-1.8c0.4-0.4,0.7-0.7,1.1-1.1c0.6-0.7,1.3-1.4,1.9-2c0.3-0.3,0.6-0.7,0.9-1
	c0.9-1,1.8-2,2.6-3c0,0,0.1-0.1,0.1-0.1c0.9-1.1,1.8-2.2,2.7-3.3c0.3-0.4,0.6-0.8,0.9-1.1C337.5,241.6,338,241,338.4,240.4
	 M172.7,375.6c-0.3,0.1-0.5,0.3-0.8,0.4c0-0.2,0-0.3,0-0.5c-0.1-2.3-0.1-4.6-0.1-6.8c0-0.4,0-0.8,0-1.2c0-2.3,0.1-4.5,0.3-6.7
	c0-0.3,0-0.5,0.1-0.8c0.2-2.3,0.4-4.5,0.7-6.7c0-0.1,0-0.1,0-0.2c0.3-2.2,0.6-4.4,1-6.5c0-0.2,0.1-0.4,0.1-0.6
	c0.2-0.1,0.4-0.2,0.6-0.2c1.7-0.7,3.4-1.4,5-2.2c0.2-0.1,0.3-0.2,0.5-0.2c1.7-0.8,3.4-1.7,5-2.6c0.3-0.2,0.7-0.4,1-0.6
	c1.6-0.9,3.2-1.8,4.7-2.8c0.2-0.1,0.4-0.3,0.7-0.4c1.4-0.9,2.8-1.9,4.2-2.9c0.1-0.1,0.2-0.2,0.3-0.2l0,0.2l0.2-0.1
	c-0.1,0.9-0.2,1.8-0.3,2.7c0,0.1,0,0.1,0,0.2c-0.1,1.2-0.2,2.3-0.2,3.5c0,0.3,0,0.7,0,1c0,0.8,0,1.7,0,2.5c0,0.4,0,0.8,0,1.3
	c0,0.8,0,1.6,0.1,2.4c0,0.4,0,0.8,0,1.3c0,0.9,0.1,1.8,0.2,2.7c0,0.3,0,0.6,0.1,1c0.1,1.2,0.2,2.4,0.4,3.6c0,0.2,0.1,0.4,0.1,0.7
	c0.1,0.8,0.2,1.6,0.3,2.4c-0.5,0.4-1,0.8-1.4,1.2c-0.4,0.3-0.7,0.6-1.1,0.9c-0.8,0.7-1.7,1.3-2.5,2c-0.2,0.1-0.3,0.3-0.5,0.4
	c-1,0.8-2.1,1.6-3.2,2.3c-0.3,0.2-0.6,0.4-0.9,0.7c-0.8,0.5-1.5,1.1-2.3,1.6c-0.4,0.3-0.8,0.6-1.3,0.8c-0.7,0.5-1.4,0.9-2.1,1.4
	c-0.5,0.3-0.9,0.6-1.4,0.9c-0.7,0.4-1.4,0.9-2.1,1.3c-0.5,0.3-1,0.6-1.5,0.9c-0.7,0.4-1.4,0.8-2.2,1.2
	C173.8,375.1,173.3,375.4,172.7,375.6 M205.3,390.2c0.3,0.7,0.6,1.5,0.9,2.2c-11.1,11.8-22.1,20.2-28.3,24.7
	c-1.7-7.2-4.8-20.9-5.8-37.1c0.6-0.3,1.3-0.7,1.9-1c0.5-0.3,0.9-0.5,1.4-0.8c1.2-0.6,2.3-1.3,3.5-2c0.2-0.1,0.4-0.3,0.7-0.4
	c1-0.6,2.1-1.2,3.1-1.9c0.4-0.3,0.8-0.5,1.3-0.8c0.7-0.5,1.5-1,2.2-1.4c0.5-0.3,0.9-0.6,1.4-0.9c0.7-0.5,1.3-0.9,2-1.4
	c0.5-0.3,0.9-0.6,1.4-1c0.6-0.5,1.3-0.9,1.9-1.4c0.4-0.3,0.9-0.6,1.3-1c0.6-0.5,1.3-1,1.9-1.5c0.4-0.3,0.8-0.6,1.2-0.9
	c0.1-0.1,0.2-0.2,0.3-0.3l0,0.1l0,0c0,0.2,0.1,0.3,0.1,0.5c0.1,0.4,0.2,0.9,0.3,1.3c0.2,0.8,0.3,1.7,0.5,2.5c0.1,0.5,0.2,1,0.3,1.4
	c0.2,0.8,0.4,1.6,0.6,2.5c0.1,0.5,0.3,1,0.4,1.5c0.2,0.8,0.4,1.7,0.7,2.5c0.1,0.5,0.3,1,0.4,1.5c0.3,0.9,0.5,1.8,0.8,2.7
	c0.1,0.4,0.3,0.8,0.4,1.3c0.4,1.3,0.8,2.5,1.3,3.8c0,0,0,0.1,0,0.1c0.5,1.3,1,2.7,1.5,4C204.9,389.4,205.1,389.8,205.3,390.2
	 M172.4,337.6c-0.5,1.7-0.9,3.5-1.3,5.3c0,0.2-0.1,0.4-0.2,0.6c-0.2,0.1-0.4,0.1-0.5,0.2c-2,0.8-4.1,1.5-6.2,2.2c0,0-0.1,0-0.1,0
	c-2.1,0.7-4.3,1.3-6.5,1.8c-0.2,0.1-0.5,0.1-0.7,0.2c-2.2,0.5-4.3,1-6.6,1.5c-0.4,0.1-0.7,0.2-1.1,0.2c-2.2,0.4-4.4,0.8-6.7,1.1
	c-0.2,0-0.3,0-0.5,0.1c0.1-0.3,0.2-0.6,0.3-0.9c0.2-0.5,0.4-1.1,0.6-1.6c0.3-0.8,0.6-1.6,0.9-2.4c0.2-0.5,0.4-1.1,0.6-1.6
	c0.3-0.8,0.6-1.6,0.9-2.3c0.2-0.5,0.4-1,0.6-1.5c0.3-0.8,0.7-1.6,1-2.4c0.2-0.5,0.4-0.9,0.6-1.4c0.4-0.9,0.8-1.8,1.2-2.6
	c0.2-0.3,0.3-0.7,0.5-1c0.6-1.2,1.2-2.4,1.7-3.5c0.1-0.2,0.2-0.3,0.3-0.5c0.5-1,1-1.9,1.5-2.9c0.2-0.4,0.4-0.7,0.6-1.1
	c0.3-0.6,0.7-1.1,1-1.7c0.2,0,0.4,0,0.6,0c1.9-0.1,3.7-0.2,5.5-0.3c0.2,0,0.4,0,0.6,0c1.9-0.2,3.8-0.4,5.6-0.7
	c0.4-0.1,0.8-0.1,1.1-0.2c1.8-0.3,3.6-0.6,5.4-1c0.2-0.1,0.5-0.1,0.7-0.2c1.7-0.4,3.3-0.8,4.9-1.3c0.1,0,0.3-0.1,0.4-0.1l-0.1,0.2
	l0.2-0.1c-0.1,0.1-0.1,0.2-0.2,0.4c-0.7,1.5-1.4,3-2.1,4.6c-0.1,0.2-0.2,0.4-0.3,0.6c-0.7,1.7-1.3,3.4-1.9,5.1
	c-0.1,0.4-0.3,0.7-0.4,1.1c-0.6,1.8-1.1,3.6-1.7,5.4C172.5,337.2,172.4,337.4,172.4,337.6 M251.2,380.8c-0.2,0.7-0.5,1.5-0.8,2.2
	c-0.2,0.6-0.4,1.1-0.6,1.7c-0.3,0.8-0.6,1.5-0.9,2.3c-0.2,0.5-0.4,1.1-0.6,1.6c-0.1,0.3-0.2,0.6-0.3,0.8c-0.2-0.2-0.4-0.4-0.6-0.6
	c-0.4-0.5-0.8-0.9-1.2-1.4c-0.5-0.6-1.1-1.2-1.6-1.9c-0.4-0.5-0.8-0.9-1.1-1.4c-0.5-0.6-1-1.3-1.6-1.9c-0.3-0.4-0.7-0.9-1-1.3
	c-0.5-0.7-1-1.4-1.6-2.1c-0.3-0.4-0.6-0.8-0.9-1.2c-0.6-0.8-1.1-1.6-1.7-2.4c-0.2-0.3-0.4-0.6-0.6-0.9c-0.7-1.1-1.5-2.2-2.2-3.3
	c-0.1-0.2-0.2-0.4-0.4-0.6c-0.5-0.9-1.1-1.7-1.6-2.6c-0.2-0.4-0.5-0.8-0.7-1.3c-0.3-0.5-0.6-1-0.9-1.6c0.4-0.7,0.8-1.4,1.1-2.2
	c0.1-0.2,0.2-0.4,0.3-0.6c0.6-1.1,1.1-2.2,1.6-3.3c0.1-0.3,0.2-0.6,0.4-0.8c0.4-0.8,0.7-1.7,1.1-2.5c0.2-0.4,0.3-0.8,0.5-1.1
	c0.3-0.7,0.6-1.5,0.9-2.2c0.2-0.4,0.3-0.8,0.4-1.2c0.3-0.8,0.5-1.5,0.8-2.3c0.1-0.3,0.2-0.7,0.3-1c0.4-1.1,0.7-2.2,1-3.3
	c0-0.1,0-0.2,0.1-0.3c0.2-0.8,0.5-1.7,0.7-2.5l0.1,0.2l0-0.2c0.5,0.7,1,1.4,1.4,2.1c0.1,0.1,0.1,0.2,0.2,0.2
	c0.7,0.9,1.4,1.9,2.1,2.8c0.2,0.3,0.4,0.5,0.6,0.8c0.5,0.7,1.1,1.3,1.6,2c0.3,0.3,0.5,0.6,0.8,0.9c0.5,0.6,1.1,1.2,1.6,1.8
	c0.3,0.3,0.5,0.6,0.8,0.9c0.6,0.7,1.2,1.3,1.9,2c0.2,0.2,0.4,0.4,0.6,0.7c0.9,0.9,1.7,1.7,2.6,2.6c0.2,0.1,0.3,0.3,0.5,0.4
	c0.6,0.6,1.2,1.2,1.9,1.7c-0.1,0.6-0.2,1.1-0.3,1.7c-0.1,0.5-0.2,1-0.3,1.6c-0.2,0.9-0.3,1.7-0.5,2.6c-0.1,0.4-0.2,0.8-0.2,1.2
	c-0.3,1.2-0.6,2.5-0.9,3.7c-0.1,0.5-0.3,1-0.4,1.4c-0.2,0.8-0.4,1.6-0.7,2.4c-0.2,0.5-0.3,1.1-0.5,1.6c-0.2,0.7-0.5,1.5-0.7,2.2
	C251.6,379.7,251.4,380.2,251.2,380.8 M282.9,379.1c0.6,0.3,1.2,0.7,1.8,1c-0.9,16.1-4,29.9-5.8,37.1c-6.1-4.5-17.1-12.9-28.2-24.7
	c0.3-0.7,0.6-1.4,0.8-2.1c0.2-0.5,0.4-0.9,0.6-1.4c0.5-1.3,1-2.6,1.5-4c0-0.1,0.1-0.2,0.1-0.4c0.4-1.2,0.8-2.4,1.2-3.6
	c0.1-0.5,0.3-0.9,0.4-1.4c0.3-0.9,0.5-1.7,0.8-2.6c0.2-0.5,0.3-1,0.4-1.5c0.2-0.8,0.4-1.6,0.7-2.4c0.1-0.5,0.3-1,0.4-1.6
	c0.2-0.8,0.4-1.6,0.6-2.4c0.1-0.5,0.2-1,0.3-1.5c0.2-0.8,0.3-1.6,0.5-2.4c0.1-0.5,0.2-0.9,0.3-1.4c0-0.1,0.1-0.3,0.1-0.4l0,0l0-0.1
	c0.1,0.1,0.3,0.2,0.4,0.3c0.3,0.3,0.7,0.5,1,0.8c0.7,0.6,1.4,1.1,2.1,1.6c0.4,0.3,0.8,0.6,1.2,0.9c0.7,0.5,1.3,1,2,1.5
	c0.4,0.3,0.8,0.6,1.3,0.9c0.7,0.5,1.4,1,2.1,1.4c0.4,0.3,0.9,0.6,1.3,0.9c0.7,0.5,1.5,1,2.2,1.5c0.4,0.3,0.8,0.5,1.2,0.8
	c1,0.6,2,1.2,3,1.8c0.3,0.2,0.6,0.3,0.9,0.5c1.1,0.6,2.2,1.3,3.3,1.9C281.9,378.5,282.4,378.8,282.9,379.1 M245,391.4
	c0.5,0.6,1.1,1.2,1.6,1.8c-6.4,14.9-14.1,26.8-18.1,32.9c-4.1-6.1-11.7-18-18.1-32.9c0.5-0.5,1-1.1,1.5-1.6c0.3-0.4,0.7-0.8,1-1.1
	c0.9-1.1,1.8-2.1,2.7-3.2c0.1-0.1,0.2-0.2,0.2-0.3c0.8-1,1.6-2,2.4-3c0.3-0.4,0.6-0.7,0.8-1.1c0.6-0.7,1.1-1.5,1.7-2.2
	c0.3-0.4,0.6-0.8,0.9-1.3c0.5-0.7,1-1.4,1.4-2c0.3-0.4,0.6-0.9,0.9-1.3c0.5-0.7,0.9-1.3,1.3-2c0.3-0.4,0.6-0.9,0.9-1.3
	c0.4-0.7,0.9-1.4,1.3-2.1c0.3-0.4,0.5-0.9,0.8-1.3c0.1-0.1,0.2-0.3,0.2-0.4l0,0l0,0c0.1,0.1,0.2,0.3,0.2,0.4
	c0.2,0.4,0.5,0.8,0.7,1.2c0.4,0.7,0.9,1.4,1.3,2.1c0.3,0.4,0.6,0.9,0.9,1.3c0.4,0.7,0.9,1.3,1.3,2c0.3,0.5,0.6,0.9,0.9,1.3
	c0.5,0.7,0.9,1.3,1.4,2c0.3,0.4,0.6,0.9,0.9,1.3c0.5,0.7,1.1,1.5,1.7,2.2c0.3,0.4,0.6,0.7,0.8,1.1c0.8,1,1.6,2.1,2.5,3.1
	c0,0.1,0.1,0.1,0.1,0.2c0.9,1.1,1.8,2.2,2.8,3.3C244.4,390.7,244.7,391,245,391.4 M210.5,387.6c-0.3,0.4-0.7,0.8-1.1,1.2
	c-0.2,0.2-0.4,0.5-0.6,0.7c-0.1-0.3-0.2-0.5-0.3-0.8c-0.2-0.6-0.5-1.2-0.7-1.8c-0.3-0.7-0.6-1.5-0.8-2.2c-0.2-0.6-0.4-1.2-0.6-1.7
	c-0.3-0.7-0.5-1.5-0.8-2.2c-0.2-0.6-0.4-1.1-0.5-1.7c-0.2-0.8-0.5-1.5-0.7-2.3c-0.2-0.5-0.3-1.1-0.5-1.6c-0.2-0.8-0.5-1.7-0.7-2.5
	c-0.1-0.4-0.2-0.9-0.4-1.3c-0.3-1.3-0.6-2.5-0.9-3.7c-0.1-0.3-0.1-0.7-0.2-1c-0.2-0.9-0.4-1.8-0.6-2.8c-0.1-0.5-0.2-1-0.3-1.5
	c-0.1-0.6-0.2-1.2-0.3-1.7c0.6-0.5,1.2-1.1,1.8-1.6c0.2-0.2,0.4-0.3,0.6-0.5c0.9-0.8,1.8-1.7,2.6-2.6c0.2-0.2,0.5-0.5,0.7-0.7
	c0.6-0.6,1.2-1.3,1.8-1.9c0.3-0.3,0.6-0.6,0.9-0.9c0.5-0.6,1.1-1.2,1.6-1.8c0.3-0.3,0.5-0.6,0.8-1c0.5-0.6,1.1-1.3,1.6-2
	c0.2-0.3,0.4-0.5,0.6-0.8c0.7-0.9,1.4-1.9,2.1-2.8c0.1-0.1,0.1-0.2,0.2-0.3c0.5-0.7,1-1.4,1.4-2.1l0,0.2l0.1-0.2
	c0.2,0.8,0.4,1.6,0.6,2.4c0,0.1,0.1,0.2,0.1,0.4c0.3,1.1,0.6,2.2,1,3.3c0.1,0.3,0.2,0.7,0.3,1c0.3,0.8,0.5,1.5,0.8,2.3
	c0.1,0.4,0.3,0.8,0.4,1.2c0.3,0.7,0.6,1.5,0.9,2.2c0.2,0.4,0.3,0.8,0.5,1.2c0.3,0.8,0.7,1.6,1.1,2.4c0.1,0.3,0.3,0.6,0.4,0.9
	c0.5,1.1,1,2.2,1.6,3.3c0.1,0.2,0.2,0.4,0.3,0.6c0.4,0.7,0.7,1.4,1.1,2.1c-0.3,0.6-0.7,1.2-1,1.7c-0.2,0.4-0.4,0.7-0.6,1.1
	c-0.6,1-1.2,1.9-1.8,2.9c-0.1,0.1-0.2,0.3-0.3,0.4c-0.7,1.1-1.4,2.2-2.2,3.3c-0.2,0.3-0.4,0.6-0.6,0.8c-0.6,0.8-1.1,1.6-1.7,2.4
	c-0.3,0.4-0.6,0.8-0.9,1.1c-0.5,0.7-1.1,1.4-1.6,2.1c-0.3,0.4-0.6,0.8-1,1.2c-0.5,0.7-1.1,1.3-1.6,2c-0.3,0.4-0.7,0.8-1,1.2
	C211.6,386.2,211.1,386.9,210.5,387.6 M155.8,242.1c1.1,1.5,2.2,3,3.4,4.5c0.2,0.3,0.5,0.6,0.7,0.9c1.2,1.4,2.4,2.8,3.6,4.2
	c0.2,0.2,0.3,0.4,0.5,0.6c1.2,1.2,2.3,2.4,3.6,3.6c0.1,0.1,0.2,0.2,0.3,0.3h-0.2l0.1,0.1c-0.8,0-1.6,0.1-2.5,0.2c-0.1,0-0.3,0-0.4,0
	c-1.1,0.1-2.3,0.2-3.4,0.4c-0.4,0-0.7,0.1-1.1,0.2c-0.8,0.1-1.6,0.2-2.4,0.4c-0.4,0.1-0.9,0.2-1.3,0.2c-0.8,0.1-1.5,0.3-2.3,0.5
	c-0.4,0.1-0.8,0.2-1.3,0.3c-0.9,0.2-1.7,0.4-2.6,0.6c-0.3,0.1-0.6,0.2-1,0.2c-1.2,0.3-2.4,0.6-3.5,1c-0.2,0.1-0.4,0.1-0.6,0.2
	c-0.8,0.2-1.6,0.5-2.4,0.7c-0.5-0.4-1-0.8-1.5-1.2c-0.4-0.3-0.7-0.6-1.1-0.9c-0.8-0.7-1.5-1.3-2.3-2c-0.2-0.2-0.4-0.3-0.6-0.5
	c-0.9-0.9-1.9-1.8-2.8-2.7c-0.3-0.3-0.6-0.6-0.9-0.9c-0.7-0.7-1.3-1.3-2-2c-0.3-0.4-0.7-0.7-1-1.1c-0.6-0.6-1.2-1.2-1.7-1.9
	c-0.4-0.4-0.7-0.8-1.1-1.2c-0.5-0.6-1.1-1.2-1.6-1.9c-0.4-0.4-0.7-0.9-1.1-1.3c-0.5-0.6-1.1-1.3-1.6-1.9c-0.4-0.5-0.7-0.9-1.1-1.4
	c-0.2-0.2-0.4-0.5-0.5-0.7c0.3-0.1,0.6-0.1,0.9-0.2c0.6-0.1,1.1-0.2,1.7-0.3c0.8-0.2,1.7-0.3,2.5-0.5c0.6-0.1,1.1-0.2,1.7-0.3
	c0.8-0.1,1.6-0.3,2.4-0.4c0.6-0.1,1.1-0.2,1.7-0.2c0.8-0.1,1.6-0.2,2.4-0.3c0.6-0.1,1.1-0.1,1.7-0.2c0.8-0.1,1.6-0.2,2.3-0.2
	c0.6-0.1,1.1-0.1,1.6-0.2c1.1-0.1,2.2-0.1,3.2-0.2c0.7,0,1.3-0.1,2-0.1c0.8,0,1.6-0.1,2.4-0.1c0.5,0,1,0,1.5,0c0.6,0,1.3,0,1.9,0
	c0.1,0.2,0.2,0.3,0.3,0.5c1,1.6,2,3.1,3,4.5C155.5,241.7,155.6,241.9,155.8,242.1 M240.7,336.6c0.2-0.9,0.3-1.8,0.4-2.8
	c0.1-0.8,0.3-1.6,0.4-2.5c0.1-1.1,0.2-2.2,0.3-3.4c0.1-0.7,0.1-1.5,0.2-2.2c0.1-1.3,0.1-2.5,0.1-3.8c0-0.6,0-1.2,0-1.8
	c0-1.9-0.1-3.7-0.3-5.6c1.1,1.5,2.2,3,3.4,4.5c0.4,0.5,0.8,1,1.3,1.5c0.8,0.9,1.6,1.9,2.4,2.8c0.5,0.5,1,1.1,1.6,1.6
	c0.8,0.8,1.6,1.6,2.4,2.4c0.6,0.6,1.2,1.1,1.8,1.6c0.7,0.6,1.4,1.3,2.2,1.9c0.1,0.7,0.2,1.5,0.3,2.2c0,0.3,0.1,0.5,0.1,0.8
	c0.1,1.1,0.2,2.2,0.3,3.4c0,0.3,0,0.6,0.1,0.9c0.1,0.8,0.1,1.7,0.1,2.5c0,0.4,0,0.9,0,1.3c0,0.7,0,1.4,0,2.2c0,0.5,0,1,0,1.4
	c0,0.7,0,1.4,0,2.1c0,0.5,0,1-0.1,1.5c0,0.7-0.1,1.4-0.1,2.1c0,0.5-0.1,0.9-0.1,1.4c-0.1,0.8-0.2,1.6-0.2,2.4c0,0.4-0.1,0.8-0.1,1.2
	c0,0.1,0,0.2,0,0.3c-0.1-0.1-0.1-0.1-0.2-0.2c-0.3-0.3-0.6-0.6-0.9-0.9c-0.6-0.5-1.1-1.1-1.7-1.7c-0.3-0.3-0.6-0.7-1-1
	c-0.5-0.5-1-1.1-1.5-1.6c-0.3-0.3-0.6-0.7-0.9-1c-0.5-0.6-1-1.1-1.5-1.7c-0.3-0.3-0.6-0.7-0.9-1c-0.5-0.6-1-1.2-1.4-1.8
	c-0.2-0.3-0.5-0.6-0.7-0.9c-0.5-0.7-1.1-1.4-1.6-2.1c-0.2-0.2-0.3-0.4-0.5-0.6c-0.7-0.9-1.3-1.9-1.9-2.8c-0.1-0.2-0.3-0.4-0.4-0.6
	C241.4,337.8,241,337.2,240.7,336.6 M257.9,320.4c-0.2-0.7-0.4-1.4-0.6-2.1c-0.4-1.2-0.8-2.4-1.3-3.6c-0.2-0.6-0.4-1.1-0.6-1.7
	c-0.7-1.8-1.4-3.5-2.2-5.2c1.5,1.1,3.1,2.1,4.7,3.1c0.6,0.3,1.1,0.6,1.7,1c1.1,0.6,2.1,1.2,3.2,1.8c0.7,0.4,1.4,0.7,2.1,1
	c1,0.5,2,1,3,1.4c0.7,0.3,1.5,0.6,2.3,0.9c0.9,0.4,1.7,0.7,2.6,1.1c0.1,0.2,0.2,0.3,0.2,0.5c0.9,1.6,1.7,3.2,2.4,4.8
	c0.1,0.1,0.1,0.2,0.2,0.4c0.8,1.7,1.5,3.4,2.2,5.2c0.1,0.3,0.2,0.6,0.4,0.9c0.6,1.7,1.2,3.5,1.8,5.3c0.1,0.3,0.2,0.7,0.3,1
	c0.5,1.8,1.1,3.7,1.5,5.6c0,0.1,0,0.1,0,0.2c0,0-0.1,0-0.1-0.1c-1.8-0.8-3.6-1.6-5.3-2.5c-0.3-0.2-0.6-0.3-1-0.5
	c-1.7-0.9-3.3-1.7-4.9-2.7c-0.3-0.2-0.6-0.3-0.9-0.5c-1.6-1-3.2-2-4.8-3.1c-0.1-0.1-0.2-0.2-0.3-0.2c-1.5-1.1-3-2.1-4.4-3.3
	c-0.1-0.1-0.3-0.2-0.4-0.3c-0.2-1-0.4-1.9-0.6-2.9c-0.2-0.8-0.3-1.5-0.5-2.3C258.5,322.6,258.2,321.5,257.9,320.4 M320.6,289
	c-1,0.4-2,0.8-3.1,1.2c-0.4,0.2-0.8,0.3-1.2,0.4c-0.6,0.2-1.2,0.4-1.9,0.7c-0.6-0.5-1.3-1-1.9-1.5c-0.2-0.1-0.4-0.3-0.6-0.4
	c-1-0.7-2-1.4-3-2.1c-0.3-0.2-0.6-0.4-0.8-0.6c-0.7-0.5-1.5-1-2.2-1.4c-0.4-0.2-0.7-0.5-1.1-0.7c-0.7-0.4-1.3-0.8-2-1.2
	c-0.4-0.2-0.7-0.4-1.1-0.6c-0.7-0.4-1.4-0.8-2.1-1.2c-0.3-0.2-0.6-0.4-1-0.5c-1-0.5-2.1-1.1-3.1-1.6c-0.1-0.1-0.3-0.1-0.4-0.2
	c-0.7-0.3-1.5-0.7-2.2-1l0.2-0.1l-0.2-0.1c0.8-0.3,1.5-0.7,2.3-1c0.1,0,0.2-0.1,0.3-0.1c1-0.5,2.1-1,3.1-1.6
	c0.3-0.2,0.6-0.3,0.9-0.5c0.7-0.4,1.4-0.8,2.1-1.2c0.4-0.2,0.7-0.4,1.1-0.6c0.7-0.4,1.3-0.8,2-1.2c0.4-0.2,0.7-0.5,1.1-0.7
	c0.7-0.5,1.5-0.9,2.2-1.4c0.3-0.2,0.6-0.4,0.9-0.6c1-0.7,2-1.4,3-2.1c0.2-0.2,0.4-0.3,0.7-0.5c0.6-0.5,1.2-0.9,1.8-1.4
	c0.6,0.2,1.2,0.4,1.8,0.6c0.4,0.2,0.8,0.3,1.3,0.5c1,0.4,2,0.8,3,1.2c0.2,0.1,0.4,0.2,0.6,0.2c1.2,0.5,2.4,1,3.6,1.6
	c0.3,0.2,0.7,0.3,1,0.5c0.9,0.4,1.7,0.8,2.6,1.2c0.4,0.2,0.9,0.4,1.3,0.7c0.8,0.4,1.5,0.8,2.3,1.2c0.5,0.3,1,0.5,1.4,0.8
	c0.7,0.4,1.5,0.8,2.2,1.2c0.5,0.3,1,0.6,1.5,0.8c0.7,0.4,1.5,0.9,2.2,1.3c0.5,0.3,0.9,0.6,1.4,0.9c0.3,0.2,0.5,0.3,0.8,0.5
	c-0.3,0.2-0.5,0.3-0.8,0.5c-0.5,0.3-1,0.6-1.4,0.9c-0.7,0.4-1.5,0.9-2.2,1.3c-0.5,0.3-1,0.6-1.4,0.8c-0.7,0.4-1.5,0.8-2.2,1.2
	c-0.5,0.3-0.9,0.5-1.4,0.8c-0.8,0.4-1.5,0.8-2.3,1.2c-0.4,0.2-0.9,0.4-1.3,0.6c-0.9,0.4-1.8,0.8-2.6,1.3c-0.3,0.1-0.6,0.3-1,0.5
	c-1.2,0.5-2.4,1.1-3.6,1.6C320.9,288.9,320.7,288.9,320.6,289 M278.1,316c-0.2-0.1-0.5-0.2-0.7-0.2c-0.7-0.2-1.4-0.5-2.1-0.7
	c-0.5-0.8-1-1.6-1.5-2.4c-0.4-0.7-0.8-1.4-1.3-2.1c-0.6-0.9-1.3-1.8-1.9-2.7c-0.5-0.6-0.9-1.3-1.3-1.9c-0.7-1-1.5-1.9-2.3-2.8
	c-0.4-0.5-0.8-1.1-1.3-1.6c-1.2-1.4-2.5-2.8-3.9-4.1c1.8,0.5,3.6,0.9,5.5,1.3c0.6,0.1,1.3,0.2,1.9,0.3c1.2,0.2,2.4,0.4,3.6,0.6
	c0.7,0.1,1.3,0.1,2,0.2c1.2,0.1,2.4,0.3,3.6,0.3c0.7,0,1.4,0,2.1,0.1c1.1,0,2.1,0.1,3.2,0.1c0.5,0.5,1.1,0.9,1.6,1.4
	c0.2,0.2,0.4,0.4,0.6,0.6c0.8,0.8,1.6,1.5,2.4,2.3c0.2,0.2,0.5,0.5,0.7,0.8c0.5,0.6,1.1,1.1,1.6,1.7c0.3,0.3,0.6,0.7,0.9,1
	c0.5,0.5,0.9,1.1,1.4,1.6c0.3,0.4,0.6,0.7,0.9,1.1c0.4,0.5,0.9,1.1,1.3,1.6c0.3,0.4,0.6,0.8,0.9,1.2c0.4,0.6,0.8,1.1,1.3,1.7
	c0.3,0.4,0.6,0.8,0.8,1.2c0.4,0.6,0.9,1.3,1.3,1.9c0.2,0.4,0.5,0.7,0.7,1.1c0,0.1,0.1,0.1,0.1,0.2c-0.1,0-0.2,0-0.3,0
	c-0.4,0-0.7-0.1-1.1-0.1c-0.8-0.1-1.7-0.1-2.5-0.2c-0.4,0-0.9-0.1-1.3-0.1c-0.7-0.1-1.5-0.2-2.2-0.3c-0.5-0.1-0.9-0.1-1.4-0.2
	c-0.7-0.1-1.4-0.2-2.1-0.3c-0.5-0.1-0.9-0.2-1.3-0.2c-0.7-0.1-1.5-0.3-2.2-0.4c-0.4-0.1-0.8-0.2-1.2-0.3c-0.8-0.2-1.6-0.4-2.5-0.6
	c-0.3-0.1-0.6-0.1-0.9-0.2C280.3,316.6,279.2,316.3,278.1,316 M257.6,211.1c0,0.5,0,0.9,0,1.4c0,0.7,0,1.5,0,2.2c0,0.4,0,0.8,0,1.2
	c0,0.9-0.1,1.7-0.1,2.5c0,0.3,0,0.6-0.1,0.9c-0.1,1.1-0.2,2.2-0.3,3.4c0,0.3-0.1,0.5-0.1,0.8c-0.1,0.7-0.2,1.5-0.3,2.2
	c-0.7,0.6-1.4,1.3-2.1,1.9c-0.6,0.5-1.3,1.1-1.8,1.6c-0.8,0.8-1.6,1.6-2.3,2.4c-0.5,0.6-1.1,1.1-1.6,1.6c-0.8,0.9-1.6,1.9-2.4,2.8
	c-0.4,0.5-0.8,1-1.2,1.4c-1.2,1.5-2.3,3-3.4,4.5c0.2-1.9,0.3-3.7,0.3-5.6c0-0.7,0-1.4,0-2c0-1.2,0-2.4-0.1-3.6
	c0-0.8-0.1-1.6-0.2-2.3c-0.1-1.1-0.1-2.2-0.3-3.3c-0.1-0.8-0.2-1.7-0.4-2.5c-0.1-0.9-0.2-1.8-0.4-2.7c0.4-0.6,0.8-1.3,1.2-1.9
	c0.1-0.2,0.3-0.4,0.4-0.6c0.6-0.9,1.2-1.9,1.9-2.8c0.2-0.2,0.3-0.5,0.5-0.7c0.5-0.7,1-1.4,1.5-2c0.3-0.3,0.5-0.7,0.8-1
	c0.5-0.6,0.9-1.1,1.4-1.7c0.3-0.4,0.6-0.7,0.9-1.1c0.5-0.5,0.9-1.1,1.4-1.6c0.3-0.4,0.7-0.7,1-1.1c0.5-0.5,1-1,1.5-1.6
	c0.3-0.3,0.7-0.7,1-1c0.5-0.5,1.1-1.1,1.6-1.6c0.3-0.3,0.6-0.6,1-0.9c0.1-0.1,0.1-0.1,0.2-0.2c0,0.1,0,0.2,0,0.3
	c0,0.4,0.1,0.8,0.1,1.1c0.1,0.8,0.2,1.7,0.2,2.5c0,0.4,0.1,0.9,0.1,1.3c0.1,0.8,0.1,1.5,0.1,2.3c0,0.5,0,0.9,0.1,1.4
	C257.6,209.6,257.6,210.4,257.6,211.1 M301,314.4c-1.1-1.5-2.2-3-3.4-4.5c-0.2-0.3-0.5-0.6-0.7-0.9c-1.2-1.4-2.4-2.8-3.6-4.2
	c-0.2-0.2-0.3-0.4-0.5-0.6c-1.2-1.2-2.3-2.4-3.5-3.6c-0.1-0.1-0.2-0.2-0.3-0.3l0.2,0l-0.1-0.1c0.8-0.1,1.7-0.1,2.5-0.2
	c0.1,0,0.2,0,0.3,0c1.1-0.1,2.3-0.2,3.5-0.4c0.3,0,0.7-0.1,1-0.2c0.8-0.1,1.6-0.2,2.4-0.4c0.4-0.1,0.8-0.2,1.3-0.2
	c0.8-0.1,1.5-0.3,2.3-0.5c0.4-0.1,0.8-0.2,1.3-0.3c0.8-0.2,1.7-0.4,2.5-0.6c0.3-0.1,0.7-0.2,1-0.2c1.2-0.3,2.3-0.6,3.5-1
	c0.3-0.1,0.5-0.2,0.8-0.2c0.7-0.2,1.5-0.5,2.2-0.7c0.5,0.4,1,0.8,1.5,1.2c0.4,0.3,0.7,0.6,1.1,0.9c0.8,0.7,1.6,1.4,2.4,2.1
	c0.2,0.2,0.3,0.3,0.5,0.5c1,0.9,1.9,1.8,2.8,2.7c0.3,0.3,0.5,0.5,0.8,0.8c0.7,0.7,1.3,1.3,2,2c0.3,0.4,0.7,0.7,1,1.1
	c0.6,0.6,1.2,1.3,1.8,1.9c0.3,0.4,0.7,0.8,1,1.2c0.6,0.6,1.1,1.3,1.7,1.9c0.4,0.4,0.7,0.8,1.1,1.2c0.5,0.7,1.1,1.3,1.6,2
	c0.3,0.4,0.7,0.9,1,1.3c0.2,0.2,0.4,0.5,0.6,0.7c-0.3,0.1-0.6,0.1-0.9,0.2c-0.6,0.1-1.2,0.2-1.8,0.4c-0.7,0.1-1.4,0.3-2.2,0.4
	c-0.7,0.1-1.4,0.3-2.2,0.4c-0.5,0.1-1.1,0.2-1.6,0.3c-0.9,0.1-1.7,0.3-2.6,0.4c-0.3,0-0.6,0.1-0.9,0.1c-5.6,0.7-11,1.1-16.3,1
	c-0.5,0-1,0-1.4,0c-0.1-0.2-0.2-0.3-0.3-0.5c-1-1.6-2-3.1-3-4.5C301.3,314.7,301.2,314.5,301,314.4 M284.9,180.9
	c0.1,2.3,0.1,4.5,0.1,6.8c0,0.4,0,0.8,0,1.2c0,2.3-0.1,4.5-0.3,6.7c0,0.3,0,0.6-0.1,0.8c-0.2,2.2-0.4,4.5-0.7,6.6c0,0.1,0,0.1,0,0.2
	c-0.3,2.2-0.6,4.3-1,6.4c0,0.2-0.1,0.4-0.1,0.6c-0.2,0.1-0.4,0.2-0.6,0.2c-1.7,0.7-3.4,1.4-5,2.2c-0.2,0.1-0.4,0.2-0.6,0.3
	c-1.7,0.8-3.4,1.7-5,2.6c-0.3,0.2-0.7,0.4-1,0.6c-1.6,0.9-3.2,1.8-4.7,2.8c-0.2,0.1-0.4,0.3-0.6,0.4c-1.4,0.9-2.8,1.9-4.2,2.9
	c-0.1,0.1-0.2,0.1-0.3,0.2l0-0.2l-0.2,0.1c0-0.1,0-0.3,0-0.5c0.2-1.6,0.3-3.3,0.4-5c0-0.3,0-0.5,0-0.8c0.1-1.8,0.1-3.6,0.1-5.4
	c0-0.4,0-0.8,0-1.2c0-1.8-0.1-3.7-0.3-5.6c0-0.2,0-0.5-0.1-0.7c-0.2-1.7-0.4-3.5-0.6-5.3c0-0.2,0-0.5-0.1-0.7c0.5-0.4,1-0.8,1.5-1.2
	c0.3-0.3,0.7-0.6,1-0.9c0.8-0.7,1.6-1.3,2.5-1.9c0.2-0.1,0.4-0.3,0.5-0.4c1-0.8,2.1-1.6,3.1-2.3c0.3-0.2,0.7-0.5,1-0.7
	c0.8-0.5,1.5-1.1,2.3-1.6c0.4-0.3,0.9-0.6,1.3-0.8c0.7-0.5,1.4-0.9,2.1-1.4c0.5-0.3,1-0.6,1.4-0.9c0.7-0.4,1.4-0.8,2.1-1.3
	c0.5-0.3,1-0.6,1.5-0.9c0.7-0.4,1.4-0.8,2.1-1.2c0.5-0.3,1-0.6,1.6-0.9c0.2-0.1,0.5-0.3,0.8-0.4
	C284.9,180.6,284.9,180.7,284.9,180.9 M293.9,273.8c-1,0.5-2.1,0.9-3.1,1.4c-0.2,0.1-0.4,0.2-0.7,0.3c-0.7,0.3-1.4,0.6-2.1,0.8
	c-0.9-0.3-1.8-0.6-2.7-0.9c-0.8-0.2-1.5-0.5-2.3-0.7c-1.1-0.3-2.2-0.6-3.3-0.9c-0.7-0.2-1.4-0.4-2.2-0.6c-1.2-0.3-2.4-0.5-3.6-0.7
	c-0.6-0.1-1.3-0.3-1.9-0.4c-1.9-0.3-3.7-0.5-5.6-0.7c1.7-0.8,3.4-1.6,5-2.5c0.6-0.3,1.1-0.6,1.6-1c1.1-0.6,2.1-1.2,3.2-1.9
	c0.6-0.4,1.3-0.9,1.9-1.3c0.9-0.6,1.8-1.2,2.7-1.9c0.7-0.5,1.3-1,1.9-1.5c0.7-0.6,1.5-1.1,2.2-1.7c0.8,0,1.5,0,2.3,0.1
	c0.2,0,0.5,0,0.7,0c1.1,0.1,2.3,0.1,3.4,0.2c0.3,0,0.5,0.1,0.8,0.1c0.9,0.1,1.7,0.2,2.6,0.3c0.4,0.1,0.8,0.1,1.2,0.2
	c0.7,0.1,1.5,0.2,2.2,0.3c0.4,0.1,0.9,0.2,1.3,0.2c0.7,0.1,1.4,0.3,2.1,0.4c0.4,0.1,0.9,0.2,1.3,0.3c0.7,0.2,1.5,0.3,2.2,0.5
	c0.4,0.1,0.8,0.2,1.3,0.3c0.8,0.2,1.6,0.4,2.5,0.7c0.3,0.1,0.7,0.2,1,0.3c0.1,0,0.2,0.1,0.3,0.1c-0.1,0.1-0.2,0.1-0.2,0.2
	c-0.3,0.2-0.6,0.4-0.9,0.7c-0.7,0.5-1.3,1-2,1.4c-0.4,0.3-0.7,0.5-1.1,0.8c-0.6,0.4-1.2,0.8-1.9,1.2c-0.4,0.3-0.8,0.5-1.2,0.8
	c-0.6,0.4-1.2,0.8-1.8,1.1c-0.4,0.2-0.8,0.5-1.2,0.7c-0.6,0.4-1.3,0.7-1.9,1.1c-0.4,0.2-0.7,0.4-1.1,0.6c-0.8,0.4-1.5,0.8-2.3,1.1
	C294.4,273.6,294.1,273.7,293.9,273.8 M290.1,281c0.2,0.1,0.5,0.2,0.7,0.3c1,0.4,2.1,0.9,3.1,1.4c0.3,0.1,0.6,0.3,0.8,0.4
	c0.7,0.4,1.5,0.7,2.2,1.1c0.4,0.2,0.8,0.4,1.1,0.6c0.6,0.3,1.3,0.7,1.9,1.1c0.4,0.2,0.8,0.5,1.2,0.7c0.6,0.4,1.2,0.7,1.8,1.1
	c0.4,0.3,0.8,0.5,1.2,0.8c0.6,0.4,1.2,0.8,1.8,1.2c0.4,0.3,0.8,0.5,1.2,0.8c0.6,0.5,1.3,0.9,1.9,1.4c0.3,0.2,0.7,0.5,1,0.7
	c0.1,0.1,0.1,0.1,0.2,0.2c-0.1,0-0.2,0.1-0.3,0.1c-0.4,0.1-0.8,0.2-1.1,0.3c-0.8,0.2-1.6,0.4-2.3,0.6c-0.4,0.1-0.9,0.2-1.3,0.3
	c-0.7,0.2-1.4,0.3-2.2,0.5c-0.5,0.1-0.9,0.2-1.4,0.3c-0.7,0.2-1.4,0.3-2.1,0.4c-0.4,0.1-0.9,0.2-1.3,0.2c-0.7,0.1-1.5,0.2-2.2,0.3
	c-0.4,0.1-0.8,0.1-1.2,0.2c-0.8,0.1-1.7,0.2-2.5,0.3c-0.3,0-0.6,0.1-0.9,0.1c-1.1,0.1-2.3,0.2-3.4,0.2c-0.3,0-0.5,0-0.8,0
	c-0.7,0-1.5,0.1-2.2,0.1c-0.7-0.6-1.5-1.2-2.3-1.8c-0.6-0.5-1.2-1-1.9-1.5c-0.9-0.7-1.8-1.3-2.7-1.9c-0.6-0.4-1.2-0.9-1.9-1.3
	c-1-0.6-2.1-1.2-3.1-1.8c-0.6-0.3-1.1-0.7-1.7-1c-1.6-0.9-3.3-1.8-5-2.5c1.9-0.2,3.7-0.4,5.6-0.7c0.6-0.1,1.2-0.2,1.8-0.3
	c1.2-0.2,2.5-0.4,3.7-0.7c0.7-0.2,1.4-0.4,2.2-0.6c1.1-0.3,2.2-0.5,3.3-0.9c0.8-0.2,1.6-0.5,2.4-0.8c0.9-0.3,1.8-0.6,2.7-0.9
	C288.7,280.4,289.4,280.7,290.1,281 M259.9,227.6c0.1-0.1,0.3-0.2,0.4-0.3c1.4-1.1,2.8-2.2,4.3-3.2c0.1-0.1,0.2-0.2,0.3-0.2
	c1.5-1.1,3.1-2.1,4.8-3.1c0.3-0.2,0.6-0.3,0.8-0.5c1.6-0.9,3.2-1.8,4.9-2.7c0.3-0.2,0.6-0.3,0.9-0.5c1.7-0.9,3.5-1.7,5.3-2.5
	c0,0,0.1,0,0.1-0.1c0,0.1,0,0.1,0,0.2c-0.5,1.9-1,3.8-1.5,5.6c-0.1,0.3-0.2,0.7-0.3,1c-0.6,1.8-1.2,3.6-1.8,5.3
	c-0.1,0.3-0.2,0.6-0.4,0.9c-0.7,1.8-1.4,3.5-2.2,5.2c-0.1,0.1-0.1,0.2-0.2,0.4c-0.8,1.7-1.6,3.3-2.4,4.8c-0.1,0.2-0.2,0.3-0.3,0.5
	c-0.9,0.3-1.7,0.7-2.6,1c-0.8,0.3-1.5,0.6-2.3,0.9c-1,0.4-2,0.9-3,1.4c-0.7,0.3-1.4,0.6-2.1,1c-1.1,0.6-2.2,1.2-3.2,1.8
	c-0.5,0.3-1.1,0.6-1.7,0.9c-1.6,1-3.2,2-4.7,3.1c0.8-1.7,1.5-3.4,2.2-5.2c0.2-0.6,0.4-1.1,0.6-1.7c0.4-1.2,0.9-2.4,1.3-3.6
	c0.2-0.7,0.4-1.4,0.6-2.1c0.3-1.1,0.6-2.2,0.9-3.3c0.2-0.7,0.3-1.5,0.5-2.3C259.5,229.5,259.7,228.5,259.9,227.6 M318.6,256.9
	c-0.8,0.7-1.6,1.4-2.4,2.1c-0.3,0.3-0.7,0.6-1,0.9c-0.5,0.4-1,0.8-1.5,1.2c-0.7-0.2-1.5-0.5-2.2-0.7c-0.3-0.1-0.5-0.2-0.8-0.3
	c-1.2-0.3-2.3-0.7-3.5-1c-0.3-0.1-0.7-0.2-1-0.2c-0.8-0.2-1.7-0.4-2.5-0.6c-0.4-0.1-0.9-0.2-1.3-0.3c-0.8-0.2-1.5-0.3-2.3-0.5
	c-0.4-0.1-0.9-0.2-1.3-0.2c-0.8-0.1-1.6-0.3-2.4-0.4c-0.4-0.1-0.7-0.1-1.1-0.2c-1.2-0.2-2.3-0.3-3.4-0.4c-0.1,0-0.2,0-0.4,0
	c-0.8-0.1-1.7-0.1-2.5-0.2l0.1-0.1H289c0.1-0.1,0.2-0.2,0.3-0.3c1.2-1.2,2.4-2.4,3.6-3.6c0.2-0.2,0.3-0.3,0.5-0.5
	c1.2-1.3,2.4-2.7,3.6-4.2c0.2-0.3,0.5-0.6,0.7-0.9c1.2-1.5,2.3-3,3.4-4.5c0.1-0.2,0.2-0.3,0.3-0.5c1-1.5,2-3,3-4.5
	c0.1-0.2,0.2-0.3,0.3-0.5c0.7,0,1.5,0,2.2,0c0.3,0,0.6,0,1,0c2.6,0,5.3,0.2,8,0.4c0.1,0,0.2,0,0.3,0c1.2,0.1,2.5,0.2,3.7,0.3
	c0.3,0,0.7,0.1,1,0.1c1,0.1,2,0.2,3,0.4c0.5,0.1,0.9,0.1,1.4,0.2c0.9,0.1,1.8,0.3,2.7,0.4c0.5,0.1,1,0.2,1.6,0.3
	c0.8,0.1,1.7,0.3,2.5,0.5c0.6,0.1,1.1,0.2,1.7,0.3c0.3,0.1,0.6,0.1,0.9,0.2c-0.2,0.2-0.4,0.5-0.6,0.7c-0.3,0.4-0.7,0.9-1.1,1.3
	c-0.5,0.7-1.1,1.3-1.6,1.9c-0.4,0.4-0.7,0.9-1.1,1.3c-0.5,0.6-1.1,1.2-1.6,1.9c-0.4,0.4-0.7,0.8-1.1,1.2c-0.6,0.6-1.1,1.2-1.7,1.8
	c-0.4,0.4-0.7,0.8-1.1,1.1c-0.6,0.7-1.3,1.3-1.9,2c-0.3,0.3-0.6,0.6-0.9,0.9c-0.9,0.9-1.9,1.8-2.8,2.7
	C319,256.6,318.8,256.7,318.6,256.9 M289,251.1c-0.2,0.2-0.4,0.4-0.6,0.6c-0.8,0.8-1.6,1.6-2.4,2.4c-0.1,0.1-0.3,0.3-0.4,0.4
	c-0.6,0.5-1.2,1.1-1.8,1.6c-0.1,0-0.2,0-0.3,0c-0.8,0-1.6,0.1-2.4,0.1c-0.9,0-1.8,0-2.7,0.1c-0.9,0.1-1.8,0.2-2.6,0.2
	c-1,0.1-1.9,0.2-2.9,0.3c-1,0.1-1.9,0.3-2.9,0.5c-0.9,0.1-1.7,0.3-2.6,0.4c-1.8,0.4-3.6,0.8-5.4,1.3c1.3-1.3,2.6-2.7,3.9-4.1
	c0.4-0.5,0.8-1,1.2-1.5c0.8-1,1.6-1.9,2.4-2.9c0.5-0.6,0.9-1.2,1.3-1.8c0.7-0.9,1.3-1.8,1.9-2.7c0.4-0.7,0.9-1.4,1.3-2.1
	c0.5-0.8,1-1.6,1.5-2.4c0.7-0.2,1.4-0.5,2.1-0.7c0.2-0.1,0.5-0.2,0.7-0.2c1.1-0.3,2.2-0.6,3.3-0.9c0.3-0.1,0.6-0.1,0.9-0.2
	c0.8-0.2,1.6-0.4,2.4-0.6c0.4-0.1,0.8-0.2,1.3-0.3c0.7-0.1,1.4-0.3,2.1-0.4c0.5-0.1,0.9-0.2,1.4-0.2c0.7-0.1,1.4-0.2,2.1-0.3
	c0.5-0.1,0.9-0.1,1.4-0.2c0.7-0.1,1.4-0.2,2.2-0.2c0.5,0,0.9-0.1,1.4-0.1c0.8-0.1,1.6-0.1,2.4-0.2c0.4,0,0.8-0.1,1.2-0.1
	c0.1,0,0.2,0,0.3,0c-0.1,0.1-0.1,0.2-0.1,0.2c-0.2,0.3-0.5,0.7-0.7,1c-0.4,0.7-0.9,1.3-1.3,2c-0.3,0.4-0.5,0.8-0.8,1.1
	c-0.4,0.6-0.9,1.2-1.3,1.7c-0.3,0.4-0.6,0.8-0.9,1.1c-0.4,0.6-0.9,1.1-1.3,1.7c-0.3,0.4-0.6,0.7-0.9,1.1c-0.5,0.6-1,1.1-1.4,1.7
	c-0.3,0.3-0.6,0.6-0.8,0.9C290.2,249.8,289.6,250.5,289,251.1 M302.1,233c-1.8,0.1-3.6,0.2-5.4,0.3c-0.2,0-0.4,0-0.6,0
	c-1.9,0.2-3.7,0.4-5.6,0.7c-0.4,0.1-0.8,0.1-1.2,0.2c-1.8,0.3-3.6,0.6-5.4,1c-0.3,0.1-0.5,0.1-0.8,0.2c-1.6,0.4-3.3,0.8-4.9,1.3
	c-0.1,0-0.3,0.1-0.4,0.1l0.1-0.2l-0.2,0.1c0.1-0.1,0.1-0.3,0.2-0.4c0.7-1.5,1.4-3,2.1-4.6c0.1-0.2,0.2-0.5,0.3-0.7
	c0.7-1.7,1.3-3.4,1.9-5.1c0.1-0.4,0.3-0.7,0.4-1.1c0.6-1.8,1.1-3.6,1.7-5.4c0.1-0.2,0.1-0.4,0.2-0.6c0.5-1.7,0.9-3.5,1.3-5.3
	c0-0.2,0.1-0.4,0.2-0.6c0.2-0.1,0.4-0.1,0.6-0.2c2-0.8,4.1-1.5,6.2-2.1c0.1,0,0.1,0,0.2,0c2.1-0.7,4.3-1.3,6.5-1.8
	c0.3-0.1,0.5-0.1,0.8-0.2c2.1-0.5,4.3-1,6.5-1.4c0.4-0.1,0.8-0.2,1.2-0.2c2.2-0.4,4.4-0.8,6.7-1.1c0.2,0,0.3,0,0.5-0.1
	c-0.1,0.2-0.1,0.3-0.2,0.5c-0.7,2.1-1.4,4.2-2.2,6.3c-0.2,0.4-0.3,0.8-0.5,1.2c-0.8,2.1-1.6,4.1-2.5,6.1c-0.1,0.3-0.3,0.6-0.4,0.8
	c-0.9,2-1.9,4-2.9,6c0,0.1-0.1,0.1-0.1,0.2c-1,2-2.1,3.9-3.2,5.7c-0.1,0.2-0.2,0.3-0.3,0.5C302.5,233,302.3,233,302.1,233
	 M246.3,169c0.4-0.4,0.8-0.9,1.1-1.3c0.2-0.2,0.4-0.5,0.6-0.7c0.1,0.3,0.2,0.5,0.3,0.8c0.2,0.6,0.5,1.2,0.7,1.8
	c0.3,0.7,0.6,1.5,0.8,2.2c0.2,0.6,0.4,1.2,0.6,1.7c0.3,0.7,0.5,1.5,0.7,2.2c0.2,0.6,0.4,1.1,0.6,1.7c0.2,0.8,0.5,1.5,0.7,2.3
	c0.2,0.5,0.3,1.1,0.5,1.6c0.2,0.8,0.5,1.6,0.7,2.5c0.1,0.5,0.3,0.9,0.4,1.4c0.3,1.2,0.6,2.5,0.9,3.7c0.1,0.4,0.1,0.7,0.2,1
	c0.2,0.9,0.4,1.8,0.6,2.7c0.1,0.5,0.2,1,0.3,1.5c0.1,0.6,0.2,1.2,0.3,1.7c-0.6,0.6-1.2,1.1-1.9,1.7c-0.1,0.1-0.3,0.3-0.4,0.4
	c-0.9,0.9-1.8,1.7-2.6,2.6c-0.2,0.2-0.4,0.4-0.6,0.7c-0.6,0.7-1.3,1.3-1.9,2c-0.3,0.3-0.5,0.6-0.8,0.9c-0.5,0.6-1.1,1.2-1.6,1.8
	c-0.3,0.3-0.5,0.6-0.8,0.9c-0.5,0.7-1.1,1.3-1.6,2c-0.2,0.3-0.4,0.5-0.6,0.8c-0.7,0.9-1.4,1.9-2.1,2.8c0,0.1-0.1,0.1-0.1,0.2
	c-0.5,0.7-1,1.4-1.5,2.2l0-0.2l-0.1,0.2c-0.2-0.9-0.4-1.7-0.7-2.6c0-0.1,0-0.2-0.1-0.2c-0.3-1.1-0.6-2.2-1-3.3
	c-0.1-0.3-0.2-0.7-0.3-1c-0.3-0.8-0.5-1.5-0.8-2.3c-0.1-0.4-0.3-0.8-0.4-1.2c-0.3-0.7-0.6-1.5-0.8-2.2c-0.2-0.4-0.3-0.8-0.5-1.2
	c-0.3-0.8-0.7-1.6-1-2.4c-0.1-0.3-0.3-0.6-0.4-0.9c-0.5-1.1-1-2.2-1.6-3.3c-0.1-0.2-0.2-0.4-0.3-0.6c-0.4-0.7-0.7-1.4-1.1-2.1
	c0.3-0.5,0.6-1.1,0.9-1.6c0.2-0.4,0.5-0.8,0.7-1.2c0.5-0.9,1-1.7,1.6-2.6c0.1-0.2,0.3-0.5,0.4-0.7c0.7-1.1,1.4-2.2,2.1-3.2
	c0.2-0.3,0.5-0.7,0.7-1c0.5-0.7,1-1.5,1.6-2.2c0.3-0.4,0.6-0.8,0.9-1.3c0.5-0.7,1-1.3,1.5-2c0.3-0.4,0.7-0.9,1-1.3
	c0.5-0.6,1-1.3,1.5-1.9c0.4-0.4,0.7-0.9,1.1-1.3C245.2,170.2,245.7,169.6,246.3,169 M211.8,165c-0.5-0.6-1-1.1-1.5-1.7
	c6.4-14.9,14-26.7,18.1-32.9c4.1,6.1,11.7,18,18.1,32.9c-0.5,0.6-1.1,1.2-1.6,1.8c-0.3,0.3-0.6,0.6-0.8,0.9c-1,1.1-1.9,2.2-2.8,3.3
	c0,0,0,0,0,0c-0.9,1.1-1.8,2.2-2.6,3.2c-0.3,0.3-0.5,0.7-0.8,1c-0.6,0.7-1.2,1.5-1.7,2.3c-0.3,0.4-0.6,0.8-0.9,1.2
	c-0.5,0.7-1,1.4-1.5,2.1c-0.3,0.4-0.6,0.9-0.9,1.3c-0.5,0.7-0.9,1.4-1.3,2c-0.3,0.4-0.6,0.9-0.8,1.3c-0.4,0.7-0.9,1.4-1.3,2.1
	c-0.2,0.4-0.5,0.8-0.7,1.2c-0.1,0.1-0.2,0.3-0.2,0.4l0,0l0,0c-0.1-0.1-0.1-0.2-0.2-0.4c-0.3-0.4-0.5-0.9-0.8-1.3
	c-0.4-0.7-0.8-1.4-1.3-2c-0.3-0.4-0.6-0.9-0.9-1.3c-0.4-0.7-0.9-1.3-1.3-2c-0.3-0.4-0.6-0.9-0.9-1.3c-0.5-0.7-1-1.4-1.5-2
	c-0.3-0.4-0.6-0.8-0.9-1.3c-0.5-0.7-1.1-1.5-1.7-2.2c-0.3-0.4-0.5-0.7-0.8-1.1c-0.8-1-1.7-2.1-2.5-3.1c0-0.1-0.1-0.1-0.1-0.2
	c-0.9-1.1-1.8-2.2-2.8-3.2C212.5,165.7,212.1,165.4,211.8,165 M205.6,175.7c0.3-0.8,0.5-1.6,0.8-2.3c0.2-0.5,0.4-1.1,0.6-1.6
	c0.3-0.8,0.6-1.5,0.9-2.3c0.2-0.6,0.4-1.1,0.6-1.7c0.1-0.3,0.2-0.5,0.3-0.8c0.2,0.2,0.4,0.4,0.6,0.7c0.4,0.4,0.8,0.9,1.2,1.3
	c0.5,0.6,1.1,1.3,1.6,1.9c0.4,0.4,0.7,0.9,1.1,1.3c0.5,0.6,1,1.3,1.6,1.9c0.3,0.4,0.7,0.9,1,1.3c0.5,0.7,1,1.3,1.5,2
	c0.3,0.4,0.6,0.8,0.9,1.2c0.6,0.8,1.1,1.5,1.6,2.3c0.2,0.3,0.5,0.6,0.7,1c0.7,1.1,1.5,2.2,2.2,3.3c0.1,0.2,0.2,0.4,0.4,0.6
	c0.6,0.9,1.1,1.8,1.7,2.7c0.2,0.4,0.4,0.8,0.7,1.2c0.3,0.6,0.6,1.1,1,1.7c-0.4,0.7-0.8,1.4-1.1,2.2c-0.1,0.2-0.2,0.4-0.3,0.6
	c-0.6,1.1-1.1,2.2-1.6,3.3c-0.1,0.3-0.3,0.6-0.4,0.9c-0.4,0.8-0.7,1.6-1,2.4c-0.2,0.4-0.3,0.8-0.5,1.2c-0.3,0.7-0.6,1.5-0.8,2.2
	c-0.2,0.4-0.3,0.8-0.5,1.2c-0.3,0.8-0.5,1.5-0.8,2.3c-0.1,0.4-0.2,0.7-0.4,1.1c-0.3,1.1-0.7,2.2-1,3.3c0,0.1-0.1,0.3-0.1,0.4
	c-0.2,0.8-0.4,1.6-0.6,2.4l-0.1-0.2l0,0.2c-0.4-0.7-0.9-1.3-1.3-2c-0.1-0.1-0.2-0.3-0.3-0.4c-0.7-0.9-1.3-1.8-2-2.8
	c-0.2-0.3-0.5-0.6-0.7-0.9c-0.5-0.6-1-1.3-1.5-1.9c-0.3-0.3-0.6-0.7-0.9-1c-0.5-0.6-1-1.2-1.5-1.7c-0.3-0.3-0.6-0.7-0.9-1
	c-0.6-0.6-1.2-1.3-1.8-1.9c-0.2-0.2-0.5-0.5-0.7-0.7c-0.9-0.9-1.7-1.7-2.6-2.6c-0.2-0.2-0.4-0.3-0.5-0.5c-0.6-0.6-1.2-1.1-1.8-1.6
	c0.1-0.6,0.2-1.2,0.3-1.8c0.1-0.5,0.2-0.9,0.3-1.4c0.2-1,0.4-2.1,0.6-3.1c0.1-0.2,0.1-0.4,0.1-0.7c0.3-1.3,0.6-2.5,0.9-3.8
	c0.1-0.4,0.2-0.7,0.3-1.1c0.2-0.9,0.5-1.8,0.8-2.7c0.1-0.5,0.3-1,0.4-1.4c0.2-0.8,0.5-1.6,0.8-2.4
	C205.2,176.8,205.4,176.2,205.6,175.7 M198.9,236.1c0.2,0.7,0.4,1.4,0.6,2.1c0.4,1.2,0.8,2.4,1.3,3.6c0.2,0.6,0.4,1.1,0.6,1.7
	c0.7,1.7,1.4,3.5,2.2,5.2c-1.5-1.1-3.1-2.1-4.7-3.1c-0.5-0.3-1-0.6-1.6-0.9c-1.1-0.6-2.2-1.3-3.3-1.9c-0.6-0.3-1.3-0.6-2-0.9
	c-1-0.5-2.1-1-3.1-1.5c-0.7-0.3-1.5-0.6-2.2-0.9c-0.9-0.4-1.8-0.7-2.7-1.1c-0.1-0.1-0.2-0.3-0.2-0.4c-0.9-1.6-1.7-3.2-2.5-4.9
	c0-0.1-0.1-0.2-0.1-0.3c-0.8-1.7-1.5-3.5-2.2-5.2c-0.1-0.3-0.2-0.6-0.3-0.9c-0.6-1.7-1.3-3.5-1.8-5.4c-0.1-0.3-0.2-0.7-0.3-1
	c-0.6-1.9-1.1-3.8-1.5-5.7c0-0.1,0-0.1,0-0.2c0.1,0,0.1,0,0.2,0.1c1.8,0.8,3.6,1.6,5.3,2.5c0.3,0.2,0.6,0.3,0.9,0.5
	c1.7,0.9,3.3,1.8,4.9,2.7c0.3,0.2,0.6,0.3,0.8,0.5c1.6,1,3.2,2,4.8,3.1c0.1,0.1,0.2,0.1,0.3,0.2c1.5,1.1,3,2.2,4.4,3.3
	c0.1,0.1,0.3,0.2,0.4,0.3c0.2,1,0.4,1.9,0.6,2.9c0.2,0.8,0.3,1.5,0.5,2.3C198.3,233.9,198.6,235,198.9,236.1 M178.7,240.5
	c0.3,0.1,0.5,0.2,0.8,0.3c0.7,0.2,1.4,0.4,2.1,0.7c0.5,0.8,1,1.6,1.5,2.4c0.4,0.7,0.8,1.4,1.3,2.1c0.6,0.9,1.3,1.8,1.9,2.7
	c0.4,0.6,0.9,1.2,1.3,1.8c0.8,1,1.6,1.9,2.4,2.9c0.4,0.5,0.8,1,1.2,1.5c1.2,1.4,2.5,2.8,3.9,4.1c-1.8-0.5-3.6-0.9-5.4-1.3
	c-0.8-0.2-1.5-0.2-2.3-0.4c-1.1-0.2-2.1-0.4-3.2-0.5c-0.9-0.1-1.8-0.2-2.8-0.3c-0.9-0.1-1.8-0.2-2.8-0.2c-0.9-0.1-1.8-0.1-2.7-0.1
	c-0.8,0-1.6-0.1-2.4-0.1c-0.1,0-0.2,0-0.3,0c-0.6-0.5-1.1-1-1.7-1.5c-0.2-0.2-0.4-0.3-0.6-0.5c-0.8-0.8-1.6-1.6-2.4-2.4
	c-0.2-0.2-0.4-0.4-0.6-0.7c-0.6-0.6-1.2-1.2-1.7-1.8c-0.3-0.3-0.6-0.6-0.8-0.9c-0.5-0.5-1-1.1-1.4-1.7c-0.3-0.3-0.6-0.7-0.9-1.1
	c-0.5-0.6-0.9-1.1-1.3-1.7c-0.3-0.4-0.6-0.7-0.9-1.1c-0.4-0.6-0.9-1.2-1.3-1.8c-0.3-0.4-0.5-0.7-0.8-1.1c-0.5-0.7-0.9-1.4-1.4-2
	c-0.2-0.3-0.4-0.6-0.6-0.9c-0.1-0.1-0.1-0.2-0.2-0.2c0.1,0,0.2,0,0.2,0c0.4,0,0.9,0.1,1.3,0.1c0.8,0.1,1.5,0.1,2.3,0.2
	c0.5,0,1,0.1,1.4,0.1c0.7,0.1,1.4,0.2,2.1,0.2c0.5,0.1,1,0.1,1.4,0.2c0.7,0.1,1.4,0.2,2.1,0.3c0.5,0.1,0.9,0.2,1.4,0.2
	c0.7,0.1,1.4,0.3,2.1,0.4c0.4,0.1,0.9,0.2,1.3,0.3c0.8,0.2,1.6,0.4,2.4,0.6c0.3,0.1,0.6,0.1,0.9,0.2
	C176.5,239.8,177.6,240.1,178.7,240.5 M222.5,223.9c-0.4-0.7-0.8-1.4-1.1-2.1c-0.5-0.9-0.9-1.7-1.4-2.5c0.1-0.7,0.3-1.5,0.5-2.2
	c0.1-0.2,0.1-0.5,0.2-0.7c0.3-1.1,0.5-2.2,0.8-3.3c0.1-0.3,0.2-0.6,0.2-0.9c0.2-0.8,0.5-1.6,0.7-2.4c0.1-0.4,0.3-0.8,0.4-1.2
	c0.2-0.7,0.5-1.4,0.7-2.1c0.2-0.4,0.3-0.9,0.5-1.3c0.2-0.7,0.5-1.3,0.8-2c0.2-0.4,0.4-0.9,0.6-1.3c0.3-0.7,0.6-1.3,0.9-2
	c0.2-0.4,0.4-0.9,0.6-1.3c0.3-0.7,0.6-1.4,1-2.1c0.2-0.4,0.4-0.8,0.6-1.2c0-0.1,0.1-0.1,0.1-0.2c0,0.1,0.1,0.2,0.1,0.3
	c0.2,0.3,0.3,0.6,0.5,1c0.4,0.8,0.7,1.5,1.1,2.3c0.2,0.4,0.4,0.8,0.5,1.2c0.3,0.7,0.6,1.4,0.9,2.1c0.2,0.4,0.4,0.9,0.5,1.3
	c0.3,0.7,0.5,1.3,0.8,2c0.2,0.4,0.3,0.9,0.5,1.3c0.2,0.7,0.5,1.4,0.7,2.1c0.1,0.4,0.3,0.8,0.4,1.2c0.2,0.8,0.5,1.6,0.7,2.3
	c0.1,0.3,0.2,0.6,0.3,1c0.3,1.1,0.6,2.2,0.8,3.3c0.1,0.3,0.1,0.6,0.2,0.9c0.2,0.7,0.3,1.4,0.4,2.1c-0.5,0.8-0.9,1.7-1.3,2.5
	c-0.4,0.7-0.8,1.4-1.1,2.1c-0.5,1-1,2.1-1.4,3.1c-0.3,0.7-0.6,1.3-0.9,2c-0.5,1.2-0.9,2.4-1.4,3.6c-0.2,0.5-0.4,1.1-0.6,1.6
	c-0.6,1.8-1.2,3.6-1.6,5.4c-0.5-1.8-1-3.6-1.6-5.4c-0.2-0.6-0.4-1.2-0.7-1.7c-0.4-1.2-0.9-2.4-1.3-3.5c-0.3-0.7-0.6-1.3-0.9-2
	C223.4,225.9,223,224.9,222.5,223.9 M214.9,234.5c0,0.6,0,1.2,0,1.8c0,1.9,0.1,3.7,0.3,5.6c-1.1-1.5-2.2-3-3.4-4.5
	c-0.4-0.5-0.9-1-1.3-1.5c-0.8-0.9-1.6-1.9-2.4-2.8c-0.5-0.5-1-1.1-1.6-1.6c-0.8-0.8-1.6-1.6-2.4-2.4c-0.6-0.5-1.2-1-1.8-1.6
	c-0.7-0.6-1.4-1.3-2.2-1.9c-0.1-0.7-0.2-1.5-0.3-2.2c0-0.3-0.1-0.5-0.1-0.8c-0.1-1.1-0.2-2.2-0.3-3.4c0-0.3,0-0.6-0.1-0.9
	c-0.1-0.8-0.1-1.6-0.1-2.5c0-0.4,0-0.9,0-1.3c0-0.7,0-1.5,0-2.2c0-0.5,0-0.9,0-1.4c0-0.7,0-1.4,0-2.1c0-0.5,0-0.9,0.1-1.4
	c0-0.7,0.1-1.5,0.1-2.2c0-0.5,0.1-0.9,0.1-1.4c0.1-0.8,0.2-1.6,0.2-2.4c0-0.4,0.1-0.8,0.1-1.2c0-0.1,0-0.2,0-0.3
	c0.1,0.1,0.2,0.1,0.2,0.2c0.3,0.3,0.6,0.5,0.8,0.8c0.6,0.6,1.2,1.1,1.8,1.7c0.3,0.3,0.6,0.7,1,1c0.5,0.5,1,1.1,1.5,1.6
	c0.3,0.4,0.6,0.7,1,1.1c0.5,0.5,0.9,1.1,1.4,1.6c0.3,0.4,0.6,0.7,0.9,1.1c0.5,0.6,0.9,1.1,1.4,1.7c0.3,0.3,0.5,0.7,0.8,1
	c0.5,0.7,1,1.3,1.5,2c0.2,0.3,0.4,0.5,0.6,0.8c0.6,0.9,1.3,1.8,1.9,2.8c0.2,0.2,0.3,0.5,0.5,0.7c0.4,0.6,0.8,1.2,1.1,1.8
	c-0.2,1-0.3,1.9-0.4,2.9c-0.1,0.8-0.2,1.6-0.3,2.3c-0.1,1.1-0.2,2.3-0.3,3.4c-0.1,0.7-0.1,1.5-0.2,2.2
	C214.9,232,214.9,233.3,214.9,234.5 M190.4,271.5c-1.9,0.2-3.7,0.4-5.6,0.7c-0.6,0.1-1.2,0.2-1.8,0.3c-1.2,0.2-2.5,0.4-3.7,0.7
	c-0.7,0.2-1.4,0.4-2.2,0.6c-1.1,0.3-2.2,0.5-3.3,0.9c-0.8,0.2-1.5,0.5-2.3,0.8c-0.9,0.3-1.8,0.6-2.7,0.9c-0.7-0.3-1.4-0.5-2.1-0.8
	c-0.2-0.1-0.5-0.2-0.7-0.3c-1-0.4-2.1-0.9-3.1-1.4c-0.3-0.1-0.5-0.3-0.8-0.4c-0.8-0.4-1.5-0.7-2.3-1.1c-0.4-0.2-0.7-0.4-1.1-0.6
	c-0.6-0.4-1.3-0.7-1.9-1.1c-0.4-0.2-0.8-0.5-1.2-0.7c-0.6-0.4-1.2-0.7-1.8-1.1c-0.4-0.2-0.8-0.5-1.2-0.8c-0.6-0.4-1.2-0.8-1.8-1.2
	c-0.4-0.3-0.8-0.5-1.1-0.8c-0.7-0.5-1.3-0.9-2-1.4c-0.3-0.2-0.6-0.5-1-0.7c-0.1-0.1-0.1-0.1-0.2-0.2c0.1,0,0.2-0.1,0.3-0.1
	c0.4-0.1,0.8-0.2,1.2-0.3c0.8-0.2,1.6-0.4,2.3-0.6c0.4-0.1,0.9-0.2,1.3-0.3c0.7-0.2,1.4-0.4,2.2-0.5c0.5-0.1,0.9-0.2,1.4-0.3
	c0.7-0.2,1.4-0.3,2.1-0.4c0.4-0.1,0.9-0.2,1.3-0.2c0.7-0.1,1.5-0.2,2.2-0.3c0.4-0.1,0.8-0.1,1.2-0.2c0.9-0.1,1.7-0.2,2.6-0.3
	c0.3,0,0.6-0.1,0.8-0.1c1.1-0.1,2.3-0.2,3.4-0.2c0.2,0,0.5,0,0.7,0c0.8,0,1.5-0.1,2.3-0.1c0.7,0.6,1.5,1.2,2.3,1.8
	c0.6,0.5,1.2,1,1.9,1.5c0.9,0.7,1.9,1.3,2.8,2c0.6,0.4,1.2,0.8,1.8,1.2c1.1,0.7,2.2,1.3,3.3,2c0.5,0.3,1,0.6,1.5,0.9
	C187,269.9,188.7,270.7,190.4,271.5 M288.4,178.5c14.5-7.3,27.9-11.5,35-13.5c-0.8,7.4-2.6,21.3-7.3,36.8c-0.2,0-0.5,0.1-0.7,0.1
	c-2.4,0.3-4.8,0.7-7.1,1.1c0,0,0,0,0,0c-2.3,0.4-4.6,0.9-6.9,1.4c-0.3,0.1-0.7,0.2-1,0.2c-2.1,0.5-4.2,1.1-6.3,1.7
	c-0.4,0.1-0.8,0.2-1.1,0.3c-2.1,0.6-4.1,1.3-6.1,2c-0.1,0-0.2,0.1-0.2,0.1l0-0.1l0,0c0-0.1,0-0.2,0-0.2c0.4-2.1,0.6-4.2,0.9-6.3
	c0-0.4,0.1-0.8,0.1-1.2c0.2-2.1,0.4-4.3,0.5-6.5c0-0.4,0-0.7,0.1-1.1c0.1-2.3,0.2-4.6,0.2-7c0,0,0-0.1,0-0.1c0-2.4,0-4.8-0.1-7.2
	C288.4,179,288.4,178.8,288.4,178.5 M220.4,339.4c-0.2-0.7-0.3-1.5-0.5-2.2c0.5-0.9,0.9-1.7,1.4-2.6c0.4-0.7,0.8-1.3,1.1-2
	c0.5-1,1-2.1,1.4-3.1c0.3-0.7,0.6-1.3,0.9-2c0.5-1.1,0.9-2.3,1.3-3.4c0.2-0.6,0.5-1.2,0.7-1.8c0.6-1.8,1.2-3.6,1.6-5.4
	c0.5,1.8,1,3.6,1.6,5.4c0.2,0.6,0.5,1.2,0.7,1.8c0.4,1.2,0.9,2.4,1.3,3.5c0.3,0.7,0.6,1.3,0.9,2c0.5,1,0.9,2.1,1.4,3.1
	c0.3,0.7,0.7,1.4,1.1,2.1c0.5,0.9,0.9,1.7,1.4,2.6c-0.1,0.7-0.3,1.4-0.4,2.1c-0.1,0.3-0.1,0.6-0.2,0.9c-0.3,1.1-0.5,2.2-0.8,3.2
	c-0.1,0.3-0.2,0.7-0.3,1c-0.2,0.8-0.4,1.5-0.7,2.3c-0.1,0.4-0.3,0.8-0.4,1.3c-0.2,0.7-0.5,1.4-0.7,2c-0.2,0.4-0.3,0.9-0.5,1.3
	c-0.2,0.7-0.5,1.3-0.8,2c-0.2,0.4-0.3,0.9-0.5,1.3c-0.3,0.7-0.6,1.4-0.9,2.1c-0.2,0.4-0.4,0.8-0.5,1.2c-0.3,0.8-0.7,1.5-1.1,2.3
	c-0.2,0.3-0.3,0.6-0.5,1c0,0.1-0.1,0.2-0.1,0.3c0-0.1-0.1-0.1-0.1-0.2c-0.2-0.4-0.4-0.8-0.6-1.2c-0.3-0.7-0.7-1.4-1-2.1
	c-0.2-0.4-0.4-0.9-0.6-1.3c-0.3-0.7-0.6-1.3-0.9-2c-0.2-0.5-0.4-0.9-0.6-1.3c-0.3-0.7-0.5-1.3-0.8-2c-0.2-0.4-0.3-0.9-0.5-1.3
	c-0.2-0.7-0.5-1.4-0.7-2.1c-0.1-0.4-0.3-0.8-0.4-1.2c-0.3-0.8-0.5-1.6-0.7-2.4c-0.1-0.3-0.2-0.6-0.3-0.9c-0.3-1.1-0.6-2.2-0.8-3.3
	C220.5,339.9,220.5,339.7,220.4,339.4 M251.6,166.3c-0.3-0.7-0.6-1.5-0.9-2.2c11.1-11.8,22.3-20.4,28.2-24.7
	c1.7,7.1,4.8,20.9,5.8,37.1c-0.7,0.4-1.4,0.7-2.1,1.1c-0.4,0.2-0.8,0.4-1.2,0.6c-1.3,0.7-2.5,1.4-3.7,2.1c0,0,0,0,0,0
	c-1.2,0.7-2.4,1.4-3.6,2.2c-0.4,0.2-0.7,0.5-1.1,0.7c-0.8,0.5-1.6,1-2.4,1.6c-0.4,0.3-0.8,0.6-1.2,0.8c-0.7,0.5-1.4,1-2.1,1.5
	c-0.4,0.3-0.8,0.6-1.3,0.9c-0.7,0.5-1.3,1-2,1.5c-0.4,0.3-0.8,0.6-1.2,0.9c-0.7,0.5-1.3,1-2,1.6c-0.4,0.3-0.7,0.6-1.1,0.9
	c-0.1,0.1-0.2,0.2-0.4,0.3l0-0.1l0,0c0-0.1-0.1-0.3-0.1-0.4c-0.1-0.5-0.2-1-0.3-1.4c-0.2-0.8-0.3-1.6-0.5-2.4
	c-0.1-0.5-0.2-1-0.3-1.5c-0.2-0.8-0.4-1.6-0.6-2.4c-0.1-0.5-0.3-1-0.4-1.6c-0.2-0.8-0.4-1.6-0.7-2.4c-0.1-0.5-0.3-1-0.4-1.5
	c-0.3-0.9-0.5-1.8-0.8-2.6c-0.1-0.4-0.3-0.9-0.4-1.3c-0.4-1.3-0.8-2.5-1.3-3.8c0,0,0-0.1,0-0.1c-0.5-1.3-1-2.7-1.5-4
	C251.9,167.1,251.8,166.7,251.6,166.3 M334.7,236c-0.4-0.1-0.9-0.2-1.3-0.3c-1.3-0.3-2.6-0.5-3.9-0.7c-0.3,0-0.5-0.1-0.8-0.1
	c-1.2-0.2-2.3-0.4-3.5-0.6c-0.6-0.1-1.1-0.1-1.7-0.2c-0.8-0.1-1.6-0.2-2.4-0.3c-0.6-0.1-1.2-0.1-1.8-0.2c-0.7-0.1-1.5-0.1-2.2-0.2
	c-0.6-0.1-1.2-0.1-1.9-0.1c-0.7-0.1-1.4-0.1-2.2-0.1c-0.6,0-1.2-0.1-1.8-0.1c-0.8,0-1.5,0-2.3-0.1c-0.5,0-1.1,0-1.6,0
	c-0.1,0-0.3,0-0.4,0l0,0h0c0-0.1,0.1-0.2,0.1-0.2c1-1.8,2-3.7,3-5.6c0.2-0.4,0.4-0.7,0.5-1.1c1-1.9,1.9-3.9,2.7-5.9
	c0.1-0.3,0.3-0.6,0.4-0.9c1.8-4.3,3.5-8.7,4.9-13.4c0.1-0.2,0.1-0.4,0.2-0.6c16.1-1.9,29.9-1.2,37.5-0.8
	c-3.2,6.5-9.7,19.2-19.4,32.1C336.2,236.3,335.5,236.1,334.7,236 M352.3,60.7c11.7,0,14.5,9.9,14.5,19.4c0,3.8-0.5,11.4-4.3,16.5
	c-3.4,4.6-8.6,5.2-11.1,5.2c-13.9,0-14.8-13.2-14.8-19.6C336.5,77.4,336.5,60.7,352.3,60.7 M327.1,127.3h9.8v-26.2
	c2.8,4.6,8.5,7.9,16.2,7.9c12.6,0,24.1-8.6,24.1-28.3c0-19.6-10.8-27.3-22.2-27.3c-4.3,0-13.1,1.3-18,9.6l-0.2-8.7h-10
	c0.2,5.1,0.3,6.3,0.3,8.6V127.3z M294.2,59.5c13.8,0,14.8,15.3,14.8,20.5c0,8.6-3.1,20.5-15.3,20.5c-14.7,0-14.7-16.5-14.7-20
	C279.1,77.2,279.1,59.5,294.2,59.5 M279,99c1.1,1.6,2.2,3.4,5.2,5.4c4.5,3.1,9.3,3.4,11.8,3.4c7.3,0,14.3-3.1,18.5-9
	c2.6-3.5,5-9.1,5-19.3c0-11.6-3.6-16.8-6.2-19.9c-4.8-5.5-11.5-6.7-16.7-6.7c-12,0-15.9,6.6-17.2,9V34h-9.9v63.5l-0.2,9.5h9.6
	L279,99z"/>
</svg>
