<?xml version="1.0" encoding="utf-8"?>
<!-- Generator: Adobe Illustrator 25.1.0, SVG Export Plug-In . SVG Version: 6.00 Build 0)  -->
<svg version="1.1" id="Layer_1" xmlns="http://www.w3.org/2000/svg" xmlns:xlink="http://www.w3.org/1999/xlink" x="0px" y="0px"
	 viewBox="0 0 748.3 179.4" style="enable-background:new 0 0 748.3 179.4;" xml:space="preserve">
<style type="text/css">
	.st0{fill-rule:evenodd;clip-rule:evenodd;fill:#FFFFFF;}
</style>
<polygon class="st0" points="340.3,122.2 386.3,122.2 386.3,135.6 340.3,135.6 "/>
<polygon class="st0" points="399,122.2 444.9,122.2 444.9,135.6 399,135.6 "/>
<polygon class="st0" points="458.2,122.2 504.1,122.2 504.1,135.6 458.2,135.6 "/>
<polygon class="st0" points="517.2,122.2 563.1,122.2 563.1,135.6 517.2,135.6 "/>
<polygon class="st0" points="575.8,122.2 618.6,122.2 618.6,135.6 575.8,135.6 "/>
<path class="st0" d="M191.5,83.5c-0.3,6.1-2.3,7.9-5.3,7.9c-5.8,0-6.3-6.6-6.3-15.5c0-9.4,0.6-15.5,6.5-15.5c2.8,0,5.2,1.3,5.6,7.9
	h21.1c-0.1-17.1-12.5-23.1-27.2-23.1c-19.7,0-30.5,12.3-29.9,30.4c0,18.5,9.5,30.9,29.9,30.9c14.4,0,27.3-7,27.3-23.1L191.5,83.5
	L191.5,83.5z"/>
<path class="st0" d="M332.8,82.6c-1.1-4.4-4.2-6.9-9.8-7.3v-0.2c8.6-2.1,11.4-7.1,11.4-13.7c0-10.9-7.3-14.6-19.6-14.6h-34.1v57.7
	h22.4V83.9h2.6c3.7,0,5.1,1.1,5.6,4c0.8,5,0,3.6,2,16.5h22.4C334.6,93.9,334.1,87.5,332.8,82.6z M303.8,69.9h-1.9V58.9h2.1
	c4.5,0,7.4,0.9,7.4,5.1C311.4,68.3,308.2,69.9,303.8,69.9z"/>
<path class="st0" d="M259,46.8h-29.9l-18.7,58.3h22.1l2.3-9.4h16.7l2.2,9.4h23.9L259,46.8z M238.7,81.8l5.1-21.9h0.2l4.6,21.9H238.7
	z"/>
<path class="st0" d="M341.1,105.3h23.5V69.1c0-4.6,2-6.5,4.3-6.5c2.2,0,4.1,2.2,4.1,6.3v36.5h23.5V69.1c0-4.6,2-6.5,4.3-6.5
	c2.2,0,4.1,2.2,4.1,6.3v36.5h23.5V66.6c0-15.4-7.1-21.2-16.9-21.2c-5.5,0-11.4,2.2-15.4,10.5c-3-7.2-8.4-10.5-15.9-10.5
	c-5.5,0-11.4,2.2-15.4,10.5h-0.2l-0.6-8.8h-22.9L341.1,105.3L341.1,105.3z"/>
<polygon class="st0" points="535.2,105.4 558.7,105.4 542.6,74.5 555.7,47.9 531.2,47.9 524.7,66.2 516.8,47.9 492.3,47.9 
	506.6,74.5 490.9,105.4 514.7,105.4 524.7,84.3 "/>
<path class="st0" d="M462.8,46.3c-14.2,0-28,3.3-28.9,18.8h22.3c0.3-4.8,2.1-6,5.5-6c3.8,0,5.2,1.7,5.2,4.6v6h-3.2
	c-21,0-32.1,5.8-32.1,20.1c0,11.3,8,17.5,19.4,17.5c6.1,0,12-1.9,15.9-7.2l0.7,5.5h23.6V66.6C491.2,53.3,484.3,46.3,462.8,46.3z
	 M465.1,85.5c0,4.7-1.5,7.8-6.1,7.8c-4.1,0-6.2-2.3-6.2-6c0-3.2,1.6-6.7,8.7-6.7h3.7V85.5z"/>
<path class="st0" d="M564.9,47c-3.2,0-6.1,2.7-6.1,6.1c0,3.4,2.8,6.1,6.1,6.1c3.3,0,6.1-2.7,6.1-6.1C571,49.7,568.2,47,564.9,47z
	 M564.9,58.5c-2.9,0-5.3-2.4-5.3-5.4c0-2.9,2.4-5.3,5.3-5.3c3,0,5.3,2.5,5.3,5.3C570.2,56.1,567.9,58.5,564.9,58.5z M566,53
	c1.2-0.4,1.2-1.4,1.2-1.6c0-1.6-1.7-1.6-2.2-1.6h-2.3v6.5h0.9v-3h1.1c1.1,0,1.3,0.2,1.4,1.2c0.1,1,0.2,1.3,0.3,1.7h0.9
	c-0.2-0.6-0.3-1.3-0.4-2.1C566.9,53.4,566.7,53.1,566,53z M565,52.6h-1.4v-2h1.4c0.5,0,1.3,0,1.3,1C566.3,52.6,565.5,52.6,565,52.6z
	"/>
</svg>
