<svg id="White" xmlns="http://www.w3.org/2000/svg" viewBox="0 0 480 270"><defs><style>.cls-1{fill:#fff;}</style></defs><g id="Cisco"><rect class="cls-1" x="186.43" y="156.38" width="10.82" height="42.86"/><path class="cls-1" d="M284.46,168.66a19,19,0,0,0-9.11-2.29c-7,0-11.84,4.87-11.84,11.43,0,6.37,4.65,11.45,11.84,11.45a19.11,19.11,0,0,0,9.11-2.28v11.51A34.74,34.74,0,0,1,274.6,200c-12.16,0-22.84-8.39-22.84-22.2,0-12.8,9.66-22.18,22.84-22.18a33.61,33.61,0,0,1,9.86,1.53Z"/><path class="cls-1" d="M171.56,168.66a18.81,18.81,0,0,0-9.08-2.29c-7,0-11.85,4.87-11.85,11.43,0,6.37,4.64,11.45,11.85,11.45a18.89,18.89,0,0,0,9.08-2.28v11.51A34.31,34.31,0,0,1,161.7,200c-12.15,0-22.82-8.39-22.82-22.2,0-12.8,9.66-22.18,22.82-22.18a33.32,33.32,0,0,1,9.86,1.53Z"/><path class="cls-1" d="M341.12,177.8c0,12.27-9.46,22.2-22.64,22.2s-22.64-9.93-22.64-22.2,9.45-22.18,22.64-22.18,22.64,9.94,22.64,22.18m-22.64-11.27a11.28,11.28,0,1,0,11.19,11.27,11.07,11.07,0,0,0-11.19-11.27"/><path class="cls-1" d="M238.26,166.12a37,37,0,0,0-8.45-1.31c-4.34,0-6.69,1.46-6.69,3.52,0,2.61,3.18,3.52,5,4.08l3,1c7,2.23,10.22,7,10.22,12.26,0,10.77-9.47,14.38-17.75,14.38a64.92,64.92,0,0,1-11.67-1.17V189a40.62,40.62,0,0,0,10.22,1.59c5.37,0,7.85-1.57,7.85-4,0-2.17-2.14-3.42-4.83-4.27-.65-.22-1.63-.53-2.3-.74-6-1.91-11.05-5.45-11.05-12.54,0-8,6-13.4,16-13.4A46,46,0,0,1,238.26,157Z"/><path class="cls-1" d="M127.41,110.32a5.37,5.37,0,0,0-10.74,0v11.25a5.37,5.37,0,1,0,10.74,0Z"/><path class="cls-1" d="M156.91,95.55a5.37,5.37,0,0,0-10.74,0v26a5.37,5.37,0,1,0,10.74,0Z"/><path class="cls-1" d="M186.4,75.35a5.37,5.37,0,0,0-10.74,0v56.91a5.37,5.37,0,0,0,10.74,0Z"/><path class="cls-1" d="M215.89,95.55a5.37,5.37,0,0,0-10.74,0v26a5.37,5.37,0,1,0,10.74,0Z"/><path class="cls-1" d="M245.35,110.32a5.35,5.35,0,1,0-10.7,0v11.25a5.35,5.35,0,1,0,10.7,0Z"/><path class="cls-1" d="M274.86,95.55a5.36,5.36,0,0,0-10.71,0v26a5.36,5.36,0,1,0,10.71,0Z"/><path class="cls-1" d="M304.37,75.35a5.35,5.35,0,0,0-10.7,0v56.91a5.35,5.35,0,1,0,10.7,0Z"/><path class="cls-1" d="M333.88,95.55a5.39,5.39,0,0,0-10.77,0v26a5.39,5.39,0,0,0,10.77,0Z"/><path class="cls-1" d="M363.33,110.32a5.36,5.36,0,0,0-10.72,0v11.25a5.36,5.36,0,1,0,10.72,0Z"/><polygon class="cls-1" points="357.14 193.59 357.14 194.27 355.23 194.27 355.23 199.24 354.44 199.24 354.44 194.27 352.52 194.27 352.52 193.59 357.14 193.59"/><polygon class="cls-1" points="357.54 193.59 358.77 193.59 360.46 198.22 360.49 198.22 362.12 193.59 363.33 193.59 363.33 199.24 362.52 199.24 362.52 194.61 362.49 194.61 360.78 199.24 360.04 199.24 358.37 194.61 358.33 194.61 358.33 199.24 357.54 199.24 357.54 193.59"/></g></svg>