<svg id="White" xmlns="http://www.w3.org/2000/svg" viewBox="0 0 480 270"><defs><style>.cls-1{fill:#fff;}</style></defs><g id="Citrix"><path class="cls-1" d="M171.08,103.69a9.35,9.35,0,1,0-9.34-9.35A9.36,9.36,0,0,0,171.08,103.69Z"/><rect class="cls-1" x="163.6" y="107.71" width="15.06" height="54.68"/><path class="cls-1" d="M292.61,166.32a9.34,9.34,0,1,0,9.34,9.34A9.35,9.35,0,0,0,292.61,166.32Z"/><rect class="cls-1" x="285.02" y="107.71" width="15.06" height="54.68"/><path class="cls-1" d="M148.39,142.25l-.48.61a14.91,14.91,0,0,1-5.58,4.56,16.36,16.36,0,0,1-6.67,1.46,13.62,13.62,0,0,1-9.92-3.78,13.07,13.07,0,0,1-3.84-9.7,14.15,14.15,0,0,1,3.8-10.28,13.32,13.32,0,0,1,10-3.9,16.49,16.49,0,0,1,6.71,1.44,12.51,12.51,0,0,1,5.52,4.55l.5.72,8.25-12.57-.38-.34a31.26,31.26,0,0,0-13.88-7.61,36.69,36.69,0,0,0-8.21-.84,26.86,26.86,0,0,0-19.95,8.14c-5.27,5.41-8,12.27-8,20.41s2.67,15,7.93,20.34a27,27,0,0,0,20,8.08,32.85,32.85,0,0,0,8.17-.87,30.36,30.36,0,0,0,14.2-8.56l.33-.36Z"/><polygon class="cls-1" points="184.97 107.71 184.97 121.15 199.31 121.15 199.31 162.39 214.41 162.39 214.41 121.15 228.68 121.15 228.68 107.71 184.97 107.71"/><path class="cls-1" d="M264.62,140.83a15,15,0,0,0,8.37-5.16,16.47,16.47,0,0,0,3.17-10.43c0-6-1.85-10.52-5.49-13.34s-9.88-4.19-18.66-4.19H235.1v54.68h15.11V143.16l11.34,19.23h17.84ZM260.54,127a5.47,5.47,0,0,1-2,4.7c-1.34,1-3.5,1.54-6.43,1.54h-1.94v-13h2.18c3,0,5.14.53,6.36,1.57S260.54,124.57,260.54,127Z"/><polygon class="cls-1" points="331.69 145.1 342.93 162.39 360.32 162.39 340.97 133.49 358.46 107.71 341.02 107.71 331.71 122.05 322.36 107.71 304.92 107.71 322.4 133.49 303.05 162.39 320.45 162.39 331.69 145.1"/><path class="cls-1" d="M367.08,107.6a6.66,6.66,0,1,0,6.65,6.65A6.66,6.66,0,0,0,367.08,107.6Zm0,12.2a5.55,5.55,0,1,1,5.55-5.55A5.56,5.56,0,0,1,367.08,119.8Z"/><path class="cls-1" d="M370.19,112.69a2.12,2.12,0,0,0-2.43-2.18H364.4v7.4h1.18v-3h1.66l1.9,3,0,0h1.42l-2-3.14A2,2,0,0,0,370.19,112.69Zm-1.18,0c0,.78-.43,1.12-1.4,1.12h-2v-2.25h2C368.58,111.56,369,111.91,369,112.69Z"/></g></svg>