<?xml version="1.0" encoding="utf-8"?>
<!-- Generator: Adobe Illustrator 25.1.0, SVG Export Plug-In . SVG Version: 6.00 Build 0)  -->
<svg version="1.1"
	 id="svg9121" inkscape:version="0.92.0 r15299" sodipodi:docname="dupont.svg" xmlns:cc="http://creativecommons.org/ns#" xmlns:dc="http://purl.org/dc/elements/1.1/" xmlns:inkscape="http://www.inkscape.org/namespaces/inkscape" xmlns:rdf="http://www.w3.org/1999/02/22-rdf-syntax-ns#" xmlns:sodipodi="http://sodipodi.sourceforge.net/DTD/sodipodi-0.dtd" xmlns:svg="http://www.w3.org/2000/svg"
	 xmlns="http://www.w3.org/2000/svg" xmlns:xlink="http://www.w3.org/1999/xlink" x="0px" y="0px" viewBox="0 0 120.5 36.9"
	 style="enable-background:new 0 0 120.5 36.9;" xml:space="preserve">
<style type="text/css">
	.st0{fill:#FFFFFF;}
</style>
<g id="layer1" transform="translate(-144.4514,-171.79284)" inkscape:groupmode="layer" inkscape:label="Layer 1">
	<g id="g9175" transform="translate(0.13229206,-0.13228691)">
		<path id="path8097" inkscape:connector-curvature="0" class="st0" d="M167.5,176.7c-1.4,0-3.5,0.5-7.3,1.7v23.8
			c3.3,1.1,5.9,1.7,7.3,1.7c3.3,0,5.2-2.2,5.2-5.7v-15.8C172.7,178.9,170.8,176.7,167.5,176.7 M168.5,197.7c0,1.4-0.8,1.8-1.7,1.8
			c-0.7,0-1.8-0.3-2.7-0.5v-17.2c0.9-0.3,2-0.5,2.7-0.5c0.9,0,1.7,0.5,1.7,1.8V197.7z"/>
		<path id="path8101" inkscape:connector-curvature="0" class="st0" d="M215.1,172.4c-4.2-0.2-6.7,1.8-6.7,6.4v22.8
			c0,4.9,2.3,6.8,6.7,6.6c4.4-0.2,6.6-2,6.6-7.1v-21.8C221.8,174.4,219.7,172.7,215.1,172.4 M217.2,201.2c0,1.4-0.4,2.1-2,2.1
			c-1.7,0.1-2.1-0.7-2.1-2.1v-21.8c0-1.4,0.5-2.2,2.1-2.2c1.6,0.1,2,0.8,2,2.2V201.2z"/>
		<path id="path8105" inkscape:connector-curvature="0" class="st0" d="M256.2,181.4v18c5.2-2.6,8.2-5.7,8.2-9
			C264.3,187,261.4,184,256.2,181.4"/>
		<path id="path8109" inkscape:connector-curvature="0" class="st0" d="M144.8,190.3c0,3.3,3,6.4,8.2,9v-18
			C147.8,184,144.8,187,144.8,190.3"/>
		<path id="path8113" inkscape:connector-curvature="0" class="st0" d="M184.3,200.4c0,1.4-0.4,2.3-2,2c-1.6-0.2-2-0.9-2-2.6V174
			c-1,0.1-3.4,0.5-4.4,0.6v26.2c0,4.2,1.9,5.8,6.4,6.4c4.1,0.5,6.6-1.7,6.6-6.4v-27.7c-0.9,0.1-3.7,0.3-4.6,0.4V200.4z"/>
		<path id="path8117" inkscape:connector-curvature="0" class="st0" d="M234.4,191.9l-5.1-17.7c-1.4-0.2-3-0.4-4.3-0.5v33.5
			c0.9-0.1,3.2-0.4,4.4-0.5l-0.4-19.7l5.3,19c1.1-0.2,2.8-0.5,3.9-0.7v-29.4c-1.1-0.2-3.2-0.6-4.2-0.8L234.4,191.9z"/>
		<path id="path8121" inkscape:connector-curvature="0" class="st0" d="M198.7,172.6c-0.8,0-3.7,0.1-6.3,0.3v34.9
			c0.9,0.1,3.3,0.2,4.6,0.2v-11.9l1.8,0c4.8,0,6.8-2.3,6.8-6.7v-10.3C205.5,174.8,203.3,172.6,198.7,172.6 M200.9,189.1
			c0,1.5-0.5,2.3-2.3,2.3l-1.6,0v-13.8c0.7,0,1.1-0.1,1.5-0.1c2,0,2.4,0.8,2.4,2.3L200.9,189.1z"/>
		<path id="path8125" inkscape:connector-curvature="0" class="st0" d="M240.6,180.8c1.1,0.2,2.2,0.5,3.3,0.7v22.3
			c1-0.3,2.8-0.8,4.1-1.2v-20.1c1.2,0.3,2.3,0.7,3.3,1v-4.3c-3.2-1.2-6.7-2.2-10.7-3.1V180.8z"/>
	</g>
</g>
</svg>
