<?xml version="1.0" encoding="utf-8"?>
<!-- Generator: Adobe Illustrator 25.1.0, SVG Export Plug-In . SVG Version: 6.00 Build 0)  -->
<svg version="1.1" id="Layer_1" xmlns="http://www.w3.org/2000/svg" xmlns:xlink="http://www.w3.org/1999/xlink" x="0px" y="0px"
	 viewBox="0 0 144 22" style="enable-background:new 0 0 144 22;" xml:space="preserve">
<style type="text/css">
	.st0{fill:#FFFFFF;}
</style>
<path class="st0" d="M143.9,4.9c0,0.8-0.7,1.5-1.5,1.5c-0.8,0-1.5-0.7-1.5-1.5s0.7-1.5,1.5-1.5C143.2,3.4,143.9,4.1,143.9,4.9z
	 M142.4,3.6c-0.7,0-1.3,0.6-1.3,1.3c0,0.7,0.6,1.3,1.3,1.3c0.7,0,1.3-0.6,1.3-1.3C143.6,4.2,143,3.6,142.4,3.6z M143,4.6
	c0,0.2-0.2,0.4-0.5,0.4c0.1,0,0.2,0.2,0.6,0.7h-0.3c-0.3-0.4-0.3-0.7-0.6-0.7H142v0.7h-0.3V4.1h0.7C142.9,4.1,143,4.4,143,4.6
	 M142,4.8h0.4c0.2,0,0.4-0.1,0.4-0.2c0-0.2-0.1-0.2-0.4-0.2H142V4.8 M139.5,19h-16.6V3.5h16.3v2.8h-12.6v3.4h8.7v2.8h-8.7V16h12.9
	L139.5,19L139.5,19z M16.8,16H3.9v-3.6h8.7V9.7H3.9V6.3h12.6V3.5H0.1V19h16.6V16z M48.2,6.4h7.4V3.5H37.1v2.9h7.4V19h3.7L48.2,6.4
	L48.2,6.4z M101.1,3.5h9.9c6,0,9.3,2.6,9.3,7.7c0,3.1-1.4,5.1-3.6,6.5c-1.6,1-3.7,1.3-6.6,1.3h-8.9C101.1,19,101.1,3.5,101.1,3.5z
	 M109.4,15.9c4.8,0,7.1-0.7,7.1-4.8c0-3.3-2-4.7-5.5-4.7h-6.2v9.5H109.4z M81.6,19h-3.7l9.1-15.5h3.7L99.8,19h-4.2l-1.9-3.1H83.5
	L81.6,19z M85.1,13h7.1l-3.5-6.3L85.1,13z M61.8,19h-3.7V3.5h12.5c3.5,0,5.7,2.1,5.7,5.1c0,2.4-1.2,4-3.5,4.6l3.9,5.8h-4.2l-3.7-5.5
	h-7L61.8,19L61.8,19z M61.8,10.5h8.4c1.6,0,2.5-0.8,2.5-2.1c0-1.2-0.9-2-2.5-2h-8.4L61.8,10.5L61.8,10.5z"/>
<g>
	<polygon class="st0" points="27.2,7.1 29.6,11.2 27.2,15.4 24.8,11.2 	"/>
	<polygon class="st0" points="37.3,13.3 30.8,13.3 34,19 30.4,21 27.5,15.9 30.1,11.2 30.1,11.2 30.1,11.2 27.5,6.6 30.4,1.4 
		34,3.5 30.8,9.2 37.3,9.2 	"/>
	<polygon class="st0" points="29.6,11.2 27.2,15.4 26.3,16.9 23.9,21 20.3,19 23.6,13.3 17,13.3 17,9.2 23.6,9.2 20.3,3.5 23.9,1.4 
		26.3,5.6 27.2,7.1 	"/>
</g>
</svg>
