<svg id="White" xmlns="http://www.w3.org/2000/svg" viewBox="0 0 480 270"><defs><style>.cls-1{fill:#fff;}</style></defs><path class="cls-1" d="M77,119.12h2.41l6.87-6.87.34-2.92A30.88,30.88,0,0,0,36.37,124.4a3.69,3.69,0,0,1,2.41-.15L52.52,122s.7-1.16,1.06-1.09A17.14,17.14,0,0,1,77,119.12Z"/><path class="cls-1" d="M96.05,124.4a30.92,30.92,0,0,0-9.33-15L77.08,119a17.13,17.13,0,0,1,6.29,13.59v1.71a8.59,8.59,0,0,1,0,17.17H66.21L64.5,153.2v10.29l1.71,1.71H83.37a22.32,22.32,0,0,0,12.68-40.8Z"/><path class="cls-1" d="M49,165.11H66.18V151.37H49a8.48,8.48,0,0,1-3.54-.77l-2.41.75-6.92,6.86-.6,2.42A22.26,22.26,0,0,0,49,165.11Z"/><path class="cls-1" d="M49,120.54a22.31,22.31,0,0,0-13.47,40l10-10a8.58,8.58,0,1,1,11.35-11.35l10-10A22.31,22.31,0,0,0,49,120.54Z"/><path class="cls-1" d="M151.56,155.52A22,22,0,0,1,135.65,149a21.83,21.83,0,0,1,0-31.43,22,22,0,0,1,15.91-6.65,21.3,21.3,0,0,1,15.26,6.15l-4.3,4.36a15.86,15.86,0,0,0-22.29.48,16.24,16.24,0,0,0,0,22.75,16.17,16.17,0,0,0,22.56.27,12.8,12.8,0,0,0,3.3-7.5H151.63v-6.17h20.46a19,19,0,0,1,.24,3.76,19.28,19.28,0,0,1-5.27,14.22A20.51,20.51,0,0,1,151.56,155.52Zm47.58-4.1a14.76,14.76,0,0,1-20.42,0,14.67,14.67,0,0,1,0-20.49,14.78,14.78,0,0,1,20.42,0,14.63,14.63,0,0,1,0,20.49Zm-15.91-4a7.81,7.81,0,0,0,11,.36q.18-.17.36-.36a9.26,9.26,0,0,0,0-12.46,7.93,7.93,0,0,0-11.21-.24l-.24.24a9.22,9.22,0,0,0,0,12.46Zm47.29,4a14.74,14.74,0,0,1-20.41,0,14.67,14.67,0,0,1,0-20.49,14.74,14.74,0,0,1,20.41,0,14.67,14.67,0,0,1,0,20.49Zm-15.91-4a7.81,7.81,0,0,0,11,.36,3.06,3.06,0,0,0,.36-.36,9.26,9.26,0,0,0,0-12.46,7.93,7.93,0,0,0-11.21-.24l-.24.24a9.22,9.22,0,0,0,0,12.46Zm36.54,21a12.59,12.59,0,0,1-8-2.56,14.76,14.76,0,0,1-4.68-5.93l5.5-2.29a9.09,9.09,0,0,0,2.72,3.59,6.83,6.83,0,0,0,4.51,1.52,7.18,7.18,0,0,0,5.61-2.17,8.75,8.75,0,0,0,2-6.26v-2.08h-.21a9.21,9.21,0,0,1-7.55,3.26,13.08,13.08,0,0,1-9.64-4.2,14.53,14.53,0,0,1,0-20.27,13.12,13.12,0,0,1,9.64-4.22,10.47,10.47,0,0,1,4.44,1,9,9,0,0,1,3.13,2.29h.22v-2.29h6v25.67A15,15,0,0,1,261,164.65,13.49,13.49,0,0,1,251.15,168.39Zm.44-18.52a7,7,0,0,0,5.44-2.41,8.89,8.89,0,0,0,2.2-6.17A9.13,9.13,0,0,0,257,135a7,7,0,0,0-5.44-2.41A7.47,7.47,0,0,0,246,135a8.8,8.8,0,0,0-2.41,6.25,8.61,8.61,0,0,0,2.41,6.17A7.46,7.46,0,0,0,251.59,149.87Zm23.84-37.36v42.14h-6.3V112.51Zm17.25,43a13.71,13.71,0,0,1-10.14-4.13,14,14,0,0,1-4.08-10.22,14.14,14.14,0,0,1,3.93-10.31,13,13,0,0,1,9.64-4,12,12,0,0,1,4.82.94,11.5,11.5,0,0,1,3.69,2.41A16.86,16.86,0,0,1,303,133.1a16.55,16.55,0,0,1,1.42,2.82l.65,1.64-19.28,7.93a7.25,7.25,0,0,0,6.94,4.34,8.27,8.27,0,0,0,7.07-4l4.82,3.25a15.88,15.88,0,0,1-4.63,4.39A13.2,13.2,0,0,1,292.68,155.52Zm-8.05-14.78,12.83-5.33a4.49,4.49,0,0,0-2-2.19,6.5,6.5,0,0,0-3.31-.84,7.43,7.43,0,0,0-5.18,2.29A7.67,7.67,0,0,0,284.63,140.74Z"/><path class="cls-1" d="M338,155.52A19.87,19.87,0,0,1,317.77,136c0-.27,0-.54,0-.8a19.85,19.85,0,0,1,19.39-20.32h.8a18,18,0,0,1,14.3,6.36l-3.47,3.37a13.14,13.14,0,0,0-10.8-4.94A14.74,14.74,0,0,0,327.27,124a16.66,16.66,0,0,0,0,22.47A14.74,14.74,0,0,0,338,150.72a15.35,15.35,0,0,0,12.05-5.64l3.47,3.47a19.07,19.07,0,0,1-6.68,5.09A20.53,20.53,0,0,1,338,155.52Z"/><path class="cls-1" d="M362.85,154.65h-5V115.72h5Z"/><path class="cls-1" d="M371,131.22a14.11,14.11,0,1,1,0,20.25,15.21,15.21,0,0,1,0-20.25Zm3.71,17.11a8.41,8.41,0,0,0,11.89.33l.33-.33a10.76,10.76,0,0,0,0-14A8.42,8.42,0,0,0,375,134l-.33.33a10.7,10.7,0,0,0,0,14Z"/><path class="cls-1" d="M422.17,154.65h-4.82V151h-.15a9.31,9.31,0,0,1-3.52,3.33,9.83,9.83,0,0,1-4.94,1.32,9.36,9.36,0,0,1-7.57-3,12.07,12.07,0,0,1-2.58-8.14V128h5v15.47q0,7.45,6.58,7.45a6.15,6.15,0,0,0,5.07-2.41,9.1,9.1,0,0,0,1.95-5.76V128h5Z"/><path class="cls-1" d="M439.11,155.52a11.73,11.73,0,0,1-8.92-4.08,15.54,15.54,0,0,1,0-20.2,11.76,11.76,0,0,1,8.92-4.07,11.35,11.35,0,0,1,5.45,1.3,9.37,9.37,0,0,1,3.62,3.25h.21l-.21-3.68V115.72h5v38.93h-4.83V151h-.21a9.15,9.15,0,0,1-3.62,3.25A11.28,11.28,0,0,1,439.11,155.52Zm.82-4.56a8,8,0,0,0,6-2.6,11.41,11.41,0,0,0,0-14,8.13,8.13,0,0,0-11.5-.54,7,7,0,0,0-.55.54,11.34,11.34,0,0,0,0,14A8,8,0,0,0,439.93,151Z"/></svg>