<?xml version="1.0" encoding="utf-8"?>
<!-- Generator: Adobe Illustrator 25.1.0, SVG Export Plug-In . SVG Version: 6.00 Build 0)  -->
<svg version="1.1" id="Layer_1" xmlns="http://www.w3.org/2000/svg" xmlns:xlink="http://www.w3.org/1999/xlink" x="0px" y="0px"
	 viewBox="0 0 842 287.3" style="enable-background:new 0 0 842 287.3;" xml:space="preserve">
<style type="text/css">
	.st0{display:none;fill:#FFFFFF;}
	.st1{fill:#FFFFFF;}
</style>
<g id="HSBC_MASTERBRAND_LOGO_RGB_1_">
	<rect id="Rectangle-path_1_" x="131.8" y="37" class="st0" width="213.1" height="213.1"/>
	<polygon id="Shape_15_" class="st1" points="451.5,143.8 344.9,37 344.9,250.4 	"/>
	<polygon id="Shape_14_" class="st1" points="238.3,143.8 344.9,37 131.8,37 	"/>
	<polygon id="Shape_13_" class="st1" points="25,143.8 131.8,250.4 131.8,37 	"/>
	<polygon id="Shape_12_" class="st1" points="238.3,143.8 131.8,250.4 344.9,250.4 	"/>
	<polygon id="Shape_11_" class="st1" points="545,150.1 506.4,150.1 506.4,188.2 487.1,188.2 487.1,98.9 506.4,98.9 506.4,135.5 
		545,135.5 545,98.9 564.3,98.9 564.3,188.2 545,188.2 	"/>
	<path id="Shape_10_" class="st1" d="M610.9,189.9c-19.3,0-35.1-7.8-35.4-29.1h19.3c0.3,9.5,5.8,15.3,16.3,15.3
		c7.8,0,16.8-4,16.8-12.8c0-7-6-9-16-12l-6.5-1.8c-14-4-28.1-9.5-28.1-25.6c0-19.8,18.6-26.6,35.4-26.6c17.3,0,32.3,6,32.6,25.8H626
		c-0.8-8-5.5-12.8-14.5-12.8c-7.3,0-14.3,3.8-14.3,11.8c0,6.5,6,8.5,18.6,12.5l7.5,2.3c15.3,4.8,25.1,10,25.1,25.1
		C648,182.2,628.5,189.9,610.9,189.9z"/>
	<path id="Shape_9_" class="st1" d="M659.1,99.2h31.1c5.8-0.3,11.8,0,17.6,1c10.8,2.5,19.1,9.5,19.1,21.6c0,11.5-7.3,17.3-17.8,20.1
		c12,2.3,21.1,8.3,21.1,21.6c0,20.3-20.1,24.8-35.6,24.8h-35.1L659.1,99.2z M690.2,136.3c8.5,0,17.3-1.8,17.3-12
		c0-9.3-8-11.8-16-11.8h-13.5v23.8H690.2z M691.9,174.9c9,0,17.8-2,17.8-13s-7.5-13-16.8-13h-15.3v26.1H691.9z"/>
	<path id="Shape_8_" class="st1" d="M780.2,189.9c-28.8,0-41.6-18.3-41.6-45.6s14.3-47.1,42.6-47.1c17.8,0,35.1,8,35.6,28.1h-20.1
		c-1-9-7-13.5-15.5-13.5c-17.6,0-22.8,18.8-22.8,33.1c0,14.3,5.3,30.8,22.1,30.8c8.8,0,15.3-4.8,16.5-13.8H817
		C815,182.4,798.7,189.9,780.2,189.9z"/>
</g>
</svg>
