<?xml version="1.0" encoding="utf-8"?>
<!-- Generator: Adobe Illustrator 25.1.0, SVG Export Plug-In . SVG Version: 6.00 Build 0)  -->
<svg version="1.1" id="Layer_1" xmlns="http://www.w3.org/2000/svg" xmlns:xlink="http://www.w3.org/1999/xlink" x="0px" y="0px"
	 viewBox="0 0 226.6 43.2" style="enable-background:new 0 0 226.6 43.2;" xml:space="preserve">
<style type="text/css">
	.st0{fill:#FFFFFF;}
</style>
<path class="st0" d="M79.6,34.3c0-0.9,0-1.7-0.2-2.6c-0.2-0.2-0.4-0.3-0.6-0.3h-0.3c-0.1-0.1-0.1-0.2,0-0.3c0.5,0,0.9,0,1.4,0
	s0.8,0,1.3,0c0.1,0.1,0.1,0.2,0,0.3h-0.3c-0.2,0-0.5,0.1-0.6,0.3c-0.2,0.8-0.2,1.7-0.2,2.5v1.4c0.1,1.1-0.2,2.1-0.9,3
	c-0.6,0.6-1.5,0.9-2.4,0.9c-0.8,0.1-1.7-0.2-2.3-0.7c-0.8-0.8-1.1-1.8-1-2.9v-3c0-1.3,0-1.5-0.7-1.6h-0.3c-0.1-0.1-0.1-0.2,0-0.3
	c0.6,0,1,0,1.5,0s0.9,0,1.5,0c0.1,0.1,0.1,0.2,0,0.3h-0.3c-0.7,0.1-0.7,0.3-0.7,1.6v2.7c0,2,0.6,3.3,2.5,3.3s2.5-1.4,2.5-3.3v-1.4
	H79.6z"/>
<path class="st0" d="M95.8,37.2c0,0.4,0,1.8,0,2.2c0,0.1-0.1,0.2-0.2,0.1c-0.2-0.2-0.5-0.6-1.6-1.9l-2.9-3.3
	C90.8,34,90,33,89.7,32.7l0,0c-0.1,0.3-0.1,0.5-0.1,0.8v2.7c0,0.9,0,1.7,0.2,2.6C90,39,90.3,39,90.5,39h0.4c0.1,0.1,0.1,0.2,0,0.3
	c-0.6,0-1,0-1.4,0s-0.8,0-1.3,0c-0.1-0.1-0.1-0.2,0-0.3h0.3c0.2,0,0.4-0.1,0.6-0.2c0.1-0.8,0.2-1.7,0.2-2.5v-3.6
	c0-0.3-0.1-0.6-0.3-0.9c-0.2-0.2-0.5-0.3-0.8-0.3h-0.2c-0.1-0.1-0.1-0.2,0-0.3c0.5,0,1.2,0,1.4,0c0.2,0,0.4,0,0.6,0
	c0.6,1,1.3,1.9,2.1,2.7l1.2,1.3c0.9,1,1.5,1.7,2,2.2l0,0c0.1-0.2,0.1-0.3,0.1-0.5v-2.7c0-0.9,0-1.7-0.2-2.6
	c-0.2-0.2-0.5-0.3-0.8-0.2H94c-0.1-0.1-0.1-0.2,0-0.3c0,0,0,0,0,0c0.6,0,1,0,1.5,0s0.8,0,1.3,0c0.1,0.1,0.1,0.2,0,0.3h-0.2
	c-0.3,0-0.5,0.1-0.7,0.3c-0.2,0.8-0.2,1.7-0.2,2.5L95.8,37.2L95.8,37.2z"/>
<path class="st0" d="M105,33.1c0-1.3,0-1.5-0.8-1.6h-0.3c-0.1-0.1-0.1-0.2,0-0.3c0.6,0,1,0,1.6,0s0.9,0,1.5,0c0.1,0.1,0.1,0.2,0,0.3
	h-0.3c-0.7,0.1-0.8,0.3-0.8,1.6v4.4c0,1.3,0,1.5,0.8,1.6h0.3c0.1,0.1,0.1,0.2,0,0.3c-0.6,0-1,0-1.5,0s-0.9,0-1.6,0
	c-0.1-0.1-0.1-0.2,0-0.3h0.3c0.8,0,0.8-0.3,0.8-1.6V33.1z"/>
<path class="st0" d="M115.1,32.5c-0.1-0.5-0.5-0.9-1-1h-0.2c-0.1-0.1-0.1-0.2,0-0.3c0,0,0,0,0,0c0.4,0,0.8,0,1.3,0s1,0,1.5,0
	c0.1,0.1,0.1,0.2,0,0.3h-0.2c-0.5,0.1-0.6,0.1-0.6,0.2c0.2,0.6,0.4,1.2,0.6,1.7c0.6,1.4,1.1,2.9,1.8,4.3c0.4-0.8,0.9-2.1,1.2-2.8
	c0.4-0.8,0.9-2.2,1.2-2.8c0.1-0.2,0.1-0.3,0.1-0.5c0-0.1-0.1-0.2-0.6-0.2h-0.2c-0.1-0.1-0.1-0.2,0-0.3c0.3,0,0.8,0,1.3,0
	s0.8,0,1.2,0c0.1,0.1,0.1,0.2,0,0.3H122c-0.3,0-0.5,0.2-0.7,0.4c-0.5,0.9-1,1.9-1.4,2.8l-0.7,1.5c-0.5,1.1-1.1,2.6-1.3,3.2
	c0,0-0.1,0-0.1,0c-0.1,0-0.1,0-0.2,0c-0.2-0.6-0.3-1.1-0.6-1.7L115.1,32.5z"/>
<path class="st0" d="M130,33c0-1.3,0-1.5-0.8-1.6H129c-0.1-0.1-0.1-0.2,0-0.3c0.5,0,1,0,1.5,0h2.3c0.6,0,1.1,0,1.7,0
	c0.1,0.5,0.2,1.1,0.2,1.7c-0.1,0.1-0.2,0.1-0.3,0c0-0.5-0.4-1-0.9-1.2c-0.4-0.1-0.8-0.1-1.2-0.1h-0.9c-0.4,0-0.4,0-0.4,0.5v2.5
	c0,0.3,0,0.3,0.4,0.3h0.7c0.4,0,0.7,0,1.1-0.1c0.2-0.1,0.3-0.2,0.3-0.4l0.1-0.5c0.1-0.1,0.2-0.1,0.3,0c0,0.3-0.1,0.8-0.1,1.2
	s0.1,0.9,0.1,1.2c-0.1,0.1-0.2,0.1-0.3,0l-0.1-0.5c0-0.2-0.2-0.4-0.4-0.5c-0.3-0.1-0.7-0.1-1-0.1h-0.7c-0.4,0-0.4,0-0.4,0.3v1.8
	c-0.1,0.4,0,0.9,0.2,1.3c0.4,0.3,1,0.4,1.5,0.3c0.5,0.1,1.1,0,1.6-0.2c0.4-0.3,0.7-0.7,0.9-1.2c0.1-0.1,0.2,0,0.3,0.1
	c-0.1,0.6-0.3,1.2-0.6,1.7c-1.1,0-2.2,0-3.3,0h-1.1c-0.5,0-1,0-1.7,0c-0.1-0.1-0.1-0.2,0-0.3h0.4c0.7-0.1,0.8-0.2,0.8-1.5L130,33
	L130,33z"/>
<path class="st0" d="M143.4,33c0-1.2,0-1.4-0.5-1.5h-0.4c-0.1-0.1-0.1-0.2,0-0.3c0,0,0,0,0,0c0.7-0.1,1.6-0.1,2.8-0.1
	c0.7,0,1.4,0.1,2.1,0.4c0.6,0.3,1,1,1,1.7c0,0.9-0.7,1.8-1.6,2.1c0,0.1,0,0.2,0.1,0.3c0.7,1.2,1.5,2.3,2.5,3.3
	c0.2,0.2,0.5,0.3,0.9,0.3c0,0,0.1,0.1,0,0.1c0,0,0,0,0,0c-0.2,0-0.4,0.1-0.5,0.1c-1.1,0-1.7-0.3-2.6-1.6c-0.3-0.5-0.8-1.3-1.2-1.9
	c-0.2-0.3-0.5-0.5-0.9-0.4c-0.6,0-0.6,0-0.6,0.3v1.6c0,1.3,0,1.5,0.7,1.5h0.3c0.1,0.1,0.1,0.2,0,0.3c-0.6,0-1,0-1.5,0s-1,0-1.6,0
	c-0.1-0.1-0.1-0.2,0-0.3h0.3c0.7-0.1,0.7-0.2,0.7-1.5L143.4,33L143.4,33z M144.4,34.8c0,0.1,0,0.3,0,0.4c0.3,0.1,0.6,0.1,0.9,0.1
	c0.5,0,0.9-0.1,1.3-0.3c0.4-0.4,0.7-1,0.6-1.5c0-1-0.7-1.9-1.7-1.9c-0.1,0-0.2,0-0.3,0c-0.8,0-0.8,0-0.8,0.4L144.4,34.8L144.4,34.8z
	"/>
<path class="st0" d="M158.4,39.5c-0.7,0-1.3-0.1-1.9-0.5c-0.2-0.6-0.3-1.1-0.3-1.7c0.1-0.1,0.2-0.1,0.3,0c0.2,1,1.1,1.8,2.1,1.8
	c0.8,0.1,1.5-0.5,1.5-1.3c0-0.1,0-0.1,0-0.2c0-0.7-0.4-1.4-1-1.7l-1.2-0.8c-0.8-0.4-1.3-1.2-1.3-2.1c0-1.2,1.1-2.2,2.3-2.2
	c0.1,0,0.2,0,0.2,0c0.4,0,0.8,0.1,1.1,0.2c0.1,0,0.3,0.1,0.4,0.1c0.1,0.5,0.2,1,0.2,1.5c-0.1,0.1-0.2,0.1-0.3,0
	c-0.1-0.8-0.8-1.4-1.7-1.4c-0.7-0.1-1.4,0.4-1.5,1.1c0,0.1,0,0.2,0,0.3c0.1,0.7,0.5,1.2,1.1,1.5l1,0.6c0.9,0.5,1.5,1.4,1.5,2.4
	c0,1.3-1.1,2.3-2.4,2.3C158.5,39.6,158.4,39.6,158.4,39.5"/>
<path class="st0" d="M169.4,33.1c0-1.3,0-1.5-0.8-1.6h-0.3c-0.1-0.1-0.1-0.2,0-0.3c0.6,0,1,0,1.6,0s0.9,0,1.5,0
	c0.1,0.1,0.1,0.2,0,0.3h-0.3c-0.7,0.1-0.8,0.3-0.8,1.6v4.4c0,1.3,0,1.5,0.8,1.6h0.3c0.1,0.1,0.1,0.2,0,0.3c-0.6,0-1,0-1.5,0
	s-0.9,0-1.6,0c-0.1-0.1-0.1-0.2,0-0.3h0.3c0.7-0.1,0.8-0.3,0.8-1.6V33.1z"/>
<path class="st0" d="M183.2,37.5c0,1.3,0,1.5,0.7,1.5h0.4c0.1,0.1,0.1,0.2,0,0.3c-0.7,0-1.1,0-1.6,0s-0.9,0-1.7,0
	c-0.1-0.1-0.1-0.2,0-0.3h0.4c0.7-0.1,0.8-0.2,0.8-1.5V32c0-0.4,0-0.4-0.4-0.4h-0.7c-0.5-0.1-1.1,0.1-1.5,0.3
	c-0.2,0.2-0.4,0.5-0.6,0.9c-0.1,0.1-0.3,0-0.3-0.1c0.2-0.6,0.4-1.2,0.5-1.9c0.1,0,0.2,0,0.2,0c0.1,0.4,0.5,0.4,1.1,0.4h5
	c0.7,0,0.8,0,1-0.4c0.1,0,0.2,0,0.2,0c-0.1,0.6-0.2,1.2-0.2,1.9c-0.1,0.1-0.2,0.1-0.3,0c0-0.3-0.1-0.6-0.3-0.9
	c-0.4-0.2-0.9-0.4-1.4-0.3h-0.9c-0.4,0-0.4,0-0.4,0.4L183.2,37.5L183.2,37.5z"/>
<path class="st0" d="M197.3,37.5c0,1.3,0.1,1.5,0.7,1.6h0.5c0.1,0.1,0.1,0.2,0,0.3c-0.8,0-1.2,0-1.7,0s-1,0-1.6,0
	c-0.1-0.1-0.1-0.2,0-0.3h0.4c0.7-0.1,0.7-0.2,0.7-1.6v-0.6c0-0.5-0.1-1.1-0.4-1.5l-1.5-2.8c-0.4-0.8-0.6-0.9-1-0.9l-0.4-0.1
	c-0.1-0.1-0.1-0.2,0-0.3c0.4,0,0.8,0,1.4,0s1,0,1.3,0c0.1,0.1,0.1,0.2,0,0.3c0,0,0,0,0,0h-0.2c-0.4,0.1-0.5,0.1-0.5,0.2
	c0.1,0.3,0.2,0.7,0.4,1c0.5,0.9,0.9,1.9,1.4,2.8c0.4-0.7,0.8-1.4,1.2-2.1c0.3-0.5,0.6-1.1,0.8-1.6c-0.1-0.1-0.3-0.2-0.5-0.2h-0.2
	c-0.1-0.1-0.1-0.2,0-0.3c0,0,0,0,0,0c0.4,0,0.8,0,1.2,0s0.7,0,1.1,0c0.1,0.1,0.1,0.2,0,0.3c0,0,0,0,0,0l-0.4,0.1
	c-0.6,0.1-1,0.9-1.6,2l-0.8,1.3c-0.4,0.6-0.6,1.3-0.6,2L197.3,37.5L197.3,37.5z"/>
<path class="st0" d="M31.4,4.4c0-0.1-2-1-2-1c-3.1-0.5-6.3-0.3-9.3,0.7l0,0c-3-1-6.2-1.3-9.3-0.7c0,0-1.9,1-2,1L5.9,11
	c-0.1,0.1,0,0.2,0,0.3c0.1,0,0.1,0,0.2,0c4.6-0.8,9.3-1.2,14-1.1l0,0c4.7,0,9.4,0.3,14,1.1c0.1,0,0.2,0,0.3-0.1c0-0.1,0-0.1,0-0.2
	L31.4,4.4z M19.4,9.2C16.2,9,10.6,9,7.8,10l2-5l1.4-0.7L9.7,8.4c3.2-0.7,6.6-0.6,9.7,0.4L19.4,9.2L19.4,9.2z M20.8,9.2V8.9
	c3.1-1,6.5-1.1,9.7-0.4L29,4.3l1.4,0.7l2,5C29.8,9.1,24.2,9.1,20.8,9.2"/>
<path class="st0" d="M38.6,2L38.6,2h-0.1C26.4-0.6,13.9-0.6,1.8,2H1.7H1.7C0.7,2.3,0,3.1,0,4.2v3.3C0,31,14.6,40.5,19,42.9
	c0.3,0.2,0.7,0.3,1.1,0.3c0.4,0,0.8-0.1,1.1-0.3c4.5-2.4,19-11.9,19-35.5V4.2C40.2,3.2,39.5,2.3,38.6,2 M19.3,41.5
	C14.4,38.8,4.5,31.1,1.9,15.3h0.1c5.7-1.2,11.5-1.8,17.2-1.9V41.5z M34.9,26.4L34.9,26.4c-1,2-2.1,4-3.5,5.8l0,0
	c-1.1,1.4-2.2,2.8-3.5,4v-6.3l-3.5-2.3v11.7c-1.1,0.8-2.3,1.6-3.5,2.3V25.2l3.5,2.3v-8.1l3.5,2.3v-8c1.2,0.1,2.3,0.2,3.5,0.4v9.9
	L34.9,26.4V14.6c1.1,0.2,2.2,0.4,3.3,0.6h0.1C37.7,19.1,36.6,22.8,34.9,26.4 M21,17.1v-3.7c1.2,0,2.3,0,3.5,0.1v5.9L21,17.1z
	 M39,7.4c0,2-0.1,4.1-0.4,6.1c-12.2-2.6-24.7-2.6-36.9,0c-0.2-2-0.4-4.1-0.4-6.1V4.2c0-0.4,0.3-0.8,0.7-0.9l0,0
	c11.9-2.5,24.2-2.5,36.1,0l0,0c0.4,0.1,0.7,0.5,0.8,0.9L39,7.4L39,7.4z"/>
<polygon class="st0" points="31.4,24.1 27.9,21.7 27.9,29.9 31.4,32.2 "/>
<path class="st0" d="M11.9,29.2c3.5,0,6.4-2.9,6.4-6.4c0-3.5-2.9-6.4-6.4-6.4c-3.5,0-6.4,2.9-6.4,6.4C5.5,26.3,8.3,29.2,11.9,29.2
	 M13,28.2c0.6-0.7,1.1-1.5,1.5-2.3c0.5,0.1,1.1,0.3,1.6,0.5C15.3,27.3,14.2,28,13,28.2 M16.6,25.7c-0.6-0.2-1.2-0.4-1.8-0.5
	c0.2-0.6,0.3-1.3,0.4-2h2.2C17.3,24.1,17,24.9,16.6,25.7 M16.6,19.8c0.5,0.8,0.8,1.6,0.8,2.5h-2.2c0-0.7-0.1-1.4-0.4-2
	C15.4,20.2,16,20,16.6,19.8 M16.1,19.1c-0.5,0.2-1,0.3-1.6,0.5c-0.4-0.8-0.9-1.6-1.6-2.2C14.2,17.6,15.3,18.3,16.1,19.1 M12.2,17.7
	c0.6,0.6,1.1,1.3,1.5,2.1c-0.5,0.1-1,0.1-1.5,0.1V17.7L12.2,17.7z M12.2,20.7c0.6,0,1.2-0.1,1.8-0.2c0.2,0.6,0.3,1.2,0.4,1.8h-2.1
	L12.2,20.7L12.2,20.7z M12.2,23.2h2.1c0,0.6-0.2,1.2-0.3,1.8c-0.6-0.1-1.2-0.1-1.8-0.2V23.2L12.2,23.2z M12.2,25.7
	c0.5,0,1,0.1,1.4,0.1c-0.4,0.8-0.9,1.5-1.4,2.1V25.7L12.2,25.7z M7.6,26.4c0.5-0.2,1-0.3,1.6-0.5c0.4,0.9,0.9,1.6,1.5,2.3
	C9.5,28,8.4,27.3,7.6,26.4 M11.4,27.9c-0.6-0.6-1.1-1.3-1.4-2.1c0.5-0.1,1-0.1,1.4-0.1L11.4,27.9L11.4,27.9z M11.4,24.9
	c-0.6,0-1.2,0.1-1.7,0.1c-0.2-0.6-0.3-1.2-0.4-1.8h2.1L11.4,24.9L11.4,24.9z M11.4,22.4H9.4c0-0.6,0.2-1.2,0.4-1.8
	c0.6,0.1,1.2,0.1,1.8,0.2L11.4,22.4L11.4,22.4z M11.4,19.9c-0.5,0-1-0.1-1.4-0.1c0.4-0.8,0.9-1.5,1.4-2.1L11.4,19.9L11.4,19.9z
	 M10.7,17.4c-0.6,0.7-1.1,1.5-1.5,2.3c-0.5-0.1-1.1-0.3-1.6-0.5C8.4,18.3,9.5,17.6,10.7,17.4 M7.1,19.9c0.6,0.2,1.2,0.4,1.8,0.5
	c-0.2,0.6-0.3,1.3-0.4,2H6.3C6.4,21.5,6.7,20.7,7.1,19.9 M6.3,23.2h2.2c0,0.7,0.1,1.4,0.4,2c-0.6,0.1-1.2,0.3-1.8,0.5
	C6.6,25,6.4,24.1,6.3,23.2"/>
<path class="st0" d="M51.8,8.9c0-3.2-0.3-3.5-2-3.6L49,5.2c-0.2-0.2-0.1-0.5,0.1-0.7c1.7,0.1,2.6,0.1,3.9,0.1s2.1,0,3.2-0.1
	c0.2,0.2,0.2,0.5,0.1,0.7l-0.4,0.1c-1.7,0.2-1.7,0.6-1.7,3.6v10.6c0.1,1.9-0.1,3.7-0.7,5.5c-0.9,2.4-3.1,4-5.6,4.1
	c-0.3,0-1.2,0-1.2-0.6c0-0.6,0.4-1.2,1-1.3c0.4,0,0.7,0.1,1,0.2c0.4,0.1,0.8,0.2,1.2,0.2c0.5,0,1-0.3,1.2-0.7
	c0.7-1.3,0.7-5.6,0.7-7.1L51.8,8.9L51.8,8.9z"/>
<path class="st0" d="M56.2,15.6c-0.1-4.6,3.5-8.4,8.1-8.5c0.1,0,0.3,0,0.4,0c4.4-0.2,8.1,3.1,8.3,7.5c0,0.3,0,0.5,0,0.8
	c0.1,4.5-3.5,8.3-8,8.4c-0.1,0-0.2,0-0.3,0C59.4,23.8,56.2,20,56.2,15.6 M70.7,16.1c0-4-1.8-8.2-6.3-8.2c-2.5,0-5.7,1.7-5.7,7
	c0,3.5,1.7,8.1,6.4,8.1C67.9,23,70.6,20.8,70.7,16.1"/>
<path class="st0" d="M78.5,15.6c-1.2,0-1.2,0-1.2,0.8v3.4c0,2.5,0.1,2.9,1.5,3l0.7,0.1c0.1,0.2,0.1,0.4,0,0.6c-1.3,0-2.1-0.1-3-0.1
	s-1.8,0-2.8,0.1c-0.1-0.2-0.1-0.4,0-0.6l0.3-0.1c1.3-0.2,1.4-0.5,1.4-3v-8.6c0-2.5-0.2-2.9-1.4-3h-0.6c-0.1-0.2-0.1-0.4,0-0.6
	c1.2,0,2,0.1,3,0.1s1.8,0,2.8-0.1c0.1,0.2,0.1,0.4,0,0.6h-0.5c-1.4,0.1-1.4,0.5-1.4,3v2.8c0,0.7,0,0.8,1.2,0.8h6.9
	c1.2,0,1.2,0,1.2-0.8v-2.8c0-2.5,0-2.9-1.5-3h-0.5c-0.1-0.2-0.1-0.4,0-0.6c1.1,0,1.9,0.1,2.9,0.1s1.8,0,2.8-0.1
	c0.1,0.2,0.1,0.4,0,0.6l-0.3,0c-1.4,0.1-1.4,0.5-1.4,3v8.6c0,2.5,0,2.8,1.4,3l0.6,0.1c0.1,0.2,0.1,0.4,0,0.6c-1.2,0-2-0.1-2.9-0.1
	s-1.8,0-2.9,0.1c-0.1-0.2-0.1-0.4,0-0.6l0.5-0.1c1.5-0.2,1.5-0.5,1.5-3v-3.4c0-0.7,0-0.8-1.2-0.8C85.5,15.6,78.5,15.6,78.5,15.6z"/>
<path class="st0" d="M107,19.3c0,0.7,0,3.6,0.1,4.2c-0.1,0.2-0.3,0.3-0.5,0.3c-0.3-0.4-1-1.2-3.1-3.6l-5.6-6.3
	c-0.7-0.7-2.3-2.7-2.8-3.2l0,0c-0.1,0.5-0.2,1-0.2,1.6v5.2c0,1.1,0,4.2,0.4,5c0.3,0.3,0.8,0.5,1.2,0.5l0.7,0.1
	c0.2,0.2,0.2,0.4,0,0.6c-1.1,0-1.9-0.1-2.8-0.1s-1.7,0-2.5,0.1c-0.2-0.2-0.2-0.4,0-0.6l0.7-0.1c0.4,0,0.8-0.2,1.1-0.5
	c0.2-1.6,0.3-3.3,0.2-5v-6.9c0.1-0.6-0.1-1.3-0.5-1.7c-0.4-0.3-0.9-0.5-1.5-0.6h-0.4c-0.2-0.2-0.2-0.4,0-0.6c0,0,0,0,0,0
	c1,0.1,2.3,0.1,2.7,0.1c0.4,0,0.7,0,1.1-0.1c0.5,1.2,3.3,4.4,4.1,5.3l2.3,2.6c1.7,1.9,2.8,3.2,4,4.3l0,0c0.1-0.3,0.1-0.7,0.1-1v-5.2
	c0-1.1,0-4.2-0.5-5c-0.4-0.3-0.9-0.5-1.4-0.4h-0.4c-0.2-0.1-0.2-0.4,0-0.6c0,0,0,0,0,0c1.1,0,1.9,0.1,2.8,0.1s1.7,0,2.5-0.1
	c0.2,0.2,0.2,0.4,0,0.6c0,0,0,0,0,0h-0.3c-0.5,0-1,0.2-1.3,0.5c-0.4,0.9-0.4,3.8-0.4,4.9v5.7H107z"/>
<path class="st0" d="M113.3,23.8c-1.3,0-2.6-0.3-3.7-0.9c-0.4-1.1-0.6-2.2-0.7-3.4c0.1-0.2,0.4-0.2,0.6-0.1c0.4,1.2,1.3,3.6,4.1,3.6
	c1.5,0.1,2.8-0.9,3-2.4c0-0.1,0-0.2,0-0.3c0.1-1.4-0.7-2.7-2-3.4l-2.3-1.5c-1.5-0.9-2.5-2.4-2.6-4.1c0-2.3,1.8-4.1,4.9-4.1
	c0.8,0,1.5,0.1,2.2,0.3c0.3,0.1,0.6,0.1,0.8,0.1c0.3,1,0.4,1.9,0.4,2.9c-0.2,0.2-0.4,0.2-0.6,0.1c-0.2-1.6-1.6-2.8-3.3-2.7
	c-2.3,0-2.9,1.6-2.9,2.7c0.1,1.3,0.9,2.4,2,3l1.9,1.2c1.8,0.9,2.9,2.6,3,4.6C118.4,22,116.4,23.8,113.3,23.8"/>
<path class="st0" d="M132.7,14.2c-1.4,0-1.4,0.1-1.4,0.9v4c0,3,0.1,3.4,1.7,3.6l0.8,0.1c0.2,0.2,0.1,0.5-0.1,0.7
	c-1.5-0.1-2.5-0.1-3.6-0.1s-2.2,0.1-3.3,0.1c-0.2-0.2-0.2-0.5-0.1-0.7l0.5-0.1c1.6-0.3,1.7-0.6,1.7-3.6V8.9c0-3-0.2-3.5-1.7-3.6
	l-0.7-0.1c-0.2-0.2-0.1-0.5,0.1-0.7c1.4,0,2.4,0.1,3.6,0.1s2.1,0,3.3-0.1c0.2,0.2,0.2,0.5,0.1,0.7L133,5.3c-1.6,0.2-1.7,0.6-1.7,3.6
	v3.3c0,0.9,0.1,0.9,1.4,0.9h8.1c1.4,0,1.4,0,1.4-0.9V8.9c0-3-0.1-3.4-1.7-3.6L140,5.2c-0.2-0.2-0.1-0.5,0-0.7
	c1.3,0.1,2.3,0.1,3.4,0.1s2.1,0,3.4-0.1c0.2,0.2,0.2,0.5,0.1,0.7l-0.6,0.1c-1.6,0.2-1.7,0.6-1.7,3.6v10.2c0,3,0.1,3.4,1.7,3.6
	l0.7,0.1c0.2,0.2,0.1,0.5-0.1,0.7c-1.4-0.1-2.3-0.1-3.4-0.1s-2.2,0-3.4,0.1c-0.2-0.2-0.2-0.5-0.1-0.7l0.5-0.1
	c1.7-0.3,1.7-0.6,1.7-3.6v-4c0-0.9-0.1-0.9-1.4-0.9L132.7,14.2L132.7,14.2z"/>
<path class="st0" d="M146.8,15.6c-0.1-4.6,3.5-8.4,8.1-8.5c0.1,0,0.3,0,0.4,0c4.4-0.2,8.1,3.1,8.3,7.5c0,0.3,0,0.5,0,0.8
	c0.1,4.5-3.5,8.3-8,8.4c-0.1,0-0.2,0-0.3,0C150,23.8,146.8,20,146.8,15.6 M161.2,16.1c0-4-1.8-8.2-6.3-8.2c-2.5,0-5.7,1.7-5.7,7
	c0,3.5,1.7,8.2,6.5,8.2C158.5,23.1,161.2,20.9,161.2,16.1"/>
<path class="st0" d="M168,19.8c0,2.5,0,2.8,1.6,3l0.6,0.1c0.1,0.2,0.1,0.4,0,0.6c-1.4,0-2.2-0.1-3.1-0.1s-1.9,0-2.9,0.1
	c-0.1-0.2-0.1-0.4,0-0.6l0.5-0.1c1.4-0.2,1.4-0.5,1.4-3v-8.9c0-2,0-2.4-1.1-2.6l-1-0.1c-0.2-0.1-0.2-0.4,0-0.6c0,0,0,0,0,0
	c1.6-0.2,3.2-0.2,4.8-0.2c1.6-0.1,3.2,0.2,4.6,1c1.2,0.8,2,2.1,1.9,3.6c0,1.6-0.9,3.1-2.4,3.8c-1,0.5-2.2,0.7-3.3,0.7
	c-0.1-0.1-0.2-0.3-0.1-0.4c0,0,0,0,0.1-0.1c2.6-0.5,3.5-1.9,3.5-4c0.2-1.9-1.3-3.7-3.2-3.8c-0.2,0-0.4,0-0.6,0
	c-1.3,0-1.3,0.1-1.3,0.9L168,19.8L168,19.8z"/>
<path class="st0" d="M178,11.1c0-2.5,0-2.9-1.4-3H176c-0.1-0.2-0.1-0.4,0-0.6c1.2,0,1.9,0.1,3,0.1s1.8,0,2.8-0.1
	c0.1,0.2,0.1,0.4,0,0.6h-0.4c-1.4,0.1-1.4,0.5-1.4,3v2.8c0,0.4,0,0.9,0.3,0.9c0.2,0,0.5-0.1,0.7-0.3c0.3-0.3,1-0.9,1.2-1.1l2.6-2.6
	c0.7-0.6,1.3-1.3,1.9-2c0.1-0.1,0.2-0.2,0.2-0.4c0-0.1-0.1-0.2-0.4-0.2l-0.6-0.1c-0.2-0.1-0.2-0.4,0-0.6c0,0,0,0,0,0
	c0.8,0,1.8,0.1,2.6,0.1s1.7,0,2.4-0.1c0.2,0.2,0.2,0.4,0,0.6c-0.8,0.1-1.5,0.3-2.2,0.7c-1.2,0.8-2.3,1.8-3.4,2.8l-2.2,2
	c-0.3,0.2-0.4,0.4-0.6,0.7c0.1,0.3,0.2,0.5,0.5,0.7c2.3,2.6,4.1,4.8,6,6.7c0.5,0.6,1.1,0.9,1.8,1l0.5,0.1c0.2,0.2,0.2,0.4,0,0.6
	c0,0,0,0,0,0c-0.6,0-1.3-0.1-2.4-0.1s-1.8,0-2.9,0.1c-0.2-0.1-0.2-0.4-0.1-0.6l0.6-0.1c0.2,0,0.4-0.1,0.6-0.2
	c-0.1-0.2-0.2-0.4-0.3-0.5c-0.5-0.6-1.1-1.2-2-2.3l-1.9-2.2c-1.4-1.5-1.8-2-2.3-2c-0.4,0-0.4,0.3-0.4,1.1v3.1c0,2.5,0,2.9,1.4,3
	l0.8,0.1c0.1,0.2,0.1,0.4,0,0.6c-1.2,0-2-0.1-2.9-0.1s-1.8,0-2.8,0.1c-0.1-0.2-0.1-0.4,0-0.6l0.5-0.1c1.3-0.2,1.3-0.5,1.3-3
	L178,11.1L178,11.1z"/>
<path class="st0" d="M194.4,11.2c0-2.5,0-3-1.5-3.1h-0.6c-0.1-0.2-0.1-0.4,0-0.6c1.2,0,2,0.1,3,0.1s1.8,0,3-0.1
	c0.1,0.2,0.1,0.4,0,0.6h-0.6c-1.4,0.1-1.5,0.5-1.5,3.1v8.5c0,2.5,0,2.9,1.5,3l0.6,0.1c0.1,0.2,0.1,0.4,0,0.6c-1.2,0-2-0.1-3-0.1
	s-1.7,0-2.9,0.1c-0.1-0.2-0.1-0.4,0-0.6l0.5-0.1c1.4-0.2,1.5-0.5,1.5-3L194.4,11.2L194.4,11.2z"/>
<path class="st0" d="M215.2,19.3c0,0.7,0,3.6,0.1,4.2c-0.1,0.2-0.3,0.3-0.5,0.3c-0.3-0.4-1-1.2-3.1-3.6l-5.6-6.3
	c-0.6-0.7-2.3-2.7-2.8-3.2l0,0c-0.1,0.5-0.1,1-0.1,1.6v5.2c0,1.1,0,4.2,0.4,5c0.3,0.3,0.8,0.5,1.2,0.5l0.7,0.1
	c0.2,0.2,0.2,0.4,0,0.6c-1.1,0-1.9-0.1-2.8-0.1s-1.7,0-2.5,0.1c-0.2-0.2-0.2-0.4,0-0.6l0.6-0.1c0.4,0,0.8-0.2,1.1-0.5
	c0.3-1.6,0.4-3.3,0.3-4.9v-7c0.1-0.6-0.1-1.3-0.5-1.7c-0.4-0.3-0.9-0.5-1.5-0.6h-0.4c-0.2-0.2-0.2-0.4,0-0.6c0,0,0,0,0,0
	c1,0.1,2.3,0.1,2.7,0.1c0.4,0,0.7,0,1.1-0.1c0.5,1.2,3.3,4.4,4.1,5.3l2.3,2.6c1.7,1.8,2.8,3.2,4,4.3l0,0c0.1-0.3,0.1-0.7,0.1-1v-5.2
	c0-1.1,0-4.2-0.5-5c-0.4-0.3-1-0.5-1.5-0.5h-0.4c-0.2-0.1-0.2-0.4,0-0.6c0,0,0,0,0,0c1.1,0,1.9,0.1,2.8,0.1s1.7,0,2.5-0.1
	c0.2,0.2,0.2,0.4,0,0.6c0,0,0,0,0,0h-0.3c-0.5,0-1,0.2-1.3,0.5c-0.4,0.9-0.4,3.8-0.4,4.9L215.2,19.3L215.2,19.3z"/>
<path class="st0" d="M221.5,23.8c-1.3,0-2.6-0.3-3.8-0.9c-0.4-1.1-0.6-2.2-0.6-3.4c0.1-0.2,0.4-0.2,0.6-0.1c0.3,1.2,1.3,3.6,4.1,3.6
	c1.5,0.1,2.8-0.9,3-2.4c0-0.1,0-0.2,0-0.3c0.1-1.4-0.7-2.7-2-3.4l-2.3-1.5c-1.5-0.9-2.4-2.4-2.5-4.1c0-2.3,1.8-4.1,4.9-4.1
	c0.8,0,1.5,0.1,2.2,0.3c0.3,0.1,0.6,0.1,0.8,0.1c0.3,1,0.4,1.9,0.4,2.9c-0.2,0.2-0.4,0.2-0.6,0.1c-0.2-1.6-1.6-2.8-3.3-2.7
	c-2.4,0-2.9,1.6-2.9,2.7c0.1,1.3,0.9,2.4,2,3l1.9,1.2c1.8,0.9,2.9,2.6,3,4.6C226.6,22,224.6,23.8,221.5,23.8"/>
</svg>
