<svg id="Layer_1" data-name="Layer 1" xmlns="http://www.w3.org/2000/svg" viewBox="0 0 295.18 74.84"><defs><style>.cls-1,.cls-2{fill:#fff;}.cls-2{fill-rule:evenodd;}</style></defs><path class="cls-1" d="M359.05,193H295.67a5.43,5.43,0,0,0-5.49,5.36v64.12a5.43,5.43,0,0,0,5.49,5.36h63.38a5.44,5.44,0,0,0,5.5-5.36V198.36A5.44,5.44,0,0,0,359.05,193Zm-46.33,62.65H301.49v-33.8h11.23Zm-5.61-38.41H307c-3.77,0-6.2-2.6-6.2-5.84s2.51-5.84,6.35-5.84,6.21,2.53,6.28,5.84S311,217.24,307.11,217.24Zm46.11,38.41H342V237.57c0-4.54-1.62-7.64-5.69-7.64a6.14,6.14,0,0,0-5.76,4.11,7.61,7.61,0,0,0-.37,2.74v18.87H318.94s.14-30.63,0-33.8h11.23v4.78a11.16,11.16,0,0,1,10.12-5.57c7.39,0,12.93,4.83,12.93,15.21Zm-23.05-28.9v-.12l-.08.12Z" transform="translate(-82 -193)"/><polygon class="cls-1" points="0 62.69 31.04 62.69 31.04 52.5 11.23 52.5 11.23 14.63 0 14.63 0 62.69 0 62.69"/><path class="cls-2" d="M128.75,255.69v-33.8H117.52v33.8Zm-5.62-38.41c3.92,0,6.36-2.59,6.36-5.84s-2.44-5.84-6.28-5.84-6.36,2.53-6.36,5.84,2.44,5.84,6.21,5.84Z" transform="translate(-82 -193)"/><path class="cls-2" d="M134,255.69H145.2V236.82a7.61,7.61,0,0,1,.37-2.74,6.14,6.14,0,0,1,5.76-4.11c4.06,0,5.69,3.1,5.69,7.64v18.08h11.23V236.31c0-10.38-5.54-15.21-12.93-15.21a11.19,11.19,0,0,0-10.2,5.7h.08v-4.91H134c.15,3.18,0,33.8,0,33.8Z" transform="translate(-82 -193)"/><path class="cls-1" d="M184.1,207.62H172.86v48.07H184.1v-11l2.8-3.53,8.8,14.49h13.82l-14.78-21,12.93-14.27H194.15s-9.24,12.77-10.05,14.28v-27.1Z" transform="translate(-82 -193)"/><path class="cls-2" d="M239.55,241.59a27.16,27.16,0,0,0,.37-4.41c0-8.74-4.43-17.61-16.1-17.61-12.49,0-18.26,9.88-18.26,18.84,0,11.08,7,18,19.29,18a34.81,34.81,0,0,0,13.08-2.24l-1.48-7.41a30.68,30.68,0,0,1-10,1.5c-5.25,0-9.83-2.15-10.2-6.74l23.27.07ZM216.2,234c.3-2.88,2.22-7.14,7-7.14,5.1,0,6.28,4.55,6.28,7.14Z" transform="translate(-82 -193)"/><path class="cls-2" d="M267.65,207.62v16h-.15c-1.62-2.38-5-4-9.53-4-8.65,0-16.26,6.92-16.18,18.74,0,11,6.87,18.09,15.44,18.09,4.65,0,9.09-2,11.31-5.91h.22l.44,5.12h10c-.15-2.38-.3-6.49-.3-10.53V207.62Zm0,32.43a12.47,12.47,0,0,1-.22,2.45,6.62,6.62,0,0,1-6.58,5.26c-4.65,0-7.68-3.75-7.68-9.66,0-5.55,2.58-10,7.75-10a6.64,6.64,0,0,1,6.58,5.33,9.17,9.17,0,0,1,.15,2v4.62Z" transform="translate(-82 -193)"/><path class="cls-2" d="M330.17,226.63v.12h-.08Z" transform="translate(-82 -193)"/><path class="cls-2" d="M371.48,255.06h.86v-1.93H373l1.18,1.93h.91l-1.23-2a1.19,1.19,0,0,0,1.13-1.29c0-.91-.54-1.42-1.67-1.42h-1.81v4.71Zm.86-4H373c.53,0,1.12,0,1.12.65s-.59.67-1.12.67h-.63v-1.32Zm-3.4,1.65a4.12,4.12,0,1,0,4.12-4.12,4.13,4.13,0,0,0-4.12,4.12Zm.73,0a3.39,3.39,0,1,1,3.39,3.39,3.39,3.39,0,0,1-3.39-3.39Z" transform="translate(-82 -193)"/></svg>