<svg id="White" xmlns="http://www.w3.org/2000/svg" viewBox="0 0 480 270"><defs><style>.cls-1{fill:#fff;}</style></defs><g id="Microsoft"><path class="cls-1" d="M75,99.77h33.52v33.52H75V99.77Z"/><path class="cls-1" d="M112,99.77h33.52v33.52H112q0-16.77,0-33.52Z"/><path class="cls-1" d="M377.31,112.54a13.14,13.14,0,0,1,10.56-1.24c0,2.07,0,4.14,0,6.21a7,7,0,0,0-5.35-.49,4.26,4.26,0,0,0-2.42,3.38,44.71,44.71,0,0,0-.13,5.43H390.6c0-2.3,0-4.6,0-6.89,2.4-.69,4.78-1.45,7.17-2.17,0,3,0,6,0,9.07,2.39,0,4.78,0,7.17,0v5.88c-2.4-.09-4.8,0-7.2,0,0,3.38,0,6.77,0,10.16,0,1.87-.1,3.75.12,5.62a3.62,3.62,0,0,0,1.57,2.89,5.4,5.4,0,0,0,5.51-.51v5.94a14.17,14.17,0,0,1-6.63,1,8.06,8.06,0,0,1-5.71-2.62c-1.61-1.91-2-4.5-2.05-6.92,0-5.2,0-10.39,0-15.59H380v24.46h-7.25q0-12.22,0-24.45c-1.68,0-3.36,0-5,0,0-1.94,0-3.88,0-5.81,1.67,0,3.35,0,5,0,.12-2.58-.27-5.22.5-7.73a9.84,9.84,0,0,1,4.09-5.58Z"/><path class="cls-1" d="M222.07,113a4.45,4.45,0,0,1,4,1.42,4.15,4.15,0,0,1,.5,4.71,4.51,4.51,0,0,1-4.83,2,4.08,4.08,0,0,1-3.36-4,4.19,4.19,0,0,1,3.67-4.11Z"/><path class="cls-1" d="M166.51,113.86h10.54l9.88,25c.84,2.09,1.62,4.19,2.5,6.26,4.23-10.41,8.51-20.8,12.7-31.23,3.38,0,6.76,0,10.14,0v42.28c-2.44,0-4.88,0-7.32,0,0-10.39,0-20.79,0-31.2,0-.46,0-.93-.05-1.4a6.52,6.52,0,0,0-.38.68c-4.19,10.64-8.46,21.26-12.62,31.91-1.74.07-3.48,0-5.22,0-4.32-10.65-8.59-21.32-12.89-32a6.6,6.6,0,0,0-.36-.64c-.09,4.55,0,9.11,0,13.67v18.93h-6.9V113.86Z"/><path class="cls-1" d="M242,125.81a19.8,19.8,0,0,1,10.77,0,8.71,8.71,0,0,1,2.07.86c-.05,2.31,0,4.62,0,6.93a11.54,11.54,0,0,0-8.27-2.54,8.52,8.52,0,0,0-6,3.35,11.67,11.67,0,0,0-1.93,8.39,8.56,8.56,0,0,0,9.72,8,13.76,13.76,0,0,0,6.5-2.67c0,2.19,0,4.38,0,6.57a17.64,17.64,0,0,1-9.91,2,14.71,14.71,0,0,1-9.45-3.94,15.06,15.06,0,0,1-4.38-10.14A18.33,18.33,0,0,1,234,131.49a14.61,14.61,0,0,1,8.05-5.68Z"/><path class="cls-1" d="M307.86,132.91a12.85,12.85,0,0,0-6.33-6.4,19.17,19.17,0,0,0-10.38-1.22,14.46,14.46,0,0,0-9.53,5.09,16.15,16.15,0,0,0-3.35,9.26A17.38,17.38,0,0,0,280.93,151a13.72,13.72,0,0,0,8.37,5.46,20.76,20.76,0,0,0,8.49,0,14,14,0,0,0,8.32-5.14,16,16,0,0,0,3.19-8.82A19.9,19.9,0,0,0,307.86,132.91Zm-7,13.91a6.6,6.6,0,0,1-3.56,3.5,9.78,9.78,0,0,1-5.91.26,7.25,7.25,0,0,1-4.55-3.75,14,14,0,0,1-1.1-7.58,9.67,9.67,0,0,1,2.8-6.33,7.62,7.62,0,0,1,4.77-1.88,7.81,7.81,0,0,1,6.07,2.06,9.82,9.82,0,0,1,2.5,6.32A15.94,15.94,0,0,1,300.86,146.82Z"/><path class="cls-1" d="M321.23,125.35a19.18,19.18,0,0,1,10,1v6.67a12.67,12.67,0,0,0-7.61-2.25,3.89,3.89,0,0,0-3.47,1.91,3.13,3.13,0,0,0,1.06,3.71c2.05,1.38,4.5,2,6.63,3.19a9.62,9.62,0,0,1,4.16,3.95,8.86,8.86,0,0,1-1.89,10.21c-2.68,2.5-6.54,3.19-10.09,3.06a21.52,21.52,0,0,1-7.37-1.69c0-2.34,0-4.67,0-7a15.8,15.8,0,0,0,6.58,2.84,8.46,8.46,0,0,0,5-.46,2.9,2.9,0,0,0,.87-4.12,8.64,8.64,0,0,0-3.17-2.07,30.25,30.25,0,0,1-6.25-3.21A7.44,7.44,0,0,1,313,137a9.24,9.24,0,0,1,1-7.23,10.75,10.75,0,0,1,7.22-4.43Z"/><path class="cls-1" d="M365.93,133.79a13,13,0,0,0-6.23-7,18.75,18.75,0,0,0-10.76-1.46A14.15,14.15,0,0,0,336.14,138a20.21,20.21,0,0,0,1.14,10.53,13.43,13.43,0,0,0,7.37,7.14,19.49,19.49,0,0,0,10.21.87,14.16,14.16,0,0,0,8.91-5.22A16.53,16.53,0,0,0,367.05,141,19.32,19.32,0,0,0,365.93,133.79Zm-6.54,10.27a9.4,9.4,0,0,1-1.88,4.45,6.79,6.79,0,0,1-4.23,2.28,9.57,9.57,0,0,1-5.19-.57,7.31,7.31,0,0,1-3.82-4,14.27,14.27,0,0,1-.86-6.6,10.43,10.43,0,0,1,2.19-6,7.39,7.39,0,0,1,5.29-2.54,7.93,7.93,0,0,1,5.81,1.71,8.36,8.36,0,0,1,2.63,4.83A18.5,18.5,0,0,1,359.39,144.06Z"/><path class="cls-1" d="M271.08,126.3a8.21,8.21,0,0,1,6.73-.57c0,2.42,0,4.84,0,7.26a7.68,7.68,0,0,0-4.9-1.15,6,6,0,0,0-4.53,3.62,13.37,13.37,0,0,0-1,6.19v14.49h-7.15q0-15.13,0-30.29c2.38,0,4.77,0,7.16,0,0,1.73,0,3.46,0,5.2a9.3,9.3,0,0,1,3.75-4.75Z"/><path class="cls-1" d="M219.06,125.85c2.4,0,4.81,0,7.21,0,0,10.09,0,20.19,0,30.28h-7.2q0-15.15,0-30.29Z"/><path class="cls-1" d="M75,136.71h33.52q0,16.77,0,33.52H75V136.71Z"/><path class="cls-1" d="M112,136.71h33.52v33.52H112q0-16.75,0-33.52Z"/></g></svg>