<svg id="White" xmlns="http://www.w3.org/2000/svg" viewBox="0 0 480 270"><defs><style>.cls-1{fill:#fff;}</style></defs><path id="Oracle" class="cls-1" d="M217.47,150.18h21.8l-11.53-18.59L206.6,165.16H197l25.74-40.29a6.14,6.14,0,0,1,10-.07l25.82,40.36h-9.63l-4.54-7.5H222.28l-4.81-7.48m100,7.48v-35H309.3V161.1a3.92,3.92,0,0,0,1.21,2.81,4.14,4.14,0,0,0,3,1.25h37.23l4.86-7.5H317.49M182.3,151.4a14.37,14.37,0,0,0,0-28.74H146.54v42.5h8.17v-35h27a6.88,6.88,0,0,1,0,13.76l-23,0,24.41,21.25H195L178.58,151.4h3.72m-86,13.76H121a21.25,21.25,0,0,0,0-42.5H96.27a21.25,21.25,0,1,0,0,42.5m24.13-7.47H96.81a13.76,13.76,0,0,1,0-27.52H120.4a13.76,13.76,0,1,1,0,27.52m155.19,7.47h25.22l4.77-7.47H276.14a13.76,13.76,0,1,1,0-27.52h24l4.84-7.51H275.59a21.25,21.25,0,1,0,0,42.5m99.94-7.47a13.77,13.77,0,0,1-13.24-10h34.92l4.82-7.48H362.29a13.73,13.73,0,0,1,13.24-10h24l4.79-7.51H375a21.25,21.25,0,0,0,0,42.5H400.2l4.8-7.47H375.53"/></svg>