<?xml version="1.0" encoding="utf-8"?>
<!-- Generator: Adobe Illustrator 25.1.0, SVG Export Plug-In . SVG Version: 6.00 Build 0)  -->
<svg version="1.1" id="Layer_1" xmlns="http://www.w3.org/2000/svg" xmlns:xlink="http://www.w3.org/1999/xlink" x="0px" y="0px"
	 viewBox="0 0 460 185.4" style="enable-background:new 0 0 460 185.4;" xml:space="preserve">
<style type="text/css">
	.st0{fill:#FFFFFF;}
</style>
<g>
	<path class="st0" d="M107.5,41.9c-7.5-3.2-17.8-5.5-26.1-5.5c-8.2,0-18.7,3.5-18.7,16.2c0,20.3,52,11.7,52,50.9
		c0,25.6-20.6,35.3-44.6,35.3c-12.9,0-18.7-1.7-30.4-4.5l0-21.1c8.2,4.4,19.7,7.2,29.1,7.2c9,0,21.1-4.5,21.1-15.1
		c0-22.3-52-13.1-52-51.7C37.8,27.5,58.4,18,79.3,18c10.2,0,19.7,1.3,28.4,4.2L107.5,41.9z"/>
	<path class="st0" d="M243.9,71.1c-6.8-2.3-12.9-3.6-21-3.6c-5.9,0-13,2.1-13,9.3c0,13.3,38.5,4.9,38.5,35.1
		c0,19.5-17.7,27.3-35.7,27.3c-8.4,0-17-1.5-25.1-3.6l1.3-17.9c6.9,3.4,14.2,5.5,21.8,5.5c5.6,0,14.5-2.1,14.5-10.2
		c0-16.4-38.5-5.2-38.5-35.4c0-18,16-26,33.4-26c10.4,0,17.2,1.6,24.1,3.1L243.9,71.1z"/>
	<path class="st0" d="M314,71.5c-4-1.8-8.3-3.1-15-3.1c-13.7,0-22.5,10.7-22.5,26.5c0,15.4,7.4,27.3,22.9,27.3
		c6.3,0,13.2-2.3,17-3.9l1,18c-6.4,2-13,2.8-22.1,2.8c-27.9,0-41.9-18.7-41.9-44.2c0-24.2,14.5-43.4,41.1-43.4
		c8.9,0,15.4,1,21.5,2.8L314,71.5z"/>
	<path class="st0" d="M364.4,51.5c25.3,0,44.6,16.7,44.6,44.4c0,24.1-16.3,43.2-44.6,43.2c-28.1,0-44.4-19.2-44.4-43.2
		C319.9,68.3,339.3,51.5,364.4,51.5 M364.4,122.3c17,0,21.5-15,21.5-28.9c0-12.8-6.9-24.9-21.5-24.9c-14.4,0-21.3,12.4-21.3,24.9
		C343.1,107.1,347.5,122.3,364.4,122.3"/>
	<polygon class="st0" points="189.2,52.4 166.8,52.4 124.5,167.4 144.8,167.4 	"/>
	<path class="st0" d="M97.4,50.3c9.4,9.5,18.7,21.1,25.5,34.7c6.1,12.1,9.1,24,11.3,35.9c0.1,0.4,0.4,0.4,0.5,0.1
		c8.1-14.1,13-33.3,5.8-47.7C133,58,114.8,51,97.7,49.6C97.1,49.6,97,49.9,97.4,50.3"/>
	<path class="st0" d="M415.7,51.5c3.6,0,6.4,2.8,6.4,6.4c0,3.6-2.8,6.4-6.5,6.4c-3.6,0-6.5-2.8-6.5-6.4
		C409.2,54.3,412.1,51.5,415.7,51.5L415.7,51.5z M415.7,52.7c-2.9,0-5.1,2.4-5.1,5.3c0,3,2.2,5.3,5.2,5.3c2.8,0,5-2.3,5-5.2
		C420.7,55,418.6,52.7,415.7,52.7L415.7,52.7z M414.5,61.4h-1.2v-6.7c0.7-0.1,1.4-0.2,2.3-0.2c1.1,0,1.7,0.2,2.1,0.5
		c0.4,0.3,0.7,0.8,0.7,1.4c0,0.8-0.6,1.3-1.3,1.6v0.1c0.6,0.2,0.9,0.8,1.1,1.6c0.2,1,0.4,1.4,0.5,1.6h-1.3c-0.2-0.2-0.4-0.8-0.6-1.7
		c-0.2-0.8-0.6-1.1-1.5-1.1h-0.8V61.4z M414.5,57.7h0.8c0.9,0,1.7-0.3,1.7-1c0-0.6-0.4-1.1-1.6-1.1c-0.5,0-0.8,0-1,0.1V57.7z"/>
</g>
</svg>
