<svg id="White" xmlns="http://www.w3.org/2000/svg" viewBox="0 0 480 270"><defs><style>.cls-1{fill:#fff;}</style></defs><g id="vmware"><path class="cls-1" d="M215.37,156.26l-14.32-39.87a6.29,6.29,0,0,1-.45-1.91,3.46,3.46,0,0,1,3.56-3.35,3.68,3.68,0,0,1,3.55,2.9l11.87,34.33,11.92-34.42a3.6,3.6,0,0,1,3.47-2.81h.36a3.74,3.74,0,0,1,3.65,2.81l11.84,34.42,12-34.5a3.44,3.44,0,0,1,3.38-2.73,3.38,3.38,0,0,1,3.47,3.27,6.77,6.77,0,0,1-.46,1.91l-14.4,39.95c-.74,2.08-2.19,3.18-3.84,3.18h-.26c-1.83,0-3.2-1.1-3.83-3.18L235.14,122.4l-11.83,33.86c-.65,2.08-2,3.18-3.84,3.18h-.18c-1.74,0-3.19-1.1-3.92-3.18"/><path class="cls-1" d="M319.65,114.6a3.52,3.52,0,1,1,7,0v8.09c3.47-7.86,11.16-11.56,16.25-11.56a3.36,3.36,0,0,1,3.46,3.56,3.46,3.46,0,0,1-3.09,3.55c-9.15,1.11-16.62,8-16.62,21.56v16a3.52,3.52,0,1,1-7,0V114.6"/><path class="cls-1" d="M369,159.81c-12.7,0-23.08-9.85-23.08-24.31v-.19c0-13.47,9.4-24.3,22.18-24.3,13.69,0,21.47,11.28,21.47,23.67a3.21,3.21,0,0,1-3.22,3.25H352.86c1,10.13,8,15.82,16.29,15.82a18.8,18.8,0,0,0,13.33-5.42,2.9,2.9,0,0,1,2-.82,3,3,0,0,1,2,5.26,23.44,23.44,0,0,1-17.45,7m13.69-27c-.72-8.52-5.54-15.91-14.75-15.91-8.08,0-14.15,6.75-15,15.91Z"/><path class="cls-1" d="M269.82,145.18V145c0-9.92,8.19-15.2,20.13-15.2a49.3,49.3,0,0,1,14.45,2v-1.64c0-8.46-5.18-12.84-14-12.84a23.8,23.8,0,0,0-11,2.16,3.68,3.68,0,0,1-1.26.26,3.12,3.12,0,0,1-3.11-3,2.85,2.85,0,0,1,1.94-2.9c4.63-2,8.12-2.69,14.12-2.69,6.65,0,11.74,1.74,15.19,5.19,3.2,3.18,4.83,7.75,4.83,13.75v26a3.33,3.33,0,0,1-3.38,3.46,3.25,3.25,0,0,1-3.36-3.29v-4.49a20.62,20.62,0,0,1-17,8.1c-8.74,0-17.57-5-17.57-14.65m34.68-3.64V137a50,50,0,0,0-13.84-2c-8.82,0-13.75,3.8-13.75,9.71v.2c0,5.9,5.48,9.36,11.85,9.36,8.63,0,15.74-5.28,15.74-12.73"/><path class="cls-1" d="M87.86,114.08a6.65,6.65,0,0,0-8.93-3.31,6.5,6.5,0,0,0-3.25,8.9l14.93,32.46c2.36,5.09,4.82,7.76,9.47,7.76,5,0,7.13-2.9,9.48-7.76,0,0,13-28.35,13.16-28.67a1.9,1.9,0,0,1,1.88-1.2,2.09,2.09,0,0,1,2.06,2.11v27.75c0,4.26,2.37,7.77,6.94,7.77s7-3.51,7-7.77V129.41c0-4.37,3.14-7.23,7.43-7.23s7.12,2.94,7.12,7.23v22.71c0,4.26,2.37,7.77,6.94,7.77s7-3.51,7-7.77V129.41c0-4.37,3.13-7.23,7.41-7.23s7.12,2.94,7.12,7.23v22.71c0,4.26,2.38,7.77,6.93,7.77s7-3.51,7-7.77V126.26c0-9.49-7.63-16.15-16.83-16.15a21.58,21.58,0,0,0-14.92,6.36c-3.05-4-7.27-6.34-14.4-6.34-7.52,0-14.09,6.34-14.09,6.34a16.9,16.9,0,0,0-12.56-6.34c-6.68,0-12,2.93-15.2,10.31l-9.54,22.48L87.86,114.08"/><path class="cls-1" d="M393.58,117.25v0a5.71,5.71,0,1,1,11.42,0v0a5.71,5.71,0,1,1-11.42,0m10.31,0v0a4.59,4.59,0,0,0-4.61-4.64,4.64,4.64,0,0,0-4.62,4.67v0a4.62,4.62,0,1,0,9.23,0"/><path class="cls-1" d="M397.09,114.83a.61.61,0,0,1,.61-.61h1.92a2.21,2.21,0,0,1,1.61.55,1.83,1.83,0,0,1,.47,1.28h0a1.67,1.67,0,0,1-1.09,1.68l.85,1a.82.82,0,0,1,.19.47.57.57,0,0,1-.59.56.68.68,0,0,1-.59-.32L399.28,118h-1v1.23a.6.6,0,0,1-.62.6.61.61,0,0,1-.61-.6Zm2.45,2.07c.59,0,.93-.32.93-.77v0c0-.52-.36-.79-.93-.79h-1.22v1.59Z"/></g></svg>