<?xml version="1.0" encoding="utf-8"?>
<!-- Generator: Adobe Illustrator 25.1.0, SVG Export Plug-In . SVG Version: 6.00 Build 0)  -->
<svg version="1.1" id="Layer_1" xmlns="http://www.w3.org/2000/svg" xmlns:xlink="http://www.w3.org/1999/xlink" x="0px" y="0px"
	 viewBox="0 0 748.3 179.4" style="enable-background:new 0 0 748.3 179.4;" xml:space="preserve">
<style type="text/css">
	.st0{fill:#FFFFFF;}
</style>
<path class="st0" d="M226.5,89.7c0,39.7-32.2,71.9-71.9,71.9s-71.9-32.2-71.9-71.9s32.2-71.9,71.9-71.9c11,0,21.4,2.5,30.8,6.9
	c-1.2-0.4-3.2-0.6-5.1-0.6c-15,0-31.5,6.4-43.5,16.4c-12.3,10.2-22,27.5-21.9,45.3c0.1,27.1,20.6,43.9,40.4,43.9
	c24.4-0.1,38.8-20.1,38.7-38.4c-0.1-18.3-10-31.5-31.9-36.8c0-0.2-0.1-0.7-0.1-1.2c0-13.8,10.4-26,23.4-28.7h0
	C209.7,36.2,226.5,61,226.5,89.7z"/>
<polygon class="st0" points="272.9,119.5 250.9,67 265.2,67 279,101.8 292.2,67 305.9,67 284.6,119.5 "/>
<path class="st0" d="M357.5,93c0,3.4-0.5,6.8-1.6,10.1c-1.1,3.3-2.6,6.3-4.7,8.9c-2.1,2.6-4.7,4.7-7.8,6.3c-3.2,1.6-6.8,2.4-11,2.4
	c-4.2,0-7.9-0.8-11-2.4c-3.2-1.6-5.8-3.7-7.8-6.3c-2.1-2.6-3.6-5.6-4.7-8.9c-1.1-3.3-1.6-6.7-1.6-10.1c0-3.4,0.5-6.7,1.6-10
	c1.1-3.3,2.6-6.2,4.7-8.8c2.1-2.6,4.7-4.6,7.8-6.2c3.2-1.6,6.8-2.3,11-2.3c4.2,0,7.9,0.8,11,2.3c3.1,1.6,5.7,3.6,7.8,6.2
	c2.1,2.6,3.7,5.5,4.7,8.8C356.9,86.3,357.5,89.6,357.5,93 M344.2,93c0-2.2-0.3-4.3-0.8-6.2c-0.5-2-1.3-3.7-2.3-5.1
	c-1-1.4-2.2-2.5-3.7-3.4s-3.2-1.3-5.1-1.3c-2,0-3.7,0.4-5.1,1.3s-2.7,2-3.7,3.4c-1,1.4-1.8,3.1-2.3,5.1c-0.5,2-0.8,4-0.8,6.2
	c0,2.3,0.3,4.4,0.8,6.3c0.5,1.9,1.3,3.6,2.2,5.1c1,1.5,2.2,2.6,3.7,3.4c1.5,0.8,3.2,1.3,5.2,1.3c2,0,3.7-0.4,5.1-1.3
	c1.5-0.8,2.7-2,3.7-3.4c1-1.5,1.8-3.2,2.3-5.1C343.9,97.3,344.2,95.2,344.2,93"/>
<path class="st0" d="M399.1,119.5l-0.5-4c-1.2,1.4-2.9,2.6-4.9,3.6c-2,1.1-4.4,1.6-7.2,1.6c-3.6,0-6.8-0.8-9.5-2.3
	c-2.7-1.5-5.1-3.5-6.9-6.1c-1.9-2.5-3.3-5.5-4.3-8.8c-1-3.3-1.5-6.8-1.5-10.4c0-3.4,0.5-6.7,1.5-10c1-3.3,2.5-6.2,4.6-8.8
	c2.1-2.6,4.6-4.6,7.8-6.2c3.1-1.6,6.8-2.3,11-2.3c2.7,0,5.7,0.5,8.9,1.5V46.9h13.5v72.6H399.1z M398,78.6c-2.6-1-5-1.5-7.3-1.5
	c-2.3,0-4.3,0.4-6,1.3c-1.7,0.9-3,2.1-4.1,3.5c-1.1,1.5-1.9,3.2-2.4,5c-0.5,1.9-0.8,3.8-0.8,5.7c0,2.2,0.2,4.3,0.7,6.3
	c0.5,2,1.2,3.7,2.2,5.2c1,1.5,2.2,2.7,3.7,3.6c1.5,0.9,3.2,1.4,5.2,1.4c1.7,0,3.4-0.5,5.1-1.4c1.7-0.9,3-2,3.7-3.2V78.6z"/>
<path class="st0" d="M450.6,119.4l-0.5-3.9c-1.5,1.6-3.3,2.9-5.6,3.8c-2.3,0.9-4.7,1.4-7.4,1.4c-2.3,0-4.4-0.4-6.5-1.1
	c-2.1-0.8-3.9-1.8-5.5-3.3c-1.6-1.4-2.9-3.2-3.9-5.2c-1-2.1-1.5-4.4-1.5-7c0-2.6,0.5-4.9,1.5-6.9c1-2,2.4-3.7,4.1-5.1
	c1.7-1.4,3.7-2.5,6-3.4c2.3-0.9,4.6-1.5,7.1-2c1.7-0.4,3.7-0.6,5.7-0.8c2.1-0.2,3.8-0.3,5.2-0.5v-0.8c0-2.9-0.7-5-2.2-6.2
	c-1.5-1.2-3.5-1.8-6.2-1.8c-1.5,0-3,0.2-4.4,0.5c-1.4,0.4-2.6,0.8-3.7,1.4c-1.1,0.5-2.1,1.1-2.9,1.6c-0.8,0.5-1.5,1-2,1.5l-4.5-9.5
	c0.6-0.5,1.5-1.1,2.7-1.9c1.2-0.7,2.6-1.4,4.4-2.1c1.7-0.7,3.6-1.3,5.8-1.7c2.1-0.5,4.4-0.7,6.9-0.7c2.9,0,5.6,0.4,7.9,1.1
	c2.4,0.8,4.5,2,6.2,3.6c1.7,1.6,3.1,3.7,4.1,6.2c1,2.5,1.5,5.5,1.5,9.1v33.7H450.6z M449.5,94.9c-1.5,0.1-3,0.2-4.5,0.4
	c-1.5,0.2-3,0.4-4.4,0.7c-2.9,0.6-4.9,1.6-6.1,3c-1.1,1.4-1.7,3-1.7,4.6c0,1.7,0.6,3.1,1.9,4.2c1.3,1.1,3.1,1.6,5.4,1.6
	c1.8,0,3.5-0.4,5.1-1.1c1.6-0.7,3-1.6,4.2-2.7V94.9z"/>
<path class="st0" d="M504.5,58.9c-0.4-0.2-1.3-0.5-2.6-0.9c-1.3-0.4-3-0.6-5.1-0.6c-1.9,0-3.5,0.6-4.7,1.7c-1.3,1.1-1.9,3-1.9,5.5
	V67h11.3v10.9h-11.2v41.6h-13.5V77.9h-7V67h7v-2.8c0-3.4,0.4-6.3,1.3-8.6c0.9-2.4,2.1-4.3,3.6-5.8c1.6-1.5,3.4-2.6,5.5-3.3
	c2.1-0.7,4.4-1,6.9-1c3.3,0,6,0.3,8.1,0.9c2.1,0.6,3.4,1,3.8,1.3L504.5,58.9z"/>
<path class="st0" d="M554.6,93c0,3.4-0.5,6.8-1.6,10.1c-1.1,3.3-2.6,6.3-4.7,8.9c-2.1,2.6-4.7,4.7-7.8,6.3c-3.2,1.6-6.8,2.4-11,2.4
	c-4.2,0-7.9-0.8-11-2.4c-3.2-1.6-5.8-3.7-7.8-6.3c-2.1-2.6-3.6-5.6-4.7-8.9c-1.1-3.3-1.6-6.7-1.6-10.1c0-3.4,0.5-6.7,1.6-10
	c1.1-3.3,2.6-6.2,4.7-8.8c2.1-2.6,4.7-4.6,7.8-6.2c3.2-1.6,6.8-2.3,11-2.3c4.2,0,7.9,0.8,11,2.3c3.1,1.6,5.7,3.6,7.8,6.2
	c2.1,2.6,3.7,5.5,4.7,8.8C554.1,86.3,554.6,89.6,554.6,93 M541.3,93c0-2.2-0.3-4.3-0.8-6.2c-0.5-2-1.3-3.7-2.3-5.1
	c-1-1.4-2.2-2.5-3.7-3.4c-1.5-0.8-3.2-1.3-5.1-1.3c-2,0-3.7,0.4-5.1,1.3s-2.7,2-3.7,3.4c-1,1.4-1.8,3.1-2.3,5.1
	c-0.5,2-0.8,4-0.8,6.2c0,2.3,0.3,4.4,0.8,6.3c0.5,1.9,1.3,3.6,2.2,5.1c1,1.5,2.2,2.6,3.7,3.4c1.5,0.8,3.2,1.3,5.2,1.3
	c2,0,3.7-0.4,5.1-1.3c1.5-0.8,2.7-2,3.7-3.4c1-1.5,1.8-3.2,2.3-5.1C541.1,97.3,541.3,95.2,541.3,93"/>
<path class="st0" d="M596.5,119.5V89.5c0-4-0.8-7.1-2.5-9.3c-1.7-2.2-4-3.3-7-3.3c-2.1,0-4,0.5-5.8,1.6c-1.8,1.1-3.3,2.3-4.6,3.6
	v37.2h-13.5V67h12.3l0.7,4.1c2.1-1.7,4.5-3.1,7.1-4c2.6-0.9,5.3-1.4,8-1.4c2.8,0,5.3,0.4,7.6,1.3c2.3,0.8,4.3,2.2,6,4
	c1.7,1.8,3,4.2,3.9,7.1c0.9,2.9,1.4,6.4,1.4,10.4v31H596.5z"/>
<path class="st0" d="M631.6,96.6c0.3,4.4,1.7,7.6,4.2,9.6c2.5,2,5.7,2.9,9.6,2.9c1.8,0,3.5-0.2,5.1-0.5c1.6-0.3,3-0.7,4.3-1.3
	c1.2-0.5,2.3-1,3.2-1.5c0.9-0.5,1.5-1,2-1.4l3.6,11c-0.5,0.4-1.3,0.9-2.4,1.5c-1.1,0.6-2.5,1.2-4.2,1.7c-1.7,0.5-3.6,1-5.9,1.4
	c-2.2,0.4-4.7,0.6-7.4,0.6c-3.4,0-6.7-0.5-9.7-1.6c-3.1-1.1-5.8-2.8-8.1-5.1c-2.3-2.3-4.2-5.1-5.5-8.5c-1.4-3.4-2.1-7.5-2.1-12.2
	c0-4.4,0.6-8.3,1.9-11.7c1.3-3.4,3-6.3,5.2-8.6c2.2-2.3,4.8-4.1,7.7-5.3c2.9-1.2,6.1-1.8,9.4-1.8c3.3,0,6.4,0.5,9.3,1.6
	c2.8,1.1,5.3,2.8,7.3,5.1c2.1,2.3,3.7,5.2,4.9,8.9c1.2,3.6,1.8,7.9,1.8,12.9v2.4H631.6z M651.9,86.9c-0.1-1.8-0.5-3.4-1.1-4.7
	s-1.4-2.4-2.3-3.3c-0.9-0.8-1.9-1.5-3-1.9c-1.1-0.4-2.1-0.6-3.2-0.6c-2.3,0-4.6,0.9-6.7,2.6c-2.1,1.7-3.4,4.4-3.7,7.8H651.9z"/>
</svg>
