<?xml version="1.0" encoding="utf-8"?>
<!-- Generator: Adobe Illustrator 25.2.0, SVG Export Plug-In . SVG Version: 6.00 Build 0)  -->
<svg version="1.1" id="Layer_1" xmlns="http://www.w3.org/2000/svg" xmlns:xlink="http://www.w3.org/1999/xlink" x="0px" y="0px"
	 viewBox="0 0 50 50" style="enable-background:new 0 0 50 50;" xml:space="preserve">
<style type="text/css">
	.st0{fill:#FFFFFF;}
</style>
<g>
	<path class="st0" d="M43.7,13h-8.2c-1.4,0-2.4-1.1-2.4-2.4l0,0V2.3h0.8v8.2c0,0.9,0.8,1.7,1.7,1.7h8.2V13L43.7,13z"/>
	<path class="st0" d="M34,0.7H8.6C6.6,0.7,5,2.3,5,4.3l0,0v41.6c0,2,1.7,3.6,3.6,3.6l0,0h32.8c2,0,3.6-1.7,3.6-3.6v-34l-0.5-0.5
		L34.4,1.3L34,0.7z M33.3,2.3l10.2,10.2v33.4c0,1.1-0.9,2.1-2,2.1c0,0,0,0-0.2,0H8.6c-1.1,0-2-0.9-2.1-2V4.5c0-1.1,0.9-2.1,2-2.1
		l0,0L33.3,2.3"/>
	<rect x="11.5" y="20.1" class="st0" width="27.2" height="0.8"/>
	<rect x="11.5" y="27.8" class="st0" width="27.2" height="0.8"/>
	<rect x="11.5" y="35.6" class="st0" width="17.6" height="0.8"/>
</g>
</svg>
