<svg xmlns="http://www.w3.org/2000/svg" xmlns:xlink="http://www.w3.org/1999/xlink" viewBox="0 0 200 200"><defs><style>.cls-1,.cls-2{fill:none;}.cls-1{clip-rule:evenodd;}.cls-2,.cls-5,.cls-6{fill-rule:evenodd;}.cls-3{fill:#fff;}.cls-4{clip-path:url(#clip-path);}.cls-5{fill:#9c4877;}.cls-6{fill:#a4a5a8;opacity:0.15;}</style><clipPath id="clip-path"><polygon class="cls-1" points="-23.68 199.87 222.49 199.87 222.49 -0.13 -23.68 -0.13 -23.68 199.87 -23.68 199.87"/></clipPath></defs><g id="_200x200_Selection" data-name="200x200 Selection"><rect class="cls-3" width="200" height="200"/></g><g id="cloud-performance-figure-2"><g class="cls-4"><path class="cls-5" d="M99.4,10.46a89.44,89.44,0,1,1-47.93,165l13.42-21.14A64.4,64.4,0,1,0,99.4,35.5Z"/></g><g class="cls-4"><path class="cls-6" d="M51.47,175.41A89.44,89.44,0,0,1,99.4,10.46v25A64.4,64.4,0,0,0,64.89,154.27Z"/></g><path d="M67.21,93.91q6.15,0,9.74,3.26A11.36,11.36,0,0,1,80.54,106q0,6.51-4.07,10.18t-11.59,3.66q-6.82,0-10.72-2.2v-5.93a19.59,19.59,0,0,0,5.18,2,23.1,23.1,0,0,0,5.42.7q4.42,0,6.74-2a7.17,7.17,0,0,0,2.31-5.78q0-7.3-9.3-7.3a23.91,23.91,0,0,0-3.23.27,33.54,33.54,0,0,0-3.36.6L55,98.5l1.56-19.87H77.71v5.82H62.31L61.4,94.52l2.38-.39A22.16,22.16,0,0,1,67.21,93.91Z"/><path d="M113.47,96q0,12-4.84,18T94,119.88a22,22,0,0,1-5.31-.45V114a18.47,18.47,0,0,0,5,.69q6.63,0,9.88-3.56t3.56-11.19h-.33a9.88,9.88,0,0,1-4,3.62,12.49,12.49,0,0,1-5.44,1.11,11,11,0,0,1-8.49-3.36Q85.83,97.89,85.83,92q0-6.37,3.58-10.15t9.75-3.77a13,13,0,0,1,12.56,8.25A24.22,24.22,0,0,1,113.47,96ZM99.28,83.53a6.33,6.33,0,0,0-5.21,2.21A9.55,9.55,0,0,0,92.26,92,8.17,8.17,0,0,0,94,97.43a6.29,6.29,0,0,0,5.1,2,8.13,8.13,0,0,0,5.57-2,6,6,0,0,0,2.25-4.62,11.26,11.26,0,0,0-1-4.63,8.2,8.2,0,0,0-2.68-3.41A6.52,6.52,0,0,0,99.28,83.53Z"/><path d="M129.16,100.76c0,2.77-.49,4.86-1.49,6.25a5.06,5.06,0,0,1-4.4,2.09,4.91,4.91,0,0,1-4.27-2.16,10.76,10.76,0,0,1-1.51-6.18q0-8.26,5.78-8.27a5,5,0,0,1,4.36,2.14A10.45,10.45,0,0,1,129.16,100.76Zm-8.14,0a11.52,11.52,0,0,0,.53,4,1.79,1.79,0,0,0,1.72,1.32q2.39,0,2.38-5.34t-2.38-5.33a1.79,1.79,0,0,0-1.72,1.32A11.49,11.49,0,0,0,121,100.79Zm20-7.92-14.67,26.45h-3.51L137.5,92.87Zm5.38,18.49c0,2.77-.51,4.85-1.51,6.24a5,5,0,0,1-4.37,2.08,4.92,4.92,0,0,1-4.27-2.14,10.56,10.56,0,0,1-1.52-6.18q0-8.26,5.79-8.27a5,5,0,0,1,4.33,2.14A10.33,10.33,0,0,1,146.39,111.36Zm-8.15,0a11.34,11.34,0,0,0,.54,4,1.8,1.8,0,0,0,1.73,1.34q2.37,0,2.37-5.37t-2.37-5.3a1.79,1.79,0,0,0-1.73,1.3A11.08,11.08,0,0,0,138.24,111.36Z"/></g></svg>