<svg xmlns="http://www.w3.org/2000/svg" xmlns:xlink="http://www.w3.org/1999/xlink" viewBox="0 0 200 200"><defs><style>.cls-1,.cls-2{fill:none;}.cls-1{clip-rule:evenodd;}.cls-2,.cls-5,.cls-6{fill-rule:evenodd;}.cls-3{fill:#fff;}.cls-4{clip-path:url(#clip-path);}.cls-5{fill:#0099a7;}.cls-6{fill:#a4a5a8;opacity:0.15;}</style><clipPath id="clip-path"><polygon class="cls-1" points="-24.07 200.2 222.88 200.2 222.88 -0.45 -24.07 -0.45 -24.07 200.2 -24.07 200.2"/></clipPath></defs><g id="_200x200_Selection" data-name="200x200 Selection"><rect class="cls-3" width="200" height="200"/></g><g id="cloud-performance-figure-3"><g class="cls-4"><path class="cls-5" d="M99.4,10.17A89.73,89.73,0,1,1,46.66,172.49l14.77-20.33a64.6,64.6,0,1,0,38-116.87Z"/></g><g class="cls-4"><path class="cls-6" d="M46.66,172.49A89.73,89.73,0,0,1,99.4,10.17V35.29a64.6,64.6,0,0,0-38,116.87Z"/></g><path d="M53.52,101.85Q53.52,78,73,78a23.77,23.77,0,0,1,5.18.48V83.9a17.6,17.6,0,0,0-4.9-.61q-6.54,0-9.82,3.5T59.87,98h.33a9,9,0,0,1,3.67-3.49,11.82,11.82,0,0,1,5.57-1.24q5.53,0,8.63,3.39t3.09,9.22c0,4.26-1.2,7.64-3.58,10.11s-5.64,3.72-9.75,3.72a13.61,13.61,0,0,1-7.6-2.1,13.35,13.35,0,0,1-5-6.13A24.26,24.26,0,0,1,53.52,101.85Zm14.19,12.5a6.38,6.38,0,0,0,5.19-2.17A9.39,9.39,0,0,0,74.73,106,8.22,8.22,0,0,0,73,100.46a6.38,6.38,0,0,0-5.14-2,8.54,8.54,0,0,0-3.9.9,7.2,7.2,0,0,0-2.81,2.48,5.86,5.86,0,0,0-1,3.21,10.3,10.3,0,0,0,2.13,6.61A6.66,6.66,0,0,0,67.71,114.35Z"/><path d="M113.53,98.85q0,10.61-3.41,15.75t-10.43,5.15a11.53,11.53,0,0,1-10.29-5.32q-3.51-5.31-3.51-15.58,0-10.77,3.41-15.88t10.39-5.11A11.57,11.57,0,0,1,110,83.2Q113.53,88.56,113.53,98.85Zm-21,0c0,5.54.57,9.51,1.71,11.88a6,6,0,0,0,11-.06q1.74-3.61,1.74-11.82T105.19,87a6,6,0,0,0-11-.07Q92.51,90.53,92.51,98.85Z"/><path d="M129.16,100.63c0,2.77-.49,4.86-1.49,6.25a5.06,5.06,0,0,1-4.4,2.09,4.91,4.91,0,0,1-4.27-2.16,10.76,10.76,0,0,1-1.51-6.18q0-8.26,5.78-8.27a5,5,0,0,1,4.36,2.15A10.44,10.44,0,0,1,129.16,100.63Zm-8.14,0a11.49,11.49,0,0,0,.53,4,1.79,1.79,0,0,0,1.72,1.32q2.39,0,2.38-5.33t-2.38-5.34a1.79,1.79,0,0,0-1.72,1.32A11.52,11.52,0,0,0,121,100.67Zm20-7.93-14.67,26.45h-3.51L137.5,92.74Zm5.38,18.49c0,2.78-.51,4.86-1.51,6.24a5,5,0,0,1-4.37,2.08,4.92,4.92,0,0,1-4.27-2.14,10.56,10.56,0,0,1-1.52-6.18q0-8.26,5.79-8.27a5.06,5.06,0,0,1,4.33,2.14A10.35,10.35,0,0,1,146.39,111.23Zm-8.15,0a11.45,11.45,0,0,0,.54,4,1.8,1.8,0,0,0,1.73,1.33q2.37,0,2.37-5.37t-2.37-5.3a1.81,1.81,0,0,0-1.73,1.3A11.08,11.08,0,0,0,138.24,111.23Z"/></g></svg>