<svg xmlns="http://www.w3.org/2000/svg" viewBox="0 0 200 200"><defs><style>.cls-1,.cls-2{fill:#fff;}.cls-2{opacity:0.8;}.cls-3{fill:#a4a5a8;opacity:0.15;}</style></defs><g id="_200x200_Selection" data-name="200x200 Selection"><rect class="cls-1" width="200" height="200"/></g><g id="cloud-performance-figure-4-alt"><path class="cls-2" d="M75.57,11.05a25.07,25.07,0,0,0-21.44,12A21.38,21.38,0,0,0,24.76,42.91a22.08,22.08,0,0,0,.52,4.68,21.36,21.36,0,0,0,2.57,42.57H90.29A25.07,25.07,0,0,0,99.94,42a24.49,24.49,0,0,0,.7-5.87,25.09,25.09,0,0,0-25.07-25"/><path class="cls-3" d="M75.57,11.05a25.07,25.07,0,0,0-21.44,12A21.38,21.38,0,0,0,24.76,42.91a22.08,22.08,0,0,0,.52,4.68,21.36,21.36,0,0,0,2.57,42.57H90.29A25.07,25.07,0,0,0,99.94,42a24.49,24.49,0,0,0,.7-5.87,25.09,25.09,0,0,0-25.07-25m0,3.34a21.74,21.74,0,0,1,20.21,29.7,21.73,21.73,0,0,1-5.49,42.75H27.85A18,18,0,1,1,30,50.94a18,18,0,0,1,16.14-26,17.94,17.94,0,0,1,9.47,2.68,21.76,21.76,0,0,1,20-13.23"/><path class="cls-2" d="M95.07,36.81a25.08,25.08,0,0,0-21.44,12A21.39,21.39,0,0,0,44.27,68.67a21.93,21.93,0,0,0,.51,4.68,21.36,21.36,0,0,0,2.58,42.57h62.43a25.07,25.07,0,0,0,9.66-48.2A25.07,25.07,0,0,0,95.07,36.81"/><path class="cls-3" d="M95.07,36.81a25.08,25.08,0,0,0-21.44,12A21.39,21.39,0,0,0,44.27,68.67a21.93,21.93,0,0,0,.51,4.68,21.36,21.36,0,0,0,2.58,42.57h62.43a25.07,25.07,0,0,0,9.66-48.2A25.07,25.07,0,0,0,95.07,36.81m0,3.34a21.72,21.72,0,0,1,20.21,29.7,21.73,21.73,0,0,1-5.49,42.75H47.36a18,18,0,1,1,0-36,18.39,18.39,0,0,1,2.11.13,18,18,0,0,1,25.6-23.32,21.79,21.79,0,0,1,20-13.23"/><path class="cls-2" d="M114.57,62.57A25,25,0,0,0,93.14,74.62,21.38,21.38,0,0,0,63.77,94.43a22.09,22.09,0,0,0,.51,4.69,21.36,21.36,0,0,0,2.58,42.57H129.3A25.07,25.07,0,0,0,139,93.48a25.07,25.07,0,0,0-24.38-30.91"/><path class="cls-3" d="M114.57,62.57A25,25,0,0,0,93.14,74.62,21.38,21.38,0,0,0,63.77,94.43a22.09,22.09,0,0,0,.51,4.69,21.36,21.36,0,0,0,2.58,42.57H129.3A25.07,25.07,0,0,0,139,93.48a25.07,25.07,0,0,0-24.38-30.91m0,3.35a21.72,21.72,0,0,1,20.21,29.7,21.73,21.73,0,0,1-5.48,42.75H66.86a18,18,0,1,1,0-36,21,21,0,0,1,2.11.12A18,18,0,0,1,94.58,79.15a21.75,21.75,0,0,1,20-13.23"/><path class="cls-2" d="M134.08,88.34a25.06,25.06,0,0,0-21.44,12,21.37,21.37,0,0,0-28.85,24.5,21.36,21.36,0,0,0,2.57,42.57H148.8a25.07,25.07,0,0,0,9.65-48.2,25,25,0,0,0-24.37-30.91"/><path class="cls-3" d="M134.08,88.34a25.06,25.06,0,0,0-21.44,12,21.37,21.37,0,0,0-28.85,24.5,21.36,21.36,0,0,0,2.57,42.57H148.8a25.07,25.07,0,0,0,9.65-48.2,25,25,0,0,0-24.37-30.91m0,3.34a21.72,21.72,0,0,1,20.2,29.7,21.73,21.73,0,0,1-5.48,42.75H86.36a18,18,0,1,1,0-36,18.25,18.25,0,0,1,2.11.13,18,18,0,0,1,16.14-26,18,18,0,0,1,9.47,2.68,21.75,21.75,0,0,1,20-13.23"/><path class="cls-2" d="M153.58,114.1a25.06,25.06,0,0,0-21.44,12,21.37,21.37,0,0,0-28.85,24.5,21.36,21.36,0,0,0,2.57,42.57H168.3A25.07,25.07,0,0,0,178,145a24.37,24.37,0,0,0,.7-5.87,25.09,25.09,0,0,0-25.07-25"/><path class="cls-3" d="M153.58,114.1a25.06,25.06,0,0,0-21.44,12,21.37,21.37,0,0,0-28.85,24.5,21.36,21.36,0,0,0,2.57,42.57H168.3A25.07,25.07,0,0,0,178,145a24.37,24.37,0,0,0,.7-5.87,25.09,25.09,0,0,0-25.07-25m0,3.34a21.72,21.72,0,0,1,20.2,29.7,21.73,21.73,0,0,1-5.48,42.75H105.86a18,18,0,1,1,0-36A18.25,18.25,0,0,1,108,154a18,18,0,0,1,16.14-26,18,18,0,0,1,9.47,2.67,21.78,21.78,0,0,1,20-13.23"/><path d="M103.68,97.56q6.48,0,10.26,3.43a12,12,0,0,1,3.77,9.35q0,6.85-4.29,10.7t-12.2,3.86q-7.17,0-11.28-2.32v-6.24a20.67,20.67,0,0,0,5.45,2.08,24.69,24.69,0,0,0,5.71.73q4.66,0,7.09-2.08a7.56,7.56,0,0,0,2.44-6.09q0-7.68-9.79-7.68a26.69,26.69,0,0,0-3.4.28q-2,.28-3.54.63l-3.08-1.81,1.64-20.92h22.27V87.6H98.53l-1,10.61c.68-.12,1.52-.26,2.5-.41A23.19,23.19,0,0,1,103.68,97.56Z"/></g></svg>