<svg xmlns="http://www.w3.org/2000/svg" xmlns:xlink="http://www.w3.org/1999/xlink" viewBox="0 0 200 200"><defs><style>.cls-1,.cls-2{fill:none;}.cls-1{clip-rule:evenodd;}.cls-2,.cls-5,.cls-6{fill-rule:evenodd;}.cls-3{fill:#fff;}.cls-4{clip-path:url(#clip-path);}.cls-5{fill:#3e97cb;}.cls-6{fill:#a4a5a8;opacity:0.15;}</style><clipPath id="clip-path"><polygon class="cls-1" points="-23.68 199.87 222.49 199.87 222.49 -0.13 -23.68 -0.13 -23.68 199.87 -23.68 199.87"/></clipPath></defs><g id="_200x200_Selection" data-name="200x200 Selection"><rect class="cls-3" width="200" height="200"/></g><g id="cloud-performance-figure-1"><g class="cls-4"><path class="cls-5" d="M99.4,10.46A89.44,89.44,0,1,1,61.32,19L72,41.63A64.4,64.4,0,1,0,99.4,35.5Z"/></g><g class="cls-4"><path class="cls-6" d="M61.32,19A89.34,89.34,0,0,1,99.4,10.46v25A64.35,64.35,0,0,0,72,41.63Z"/></g><path d="M80.93,96q0,12-4.84,18t-14.58,5.93a22.09,22.09,0,0,1-5.32-.45V114a18.47,18.47,0,0,0,5,.69q6.63,0,9.88-3.56t3.57-11.19h-.34a9.8,9.8,0,0,1-4,3.62,12.52,12.52,0,0,1-5.44,1.11,11,11,0,0,1-8.49-3.36Q53.3,97.89,53.3,92q0-6.37,3.57-10.15t9.76-3.77a13,13,0,0,1,12.55,8.25A24,24,0,0,1,80.93,96ZM66.74,83.53a6.31,6.31,0,0,0-5.2,2.21A9.55,9.55,0,0,0,59.73,92a8.22,8.22,0,0,0,1.68,5.47,6.3,6.3,0,0,0,5.11,2,8.11,8.11,0,0,0,5.56-2,5.94,5.94,0,0,0,2.26-4.62,11.26,11.26,0,0,0-1-4.63,8.22,8.22,0,0,0-2.69-3.41A6.52,6.52,0,0,0,66.74,83.53Z"/><path d="M112,88a9.42,9.42,0,0,1-2.25,6.44,11.36,11.36,0,0,1-6.35,3.47v.22q4.9.61,7.35,3a8.68,8.68,0,0,1,2.45,6.47,10.76,10.76,0,0,1-4.15,9.06q-4.14,3.18-11.8,3.19a26.65,26.65,0,0,1-11.41-2.2v-5.82a26.77,26.77,0,0,0,5.49,2,24,24,0,0,0,5.56.69c3.16,0,5.51-.58,7.07-1.75a6.35,6.35,0,0,0,2.34-5.43,5.16,5.16,0,0,0-2.59-4.79c-1.73-1-4.43-1.53-8.13-1.53H92V95.72h3.59q9.74,0,9.74-6.74a5,5,0,0,0-1.7-4,7.62,7.62,0,0,0-5-1.42,15.36,15.36,0,0,0-4.45.65,21.35,21.35,0,0,0-5.07,2.55l-3.2-4.57a21.39,21.39,0,0,1,13-4.12q6.15,0,9.6,2.65A8.67,8.67,0,0,1,112,88Z"/><path d="M129.16,100.76c0,2.77-.49,4.86-1.49,6.25a5.06,5.06,0,0,1-4.4,2.09,4.91,4.91,0,0,1-4.27-2.16,10.76,10.76,0,0,1-1.51-6.18q0-8.26,5.78-8.27a5,5,0,0,1,4.36,2.14A10.45,10.45,0,0,1,129.16,100.76Zm-8.14,0a11.52,11.52,0,0,0,.53,4,1.79,1.79,0,0,0,1.72,1.32q2.39,0,2.38-5.34t-2.38-5.33a1.79,1.79,0,0,0-1.72,1.32A11.49,11.49,0,0,0,121,100.79Zm20-7.92-14.67,26.45h-3.51L137.5,92.87Zm5.38,18.49c0,2.77-.51,4.85-1.51,6.24a5,5,0,0,1-4.37,2.08,4.92,4.92,0,0,1-4.27-2.14,10.56,10.56,0,0,1-1.52-6.18q0-8.26,5.79-8.27a5,5,0,0,1,4.33,2.14A10.33,10.33,0,0,1,146.39,111.36Zm-8.15,0a11.34,11.34,0,0,0,.54,4,1.8,1.8,0,0,0,1.73,1.34q2.37,0,2.37-5.37t-2.37-5.3a1.79,1.79,0,0,0-1.73,1.3A11.08,11.08,0,0,0,138.24,111.36Z"/></g></svg>