<?xml version="1.0" encoding="utf-8"?>
<!-- Generator: Adobe Illustrator 26.3.1, SVG Export Plug-In . SVG Version: 6.00 Build 0)  -->
<svg version="1.1" id="Icon" xmlns="http://www.w3.org/2000/svg" xmlns:xlink="http://www.w3.org/1999/xlink" x="0px" y="0px"
	 width="50px" height="50px" viewBox="0 0 50 50" style="enable-background:new 0 0 50 50;" xml:space="preserve">
<style type="text/css">
	.st0{fill:#FFFFFF;}
</style>
<g id="Cable-TV">
	<path class="st0" d="M4.8,33.5h40.1V9H4.8V33.5z M5.6,9.9h38.5v22.8H5.6V9.9z"/>
	<path class="st0" d="M24.9,13c-4.6,0-8.3,3.7-8.3,8.3s3.7,8.3,8.3,8.3s8.3-3.7,8.3-8.3S29.5,13,24.9,13z M24.9,28.7
		c-4.1,0-7.5-3.3-7.5-7.5s3.3-7.5,7.5-7.5s7.5,3.3,7.5,7.5S29,28.7,24.9,28.7z"/>
	<polygon class="st0" points="22.5,24.9 28.9,21.3 22.5,17.6 	"/>
	<path class="st0" d="M46.2,4.3H3.6C1.7,4.3,0,5.9,0,7.9v26.8c0,2,1.7,3.6,3.6,3.6h4.3l-2.6,6.8l1.6,0.6l2.9-7.5h30.4l2.9,7.5
		l1.6-0.6L42,38.3h4.4c2,0,3.6-1.7,3.6-3.6V7.9C49.8,5.9,48.2,4.3,46.2,4.3L46.2,4.3z M48.1,34.6c0,1-0.8,2-2,2H3.6c-1,0-2-0.8-2-2
		V7.9c0-1,0.9-2,2-2h42.5c1,0,2,0.8,2,2V34.6z"/>
</g>
</svg>
