<?xml version="1.0" encoding="utf-8"?>
<!-- Generator: Adobe Illustrator 25.2.0, SVG Export Plug-In . SVG Version: 6.00 Build 0)  -->
<svg version="1.1" id="Layer_1" xmlns="http://www.w3.org/2000/svg" xmlns:xlink="http://www.w3.org/1999/xlink" x="0px" y="0px"
	 viewBox="0 0 50 50" style="enable-background:new 0 0 50 50;" xml:space="preserve">
<style type="text/css">
	.st0{fill:#FFFFFF;}
</style>
<g>
	<path class="st0" d="M31.6,7.1c-3.9,0-7.7,2.1-9.8,5.4c-5-2-10.6,0.4-12.6,5.4c-0.7,1.8-0.8,3.8-0.4,5.6C3.5,24.3-0.2,29,0.5,34.4
		c0.6,4.9,4.7,8.5,9.6,8.5h28.2c6.3,0,11.3-5,11.3-11.3c0-4.6-2.8-8.8-7-10.5c0.1-0.8,0.3-1.8,0.3-2.7C43.1,12.2,37.9,7.1,31.6,7.1
		 M31.7,8.7c5.4,0,9.8,4.3,9.8,9.8c0,1.3-0.3,2.5-0.7,3.6c5.3,1.1,8.7,6.3,7.7,11.4c-1,4.7-5.3,8.1-10.2,7.8H10.1
		c-4.5,0-8.1-3.6-8.1-8.1s3.6-8.1,8.1-8.1c0.3,0,0.7,0,1,0c-2-4-0.3-8.9,3.8-10.9c2.5-1.3,5.4-1.1,7.8,0.4
		C24.2,10.9,27.7,8.5,31.7,8.7"/>
</g>
</svg>
