<?xml version="1.0" encoding="utf-8"?>
<!-- Generator: Adobe Illustrator 25.2.0, SVG Export Plug-In . SVG Version: 6.00 Build 0)  -->
<svg version="1.1" id="Layer_1" xmlns="http://www.w3.org/2000/svg" xmlns:xlink="http://www.w3.org/1999/xlink" x="0px" y="0px"
	 viewBox="0 0 50 50" style="enable-background:new 0 0 50 50;" xml:space="preserve">
<style type="text/css">
	.st0{fill:#FFFFFF;}
</style>
<g>
	<path class="st0" d="M21.5,18.3l1.6,1.6c0.9-0.9,2.4-0.9,3.3-0.1l1.6-1.6C26.2,16.4,23.3,16.4,21.5,18.3L21.5,18.3"/>
	<path class="st0" d="M18.2,15.1l1.6,1.6c2.7-2.8,7.1-3,9.9-0.3l1.6-1.6C27.7,11.2,21.8,11.2,18.2,15.1L18.2,15.1"/>
	<path class="st0" d="M15,11.8l1.6,1.6C21,8.7,28.5,8.6,33.2,13l1.6-1.6C29.2,6,20.3,6.2,15,11.8"/>
	<path class="st0" d="M23.3,25.6c-0.9-0.9-1-2.4-0.1-3.3c0.9-0.9,2.4-1,3.3-0.1c0.9,0.9,1,2.4,0.1,3.3l0,0
		C25.6,26.5,24.1,26.5,23.3,25.6"/>
	<rect x="20.1" y="44.5" class="st0" width="9.6" height="0.7"/>
	<rect x="18.4" y="42.1" class="st0" width="13.3" height="0.7"/>
	<rect x="18.4" y="39.6" class="st0" width="13.3" height="0.7"/>
	<rect x="18.4" y="37" class="st0" width="13.3" height="0.7"/>
	<path class="st0" d="M24.9,0.4c-9-0.1-16.3,7.1-16.5,16.2c0,5.8,3,11.1,7.9,14.1l1.2,12.2c0.1,1.3,0.9,2.5,2.2,3
		c1,3,4.2,4.4,7.1,3.6c1.6-0.6,3-1.9,3.6-3.6c1.2-0.4,2.1-1.6,2.2-3l1.2-12.2c7.7-4.7,10.1-14.8,5.3-22.4
		C35.9,3.4,30.5,0.4,24.9,0.4 M24.9,2C33,2.2,39.6,9,39.4,17.2c-0.1,5.2-3,9.9-7.4,12.6l-1.2,13.1c-0.1,1-0.9,1.8-1.9,1.8
		c-0.3,2.2-2.2,3.9-4.4,3.6c-1.9-0.1-3.4-1.6-3.6-3.6c-1,0-1.8-0.7-1.9-1.8l-1.2-13.1c-7.1-4.2-9.5-13.2-5.5-20.3
		C15,5,19.7,2.2,24.9,2"/>
</g>
</svg>
