<?xml version="1.0" encoding="utf-8"?>
<!-- Generator: Adobe Illustrator 25.2.0, SVG Export Plug-In . SVG Version: 6.00 Build 0)  -->
<svg version="1.1" id="Layer_1" xmlns="http://www.w3.org/2000/svg" xmlns:xlink="http://www.w3.org/1999/xlink" x="0px" y="0px"
	 viewBox="0 0 50 50" style="enable-background:new 0 0 50 50;" xml:space="preserve">
<style type="text/css">
	.st0{fill:#FFFFFF;}
</style>
<g>
	<path class="st0" d="M25.1,7.2c-9.9,0-17.8,8.1-17.7,18c0,4.8,2,9.3,5.4,12.6l0.3,0.3l2.3-2.3l-0.6-0.6L13,37
		c-2.9-3-4.6-7-4.8-11.2h2.3v-0.9H8.3c0-4.2,1.6-8.3,4.5-11.3l1.6,1.6l0.6-0.6l-1.7-1.7c3-3,7-4.8,11.2-4.9v2.5h0.9V8
		c4.2,0,8.3,1.6,11.3,4.5l-1.6,1.6l0.6,0.6l1.7-1.7c2.9,3,4.6,7,4.8,11.2h-2.3v0.9H42c0,4.2-1.6,8.3-4.5,11.5l-1.7-1.7l-0.6,0.6
		l2.3,2.3l0.3-0.3c6.8-7.1,6.5-18.4-0.6-25.2C34.1,9,29.7,7.2,25.1,7.2"/>
	<path class="st0" d="M25.1,0.3c-13.6,0-24.8,11-24.8,24.6s11,24.8,24.6,24.8s24.8-11,24.8-24.6c0,0,0,0,0-0.1
		C49.9,11.4,38.8,0.3,25.1,0.3C25.2,0.3,25.2,0.3,25.1,0.3 M25.1,48.1c-12.8,0-23.2-10.3-23.2-23s10.3-23.2,23-23.2
		s23.2,10.3,23.2,23c0,0,0,0,0,0.1C48.1,37.7,37.8,48.1,25.1,48.1L25.1,48.1"/>
	<path class="st0" d="M39.6,16.5l-11.9,4.2c-2.3-1.4-5.4-0.7-6.8,1.7c-1.4,2.3-0.7,5.4,1.7,6.8c2.3,1.4,5.4,0.7,6.8-1.7
		c0.4-0.7,0.7-1.7,0.7-2.6v-0.1L39.6,16.5z"/>
</g>
</svg>
