<?xml version="1.0" encoding="utf-8"?>
<!-- Generator: Adobe Illustrator 25.2.0, SVG Export Plug-In . SVG Version: 6.00 Build 0)  -->
<svg version="1.1" id="Layer_1" xmlns="http://www.w3.org/2000/svg" xmlns:xlink="http://www.w3.org/1999/xlink" x="0px" y="0px"
	 viewBox="0 0 50 50" style="enable-background:new 0 0 50 50;" xml:space="preserve">
<style type="text/css">
	.st0{fill:#FFFFFF;}
</style>
<g>
	<path class="st0" d="M13,25.9c3.2-0.2,6,1.1,8.4,3c2.1,2.1,3.3,5.1,3.2,8.1c0.2,3.5-1.2,7-3.7,9.3c-3.2,2.5-7,3.7-10.9,3.5
		c-3.3,0.2-6.7-0.5-9.7-1.9v-6.7c1.4,0.7,3,1.4,4.7,1.8c1.6,0.4,3.3,0.5,5.1,0.5c4.7,0,7-1.9,7-5.8c0-3.7-2.3-5.4-7.4-5.4
		c-1.1,0-1.9,0-3,0.2c-0.7,0.2-1.8,0.4-2.5,0.5l-3.2-1.6l1.1-18.4h19.7v6.7h-13l-0.7,7.2l0.9-0.4C10.5,26,11.6,25.9,13,25.9"/>
	<path class="st0" d="M39.1,34.5h10.5v13c-3.2,1.1-6.1,1.6-9.3,1.6C37,49.2,34,48,31.6,45.7c-2.1-2.5-3.3-5.8-3.2-9.3
		c-0.2-3.3,1.1-6.8,3.3-9.1c2.5-2.3,6-3.5,9.3-3.3c1.6,0,3,0.2,4.2,0.4c1.2,0.2,2.3,0.5,3.5,1.2l-2.1,5.1c-1.8-1.1-3.9-1.4-5.8-1.4
		c-1.8,0-3.3,0.5-4.4,1.9c-0.7,1.6-1.4,3.5-1.2,5.4c-0.2,1.9,0.4,3.7,1.4,5.3c1.1,1.2,2.5,1.9,4,1.8c1.1,0,1.8,0,2.6-0.2v-3.9h-4.2
		C39.1,39.4,39.1,34.5,39.1,34.5z"/>
	<path class="st0" d="M28.2,13.8v3.5c1.9,0,3.5,1.6,3.5,3.3h3.5C35.3,16.7,32.1,13.8,28.2,13.8L28.2,13.8"/>
	<path class="st0" d="M28.2,7.1v3.5c5.6-0.2,10.5,4.4,10.7,10h3.5C42.3,12.9,35.8,6.9,28.2,7.1"/>
	<path class="st0" d="M28.1,0.2v3.3c9.5-0.2,17.4,7.4,17.7,16.8h3.5C49.1,9,39.5-0.1,28.1,0.2L28.1,0.2"/>
</g>
</svg>
