<?xml version="1.0" encoding="utf-8"?>
<!-- Generator: Adobe Illustrator 25.2.0, SVG Export Plug-In . SVG Version: 6.00 Build 0)  -->
<svg version="1.1" id="Layer_1" xmlns="http://www.w3.org/2000/svg" xmlns:xlink="http://www.w3.org/1999/xlink" x="0px" y="0px"
	 viewBox="0 0 50 50" style="enable-background:new 0 0 50 50;" xml:space="preserve">
<style type="text/css">
	.st0{fill:#FFFFFF;}
</style>
<g>
	<path class="st0" d="M25,5.4c-2.7,0-4.2,1.2-4.2,3.8s1.4,3.8,4.2,3.8c1.1,0.2,2.3-0.3,3.2-1.1c0.8-0.8,1.1-1.7,1.1-2.7
		C29.2,6.6,27.9,5.4,25,5.4"/>
	<rect x="21.2" y="16.4" class="st0" width="7.7" height="28.1"/>
	<path class="st0" d="M25.2,48C12.5,48,2.2,37.8,2,25.2C2,12.5,12.2,2.2,24.8,2c12.7,0,23,10.1,23.1,22.8V25
		C48,37.7,37.8,48,25.2,48 M25.2,0.4C11.6,0.4,0.5,11.3,0.4,24.8c0,13.6,10.9,24.6,24.5,24.8c13.6,0,24.6-10.9,24.8-24.5V25
		C49.6,11.6,38.6,0.5,25.2,0.4"/>
</g>
</svg>
