<?xml version="1.0" encoding="utf-8"?>
<!-- Generator: Adobe Illustrator 25.2.0, SVG Export Plug-In . SVG Version: 6.00 Build 0)  -->
<svg version="1.1" id="Layer_1" xmlns="http://www.w3.org/2000/svg" xmlns:xlink="http://www.w3.org/1999/xlink" x="0px" y="0px"
	 viewBox="0 0 50 50" style="enable-background:new 0 0 50 50;" xml:space="preserve">
<style type="text/css">
	.st0{fill:#FFFFFF;}
</style>
<g>
	<path class="st0" d="M27.1,18.2c3.7,0,6.7,2.9,6.7,6.7s-2.9,6.7-6.7,6.7s-6.7-2.9-6.7-6.7S23.5,18.2,27.1,18.2 M27.1,17.6
		c-4.1,0-7.5,3.3-7.5,7.5s3.3,7.5,7.5,7.5s7.5-3.3,7.5-7.5l0,0C34.5,20.9,31.2,17.6,27.1,17.6"/>
	<path class="st0" d="M27.1,21.1c2.3,0,4,1.7,4,4s-1.7,4-4,4s-4-1.7-4-4S24.9,21.1,27.1,21.1L27.1,21.1 M27.1,20.2
		c-2.7,0-4.8,2.1-4.8,4.8s2.1,4.8,4.8,4.8s4.8-2.1,4.8-4.8l0,0C31.9,22.4,29.7,20.2,27.1,20.2L27.1,20.2"/>
	<path class="st0" d="M27.1,37.5c-1.1,0-1.9-0.9-1.9-2v-3.7H26v3.7c0,0.7,0.5,1.2,1.2,1.2s1.2-0.5,1.2-1.2v-3.6h0.8v3.6
		C29.1,36.5,28.1,37.5,27.1,37.5L27.1,37.5"/>
	<path class="st0" d="M29.1,18.2h-0.8v-3.7c0-0.7-0.5-1.2-1.2-1.2s-1.2,0.5-1.2,1.2v3.7h-0.7v-3.7c-0.1-1.1,0.7-2,1.7-2.1
		s2,0.7,2.1,1.7c0,0.1,0,0.3,0,0.3V18.2z"/>
	<path class="st0" d="M20.2,26.9h-3.6c-1.1,0-1.9-0.9-1.9-2s0.8-1.9,1.9-1.9h3.7v0.8h-3.7c-0.7,0-1.2,0.5-1.2,1.2s0.5,1.2,1.2,1.2
		h3.6V26.9z"/>
	<path class="st0" d="M37.6,26.9h-3.7v-0.7h3.7c0.7,0,1.2-0.5,1.2-1.2s-0.5-1.2-1.2-1.2h-3.7v-0.8h3.7c1.1,0,2,0.8,2,1.9
		C39.6,26.1,38.7,27.1,37.6,26.9C37.6,27.1,37.6,27.1,37.6,26.9"/>
	<path class="st0" d="M20.9,21.6L18.4,19c-0.4-0.4-0.5-0.8-0.5-1.3c0-1.1,0.9-1.9,2-1.9c0.5,0,0.9,0.3,1.3,0.5l2.7,2.7l-0.5,0.5
		l-2.7-2.7c-0.5-0.3-1.3-0.1-1.6,0.4c-0.3,0.4-0.3,0.8,0,1.2l2.5,2.5L20.9,21.6z"/>
	<path class="st0" d="M34.5,34.4c-0.5,0-0.9-0.3-1.3-0.5l-2.7-2.7l0.5-0.5l2.7,2.7c0.4,0.5,1.2,0.5,1.6,0.1c0.5-0.4,0.5-1.2,0.1-1.6
		c0-0.1-0.1-0.1-0.3-0.3l-2.7-2.7l0.5-0.5l2.7,2.7c0.7,0.8,0.7,1.9,0,2.7C35.6,34.1,35.1,34.3,34.5,34.4"/>
	<path class="st0" d="M33.3,21.6l-0.5-0.5l2.7-2.7c0.4-0.4,0.4-1.2,0-1.6c-0.4-0.4-1.2-0.4-1.6,0l-2.5,2.5l-0.5-0.5l2.5-2.5
		c0.8-0.7,1.9-0.7,2.7,0c0.8,0.8,0.8,2,0,2.7L33.3,21.6z"/>
	<path class="st0" d="M19.7,34.4c-0.5,0-0.9-0.3-1.3-0.5c-0.7-0.8-0.7-1.9,0-2.7l2.7-2.7l0.5,0.5l-2.7,2.7c-0.4,0.4-0.4,1.2,0,1.6
		c0.4,0.4,1.2,0.4,1.6,0l2.7-2.7l0.5,0.5l-2.7,2.7C20.8,34.3,20.2,34.4,19.7,34.4"/>
	<path class="st0" d="M12.8,17.2H6.4v-0.8h6.4c0.8-0.1,1.5-0.8,1.5-1.7c-0.1-0.8-0.7-1.3-1.5-1.5H8.2v-0.8h4.5
		c1.3,0,2.3,1.1,2.3,2.3C15,16.2,14.1,17.2,12.8,17.2"/>
	<path class="st0" d="M12.8,37.5H8.2v-0.8h4.5c0.8-0.1,1.5-0.8,1.5-1.7c-0.1-0.8-0.7-1.3-1.5-1.5H6.4v-0.8h6.4
		c1.3,0,2.3,1.1,2.3,2.3C15.2,36.4,14.1,37.5,12.8,37.5L12.8,37.5"/>
	<path class="st0" d="M27.1,3.7c11.7,0,21.4,9.5,21.4,21.1c0,11.7-9.5,21.4-21.1,21.4c-7.2,0-13.9-3.6-17.9-9.6H3.3
		c-0.8-0.1-1.5-0.8-1.5-1.7C2,34,2.5,33.5,3.3,33.3h4.5c-2.4-5.5-2.4-11.6,0-17.1H3.3c-0.8-0.1-1.5-0.8-1.5-1.7
		C2,13.7,2.5,13.2,3.3,13h6.1C13.3,7.4,20,3.8,27.1,3.7 M27.1,2.5c-7.3,0-14.2,3.6-18.4,9.6H3.3c-1.6,0-2.9,1.3-2.9,2.8
		c0,1.6,1.3,2.9,2.9,2.9h2.5c-1.6,4.7-1.6,9.7,0,14.4H3.3c-1.6,0-2.8,1.3-2.8,2.9S1.8,38,3.3,38h5.5C16,48.2,30,50.6,40.1,43.3
		S52.7,22.1,45.5,12C41.2,6,34.4,2.5,27.1,2.5"/>
</g>
</svg>
