<?xml version="1.0" encoding="utf-8"?>
<!-- Generator: Adobe Illustrator 25.2.0, SVG Export Plug-In . SVG Version: 6.00 Build 0)  -->
<svg version="1.1" id="Layer_1" xmlns="http://www.w3.org/2000/svg" xmlns:xlink="http://www.w3.org/1999/xlink" x="0px" y="0px"
	 viewBox="0 0 50 50" style="enable-background:new 0 0 50 50;" xml:space="preserve">
<style type="text/css">
	.st0{fill:#FFFFFF;}
</style>
<g>
	<path class="st0" d="M25,38.6c-6.7,0-11.9-5.4-11.9-12.1v-7.1c0-0.4,0.3-0.7,0.7-0.7l0,0c0.4,0,0.7,0.3,0.7,0.7v7.1
		c0,5.8,4.8,10.6,10.6,10.6s10.6-4.8,10.6-10.6v-7.1c0-0.4,0.3-0.7,0.7-0.7l0,0c0.4,0,0.7,0.3,0.7,0.7v7.1
		C37.1,33.3,31.8,38.6,25,38.6"/>
	<path class="st0" d="M25,0.6c-4.9,0-8.8,3.9-8.8,8.8v17.1c-0.3,4.9,3.4,9.1,8.3,9.4c4.9,0.3,9.1-3.4,9.4-8.3c0-0.3,0-0.7,0-1V9.5
		C33.8,4.6,29.9,0.6,25,0.6 M25,2.1c4.1,0,7.3,3.3,7.3,7.3v17.1c0,4.1-3.3,7.3-7.3,7.3s-7.3-3.3-7.3-7.3V9.5
		C17.6,5.4,20.9,2.1,25,2.1"/>
	<rect x="24.3" y="38" class="st0" width="1.5" height="10.2"/>
	<path class="st0" d="M33.1,49.4H16.8c-0.4,0-0.7-0.3-0.7-0.7c0-0.4,0.3-0.7,0.7-0.7h16.3c0.4,0,0.7,0.3,0.7,0.7l0,0
		C33.8,49.1,33.5,49.4,33.1,49.4"/>
	<rect x="16.7" y="15" class="st0" width="16.2" height="0.7"/>
	<rect x="16.7" y="17.7" class="st0" width="16.2" height="0.7"/>
	<rect x="16.7" y="20.3" class="st0" width="16.2" height="0.7"/>
	<path class="st0" d="M41.8,17.2L40.2,19c2.9,2.7,3,7.3,0.3,10.2l0,0l1.8,1.6C45.7,27,45.6,20.9,41.8,17.2L41.8,17.2"/>
	<path class="st0" d="M45.1,13.8l-1.6,1.8c4.9,4.6,5,12.2,0.4,17.1l1.8,1.6C51.2,28.5,50.9,19.2,45.1,13.8"/>
	<path class="st0" d="M8.3,30.8L9.9,29c-2.9-2.7-3-7.3-0.3-10.3l-1.8-1.6C4.2,21,4.3,27.1,8.3,30.8L8.3,30.8"/>
	<path class="st0" d="M4.9,34.3l1.6-1.8c-4.9-4.6-5-12.2-0.4-17.1l-1.8-1.6C-1.1,19.5-0.9,28.7,4.9,34.3"/>
</g>
</svg>
