<?xml version="1.0" encoding="utf-8"?>
<!-- Generator: Adobe Illustrator 25.2.0, SVG Export Plug-In . SVG Version: 6.00 Build 0)  -->
<svg version="1.1" id="Layer_1" xmlns="http://www.w3.org/2000/svg" xmlns:xlink="http://www.w3.org/1999/xlink" x="0px" y="0px"
	 viewBox="0 0 50 50" style="enable-background:new 0 0 50 50;" xml:space="preserve">
<style type="text/css">
	.st0{fill:#FFFFFF;}
</style>
<g>
	<path class="st0" d="M49.2,36.7l-8.5-11.9c0.2-1.5,0.6-5.3,0.6-5.6c0.1-1.2-0.6-2.5-1.9-2.7c-0.4-0.1-0.7-0.4-1.1-0.6h-0.1
		c0-0.1,0-0.2,0.1-0.2c0.1-0.2,0.2-0.5,0.4-0.7l0.1-1v-0.1c0-0.2,0-0.6-0.2-0.9c0-1.9-1.5-3.3-3.3-3.3s-3.3,1.5-3.3,3.3
		c-0.1,0.2-0.2,0.6-0.1,0.9l0.2,1.1c0,0.2,0.1,0.5,0.4,0.7c0,0.1,0,0.1,0.1,0.2h-0.1c-0.4,0.2-0.7,0.5-1.1,0.6
		c-0.4,0.1-0.7,0.4-1.1,0.6c-0.4-0.2-0.7-0.5-1.1-0.6c-0.4-0.1-0.7-0.4-1.1-0.6h-0.1c0-0.1,0.1-0.2,0.1-0.2c0.1-0.2,0.2-0.5,0.4-0.7
		l0.1-1v-0.1c0-0.2,0-0.6-0.1-0.9c0-1.7-1.4-3.2-3.1-3.2c-0.1,0-0.2,0-0.2,0c-1.7-0.1-3.2,1.2-3.3,3c0,0.1,0,0.1,0,0.2
		c-0.1,0.2-0.2,0.6-0.1,0.9l0.1,1.1c0,0.2,0.1,0.5,0.4,0.7c0,0.1,0,0.2,0.1,0.2H22c-0.4,0.2-0.7,0.5-1.1,0.6
		c-0.4,0.1-0.7,0.4-1.1,0.6c-0.4-0.2-0.7-0.5-1.1-0.6s-0.7-0.4-1.1-0.6h-0.1c0-0.1,0-0.2,0.1-0.2c0.1-0.2,0.2-0.5,0.4-0.7l0.1-1
		v-0.1c0-0.2,0-0.6-0.1-0.9c0-1.7-1.4-3.2-3.1-3.2c-0.1,0-0.1,0-0.2,0c-1.7-0.1-3.2,1.2-3.3,3c0,0.1,0,0.1,0,0.2
		c-0.1,0.2-0.2,0.6-0.1,0.9l0.1,1.1c0,0.2,0.1,0.5,0.4,0.7c0,0.1,0,0.2,0.1,0.2h-0.1c-0.4,0.2-0.7,0.5-1.1,0.6c-1.2,0.4-2,1.5-2,2.7
		c0,0.2,0.5,4.2,0.6,5.7L0.8,36.7v0.1c-0.5,0.9-0.5,1.7,0,2.6c0.5,0.7,1.2,1.1,2.1,1h15.6V38c-0.1-0.7,0.2-1.1,1.4-1.6
		c0.6-0.2,1.4-0.6,2-1c0.5-0.2,1-0.5,1.5-0.7l0.2-0.1l0.1-1.2l-0.1-0.1C23.3,32.8,23,32.5,23,32l-0.1-0.5l-0.1-0.1
		c-0.1,0-0.1-0.1-0.1-0.1L22.4,30c0-0.1,0-0.1,0.1-0.1l0.1-0.1v-0.1c0-2,0.9-3,2.6-3c1.7,0,2.6,1,2.6,3v0.1l0.1,0.1
		c0,0,0.1,0,0.1,0.1l-0.2,1.4c0,0.1-0.1,0.1-0.1,0.2l-0.6,0L27,32.1c-0.1,0.5-0.2,0.9-0.5,1.2l-0.1,0.1l0.1,1.2l0.2,0.1
		c0.5,0.2,1,0.5,1.5,0.7c0.6,0.4,1.4,0.7,2,1c1.1,0.5,1.5,0.9,1.4,1.6v2.2h15.6c0.9,0,1.6-0.4,2.1-1C49.7,38.4,49.7,37.5,49.2,36.7
		 M48.1,38.5c-0.2,0.2-0.6,0.4-1,0.4H33.3v-0.7c0-1.5-1-3-2.5-3.3c-0.5-0.2-1.2-0.6-1.9-0.9l-0.6-0.4c0.1-0.2,0.2-0.6,0.4-1
		c0.2-0.2,0.4-0.6,0.5-1l0.2-1.4v-0.1c0-0.4-0.1-0.7-0.2-1.1c0.1-2.2-1.7-4.1-4-4.2c-0.1,0-0.2,0-0.5,0c-2.2-0.1-4.2,1.5-4.3,3.7
		c0,0.1,0,0.2,0,0.5c-0.2,0.4-0.2,0.7-0.2,1.1l0.2,1.5c0.1,0.4,0.2,0.6,0.5,0.9c0.1,0.4,0.2,0.6,0.4,1l-0.6,0.4
		c-0.6,0.4-1.2,0.6-1.9,0.9c-1.5,0.4-2.5,1.7-2.5,3.3v0.7h-14c-0.4,0-0.7-0.1-1-0.4c-0.1-0.4-0.1-0.9,0.1-1.2l8.8-12.1l0,0l0,0
		c-0.1-0.6-0.6-5.8-0.7-6.2c-0.1-0.7,0.4-1.1,1.1-1.4c0.7-0.2,1.7-1,2.2-1.1l0.1-0.6c-0.2-0.4-0.4-0.7-0.5-1.1
		c-0.1,0-0.2-0.1-0.2-0.2l-0.1-1c0-0.1,0-0.2,0.1-0.2c0-1.4,0.5-2.2,2-2.2s2,0.9,2,2.2c0.1,0.1,0.1,0.2,0.1,0.4l-0.2,1
		c0,0.1-0.1,0.2-0.2,0.2c0,0.4-0.2,0.9-0.5,1.2l0.1,0.6c0.5,0.1,1.5,0.9,2.2,1.1c0.7,0.2,1.1,0.6,1.1,1.4c0,0.4-0.6,4.3-0.6,5.3h2.5
		c-0.1-1-0.6-4.9-0.7-5.3c-0.1-0.7,0.4-1.1,1.1-1.4c0.7-0.2,1.9-1,2.2-1.1l0.1-0.6c-0.2-0.4-0.4-0.7-0.5-1.1
		c-0.1-0.1-0.1-0.2-0.1-0.4l-0.1-1c0-0.1,0-0.2,0.1-0.2c0-1.4,0.5-2.2,2-2.2s2,0.9,2,2.2c0.1,0.1,0.1,0.2,0.1,0.4l-0.2,0.9
		c0,0.1-0.1,0.2-0.2,0.2c0,0.4-0.2,0.9-0.5,1.2l0.1,0.6c0.5,0.1,1.5,0.9,2.2,1.1c0.7,0.2,1.1,0.6,1.1,1.4c0,0.4-0.6,4.3-0.6,5.3h2.5
		c-0.1-1-0.6-4.9-0.7-5.3c-0.1-0.7,0.4-1.1,1.1-1.4c0.7-0.2,1.9-1,2.2-1.1l0.1-0.6c-0.2-0.4-0.4-0.7-0.5-1.1c0-0.1-0.1-0.2-0.1-0.4
		l-0.1-1c0-0.1,0-0.2,0.1-0.2c0-1.4,0.5-2.2,2-2.2c1.5,0,2,0.9,2,2.2c0.1,0.1,0.1,0.2,0.1,0.4l-0.2,0.9c0,0.1-0.1,0.2-0.2,0.2
		c0,0.4-0.2,0.9-0.5,1.2l0.1,0.6c0.5,0.1,1.5,0.9,2.2,1.1c0.7,0.2,1.1,0.6,1.1,1.4c0,0.4-0.6,5.4-0.7,6.1h0.1l0,0l8.7,12.1
		C48.2,37.8,48.2,38.2,48.1,38.5"/>
</g>
</svg>
