<?xml version="1.0" encoding="utf-8"?>
<!-- Generator: Adobe Illustrator 25.2.0, SVG Export Plug-In . SVG Version: 6.00 Build 0)  -->
<svg version="1.1" id="Layer_1" xmlns="http://www.w3.org/2000/svg" xmlns:xlink="http://www.w3.org/1999/xlink" x="0px" y="0px"
	 viewBox="0 0 50 50" style="enable-background:new 0 0 50 50;" xml:space="preserve">
<style type="text/css">
	.st0{fill:#FFFFFF;}
</style>
<g>
	<path class="st0" d="M46,44H4c-1.1,0-2-0.9-2-2V28.6c6.6,1.7,13.4,2.4,20.2,2.6v1.2c0,1.2,0.9,2.1,2.1,2.1h1.2
		c1.2,0,2.1-0.9,2.1-2.1v-1.2c6.8-0.2,13.6-1.1,20.2-2.6V42C47.8,43.1,46.9,44,46,44 M4,13.5h11.1V7.2c0-0.8,0.6-1.2,1.2-1.2h17.2
		c0.8,0,1.2,0.6,1.2,1.2l0,0v6.3h11.1c1.1,0,1.8,0.9,1.8,2v12.4c-6.6,1.7-13.4,2.6-20.2,2.7v-1.4c0-1.2-0.9-2.1-2.1-2.1h-1.2
		c-1.2,0-2.1,0.9-2.1,2.1v1.4c-6.8-0.2-13.6-1.1-20.2-2.7V15.5C2,14.5,2.9,13.5,4,13.5 M46,11.9h-9.5V7.2c0-1.7-1.4-2.9-2.9-2.9
		H16.3c-1.7,0-2.9,1.4-2.9,2.9v4.7H4c-2,0-3.6,1.7-3.6,3.6V42c0,2,1.7,3.6,3.6,3.6h42c2,0,3.6-1.7,3.6-3.6V15.5
		C49.5,13.5,48,11.9,46,11.9"/>
	<path class="st0" d="M30.8,12.8H19v-2.7h11.8V12.8z M31.7,9.2H18.3v4.4h13.4V9.2z"/>
</g>
</svg>
