<?xml version="1.0" encoding="utf-8"?>
<!-- Generator: Adobe Illustrator 25.2.0, SVG Export Plug-In . SVG Version: 6.00 Build 0)  -->
<svg version="1.1" id="Layer_1" xmlns="http://www.w3.org/2000/svg" xmlns:xlink="http://www.w3.org/1999/xlink" x="0px" y="0px"
	 viewBox="0 0 50 50" style="enable-background:new 0 0 50 50;" xml:space="preserve">
<style type="text/css">
	.st0{fill:#FFFFFF;}
</style>
<g>
	<path class="st0" d="M42.7,21.1c0.3-0.9,0.3-1.7,0.3-2.7c0-6.3-5.1-11.3-11.3-11.3c-4,0-7.6,2.1-9.7,5.5c-4.9-2-10.5,0.4-12.7,5.3
		c-0.5,1.2-0.7,2.4-0.7,3.6c0,0.7,0.1,1.5,0.3,2.1c-5.3,0.7-9.1,5.6-8.4,10.8c0.7,4.8,4.7,8.4,9.6,8.4h28.3
		c6.3,0,11.3-5.1,11.3-11.3C49.6,27,47,22.9,42.7,21.1 M38.3,41.4H10c-4.5-0.1-8-4-7.9-8.5c0.1-4.3,3.6-7.6,7.9-7.9
		c0.3,0,0.7,0,0.9,0c-0.5-1.1-0.8-2.4-0.8-3.6c0-4.5,3.6-8.1,8.1-8.1c1.5,0,2.9,0.4,4.3,1.2c2-5.1,7.9-7.5,12.9-5.3S43,17,40.8,22.1
		c5.2,1.3,8.4,6.8,7.1,12C46.7,38.3,42.8,41.4,38.3,41.4"/>
	<path class="st0" d="M22.8,29.3l1.3,1.2c0.7-0.7,1.7-0.7,2.5,0l1.2-1.3C26.4,27.8,24.2,27.9,22.8,29.3L22.8,29.3"/>
	<path class="st0" d="M20.3,26.9l1.3,1.2c2-2.1,5.3-2.1,7.5-0.1l1.2-1.3C27.5,23.9,23,23.9,20.3,26.9L20.3,26.9"/>
	<path class="st0" d="M17.8,24.5l1.3,1.2c3.3-3.5,8.9-3.7,12.4-0.3l0,0l1.2-1.3C28.6,19.9,21.9,20.2,17.8,24.5
		C17.8,24.3,17.8,24.3,17.8,24.5"/>
	<path class="st0" d="M24,32.3c-0.7,0.7-0.7,1.9,0,2.5c0.7,0.7,1.9,0.7,2.5,0c0.7-0.7,0.7-1.9,0-2.5l0,0
		C25.8,31.7,24.7,31.7,24,32.3"/>
</g>
</svg>
