<?xml version="1.0" encoding="utf-8"?>
<!-- Generator: Adobe Illustrator 25.2.0, SVG Export Plug-In . SVG Version: 6.00 Build 0)  -->
<svg version="1.1" id="Layer_1" xmlns="http://www.w3.org/2000/svg" xmlns:xlink="http://www.w3.org/1999/xlink" x="0px" y="0px"
	 viewBox="0 0 50 50" style="enable-background:new 0 0 50 50;" xml:space="preserve">
<style type="text/css">
	.st0{fill:#FFFFFF;}
</style>
<g>
	<path class="st0" d="M25.5,46.5c-7.6,0-14.7-4.1-18.6-10.9c1,0.1,2.1,0.1,3.1,0.3h0.3c5.9-0.1,11.9-1.3,17.4-3.1l0.8-0.3l0.8,2.1
		l3.8-4.7l-6.1-1l0.8,2.1l-0.7,0.3c-5.5,2-11.3,3-17.3,3.1c-1.3,0-2.7-0.1-4-0.4c-2.4-5.2-2.5-11.2-0.6-16.6c1.4,1.8,3.7,5,4,5.2
		l5.8,1.1l1.4,1.1c-0.8,0.8-2.1,2.3-3.1,3.4c1,3.4,1.1,3.5,1.1,3.5s0.4,0.3,0.8,0.7c3.7-0.6,7.2-1.4,10.8-2.4h0.1l-0.8-1.7H25
		l-2-2.3l-5.2-2.4c0,0-0.1-0.1-0.1,0l0,0L16,22.4h-1.1l1.1-1c0,0,0-0.1,0-0.3l0,0l-0.4-0.7h-0.1l-2.1,0.7l-1-0.3l-1.1-1.6l0.6-2.1
		l4,0.1l0.8,2l0.1,0.1h0.1l0.8-0.7v-1.6l2.4-2.5l3.7-1.6l2.1,0.1h0.1V13c0-1.3,0-1.8,0-2.1l2-0.1c0,0,0.1,0,0.1-0.1v-0.1l-1.1-2.1
		c0-0.1,0-0.1-0.1-0.1l-2.4,0.1l-1.7,1.8l-2.3-1.3L21,8.1l4.2-1.1c0.1,0,0.1-0.1,0.1-0.1l-0.1-1.6c0-0.1,0-0.1-0.1-0.1l-1.3-0.3
		l-1.4-1c1-0.1,2-0.3,3-0.3c10.1,0,18.8,7.1,21,17c-3,3.1-6.7,5.5-10.5,7.4l0.7,1.4c3.8-1.7,7.2-4,10.2-6.8c0.1,0.8,0.1,1.7,0.3,2.5
		c0.1,11.8-9.5,21.5-21.2,21.5C25.7,46.5,25.5,46.5,25.5,46.5 M2,31.4c-0.3-1.1,0.1-2.3,0.8-3.3c0.3,1.7,0.7,3.5,1.3,5.1
		C3.3,33,2.4,32.3,2,31.4 M11.1,9.2c-2.4,2.3-4.4,5.1-5.5,8.2C6.7,14.3,8.5,11.5,11.1,9.2 M18.3,4.7c-1.3,0.4-2.5,1.1-3.8,1.8
		C15.6,5.8,16.9,5.2,18.3,4.7 M22.6,3.7c-1.4,0.1-2.8,0.6-4.2,1C19.6,4.2,21,3.8,22.6,3.7 M48.1,16.4c0.3,0.8,0,1.7-0.4,2.5
		c-0.4-1.6-1-3-1.7-4.4C46.9,14.9,47.6,15.4,48.1,16.4 M49.5,15.9c-0.4-1.1-1.4-2.5-4.7-3.4C38,1.8,23.8-1.3,13.2,5.5
		C6.5,9.8,2.6,17.1,2.7,24.9c0,0.3,0,0.7,0,1c-2.5,2.8-2.5,4.8-2.1,5.9c0.6,1.6,2.1,2.7,4.5,3.4c5.5,11.3,19.3,16,30.6,10.5
		c7.9-3.8,12.9-11.9,12.7-20.7c0-1.3-0.1-2.7-0.4-4C49.3,19.7,49.9,17.7,49.5,15.9"/>
	<path class="st0" d="M35,9.8l0.3,1.4h-1.4c-0.1,0-0.1,0-0.1,0.1l-0.4,2.4c0,0.1,0,0.1,0.1,0.1l1.7,1.1h0.1h0.1l1.3-1.4l4.4-0.1
		c-1.7-2.4-4-4.5-6.5-6.1l-1.7,1.3c0,0-0.1,0.1,0,0.1c0,0.1,0,0.1,0.1,0.1L35,9.8z"/>
	<path class="st0" d="M43.5,17h-1.1l-3.8-2l-5,1.4l-2.7,6.1v0.1l3.1,3.5l1.6-0.1c3.3-1.6,6.2-3.4,8.8-5.8
		C44.2,19.3,43.9,18.1,43.5,17"/>
	<path class="st0" d="M39.4,29.3l-0.6,4.5l1.3,2.8l1,0.6c2.3-3.1,3.7-6.9,3.8-10.9v-0.3C43.2,27.2,39.4,29.3,39.4,29.3"/>
	<path class="st0" d="M17.6,39.5l2.3,5l0.1,0.1l1.7,0.1l0,0h0.1v-0.1l-0.1-4.5l5.4-5.4c-3.1,1-6.4,1.7-9.5,2.3V39.5z"/>
</g>
</svg>
