<?xml version="1.0" encoding="utf-8"?>
<!-- Generator: Adobe Illustrator 25.2.0, SVG Export Plug-In . SVG Version: 6.00 Build 0)  -->
<svg version="1.1" id="Layer_1" xmlns="http://www.w3.org/2000/svg" xmlns:xlink="http://www.w3.org/1999/xlink" x="0px" y="0px"
	 viewBox="0 0 50 50" style="enable-background:new 0 0 50 50;" xml:space="preserve">
<style type="text/css">
	.st0{fill:#FFFFFF;}
</style>
<g>
	<path class="st0" d="M25,16.8c2.5,0,4.5,2,4.5,4.5s-2,4.5-4.5,4.5s-4.5-2-4.5-4.5l0,0C20.6,18.8,22.6,16.8,25,16.8 M25,16
		c-2.9,0-5.2,2.2-5.2,5.1s2.2,5.2,5.1,5.2s5.2-2.2,5.2-5.1l0,0C30.2,18.4,27.8,16,25,16L25,16"/>
	<path class="st0" d="M34.6,48.7c-0.1,0-0.2-0.1-0.4-0.2l-7.9-22.3c0-0.2,0.1-0.4,0.2-0.4c0.1,0,0.2,0,0.4,0.1l7.9,22.3
		C34.9,48.3,34.8,48.6,34.6,48.7L34.6,48.7C34.7,48.7,34.7,48.7,34.6,48.7"/>
	<path class="st0" d="M15.4,48.7L15.4,48.7c-0.2,0-0.4-0.2-0.4-0.4l0,0l7.9-22.2c0.1-0.1,0.2-0.2,0.5-0.2s0.2,0.2,0.2,0.5l-7.9,22.2
		C15.7,48.6,15.6,48.7,15.4,48.7"/>
	<path class="st0" d="M35.8,33c-0.1,0-0.1,0-0.2-0.1c-0.1-0.1-0.1-0.4,0-0.5l0,0c6.1-5.9,6.4-15.5,0.5-21.6s-15.5-6.4-21.6-0.5
		S8.1,25.8,14,31.9c0.1,0.1,0.4,0.4,0.5,0.5c0.1,0.1,0.1,0.4,0,0.5l0,0c-0.1,0.1-0.4,0.1-0.5,0c-6.4-6.1-6.5-16.2-0.4-22.6
		s16.2-6.5,22.6-0.4s6.5,16.2,0.4,22.6c-0.1,0.1-0.2,0.2-0.5,0.5C35.9,33,35.9,33,35.8,33"/>
	<path class="st0" d="M32.3,29.5c-0.1,0-0.2,0-0.2-0.1c-0.1-0.1-0.1-0.4,0-0.5c4.2-4,4.4-10.6,0.4-14.8c-2-2.1-4.7-3.2-7.5-3.2
		c-5.7,0-10.5,4.7-10.4,10.5c0,2.7,1.1,5.5,3.1,7.4c0.1,0.1,0.2,0.4,0.1,0.5s-0.4,0.2-0.5,0.1c0,0,0,0-0.1-0.1
		c-4.4-4.2-4.5-11.4-0.1-15.7s11.4-4.5,15.7-0.1c4.4,4.4,4.5,11.4,0.1,15.7c-0.1,0.1-0.2,0.2-0.4,0.4C32.4,29.5,32.4,29.5,32.3,29.5
		"/>
	<path class="st0" d="M32.8,43.5c-0.1,0-0.1,0-0.2-0.1L21.3,32.2c-0.1-0.1-0.1-0.4,0-0.5c0.1-0.1,0.4-0.1,0.5,0l0,0l11.2,11.1
		c0.1,0.1,0.1,0.4,0,0.5l0,0C32.9,43.4,32.8,43.5,32.8,43.5"/>
	<path class="st0" d="M30.6,49.7c-0.1,0-0.1,0-0.2-0.1L19,38.2c-0.1-0.1-0.1-0.4,0-0.5c0.1-0.1,0.4-0.1,0.5,0l11.4,11.4
		c0.1,0.1,0.1,0.4,0,0.5C30.7,49.7,30.7,49.7,30.6,49.7"/>
	<path class="st0" d="M17.5,43.2c-0.1,0-0.1,0-0.2-0.1c-0.1-0.1-0.1-0.4,0-0.5l0,0l11.1-11c0.1-0.1,0.4-0.1,0.5,0
		c0.1,0.1,0.1,0.4,0,0.5l-11.1,11C17.6,43.2,17.5,43.2,17.5,43.2"/>
	<path class="st0" d="M19.5,49.7c-0.1,0-0.1,0-0.2-0.1c-0.1-0.1-0.1-0.4,0-0.5l0,0l11.4-11.4c0.1-0.1,0.4-0.1,0.5,0
		c0.1,0.1,0.1,0.4,0,0.5l0,0L19.7,49.6C19.7,49.7,19.6,49.7,19.5,49.7"/>
	<path class="st0" d="M39.1,36.9c-0.2,0-0.4-0.1-0.5-0.2c-0.2-0.2-0.2-0.7,0-1c7.9-7.5,8.2-19.8,0.7-27.8S19.5-0.4,11.5,7
		s-8.2,20-0.7,27.8c0.2,0.2,0.5,0.5,0.7,0.7c0.2,0.2,0.2,0.7,0,1c-0.2,0.2-0.7,0.2-1,0C2,28.6,1.8,15.2,9.7,6.8S31.2-1.9,39.6,6
		s8.7,21.5,0.7,29.8c-0.2,0.2-0.5,0.5-0.7,0.7C39.3,36.7,39.2,36.7,39.1,36.9"/>
</g>
</svg>
