<?xml version="1.0" encoding="utf-8"?>
<!-- Generator: Adobe Illustrator 25.2.0, SVG Export Plug-In . SVG Version: 6.00 Build 0)  -->
<svg version="1.1" id="Layer_1" xmlns="http://www.w3.org/2000/svg" xmlns:xlink="http://www.w3.org/1999/xlink" x="0px" y="0px"
	 viewBox="0 0 50 50" style="enable-background:new 0 0 50 50;" xml:space="preserve">
<style type="text/css">
	.st0{fill:#FFFFFF;}
</style>
<g>
	<path class="st0" d="M45.8,33.4l-9.4,7.5h-0.2v5.4c0,1-0.6,1.6-1.6,1.6s-1.9-0.8-1.9-1.9v-1.3c-0.2-0.8-0.8-1.3-1.6-1.3
		c-0.6,0-1.1,0.6-1.3,1.3v1.6c0.2,1-0.6,1.8-1.6,1.9c-1,0.2-1.8-0.6-1.9-1.6c0-0.2,0-0.2,0-0.3v-1.8c0.2-0.8-0.5-1.4-1.3-1.6
		c-0.8-0.2-1.4,0.5-1.6,1.3c0,0.2,0,0.2,0,0.3v1.8c0.2,1-0.6,1.8-1.6,1.9c-1,0.2-1.8-0.6-1.9-1.6c0-0.2,0-0.2,0-0.3v-1.6
		c0-0.8-0.6-1.4-1.4-1.4s-1.4,0.6-1.4,1.4v1.4c0,1-0.8,1.9-1.9,1.9c-1,0-1.6-0.6-1.6-1.6v-5.6h-0.2L4,33.5V23
		C4,11.5,13.3,2.2,24.8,2.2S45.5,11.5,45.5,23L45.8,33.4L45.8,33.4z M25.1,0.3C12.6,0.3,2.6,10.4,2.6,22.8v11.3l0.6,0.5l8.9,7v4.6
		c0,1.9,1.4,3.4,3.4,3.4c1.4,0,2.7-0.8,3.2-2.1c0.8,1.8,2.9,2.6,4.5,1.8c0.8-0.3,1.4-1,1.8-1.8c0.8,1.8,2.7,2.6,4.5,1.9
		c0.8-0.3,1.6-1,1.9-1.9c0.6,1.3,1.8,2.1,3.2,2.1c1.9,0,3.4-1.6,3.4-3.4v-4.5l8.9-7l0.6-0.5V23C47.6,10.5,37.5,0.5,25.1,0.3"/>
	<path class="st0" d="M16.5,21.5c-3,0-5.6,2.6-5.6,5.6s2.6,5.6,5.6,5.6s5.6-2.6,5.6-5.6l0,0C22,24.1,19.5,21.5,16.5,21.5L16.5,21.5"
		/>
	<path class="st0" d="M25.9,32.6c-0.2-0.3-0.5-0.5-0.8-0.5c-0.3,0-0.6,0.2-0.8,0.5l-1.9,3.2c-0.2,0.5-0.2,1,0.3,1.1
		c0.2,0,0.3,0.2,0.3,0.2h4c0.5,0,0.8-0.3,0.8-0.8c0-0.2,0-0.3-0.2-0.3L25.9,32.6z"/>
	<path class="st0" d="M33.9,21.5c3,0,5.6,2.6,5.6,5.6s-2.6,5.6-5.6,5.6s-5.6-2.6-5.6-5.6l0,0C28.1,24.1,30.7,21.5,33.9,21.5
		L33.9,21.5"/>
</g>
</svg>
