<?xml version="1.0" encoding="utf-8"?>
<!-- Generator: Adobe Illustrator 25.2.0, SVG Export Plug-In . SVG Version: 6.00 Build 0)  -->
<svg version="1.1" id="Layer_1" xmlns="http://www.w3.org/2000/svg" xmlns:xlink="http://www.w3.org/1999/xlink" x="0px" y="0px"
	 viewBox="0 0 50 50" style="enable-background:new 0 0 50 50;" xml:space="preserve">
<style type="text/css">
	.st0{fill:#FFFFFF;}
</style>
<g>
	<path class="st0" d="M41.6,26.5L41.6,26.5l-14.4,7.6c-1.5,0.8-3.1,0.8-4.5,0L8.4,26.5l0,0l-5.8-3.2c-0.7-0.4-0.8-1.2-0.4-1.9
		c0.1-0.1,0.3-0.3,0.4-0.4l20.3-10.8c0.7-0.4,1.5-0.5,2.1-0.5c0.8,0,1.5,0.1,2.1,0.5L47.5,21c0.7,0.4,0.8,1.2,0.4,1.9
		c-0.1,0.1-0.3,0.3-0.4,0.4L41.6,26.5z M41.1,32.1l-14.9,8c-0.4,0.1-0.7,0.3-1.1,0.3c-0.4,0-0.8-0.1-1.2-0.3L9,32.1
		c-0.4-0.1-0.5-0.5-0.5-0.9v-3.9l14,7.4c1.6,0.9,3.6,0.9,5.2,0l14-7.4v3.9C41.6,31.5,41.5,31.8,41.1,32.1 M48.1,24.6
		c1.3-0.7,1.9-2.3,1.2-3.6c-0.3-0.5-0.7-0.9-1.2-1.2L27.8,9.1c-1.7-0.9-3.9-0.9-5.6,0L1.9,19.8c-1.3,0.7-1.9,2.3-1.2,3.6
		c0.3,0.5,0.7,0.9,1.2,1.2l5.2,2.7v3.9c0,0.9,0.5,1.7,1.3,2.1l14.9,8c1.1,0.5,2.4,0.5,3.6,0l14.9-8c0.8-0.4,1.3-1.2,1.3-2.1v-3.7
		l3.1-1.6v10.4l-1.7,4.5h4l-1.6-4.5V25.4L48.1,24.6z"/>
</g>
</svg>
