<?xml version="1.0" encoding="utf-8"?>
<!-- Generator: Adobe Illustrator 25.2.0, SVG Export Plug-In . SVG Version: 6.00 Build 0)  -->
<svg version="1.1" id="Layer_1" xmlns="http://www.w3.org/2000/svg" xmlns:xlink="http://www.w3.org/1999/xlink" x="0px" y="0px"
	 viewBox="0 0 50 50" style="enable-background:new 0 0 50 50;" xml:space="preserve">
<style type="text/css">
	.st0{fill:#FFFFFF;}
</style>
<g>
	<path class="st0" d="M46.1,10.4h-4.2V6.6c0-0.4-0.4-0.7-0.9-0.7s-0.7,0.3-0.7,0.7v3.8H34V6.6c0-0.4-0.4-0.9-0.9-0.9
		s-0.9,0.3-0.9,0.7l0,0v3.8h-6.4V6.6c0-0.4-0.4-0.9-0.9-0.9c-0.4,0-0.9,0.4-0.9,0.9v3.8h-6.4V6.6c0-0.4-0.4-0.9-0.9-0.9l0,0
		c-0.4,0-0.9,0.3-0.9,0.9v3.8H9.7V6.6c0-0.4-0.4-0.7-0.9-0.7c-0.4,0-0.7,0.3-0.7,0.7v3.8H3.9c-2,0-3.6,1.6-3.6,3.6l0,0v26.7
		c0,1.9,1.6,3.5,3.6,3.5h42.2c2,0,3.6-1.6,3.6-3.6V14C49.7,12,48,10.4,46.1,10.4 M48,40.8c0,1-0.9,1.9-1.9,1.9H3.9
		c-1,0-1.9-0.9-2-1.9V14c0-1,0.9-1.9,2-2h4.2v1.6c0,0.4,0.3,0.9,0.7,0.9c0.4,0,0.9-0.3,0.9-0.7c0-0.1,0-0.1,0-0.3v-1.6H16v1.6
		c0,0.4,0.4,0.9,0.9,0.9s0.9-0.3,0.9-0.7l0,0V12h6.4v1.6c0,0.4,0.4,0.9,0.9,0.9c0.4,0,0.9-0.4,0.9-0.9V12h6.4v1.6
		c0,0.4,0.3,0.9,0.7,0.9l0,0c0.4,0,0.9-0.4,0.9-0.9V12h6.4v1.6c0,0.4,0.3,0.9,0.7,0.9s0.9-0.3,0.9-0.7c0,0,0-0.1,0-0.3v-1.6H46
		c1,0,1.9,0.9,1.9,2L48,40.8z"/>
	<path class="st0" d="M10.4,17.3H5.5c-0.3,0-0.4,0.1-0.4,0.4l0,0v5.1c0,0.3,0.1,0.4,0.4,0.4h4.9c0.3,0,0.4-0.1,0.4-0.4l0,0v-5.1
		C10.8,17.5,10.7,17.3,10.4,17.3C10.4,17.2,10.4,17.2,10.4,17.3 M10,21.5l-3.6-3.6H10V21.5z M5.8,18.6l3.6,3.6H5.8L5.8,18.6z"/>
	<path class="st0" d="M18.9,17.3H14c-0.3,0-0.4,0.1-0.4,0.4l0,0v5.1c0,0.3,0.1,0.4,0.4,0.4h4.9c0.3,0,0.4-0.1,0.4-0.4v-5.1
		C19.4,17.5,19.2,17.2,18.9,17.3C18.9,17.2,18.9,17.2,18.9,17.3 M18.5,21.5l-3.6-3.6h3.6V21.5z M14.3,18.6l3.6,3.6h-3.6V18.6z"/>
	<path class="st0" d="M27.5,17.3h-5.1c-0.1,0-0.4,0.1-0.4,0.4l0,0v5.1c0,0.3,0.1,0.4,0.4,0.4l0,0h5.1c0.3,0,0.4-0.1,0.4-0.4v-5.1
		C27.9,17.5,27.7,17.2,27.5,17.3C27.5,17.2,27.5,17.2,27.5,17.3 M27,21.5l-3.6-3.5H27V21.5z M22.8,18.6l3.6,3.6h-3.6V18.6z"/>
	<path class="st0" d="M36,17.3h-4.9c-0.3,0-0.4,0.1-0.4,0.4l0,0v5.1c0,0.3,0.1,0.4,0.4,0.4H36c0.3,0,0.4-0.1,0.4-0.4v-5.1
		C36.4,17.5,36.3,17.2,36,17.3C36,17.2,36,17.2,36,17.3 M35.6,21.5l-3.6-3.6h3.6V21.5z M31.4,18.6l3.6,3.6h-3.6V18.6z"/>
	<path class="st0" d="M44.5,17.3h-5.1c-0.1,0-0.4,0.1-0.4,0.4l0,0v5.1c0,0.3,0.1,0.4,0.4,0.4h5.1c0.3,0,0.4-0.1,0.4-0.4v-5.1
		C44.9,17.5,44.7,17.2,44.5,17.3 M44.1,21.5l-3.6-3.6h3.6V21.5z M39.9,18.6l3.6,3.6h-3.6V18.6z"/>
	<path class="st0" d="M10.4,25.4H5.5c-0.3,0-0.4,0.1-0.4,0.4v5.1c0,0.3,0.1,0.4,0.4,0.4h4.9c0.3,0,0.4-0.1,0.4-0.4l0,0V26
		C10.8,25.7,10.7,25.4,10.4,25.4L10.4,25.4 M10,29.9l-3.6-3.6H10V29.9z M5.8,26.9l3.6,3.6H5.8C5.8,30.5,5.8,26.9,5.8,26.9z"/>
	<path class="st0" d="M18.9,25.4H14c-0.3,0-0.4,0.1-0.4,0.4l0,0v5.1c0,0.3,0.1,0.4,0.4,0.4l0,0h4.9c0.3,0,0.4-0.1,0.4-0.4l0,0V26
		C19.4,25.7,19.2,25.4,18.9,25.4L18.9,25.4 M18.5,29.9l-3.6-3.6h3.6V29.9z M14.3,26.9l3.6,3.6h-3.6V26.9z"/>
	<path class="st0" d="M27.5,25.4h-5.1c-0.3,0-0.4,0.1-0.4,0.4v5.1c0,0.3,0.1,0.4,0.4,0.4h5.1c0.3,0,0.4-0.1,0.4-0.4V26
		C27.9,25.7,27.7,25.4,27.5,25.4L27.5,25.4 M27,30.5h-4.2v-4.2H27V30.5z"/>
	<path class="st0" d="M36,25.4h-4.9c-0.3,0-0.4,0.1-0.4,0.4l0,0v5.1c0,0.3,0.1,0.4,0.4,0.4l0,0H36c0.3,0,0.4-0.1,0.4-0.4l0,0V26
		C36.4,25.6,36.3,25.4,36,25.4L36,25.4 M35.6,30.5h-4.2v-4.2h4.2V30.5z"/>
	<path class="st0" d="M44.5,25.4h-5.1c-0.3,0-0.4,0.1-0.4,0.4l0,0v5.1c0,0.3,0.1,0.4,0.4,0.4l0,0h5.1c0.3,0,0.4-0.1,0.4-0.4V26
		C44.9,25.7,44.7,25.4,44.5,25.4 M44.1,30.5h-4.2v-4.2h4.2V30.5z"/>
	<path class="st0" d="M10.4,33.7H5.5c-0.3,0-0.4,0.1-0.4,0.4v5.1c0,0.3,0.1,0.4,0.4,0.4h4.9c0.1,0,0.4-0.1,0.4-0.4l0,0v-5.1
		C10.8,33.8,10.7,33.7,10.4,33.7L10.4,33.7 M10,38.7H5.8v-4.2H10V38.7z"/>
	<path class="st0" d="M18.9,33.7H14c-0.3,0-0.4,0.1-0.4,0.4v5.1c0,0.3,0.1,0.4,0.4,0.4l0,0h4.9c0.3,0,0.4-0.1,0.4-0.4l0,0v-5.1
		C19.4,33.8,19.2,33.7,18.9,33.7 M18.5,38.7h-4.2v-4.2h4.2V38.7z"/>
	<path class="st0" d="M27.5,33.7h-5.1c-0.3,0-0.4,0.1-0.4,0.4v5.1c0,0.3,0.1,0.4,0.4,0.4h5.1c0.3,0,0.4-0.1,0.4-0.4v-5.1
		C27.9,33.8,27.7,33.7,27.5,33.7 M27,38.7h-4.2v-4.2H27V38.7z"/>
	<path class="st0" d="M36,33.7h-4.9c-0.1,0-0.3,0.3-0.3,0.4v5.1c0,0.3,0.1,0.4,0.4,0.4l0,0h5.1c0.3,0,0.4-0.1,0.4-0.4l0,0v-5.1
		C36.4,33.8,36.3,33.7,36,33.7 M35.7,38.7h-4.2v-4.2h4.2V38.7z"/>
</g>
</svg>
