<?xml version="1.0" encoding="utf-8"?>
<!-- Generator: Adobe Illustrator 25.2.0, SVG Export Plug-In . SVG Version: 6.00 Build 0)  -->
<svg version="1.1" id="Layer_1" xmlns="http://www.w3.org/2000/svg" xmlns:xlink="http://www.w3.org/1999/xlink" x="0px" y="0px"
	 viewBox="0 0 50 50" style="enable-background:new 0 0 50 50;" xml:space="preserve">
<style type="text/css">
	.st0{fill:#FFFFFF;}
</style>
<g>
	<path class="st0" d="M34.7,7.4c-2.9,0-6.4,1.3-6.8,6.9c-0.9-0.4-1.9-0.5-2.8-0.5s-1.9,0.1-2.8,0.5c-0.4-5.7-3.9-6.9-6.8-6.9
		s-6.6,1.3-6.8,7.4c-0.4,0.5-0.5,0.9-0.5,1.5v0.1l0.5,2.8c0.1,0.5,0.4,0.9,0.7,1.3c0,0.1,0.1,0.2,0.1,0.4c0.2,1.1,0.6,2,1.1,2.8
		l-0.1,0.8c-0.7,0.4-1.5,0.8-2.6,1.3c-1.1,0.6-2.5,1.4-3.6,1.9c-1.2,0.5-4.1,1.8-3.8,5c0.1,0.9,0.4,1.8,0.6,2.7l0.2,0.7h9.6
		c-0.7,0.8-1.1,2-0.9,3.2c0.1,0.9,0.4,1.8,0.6,2.7l0.2,0.7h28.4l0.2-0.7c0.4-0.8,0.5-1.8,0.6-2.7c0.1-1.2-0.2-2.3-0.9-3.2h9.6
		l0.2-0.7c0.4-0.8,0.5-1.8,0.6-2.7c0.4-3.3-2.6-4.6-3.8-5c-1.2-0.5-2.6-1.3-3.8-1.9c-0.9-0.6-1.9-1.1-2.6-1.3l-0.1-0.8
		c0.6-0.8,0.9-1.8,1.1-2.8c0-0.1,0.1-0.2,0.1-0.5c0.4-0.4,0.6-0.8,0.7-1.3l0.5-2.8v-0.1c0-0.6-0.1-1.1-0.5-1.5
		C41.4,8.7,37.8,7.4,34.7,7.4 M34.7,8.3c4.2,0,5.9,2.7,5.9,6.8c0.4,0.2,0.5,0.6,0.5,0.9l-0.5,2.8c-0.1,0.4-0.4,0.7-0.6,0.9
		c-0.1,1.3-0.6,2.5-1.4,3.5l0.2,1.8c1.4,0.6,4.6,2.5,6.8,3.4c2,0.8,3.4,1.9,3.2,4c-0.1,0.8-0.4,1.6-0.6,2.5H35.9H36
		c2,0.8,3.4,1.9,3.2,4c-0.1,0.8-0.4,1.6-0.6,2.5h-27c-0.2-0.8-0.5-1.6-0.6-2.5c-0.2-2.2,1.2-3.2,3.2-4h0.1H2
		c-0.2-0.8-0.5-1.6-0.6-2.5c-0.2-2.2,1.2-3.2,3.2-4c2.3-0.9,5.4-2.9,6.8-3.4l0.2-1.8c-0.7-1.1-1.2-2.2-1.4-3.5
		c-0.4-0.2-0.6-0.5-0.6-0.9L9.2,16c0-0.4,0.1-0.8,0.5-0.9c0-4.1,1.5-6.8,5.9-6.8s5.9,2.7,5.9,6.8c0.2,0.1,0.4,0.4,0.5,0.6
		c1.1-0.6,2.2-0.9,3.4-0.8c1.2,0,2.3,0.2,3.4,0.8c0.1-0.2,0.2-0.5,0.5-0.6C29,11,30.6,8.3,34.7,8.3"/>
	<path class="st0" d="M38.5,36.7c-0.7-0.7-1.6-1.3-2.6-1.6c-1.2-0.5-2.6-1.3-3.9-2c-0.9-0.6-2-1.1-2.9-1.5h-0.2l-0.2-2.1l0.1-0.1
		c0.6-0.8,0.9-1.6,1.1-2.6c0-0.2,0.1-0.5,0.2-0.8v-0.1l0.1-0.1c0.2-0.1,0.5-0.4,0.5-0.7l0.6-2.8c0-0.2-0.1-0.5-0.4-0.6l-0.1-0.1
		v-0.1c0-4.5-1.8-6.4-5.5-6.4s-5.5,2.1-5.5,6.4v0.1l-0.1,0.1c-0.2,0.1-0.4,0.4-0.4,0.7l0.5,2.7c0,0.2,0.2,0.5,0.5,0.6l0.1,0.1v0.1
		c0.1,0.2,0.1,0.6,0.2,0.7c0.1,0.9,0.5,1.9,1.1,2.6l0.1,0.1l-0.2,2.1l-0.1,0.1c-1.1,0.5-2,0.9-2.9,1.5c-1.3,0.7-2.7,1.4-3.9,2
		c-0.7,0.2-1.4,0.6-2,1.1l-0.5-0.5c0.7-0.5,1.4-0.9,2.1-1.2c1.2-0.5,2.6-1.3,3.9-1.9c1.3-0.6,2.1-1.2,2.8-1.4l0.1-1.4
		c-0.6-0.8-1.1-1.8-1.2-2.8c0-0.2-0.1-0.5-0.1-0.6c-0.4-0.2-0.6-0.6-0.7-1.1l-0.5-2.8c0-0.5,0.1-0.8,0.5-1.2c0-4.6,2.1-6.9,6.1-6.9
		s6.1,2.3,6.1,6.9c0.4,0.2,0.6,0.7,0.5,1.2l-0.5,2.8c-0.1,0.5-0.4,0.8-0.7,1.1c0,0.2-0.1,0.5-0.1,0.6c-0.1,1.1-0.6,2-1.2,2.8
		l0.1,1.4c0.7,0.2,1.8,0.8,2.8,1.4c1.1,0.6,2.6,1.4,3.8,1.9c1.2,0.4,2.1,0.9,2.9,1.9L38.5,36.7z"/>
</g>
</svg>
