<?xml version="1.0" encoding="utf-8"?>
<!-- Generator: Adobe Illustrator 25.2.0, SVG Export Plug-In . SVG Version: 6.00 Build 0)  -->
<svg version="1.1" id="Layer_1" xmlns="http://www.w3.org/2000/svg" xmlns:xlink="http://www.w3.org/1999/xlink" x="0px" y="0px"
	 viewBox="0 0 50 50" style="enable-background:new 0 0 50 50;" xml:space="preserve">
<style type="text/css">
	.st0{fill:#FFFFFF;}
</style>
<g>
	<polygon class="st0" points="25.6,1.3 24.7,1.3 24.7,6.2 24.7,8.2 25.6,8.2 25.6,6.2 31.8,3.6 	"/>
	<path class="st0" d="M25,7.9l-0.6,0.1L3.1,15.6c-1.6,0.7-2.6,2.2-2.6,3.9v4.5H4v17.1H0.6v7.5h48.8v-7.5H46V24.1h3.5v-4.5
		c0-1.7-1-3.2-2.6-3.8L25.6,8.2L25,7.9z M25,9.5l21.3,7.7c1,0.3,1.6,1.3,1.6,2.3v2.9h-3.3v20.3h3.3v4.4H2.2v-4.4h3.3V22.5H2.1v-2.9
		c0-1,0.7-2,1.7-2.3L25,9.5"/>
	<path class="st0" d="M17.7,22.5h-8v20.3h8V22.5z M16.9,41.9h-6.4V23.2h6.4V41.9z"/>
	<path class="st0" d="M28.9,22.5h-8v20.3h8V22.5z M28.2,41.9h-6.4V23.2H28L28.2,41.9z"/>
	<path class="st0" d="M40.1,22.5h-8v20.3h8V22.5z M39.4,41.9H33V23.2h6.4V41.9z"/>
</g>
</svg>
