<?xml version="1.0" encoding="utf-8"?>
<!-- Generator: Adobe Illustrator 25.2.0, SVG Export Plug-In . SVG Version: 6.00 Build 0)  -->
<svg version="1.1" id="Layer_1" xmlns="http://www.w3.org/2000/svg" xmlns:xlink="http://www.w3.org/1999/xlink" x="0px" y="0px"
	 viewBox="0 0 50 50" style="enable-background:new 0 0 50 50;" xml:space="preserve">
<style type="text/css">
	.st0{fill:#FFFFFF;}
</style>
<g>
	<path class="st0" d="M33.5,4.5H16.4c-1.6,0-2.8,1.3-2.8,2.8V12H4.1c-1.9,0-3.6,1.6-3.6,3.6v26.4c0,1.9,1.6,3.6,3.6,3.6h41.8
		c1.9,0,3.6-1.6,3.6-3.6V15.6c0-1.9-1.6-3.6-3.6-3.6h-9.4V7.3C36.3,5.8,35.1,4.5,33.5,4.5 M33.5,6.1c0.7,0,1.2,0.6,1.2,1.2v6.3h11.1
		c1,0,1.8,0.9,1.8,1.9v26.4c0,1-0.9,1.9-1.9,1.9H4.1c-1,0-1.9-0.9-1.9-1.9V15.6c0-1,0.9-1.9,1.9-1.9h11.1V7.3c0-0.7,0.6-1.2,1.2-1.2
		H33.5"/>
	<path class="st0" d="M19.1,12.9h11.7v-2.7H19.1C19.1,10.2,19.1,12.9,19.1,12.9z M31.7,13.6H18.3V9.3h13.3V13.6z"/>
	<path class="st0" d="M21.9,38.3h6V32h6.3v-6h-6.3v-6.3h-6V26h-6.3v6h6.3V38.3L21.9,38.3z M28.8,39.1h-7.6v-6.3h-6.3v-7.6h6.3v-6.3
		h7.6v6.3h6.3v7.6h-6.3C28.8,32.8,28.8,39.1,28.8,39.1z"/>
</g>
</svg>
