<?xml version="1.0" encoding="utf-8"?>
<!-- Generator: Adobe Illustrator 25.2.0, SVG Export Plug-In . SVG Version: 6.00 Build 0)  -->
<svg version="1.1" id="Layer_1" xmlns="http://www.w3.org/2000/svg" xmlns:xlink="http://www.w3.org/1999/xlink" x="0px" y="0px"
	 viewBox="0 0 50 50" style="enable-background:new 0 0 50 50;" xml:space="preserve">
<style type="text/css">
	.st0{fill:#FFFFFF;}
</style>
<path class="st0" d="M19.6,24.8h-0.7c0.5-9,3-15.3,6.2-15.3s5.7,6.2,6.1,15.2h-0.7c-0.5-8.3-2.8-14.5-5.4-14.5S20.1,16.5,19.6,24.8"
	/>
<g>
	<path class="st0" d="M25.1,0.3c-13.6,0-24.6,11-24.8,24.6c0,0.6,0.5,1.2,1.1,1.5c0.2,0,0.3,0.2,0.6,0.2c0.5,0,0.9-0.2,1.2-0.6
		c1.7-1.4,3.8-2,6-1.8c2.1-0.2,4.1,0.5,5.8,1.8c0.3,0.3,0.8,0.5,1.2,0.5c0.3,0,0.8-0.2,1.1-0.3c2.3-1.4,5-2.1,7.8-2
		c2.8-0.2,5.5,0.5,7.8,2c0.3,0.3,0.6,0.5,1.1,0.3c0.5,0,0.9-0.2,1.2-0.5c1.7-1.4,3.7-2,5.8-1.8c2.1-0.2,4.3,0.6,6,2
		c0.3,0.5,0.8,0.6,1.2,0.6c0.2,0,0.5,0,0.6-0.2c0.6-0.3,1.1-0.8,1.1-1.5C49.7,11.3,38.7,0.3,25.1,0.3 M25.1,1.8
		c12.7,0,23.1,10.4,23.1,23.1c-2-1.8-4.6-2.8-7.2-2.6c-2.6-0.2-5,0.6-7,2.3c-2.6-1.7-5.7-2.4-8.9-2.3c-3.1-0.2-6.3,0.6-8.9,2.3
		c-2-1.7-4.4-2.4-7-2.3C6.6,22.2,4,23.1,2,24.8C2.2,12.2,12.4,2,25.1,1.8"/>
	<path class="st0" d="M20.5,49.4c-2.9,0-5.4-2.4-5.4-5.4c0-0.5,0.3-0.8,0.8-0.8l0,0c0.5,0,0.8,0.3,0.8,0.8c0,2,1.7,3.7,3.7,3.7
		S24,46,24,44V23.9c0-0.5,0.5-0.8,0.9-0.8c0.3,0,0.6,0.3,0.8,0.8v20C25.9,46.9,23.4,49.2,20.5,49.4"/>
</g>
</svg>
