<?xml version="1.0" encoding="utf-8"?>
<!-- Generator: Adobe Illustrator 25.2.0, SVG Export Plug-In . SVG Version: 6.00 Build 0)  -->
<svg version="1.1" id="Layer_1" xmlns="http://www.w3.org/2000/svg" xmlns:xlink="http://www.w3.org/1999/xlink" x="0px" y="0px"
	 viewBox="0 0 50 50" style="enable-background:new 0 0 50 50;" xml:space="preserve">
<style type="text/css">
	.st0{fill:#FFFFFF;}
	.st1{font-family:'OpenSans';}
	.st2{font-size:28.9017px;}
	.st3{letter-spacing:-1;}
</style>
<g>
	<text transform="matrix(1 0 0 1 0.9471 41.6189)" class="st0 st1 st2 st3">L</text>
	<text transform="matrix(1 0 0 1 14.9031 41.6189)" class="st0 st1 st2">T</text>
	<text transform="matrix(1 0 0 1 31.9705 41.6189)" class="st0 st1 st2">E</text>
	<path class="st0" d="M31.1,12.2v3c1.6,0,3,1.3,3,2.8l0,0h3C37,14.7,34.3,12.2,31.1,12.2C31,12.2,31,12.2,31.1,12.2"/>
	<path class="st0" d="M31,6.4v3c4.9-0.2,9,3.8,9,8.6h3C42.9,11.4,37.4,6.2,31,6.4"/>
	<path class="st0" d="M31,0.6v3c8-0.3,14.8,6.1,15.1,14.1l0,0h3C48.7,8.1,40.7,0.4,31,0.6L31,0.6"/>
</g>
</svg>
