<?xml version="1.0" encoding="utf-8"?>
<!-- Generator: Adobe Illustrator 25.2.0, SVG Export Plug-In . SVG Version: 6.00 Build 0)  -->
<svg version="1.1" id="Layer_1" xmlns="http://www.w3.org/2000/svg" xmlns:xlink="http://www.w3.org/1999/xlink" x="0px" y="0px"
	 viewBox="0 0 50 50" style="enable-background:new 0 0 50 50;" xml:space="preserve">
<style type="text/css">
	.st0{fill:#FFFFFF;}
</style>
<g>
	<rect x="31.6" y="37.1" class="st0" width="4.2" height="4.2"/>
	<rect x="39.3" y="37.1" class="st0" width="4.2" height="4.2"/>
	<rect x="23.9" y="37.1" class="st0" width="4.2" height="4.2"/>
	<rect x="16.2" y="37.1" class="st0" width="4.2" height="4.2"/>
	<rect x="8.4" y="37.1" class="st0" width="4.2" height="4.2"/>
	<path class="st0" d="M17,14.9c-2-0.1-3.4-1.8-3.2-3.8C13.9,9.4,15.3,8,17,7.9h0.3c0.4-2.2,2.4-3.9,4.6-3.9c0.7,0,1.4,0.1,2.1,0.4
		C25.6,1,29.5-0.4,32.7,1c3.2,1.4,4.8,5.5,3.4,8.7c-1.4,3.2-5.5,4.8-8.7,3.4c-0.7-0.3-1.4-0.7-2-1.3c-1.4,1.5-3.5,2-5.3,1.3
		C19.4,14.2,18.3,14.9,17,14.9 M17,8.7c-1.5-0.1-2.8,1-2.9,2.5c-0.1,1.5,1,2.8,2.5,2.9c0.1,0,0.3,0,0.4,0c1.1,0,2.1-0.7,2.5-1.7
		l0.1-0.4l0.4,0.1c1.7,1,3.8,0.4,5.1-1.1l0.3-0.4l0.3,0.4c2.1,2.4,5.9,2.5,8.1,0.4c2.4-2.1,2.5-5.9,0.4-8.1
		c-2.1-2.2-5.9-2.8-8.3-0.6c-0.7,0.6-1.3,1.4-1.5,2.2l-0.1,0.4l-0.4-0.3c-1.8-1.1-4.2-0.6-5.3,1.3C18.3,7,18,7.6,18,8.3v0.4h-0.4
		C17.3,8.6,17.1,8.6,17,8.7"/>
	<path class="st0" d="M18.5,17.4v12.8h0.1l14.9-10.5v9.8l13.7-9.8v26.5c0,1-0.8,1.8-1.8,1.8h-41c-1,0-1.8-0.8-2-1.8v-16h2.5V17.4
		h4.2v12.8h5.2V17.4H18.5 M20.2,15.7h-7.4v12.8h-2V15.7H3.5v12.8H1V46c0,2,1.5,3.5,3.5,3.5h41c2,0,3.5-1.5,3.5-3.5V16.4l-2.5,1.8
		l-11.2,8v-9.8l-2.5,1.8l-12.5,8.8L20.2,15.7L20.2,15.7z"/>
</g>
</svg>
