<?xml version="1.0" encoding="utf-8"?>
<!-- Generator: Adobe Illustrator 25.2.0, SVG Export Plug-In . SVG Version: 6.00 Build 0)  -->
<svg version="1.1" id="Layer_1" xmlns="http://www.w3.org/2000/svg" xmlns:xlink="http://www.w3.org/1999/xlink" x="0px" y="0px"
	 viewBox="0 0 50 50" style="enable-background:new 0 0 50 50;" xml:space="preserve">
<style type="text/css">
	.st0{fill:#FFFFFF;}
</style>
<g>
	<path class="st0" d="M25.1,0.6l-0.4,0.1L3.3,7.9l-1,0.3v1.1c0,14.4,0,32.6,22.4,40l0.4,0.1l0.4-0.1c1-0.3,1.9-0.7,2.8-1.1
		c16.7-6.8,19.2-20,19.4-33.2c0-1.9,0-3.9,0-5.7V8.2l-1-0.3L25.5,0.7L25.1,0.6z M25.1,2.2l21.2,7.1c0,1.8,0,3.7,0,5.7
		C46,27.2,43.8,40.3,27.7,46.9c-0.8,0.4-1.8,0.7-2.8,1C3.7,40.8,3.7,23.5,3.7,9.3L25.1,2.2"/>
	<path class="st0" d="M22.6,33.7l-8.2-8.2c-0.3-0.3-0.3-0.8,0-1.1c0.3-0.3,0.8-0.3,1.1,0l7.1,7.2L37,17.2c0.3-0.3,0.8-0.3,1.1,0
		s0.3,0.7,0,1.1L22.6,33.7z"/>
</g>
</svg>
