<?xml version="1.0" encoding="utf-8"?>
<!-- Generator: Adobe Illustrator 25.2.0, SVG Export Plug-In . SVG Version: 6.00 Build 0)  -->
<svg version="1.1" id="Layer_1" xmlns="http://www.w3.org/2000/svg" xmlns:xlink="http://www.w3.org/1999/xlink" x="0px" y="0px"
	 viewBox="0 0 50 50" style="enable-background:new 0 0 50 50;" xml:space="preserve">
<style type="text/css">
	.st0{fill:#FFFFFF;}
</style>
<path class="st0" d="M24.9,0.4H6.3c-2.1,0-4,1.8-4,4s1.8,4,4,4h18.6c9.1,0,15.7,7.1,15.7,16.3c0,9.6-6.6,17-15.7,17
	s-15.7-7.4-15.7-17c-0.2-5.3,2.3-10.2,6.6-13.3H4.3c-2.6,4-4,8.7-3.8,13.3c0,14,10.1,24.9,24.6,24.9s24.6-10.9,24.6-24.7
	C49.4,11.1,39.2,0.6,24.9,0.4"/>
</svg>
