<?xml version="1.0" encoding="utf-8"?>
<!-- Generator: Adobe Illustrator 25.2.0, SVG Export Plug-In . SVG Version: 6.00 Build 0)  -->
<svg version="1.1" id="Layer_1" xmlns="http://www.w3.org/2000/svg" xmlns:xlink="http://www.w3.org/1999/xlink" x="0px" y="0px"
	 viewBox="0 0 50 50" style="enable-background:new 0 0 50 50;" xml:space="preserve">
<style type="text/css">
	.st0{fill:#FFFFFF;}
</style>
<g>
	<path class="st0" d="M17.9,27.2h-3.6c-0.8,1.2-1.2,2.7-1.2,4.2C13,35.6,16.3,39,20.5,39c0.2,0,0.3,0,0.3,0c4.2,0.2,7.5-3.2,7.7-7.4
		c0-0.2,0-0.3,0-0.5c0.2-4.1-3.2-7.5-7.2-7.5c-0.2,0-0.3,0-0.5,0h-5.9c-0.6,0-1.2,0.6-1.2,1.2c0,0.8,0.6,1.2,1.2,1.2h5.9
		c2.7,0,5,2.1,5,4.8c0,0.2,0,0.2,0,0.3c0.2,2.7-2,5-4.7,5.1s-5-2-5.1-4.7c0-0.2,0-0.3,0-0.6C15.8,29.7,16.6,28.2,17.9,27.2"/>
	<path class="st0" d="M47.8,44.4c0,1.1-0.8,2-1.8,2l0,0H9.1c0.2-0.3,0.3-0.8,0.3-1.2V3.6H48v40.8H47.8z M7.6,2v43.2
		c0,0.6-0.5,1.2-1.2,1.2l0,0H3.1c-0.6,0-1.2-0.5-1.2-1.1l0,0V8.1H0.4v37.1c0,1.5,1.2,2.9,2.9,2.9H46c2,0,3.6-1.7,3.6-3.6l0,0V2H7.6z
		"/>
	<rect x="3.8" y="5.7" class="st0" width="1.7" height="38.6"/>
	<rect x="12.4" y="20.3" class="st0" width="32.3" height="0.8"/>
	<rect x="31.2" y="25.7" class="st0" width="13.5" height="0.8"/>
	<rect x="31.2" y="31.1" class="st0" width="13.5" height="0.8"/>
	<rect x="31.2" y="36.6" class="st0" width="13.5" height="0.8"/>
	<rect x="12.4" y="42" class="st0" width="32.3" height="0.8"/>
	<path class="st0" d="M14,12c0-0.5,0-1.4-0.2-2.4l0,0l3.8,6.5h2.3V7.7h-1.5v4.1c0,0.5,0,1.2,0.2,2.4l0,0l-3.8-6.3h-2.3v8.4h1.7V12
		H14z"/>
	<polygon class="st0" points="27,14.6 23.9,14.6 23.9,12.5 26.8,12.5 26.8,11 23.9,11 23.9,9 27,9 27,7.5 22.1,7.5 22.1,16.1 
		27,16.1 	"/>
	<path class="st0" d="M31.8,16.1l1.2-4.5c0-0.2,0.2-0.6,0.2-1.1c0-0.5,0.2-0.8,0.2-1.1c0,0.3,0.2,0.6,0.2,1.1
		c0.2,0.5,0.2,0.8,0.2,1.1l1.2,4.5h2.1L39,7.7h-1.8l-1.1,4.7c0,0.3-0.2,0.6-0.3,1.1c-0.2,0.5-0.2,0.8-0.2,1.2c0-0.3-0.2-0.8-0.2-1.2
		c0-0.5-0.2-0.8-0.2-0.9l-1.2-4.8h-1.7l-1.2,4.8c0,0.3-0.2,0.6-0.3,1.1c-0.2,0.5-0.2,0.8-0.2,1.1c-0.2-0.6-0.2-1.4-0.5-2.3l-1.1-4.7
		h-1.8l2.1,8.4C29.7,16.1,31.8,16.1,31.8,16.1z"/>
	<path class="st0" d="M44.2,15.5c0.6-0.5,0.9-1.1,0.8-1.8c0-0.5-0.2-1.1-0.5-1.4c-0.5-0.5-1.1-0.9-1.7-1.2c-0.6-0.3-1.1-0.5-1.2-0.6
		c-0.2-0.2-0.3-0.2-0.3-0.3c-0.2-0.2-0.2-0.3-0.2-0.5c0-0.3,0.2-0.5,0.3-0.6C41.7,9,42,8.9,42.3,8.9s0.6,0,0.9,0.2
		c0.5,0.2,0.8,0.3,1.2,0.5L45,8.1c-0.5-0.2-0.8-0.3-1.2-0.5c-0.5-0.2-0.9-0.2-1.2-0.2c-0.8,0-1.5,0.2-2.1,0.6
		c-0.5,0.5-0.8,1.1-0.8,1.8c0,0.3,0,0.8,0.3,1.1c0.2,0.3,0.3,0.6,0.6,0.8c0.3,0.3,0.8,0.6,1.2,0.8c0.3,0.2,0.8,0.3,1.1,0.6
		c0.2,0.2,0.3,0.3,0.5,0.3c0.2,0.2,0.2,0.3,0.2,0.5c0,0.3-0.2,0.5-0.3,0.8c-0.3,0.2-0.6,0.3-0.9,0.3c-0.3,0-0.8,0-1.1-0.2
		c-0.5-0.2-1.1-0.3-1.5-0.6v1.7c0.8,0.3,1.5,0.6,2.4,0.5C42.7,16.2,43.6,15.9,44.2,15.5"/>
</g>
</svg>
