<?xml version="1.0" encoding="utf-8"?>
<!-- Generator: Adobe Illustrator 25.2.0, SVG Export Plug-In . SVG Version: 6.00 Build 0)  -->
<svg version="1.1" id="Layer_1" xmlns="http://www.w3.org/2000/svg" xmlns:xlink="http://www.w3.org/1999/xlink" x="0px" y="0px"
	 viewBox="0 0 50 50" style="enable-background:new 0 0 50 50;" xml:space="preserve">
<style type="text/css">
	.st0{fill:#FFFFFF;}
</style>
<g>
	<rect x="10" y="13.8" class="st0" width="4.7" height="4.7"/>
	<rect x="18.4" y="13.8" class="st0" width="4.7" height="4.7"/>
	<rect x="26.9" y="13.8" class="st0" width="4.7" height="4.7"/>
	<rect x="35.4" y="13.8" class="st0" width="4.7" height="4.7"/>
	<rect x="10" y="22.3" class="st0" width="4.7" height="4.7"/>
	<rect x="18.4" y="22.3" class="st0" width="4.7" height="4.7"/>
	<rect x="26.9" y="22.3" class="st0" width="4.7" height="4.7"/>
	<rect x="35.4" y="22.3" class="st0" width="4.7" height="4.7"/>
	<rect x="10" y="5.4" class="st0" width="4.7" height="4.7"/>
	<rect x="18.4" y="5.4" class="st0" width="4.7" height="4.7"/>
	<rect x="26.9" y="5.4" class="st0" width="4.7" height="4.7"/>
	<rect x="35.4" y="5.4" class="st0" width="4.7" height="4.7"/>
	<rect x="10" y="30.8" class="st0" width="4.7" height="4.7"/>
	<rect x="35.4" y="30.8" class="st0" width="4.7" height="4.7"/>
	<rect x="10" y="39.2" class="st0" width="4.7" height="4.7"/>
	<rect x="35.4" y="39.2" class="st0" width="4.7" height="4.7"/>
	<path class="st0" d="M41.2,0.3H8.7C6.5,0.3,4.7,2,4.7,4.2l0,0v45.5h40.5V4.2C45.1,2,43.4,0.3,41.2,0.3L41.2,0.3 M31.1,48h-5.7V31.2
		h5.7V48z M24.6,48H19V31.2h5.5V48z M32,48V30.3H18.1V48H6.3V4.2c0-1.3,1-2.3,2.3-2.3h32.5c1.3,0,2.3,1,2.3,2.3l0,0V48H32z"/>
</g>
</svg>
