<?xml version="1.0" encoding="utf-8"?>
<!-- Generator: Adobe Illustrator 25.2.0, SVG Export Plug-In . SVG Version: 6.00 Build 0)  -->
<svg version="1.1" id="Layer_1" xmlns="http://www.w3.org/2000/svg" xmlns:xlink="http://www.w3.org/1999/xlink" x="0px" y="0px"
	 viewBox="0 0 50 50" style="enable-background:new 0 0 50 50;" xml:space="preserve">
<style type="text/css">
	.st0{fill:#FFFFFF;}
</style>
<g>
	<rect x="3.6" y="26" transform="matrix(0.5351 -0.8448 0.8448 0.5351 -16.4688 22.8522)" class="st0" width="18" height="0.7"/>
	
		<rect x="21.9" y="26.5" transform="matrix(3.507342e-02 -0.9994 0.9994 3.507342e-02 -16.6564 59.0213)" class="st0" width="0.7" height="23.3"/>
	<rect x="32" y="15.5" transform="matrix(0.7306 -0.6828 0.6828 0.7306 -7.7442 28.5643)" class="st0" width="0.7" height="17.3"/>
	<path class="st0" d="M21.4,4.7L21.4,4.7c-4.4,0-8,3.6-8,8c0,2.5,1.1,4.7,3,6.2c1.4,1.1,3.2,1.8,5,1.8c4.4,0,8-3.5,8.1-7.9
		c0-2.5-1.1-4.8-3-6.4C25,5.2,23.2,4.5,21.4,4.7 M21.4,6.1c3.6,0,6.5,2.9,6.5,6.5S25,19,21.4,19s-6.5-2.9-6.5-6.5
		c0-1.5,0.6-2.9,1.4-4C17.5,7,19.3,6.1,21.4,6.1"/>
	<path class="st0" d="M5.9,32.6L5.9,32.6c-3,0-5.5,2.5-5.5,5.5c0,1.7,0.8,3.3,2.1,4.4c1,0.8,2.2,1.2,3.5,1.2c3,0,5.5-2.5,5.5-5.5
		c0-1.7-0.8-3.3-2.1-4.4C8.3,33,7.2,32.6,5.9,32.6 M5.9,34.1c2.2,0,4,1.8,4,4c0,1-0.3,1.8-0.8,2.5c-0.8,1-1.9,1.7-3.2,1.7
		c-2.2,0-4-1.8-4-4C1.9,36,3.6,34.1,5.9,34.1"/>
	<path class="st0" d="M41.4,29.1L41.4,29.1c-2.5,0-4.8,1.1-6.4,3c-1.4,1.7-1.9,3.9-1.7,5.9c0.6,4.4,4.6,7.7,9,7.2
		c4.4-0.6,7.7-4.6,7.2-9C49,32.3,45.5,29.1,41.4,29.1 M41.4,30.6c3.7,0,6.6,3,6.6,6.6c0,1.5-0.6,2.9-1.4,4.1
		c-1.2,1.5-3.2,2.5-5.2,2.5c-1.5,0-2.9-0.4-4.1-1.4c-2.9-2.2-3.3-6.5-1.1-9.3C37.4,31.6,39.3,30.6,41.4,30.6"/>
</g>
</svg>
