<?xml version="1.0" encoding="utf-8"?>
<!-- Generator: Adobe Illustrator 25.2.0, SVG Export Plug-In . SVG Version: 6.00 Build 0)  -->
<svg version="1.1" id="Layer_1" xmlns="http://www.w3.org/2000/svg" xmlns:xlink="http://www.w3.org/1999/xlink" x="0px" y="0px"
	 viewBox="0 0 50 50" style="enable-background:new 0 0 50 50;" xml:space="preserve">
<style type="text/css">
	.st0{fill:#FFFFFF;}
</style>
<g>
	<path class="st0" d="M13.9,48.9h8.9V24.7h-8.9C13.9,24.7,13.9,48.9,13.9,48.9z M14.9,25.8h6.9v22.1h-6.9V25.8z"/>
	<path class="st0" d="M40.7,48.9h8.9V15.7h-8.9V48.9z M48.8,47.9h-7V16.7h6.9L48.8,47.9z"/>
	<path class="st0" d="M27.3,48.9h8.9V30.1h-8.9C27.3,30.1,27.3,48.9,27.3,48.9z M28.4,31.1h6.9v16.8h-6.9V31.1z"/>
	<path class="st0" d="M0.5,48.9h8.9V31.3H0.5C0.5,31.3,0.5,48.9,0.5,48.9z M1.5,32.3h6.9v15.6H1.5V32.3z"/>
	<polygon class="st0" points="18.6,15 32.4,20.6 46.4,5.3 47.8,6.7 49,1.1 43.6,2.8 44.9,4.1 31.7,18.2 18.6,13 0.4,21.7 1.2,23.6 	
		"/>
</g>
</svg>
