<?xml version="1.0" encoding="utf-8"?>
<!-- Generator: Adobe Illustrator 25.2.0, SVG Export Plug-In . SVG Version: 6.00 Build 0)  -->
<svg version="1.1" id="Layer_1" xmlns="http://www.w3.org/2000/svg" xmlns:xlink="http://www.w3.org/1999/xlink" x="0px" y="0px"
	 viewBox="0 0 50 50" style="enable-background:new 0 0 50 50;" xml:space="preserve">
<style type="text/css">
	.st0{fill:#FFFFFF;}
</style>
<g>
	<path class="st0" d="M22.5,42.9H5.4V42h17.1c0.9,0,1.6-0.7,1.6-1.6l0,0V29.8c0-0.9-0.7-1.6-1.6-1.6l0,0H5.4v-0.9h17.1
		c1.3,0,2.5,1.2,2.5,2.5l0,0v10.6C25,41.7,23.8,42.9,22.5,42.9L22.5,42.9"/>
	<path class="st0" d="M18.4,12.1H15V4.6h3.4V12.1z M15.9,11.2h1.6V5.3h-1.6V11.2z"/>
	<path class="st0" d="M24,12.1h-3.4V4.6H24V12.1z M21.3,11.2h1.6V5.3h-1.6V11.2z"/>
	<path class="st0" d="M29.4,12.1H26V4.6h3.4V12.1z M26.9,11.2h1.6V5.3h-1.6V11.2z"/>
	<path class="st0" d="M34.9,12.1h-3.4V4.6h3.4V12.1z M32.4,11.2H34V5.3h-1.6V11.2z"/>
	<rect x="14.7" y="14.6" class="st0" width="20.5" height="0.9"/>
	<path class="st0" d="M35,2.1c1.2,0,2.1,0.9,2.1,2.1l0,0v8.4c0,1.2-0.9,2.1-2.1,2.1h-0.1l1.3,5.2c0.1,0.6,0.4,1.2,0.9,1.6L43,27
		c0.4,0.4,0.7,1.2,0.7,1.9V46c0,1.2-0.9,2.1-2.1,2.1l0,0H8.3c-1.2,0-2.1-0.9-2.1-2.1V28.8c0-0.7,0.3-1.3,0.7-1.9l5.9-5.6
		c0.4-0.4,0.7-0.9,0.9-1.5l1.5-5.2h-0.1c-1.2,0-2.1-0.9-2.2-2.1c0,0,0,0,0-0.1V4c0-1.2,0.9-2.1,2.1-2.1l0,0h20 M35,0.5H14.8
		c-2.1,0-3.8,1.8-3.7,3.8v8.3c0,1.3,0.7,2.7,1.9,3.2l-1,3.5c-0.1,0.3-0.3,0.6-0.4,0.7l-5.9,5.6l0,0l0,0c-0.7,0.9-1.2,1.9-1.2,3.1
		v17.1c0,2.1,1.6,3.7,3.8,3.7h33.3c2.1,0,3.8-1.6,3.8-3.7l0,0V28.8c0-1.2-0.4-2.2-1.3-2.9l0,0l0,0l-5.9-5.6
		c-0.1-0.1-0.3-0.4-0.4-0.7l-1-3.5c1.2-0.7,1.9-1.9,1.9-3.2V4.3C38.9,2.1,37.1,0.5,35,0.5"/>
</g>
</svg>
