<?xml version="1.0" encoding="utf-8"?>
<!-- Generator: Adobe Illustrator 25.2.0, SVG Export Plug-In . SVG Version: 6.00 Build 0)  -->
<svg version="1.1" id="Layer_1" xmlns="http://www.w3.org/2000/svg" xmlns:xlink="http://www.w3.org/1999/xlink" x="0px" y="0px"
	 viewBox="0 0 50 50" style="enable-background:new 0 0 50 50;" xml:space="preserve">
<style type="text/css">
	.st0{fill:#FFFFFF;}
</style>
<g>
	<path class="st0" d="M37.6,19.6l3,10.6H26.7V19.6H37.6z M38.2,18.8H26v12.3h15.7l-0.3-1l-3-10.6L38.2,18.8z"/>
	<rect x="29.3" y="14.8" class="st0" width="3.7" height="0.9"/>
	<rect x="29.3" y="9.2" class="st0" width="3.7" height="0.9"/>
	<rect x="3.3" y="34.2" class="st0" width="43.2" height="0.9"/>
	<path class="st0" d="M25,42.1c-0.9,0-1.7-0.7-1.7-1.7c0-0.9,0.7-1.7,1.7-1.7s1.7,0.7,1.7,1.7l0,0C26.6,41.2,25.9,42.1,25,42.1
		 M25,39.5c-0.4,0-0.9,0.4-0.9,0.9c0,0.4,0.4,0.9,0.9,0.9c0.4,0,0.9-0.4,0.9-0.9l0,0C25.9,39.9,25.4,39.5,25,39.5"/>
	<polygon class="st0" points="20.6,26.1 11.3,26.1 11.3,15.6 12,15.6 12,25.4 19.7,25.4 19.7,15.6 20.6,15.6 	"/>
	<path class="st0" d="M38.9,4.3c0.9,0,1.4,0.6,1.4,1.4v2c0,0.9-0.6,1.4-1.4,1.4h-6.3v6.4h6.7c0.7,0,1.3,0.6,1.3,1.3L46,35.1
		c1,0.1,1.7,0.9,1.7,1.9v6.7c0,1-0.9,1.9-1.9,1.9H4.1c-1,0-1.9-0.9-2-1.9v-6.7c0-1,0.7-1.9,1.7-1.9l5.4-18.2c0-0.7,0.6-1.3,1.3-1.3
		H12v-5.1h7.7v5h10V9.1h-4c-0.9,0-1.4-0.6-1.4-1.4v-2c0-0.9,0.6-1.4,1.4-1.4L38.9,4.3 M38.9,2.8H25.7c-1.7,0-3,1.4-3,3v2
		c0,1.7,1.3,3,3,3h2.4v3.1h-6.7v-5h-11v5.1c-1.4,0.1-2.6,1.1-2.7,2.7L2.6,33.9c-1.1,0.4-2,1.6-2,3v6.7c0,2,1.6,3.6,3.6,3.6h41.8
		c2,0,3.6-1.6,3.6-3.6v-6.7c0-1.4-0.9-2.6-2-3.1l-5.1-17.2c-0.1-1.4-1.4-2.6-2.9-2.7h-5.1v-3.1h4.6c1.7,0,3-1.3,3-3l0,0v-2
		C41.9,4.1,40.6,2.8,38.9,2.8L38.9,2.8"/>
</g>
</svg>
