<?xml version="1.0" encoding="utf-8"?>
<!-- Generator: Adobe Illustrator 25.2.0, SVG Export Plug-In . SVG Version: 6.00 Build 0)  -->
<svg version="1.1" id="Layer_1" xmlns="http://www.w3.org/2000/svg" xmlns:xlink="http://www.w3.org/1999/xlink" x="0px" y="0px"
	 viewBox="0 0 50 50" style="enable-background:new 0 0 50 50;" xml:space="preserve">
<style type="text/css">
	.st0{fill:#FFFFFF;}
</style>
<g>
	<path class="st0" d="M35.3,22.5h-0.7v-6.2c0-5.2-4.2-9.4-9.4-9.4s-9.4,4.2-9.4,9.4v6.2H15v-6.2C15,10.6,19.6,6,25.3,6
		s10.3,4.6,10.3,10.3v6.2H35.3z"/>
	<rect x="7.9" y="22.1" class="st0" width="34.4" height="0.7"/>
	<path class="st0" d="M30.2,43.5l-2.6-7.3c2.3-1.5,3.1-4.4,1.7-6.7c-1.5-2.3-4.4-3.1-6.7-1.7c-2.3,1.5-3.1,4.4-1.7,6.7
		c0.4,0.7,1,1.3,1.7,1.7l-2.6,7.3H30.2z"/>
	<path class="st0" d="M25,0.3L25,0.3c-8.9,0-16,7.1-16,16v4.9c-1.9,0.3-3.2,1.7-3.2,3.6v21.2c0,2,1.6,3.6,3.8,3.6h30.9
		c2,0,3.6-1.6,3.6-3.6l0,0V24.9c0-1.9-1.3-3.3-3.2-3.6v-4.6c0-8.7-6.8-16-15.7-16.3L25,0.3 M25,1.9h0.3c7.8,0.3,14.1,6.8,14.1,14.7
		v6.2h1c1.2,0,2.2,0.9,2.2,2v21.1c0,1.2-1,2.2-2.2,2.2H9.5c-1.2,0-2.2-1-2.2-2.2V24.9c0-1.2,1-2,2.2-2h1v-6.5
		C10.6,8.3,17,1.8,25,1.9"/>
</g>
</svg>
