<?xml version="1.0" encoding="utf-8"?>
<!-- Generator: Adobe Illustrator 25.2.0, SVG Export Plug-In . SVG Version: 6.00 Build 0)  -->
<svg version="1.1" id="Layer_1" xmlns="http://www.w3.org/2000/svg" xmlns:xlink="http://www.w3.org/1999/xlink" x="0px" y="0px"
	 viewBox="0 0 50 50" style="enable-background:new 0 0 50 50;" xml:space="preserve">
<style type="text/css">
	.st0{fill:#FFFFFF;}
</style>
<g>
	<rect x="29.9" y="17" class="st0" width="0.9" height="21.5"/>
	<polygon class="st0" points="48.6,27.9 34.6,27.9 34.6,20.4 45.5,20.4 45.5,21.3 35.5,21.3 35.5,27.1 48.6,27.1 	"/>
	<path class="st0" d="M15.4,38.5h-0.7c-0.1-1.9-1.8-3.6-3.9-3.4c-1.8,0.1-3.3,1.6-3.4,3.4H6.6c0-2.5,1.9-4.5,4.5-4.5
		S15.6,36.1,15.4,38.5"/>
	<path class="st0" d="M43.8,38.5h-0.7c-0.1-1.9-1.8-3.6-3.9-3.4c-1.8,0.1-3.3,1.6-3.4,3.4H35c0.3-2.4,2.5-4.2,5.1-3.9
		C42,34.9,43.7,36.5,43.8,38.5"/>
	<path class="st0" d="M28,6.1H4.2c-1.9,0-3.6,1.5-3.6,3.4c0,0,0,0,0,0.1v26.3c0,1.9,1.5,3.6,3.4,3.6c0,0,0,0,0.1,0h1.6
		c0.4,2.8,3.1,4.8,6,4.3c2.2-0.4,3.9-2.1,4.3-4.3h18.1c0.6,2.8,3.3,4.8,6.1,4.2c2.1-0.4,3.7-2.1,4.2-4.2h1.3c1.9,0,3.4-1.6,3.4-3.6
		v-9l-0.1-0.3l-3.1-6.9c-1-2.5-3.6-4-6.3-4h-8.4V9.7C31.4,7.7,29.9,6.1,28,6.1C28,6.1,27.8,6.1,28,6.1 M27.8,7.7
		c1,0,1.9,0.7,2.1,1.8v0.1v9c0.3-0.7,1-1.2,1.8-1.2h8.2c2.1,0,3.9,1.2,4.8,3.1l3,6.9v8.5c0,1-0.9,1.9-1.9,1.9l0,0h-3
		c0,0.1,0,0.4,0,0.6c-0.1,1.9-1.8,3.6-3.9,3.4c-1.8-0.1-3.3-1.5-3.4-3.4c0-0.1,0-0.4,0-0.6H14.2c0,0.3,0.1,0.4,0,0.7
		c0.1,1.9-1.3,3.7-3.4,3.9c-2.1,0.1-3.7-1.3-3.9-3.4c0-0.1,0-0.3,0-0.4c0-0.3,0-0.4,0.1-0.7h-3c-1,0-1.9-0.9-1.9-1.9l0,0V9.7
		c0-1,0.9-1.9,1.9-1.9l0,0H27.8"/>
</g>
</svg>
