<?xml version="1.0" encoding="utf-8"?>
<!-- Generator: Adobe Illustrator 25.2.0, SVG Export Plug-In . SVG Version: 6.00 Build 0)  -->
<svg version="1.1" id="Layer_1" xmlns="http://www.w3.org/2000/svg" xmlns:xlink="http://www.w3.org/1999/xlink" x="0px" y="0px"
	 viewBox="0 0 50 50" style="enable-background:new 0 0 50 50;" xml:space="preserve">
<style type="text/css">
	.st0{fill:#FFFFFF;}
</style>
<g>
	<path class="st0" d="M25.1,11.1c-7.7,0-14.1,6.2-14.2,13.9c0,7.7,6.2,14.1,13.9,14.2c7.7,0,14.1-6.2,14.2-13.9c0,0,0,0,0-0.2
		C39,17.4,32.8,11.1,25.1,11.1 M25.1,11.8c7.3,0,13.3,5.9,13.3,13.2s-5.9,13.3-13.2,13.3s-13.3-5.9-13.3-13.2l0,0
		C11.9,17.9,17.8,12,25.1,11.8C25.1,12,25.1,12,25.1,11.8"/>
	<path class="st0" d="M25.1,0.6h-2.9c-1.5,0-2.9,1.1-3,2.7l-0.3,3C18,6.7,17,7,16.1,7.4l-0.9-0.6l-1.4-1.1c-0.6-0.5-1.2-0.8-2-0.8
		s-1.7,0.3-2.1,0.9L5.5,9.9c-1.1,1.1-1.1,2.7-0.2,3.9l0.8,0.9l1.1,1.4C6.7,17,6.3,17.9,6,18.8H5.5c-0.6,0-1.4,0.2-2,0.2
		c-1.4,0-2.4,0.8-3,2l-0.2,0.3v7.4l0.2,0.3c0.5,1.2,1.7,2,2.9,2c0.6,0,1.4,0.2,2,0.2H6c0.3,0.9,0.8,1.8,1.2,2.7l-1.8,2.3
		c-1.1,1.2-0.9,3.2,0.3,4.2l0.6,0.8l3.3,3.3c0.6,0.6,1.4,0.9,2.1,0.9s1.4-0.3,2-0.8l1.1-0.8l1.4-1.1c0.9,0.5,1.8,0.8,2.7,1.2
		c0,0.2,0,0.3,0,0.5c0.2,0.6,0.2,1.4,0.2,2c0,1.4,0.8,2.4,2,3l0.3,0.2h7.4l0.3-0.2c1.2-0.6,2-1.7,2-3c0-0.6,0.2-1.2,0.2-2
		c0-0.2,0-0.5,0-0.6c0.9-0.3,1.8-0.8,2.7-1.1l2.1,1.7c0.6,0.5,1.4,0.8,2.1,0.8c0.9,0,1.8-0.5,2.4-1.2c1.1-1.2,2.3-2.3,3.5-3.5
		c0.9-0.8,1.4-1.8,1.2-3c-0.2-0.5-0.3-0.9-0.6-1.4c-0.5-0.5-0.8-1.1-1.2-1.5c-0.2-0.3-0.5-0.5-0.6-0.8c0.5-0.9,0.8-1.8,1.1-2.7
		l3-0.3c1.5-0.2,2.7-1.5,2.7-3V22c0-1.5-1.1-2.9-2.7-3l-3-0.3c-0.3-0.9-0.8-1.8-1.1-2.7l0.8-1.1c0.3-0.5,0.6-0.9,1.1-1.2
		c1.1-1.2,0.9-3-0.3-4.1l-3.9-3.9c-0.6-0.5-1.2-0.8-2-0.8S37,5,36.4,5.5l-1.1,0.8l-1.2,1.1c-0.9-0.5-1.8-0.8-2.7-1.1
		c-0.2-0.9-0.2-2-0.3-3c-0.2-1.5-1.5-2.7-3-2.7L25.1,0.6z M25.1,2.1H28c0.8,0,1.4,0.5,1.4,1.2L29.8,7c0,0.2,0.2,0.5,0.3,0.5
		c1.4,0.5,2.7,0.9,3.9,1.7h0.2c0.2,0,0.2,0,0.3-0.2l3-2.4c0.3-0.2,0.6-0.3,0.9-0.3c0.3,0,0.6,0.2,0.9,0.3l4.1,4.2
		c0.6,0.6,0.6,1.4,0,2l0,0l-2.3,2.9c-0.2,0.2-0.2,0.3,0,0.5c0.6,1.2,1.2,2.6,1.5,3.8c0,0.3,0.3,0.3,0.5,0.5l3.6,0.5
		c0.8,0,1.2,0.8,1.2,1.4v5.8c0,0.8-0.5,1.4-1.2,1.4L43.1,30c-0.2,0-0.5,0.2-0.5,0.3c-0.5,1.4-0.9,2.7-1.7,3.9c0,0.2,0,0.3,0,0.5
		c0.8,1.1,1.5,2,2.3,3c0.2,0.2,0.3,0.5,0.3,0.8c0.2,0.6-0.3,1.1-0.8,1.5c-1.2,1.2-2.4,2.3-3.5,3.5c-0.5,0.8-1.4,0.9-2.1,0.5
		c-0.2,0-0.2-0.2-0.3-0.2c-0.9-0.8-1.8-1.5-2.7-2.1v-0.2H34c-1.2,0.6-2.4,1.2-3.8,1.5c-0.3,0-0.5,0.3-0.5,0.5
		c-0.2,1.1-0.3,2.1-0.3,3.2c0,0.8-0.5,1.4-1.1,1.7h-6.7c-0.6-0.3-1.1-0.9-1.1-1.5c-0.2-1.1-0.3-2.3-0.3-3.3c0-0.2-0.2-0.5-0.3-0.5
		c-1.4-0.5-2.6-0.9-3.8-1.7h-0.2c-0.2,0-0.2,0-0.2,0.2l-3,2.3c-0.3,0.2-0.6,0.3-0.9,0.3c-0.3,0-0.8-0.2-0.9-0.5
		c-1.4-1.4-2.7-2.7-4.1-4.1c-0.5-0.5-0.6-1.4-0.2-2c0.8-0.9,1.5-2,2.3-2.9c0-0.2,0-0.3,0-0.5C8.6,33,8,31.7,7.5,30.5
		c0-0.3-0.2-0.3-0.5-0.3C6,30,4.8,29.8,3.7,29.8c-0.6,0-1.2-0.5-1.5-1.1v-6.7c0.3-0.6,0.9-0.9,1.5-0.9c1.1-0.2,2.1-0.3,3.3-0.3
		c0.2,0,0.5-0.2,0.5-0.3c0.5-1.4,0.9-2.7,1.7-3.9c0.2-0.2,0.2-0.3,0-0.5l-2.4-3c-0.5-0.5-0.5-1.2,0-1.8l4.1-4.1
		c0.3-0.3,0.6-0.5,1.1-0.5c0.3,0,0.8,0.2,0.9,0.3l2.9,2.3l0.2,0.2H16c1.2-0.8,2.6-1.2,3.8-1.7c0.3,0,0.3-0.2,0.5-0.5
		c0.2-1.2,0.3-2.4,0.5-3.6c0-0.8,0.6-1.2,1.4-1.2C23.1,2.3,24,2.3,25.1,2.1"/>
	<polygon class="st0" points="19.8,34.2 30.1,25.8 26.1,23.5 30.4,16.2 20.1,24.5 24,26.8 	"/>
</g>
</svg>
