<svg xmlns="http://www.w3.org/2000/svg" width="50" height="50" viewBox="0 0 50 50">
  <g id="Component_5_1" data-name="Component 5 – 1" transform="translate(-21.5 -21.231)">
    <rect id="Rectangle_179" data-name="Rectangle 179" width="50" height="50" rx="25" transform="translate(21.5 21.231)" fill="#ffffff"/>
    <path id="Path_241" data-name="Path 241" d="M18.34,13.107a.423.423,0,0,0-.123-.282l-1.4-1.4a.386.386,0,0,0-.565,0L12.177,15.5,10.41,13.733a.781.781,0,0,0-.552-.233.791.791,0,0,0-.786.786v5.5a.791.791,0,0,0,.786.786h5.5a.791.791,0,0,0,.786-.786.781.781,0,0,0-.233-.552l-1.768-1.768,4.076-4.076A.423.423,0,0,0,18.34,13.107ZM27.929,2.5a.791.791,0,0,0-.786-.786h-5.5a.791.791,0,0,0-.786.786.781.781,0,0,0,.233.552L22.858,4.82,18.782,8.9a.386.386,0,0,0,0,.565l1.4,1.4a.386.386,0,0,0,.565,0l4.076-4.076L26.59,8.552a.781.781,0,0,0,.552.233A.791.791,0,0,0,27.929,8Z" transform="translate(28.5 35)" fill="#282D34"/>
  </g>
</svg>
