<svg id="Layer_1" data-name="Layer 1" xmlns="http://www.w3.org/2000/svg" xmlns:xlink="http://www.w3.org/1999/xlink" viewBox="0 0 267.04 37.02"><defs><style>.cls-1{fill:none;}.cls-2{clip-path:url(#clip-path);}.cls-3{fill:#fff;}.cls-4{fill:#95c93d;}.cls-5{fill:#789c4a;}</style><clipPath id="clip-path" transform="translate(-9.98 -9.98)"><rect class="cls-1" x="10" y="10" width="267" height="37.01"/></clipPath></defs><g id="Logo_Light" data-name="Logo Light"><g class="cls-2"><g id="Group_3" data-name="Group 3"><path id="Path_12" data-name="Path 12" class="cls-3" d="M37.12,10H34.85a1.91,1.91,0,0,0-2.11,1.69,1.55,1.55,0,0,0,0,.43V34.75L17.31,11.41A2.54,2.54,0,0,0,14.79,10H12.07A1.89,1.89,0,0,0,10,11.66a2.36,2.36,0,0,0,0,.46V44.2a1.86,1.86,0,0,0,1.56,2.11,1.74,1.74,0,0,0,.51,0h2.32a1.87,1.87,0,0,0,2.07-1.61,1.74,1.74,0,0,0,0-.51V21L31.93,44.91a2.57,2.57,0,0,0,2.47,1.41h2.72a1.89,1.89,0,0,0,2.12-1.63,2,2,0,0,0,0-.49V12.12A1.91,1.91,0,0,0,37.56,10a1.62,1.62,0,0,0-.44,0" transform="translate(-9.98 -9.98)"/><path id="Path_13" data-name="Path 13" class="cls-3" d="M68.05,40.72H52.86V30.57H63.61a1.89,1.89,0,0,0,2.11-1.64,1.93,1.93,0,0,0,0-.48V27A1.86,1.86,0,0,0,64.07,25a1.77,1.77,0,0,0-.46,0H52.86V15.6H67.24A1.87,1.87,0,0,0,69.35,14a1.41,1.41,0,0,0,0-.46V12.12A1.91,1.91,0,0,0,67.68,10a1.62,1.62,0,0,0-.44,0H48.48a1.89,1.89,0,0,0-2.08,1.66,2.36,2.36,0,0,0,0,.46V44.2A1.86,1.86,0,0,0,48,46.31a1.74,1.74,0,0,0,.51,0H68.05a1.9,1.9,0,0,0,2.12-1.64,1.93,1.93,0,0,0,0-.48V42.79a1.88,1.88,0,0,0-1.66-2.07,1.77,1.77,0,0,0-.46,0" transform="translate(-9.98 -9.98)"/><path id="Path_14" data-name="Path 14" class="cls-3" d="M103.06,10H77.35a1.89,1.89,0,0,0-2.12,1.64,1.93,1.93,0,0,0,0,.48v1.41a1.86,1.86,0,0,0,1.6,2.08,1.81,1.81,0,0,0,.52,0H87V44.2a1.85,1.85,0,0,0,1.56,2.11,1.67,1.67,0,0,0,.5,0h2.27a1.88,1.88,0,0,0,2.12-1.59,2.35,2.35,0,0,0,0-.53V15.6h9.63A1.85,1.85,0,0,0,105.13,14a2,2,0,0,0,0-.49V12.12A1.88,1.88,0,0,0,103.52,10a1.42,1.42,0,0,0-.46,0" transform="translate(-9.98 -9.98)"/><path id="Path_15" data-name="Path 15" class="cls-3" d="M115.21,20c0-2.42,2.12-4,5.45-4a11.73,11.73,0,0,1,6.2,2c1.06.55,2.12.75,2.87-.71l.91-1.66a2,2,0,0,0-.49-2.78l-.17-.1A16.69,16.69,0,0,0,120.76,10c-6.81,0-12.05,4.08-12.05,10.39,0,11.14,16.69,9.72,16.69,16.53,0,2.42-2,4.09-5.35,4.09a12.55,12.55,0,0,1-7.26-2.63c-1.26-.7-2.11-.65-2.92.46l-1.11,1.61a1.87,1.87,0,0,0,0,2.65,1.4,1.4,0,0,0,.33.27,18.91,18.91,0,0,0,11,3.63c7.51,0,11.85-4.79,11.85-10.58,0-11.4-16.69-9.68-16.69-16.39" transform="translate(-9.98 -9.98)"/><path id="Path_16" data-name="Path 16" class="cls-3" d="M166.33,38.28c-.8-1.16-1.81-1.16-2.92-.35a15,15,0,0,1-8.77,3.13c-7.72,0-12-6.1-12-12.81s4.18-12.3,12-12.3a14.9,14.9,0,0,1,8.07,2.52c1.21.76,2.16.65,2.87-.5l.91-1.46a2,2,0,0,0-.19-2.76l-.21-.17A20,20,0,0,0,154.33,10c-10.84,0-18.45,8-18.45,18.35,0,10.54,7.26,18.65,18.5,18.65A20.06,20.06,0,0,0,167,42.57a2,2,0,0,0,.46-2.73l-.16-.2Z" transform="translate(-9.98 -9.98)"/><path id="Path_17" data-name="Path 17" class="cls-3" d="M240.24,10h-2.32a1.88,1.88,0,0,0-2.07,1.66,1.43,1.43,0,0,0,0,.46V33.49c0,4.84-3.18,7.57-8,7.57S220,38.33,220,33.49V12.12A1.88,1.88,0,0,0,218.34,10a1.93,1.93,0,0,0-.48,0h-2.27a1.88,1.88,0,0,0-2.07,1.66,1.77,1.77,0,0,0,0,.46V33.55c0,8,5.75,13.46,14.42,13.46s14.37-5.45,14.37-13.46V12.12A1.87,1.87,0,0,0,240.7,10a1.42,1.42,0,0,0-.46,0" transform="translate(-9.98 -9.98)"/><path id="Path_18" data-name="Path 18" class="cls-3" d="M274.93,10H249.22a1.9,1.9,0,0,0-2.12,1.64,1.93,1.93,0,0,0,0,.48v1.41a1.86,1.86,0,0,0,1.61,2.08,1.74,1.74,0,0,0,.51,0h9.63V44.2a1.86,1.86,0,0,0,1.56,2.11,1.74,1.74,0,0,0,.51,0h2.27a1.87,1.87,0,0,0,2.11-1.59,1.57,1.57,0,0,0,0-.53V15.6h9.63A1.83,1.83,0,0,0,277,14a1.35,1.35,0,0,0,0-.49V12.12A1.87,1.87,0,0,0,275.4,10a1.48,1.48,0,0,0-.47,0" transform="translate(-9.98 -9.98)"/><path id="Path_19" data-name="Path 19" class="cls-4" d="M189.2,10h-14a3,3,0,1,0,0,6h13.34l-.16,0c.27,0,.54,0,.82,0,6.85,0,11.8,5.34,11.8,12.3,0,7.26-4.94,12.8-11.8,12.8s-11.8-5.54-11.8-12.8a12.25,12.25,0,0,1,5-10.23l-.14.09h-4.2A3,3,0,0,1,175.25,16a18.27,18.27,0,0,0-4.56,12.29c0,10.53,7.67,18.75,18.5,18.75s18.5-8.22,18.5-18.75C207.69,18,200,10,189.19,10" transform="translate(-9.98 -9.98)"/><path id="Path_20" data-name="Path 20" class="cls-4" d="M175.25,16Z" transform="translate(-9.98 -9.98)"/><path id="Path_21" data-name="Path 21" class="cls-5" d="M178.1,18.12h4.19l.14-.1a11.58,11.58,0,0,1,5.95-2l.16,0H175.25a3,3,0,0,0,2.85,2.15" transform="translate(-9.98 -9.98)"/><path id="Path_22" data-name="Path 22" class="cls-3" d="M277,43.73a2.61,2.61,0,1,1-2.68-2.54h.08a2.55,2.55,0,0,1,2.6,2.5v0m-4.57,0a2,2,0,0,0,1.91,2h.07a1.94,1.94,0,0,0,1.94-2v-.06a2,2,0,1,0-3.92-.14v.13M274,45.06h-.59V42.52a4.54,4.54,0,0,1,1-.08,1.53,1.53,0,0,1,.89.19.67.67,0,0,1,.24.55.64.64,0,0,1-.52.59v0a.75.75,0,0,1,.46.62,1.92,1.92,0,0,0,.19.63H275a2.57,2.57,0,0,1-.2-.61c0-.28-.2-.4-.52-.4H274Zm0-1.44h.28c.33,0,.59-.11.59-.37s-.17-.39-.54-.39a1.84,1.84,0,0,0-.33,0Z" transform="translate(-9.98 -9.98)"/></g></g></g></svg>