<svg xmlns="http://www.w3.org/2000/svg" width="345.75" height="47.84" viewBox="0 0 345.75 47.84"><defs><style>.cls-1{fill:#282d34;}.cls-2{fill:#97d700;}</style></defs><g id="Layer_2" data-name="Layer 2"><g id="Layer_1-2" data-name="Layer 1"><path class="cls-1" d="M35.06,0H32.13a2.48,2.48,0,0,0-2.74,2.74V32L9.45,1.82A3.29,3.29,0,0,0,6.19,0H2.67A2.43,2.43,0,0,0,0,2.74V44.21C0,46,.91,47,2.67,47h3c1.76,0,2.67-.91,2.67-2.74V14.27l20,30.85A3.31,3.31,0,0,0,31.54,47h3.52a2.45,2.45,0,0,0,2.74-2.74V2.74A2.48,2.48,0,0,0,35.06,0Z"/><path class="cls-1" d="M75,39.72H55.41V26.59H69.3A2.44,2.44,0,0,0,72,23.85V22a2.42,2.42,0,0,0-2.73-2.67H55.41V7.23H74a2.42,2.42,0,0,0,2.73-2.67V2.74A2.47,2.47,0,0,0,74,0H49.74a2.43,2.43,0,0,0-2.67,2.74V44.21C47.07,46,48,47,49.74,47H75a2.45,2.45,0,0,0,2.74-2.74V42.39A2.43,2.43,0,0,0,75,39.72Z"/><path class="cls-1" d="M120.3,0H87.06a2.45,2.45,0,0,0-2.74,2.74V4.56c0,1.76.91,2.67,2.74,2.67H99.5v37A2.41,2.41,0,0,0,102.18,47h2.93a2.42,2.42,0,0,0,2.74-2.74v-37H120.3A2.38,2.38,0,0,0,123,4.56V2.74A2.43,2.43,0,0,0,120.3,0Z"/><path class="cls-1" d="M136,13c0-3.13,2.73-5.21,7-5.21a15.11,15.11,0,0,1,8,2.54c1.37.71,2.74,1,3.72-.92L156,7.23a2.57,2.57,0,0,0-.85-3.71A21.52,21.52,0,0,0,143.18,0c-8.8,0-15.58,5.28-15.58,13.43,0,14.4,21.57,12.57,21.57,21.37,0,3.13-2.6,5.28-6.91,5.28a16.24,16.24,0,0,1-9.38-3.39c-1.63-.91-2.74-.85-3.78.59l-1.43,2.08c-1.31,1.76-.66,2.87.39,3.78a24.51,24.51,0,0,0,14.2,4.7c9.71,0,15.32-6.2,15.32-13.69C157.58,19.42,136,21.64,136,13Z"/><path class="cls-1" d="M297.63,0h-3A2.43,2.43,0,0,0,292,2.74V30.37c0,6.26-4.11,9.78-10.3,9.78s-10.23-3.52-10.23-9.78V2.74A2.45,2.45,0,0,0,268.69,0h-2.93a2.43,2.43,0,0,0-2.67,2.74v27.7c0,10.36,7.43,17.4,18.64,17.4s18.57-7,18.57-17.4V2.74A2.43,2.43,0,0,0,297.63,0Z"/><path class="cls-1" d="M342.47,0H309.24a2.45,2.45,0,0,0-2.74,2.74V4.56c0,1.76.91,2.67,2.74,2.67h12.44v37A2.41,2.41,0,0,0,324.36,47h2.93A2.42,2.42,0,0,0,330,44.21v-37h12.44a2.38,2.38,0,0,0,2.68-2.67V2.74A2.43,2.43,0,0,0,342.47,0Z"/><path class="cls-2" d="M231.67,0h-18.2a3.85,3.85,0,1,0,0,7.7h18.2c8.91,0,15.34,6.91,15.34,15.9,0,9.39-6.43,16.56-15.34,16.56S216.33,33,216.33,23.59a15.85,15.85,0,0,1,6.39-13.11H211.4a23.92,23.92,0,0,0-3.78,13.1c0,13.62,10,24.25,24,24.25s24.05-10.63,24.05-24.25c0-13.23-10-23.59-24.05-23.59"/><path class="cls-1" d="M202.25,36.51c-1-1.5-2.35-1.5-3.79-.46a19.54,19.54,0,0,1-11.39,4c-10,0-15.64-7.88-15.64-16.53S176.86,7.68,187,7.68a19.39,19.39,0,0,1,10.47,3.25c1.58,1,2.82.85,3.74-.65l1.17-1.89c.92-1.43.85-2.73-.52-3.77A26,26,0,0,0,186.68,0c-14.07,0-24,10.28-24,23.69,0,13.6,9.43,24.07,24,24.07A26.16,26.16,0,0,0,203.17,42a2.53,2.53,0,0,0,.39-3.78Z"/><path class="cls-1" d="M338.06,43a3.83,3.83,0,0,1,.51-1.92A3.67,3.67,0,0,1,340,39.64a3.72,3.72,0,0,1,1.92-.52A3.85,3.85,0,1,1,340,46.28a3.69,3.69,0,0,1-1.39-1.41A3.75,3.75,0,0,1,338.06,43Zm.54,0a3.3,3.3,0,0,0,1.65,2.86,3.25,3.25,0,0,0,1.65.45,3.21,3.21,0,0,0,1.66-.45,3.39,3.39,0,0,0,1.21-1.2,3.3,3.3,0,0,0,.44-1.66,3.26,3.26,0,0,0-.44-1.65,3.34,3.34,0,0,0-1.21-1.21,3.18,3.18,0,0,0-1.66-.45,3.29,3.29,0,0,0-1.65.44A3.34,3.34,0,0,0,339,41.31,3.2,3.2,0,0,0,338.6,43Zm4.86-.93a1.27,1.27,0,0,1-.21.72,1.31,1.31,0,0,1-.61.47l1.21,2H343l-1.06-1.81h-.69v1.81h-.75V40.69h1.33a1.89,1.89,0,0,1,1.25.34A1.24,1.24,0,0,1,343.46,42Zm-2.22.77h.56a1,1,0,0,0,.65-.21.66.66,0,0,0,.25-.54.63.63,0,0,0-.22-.55,1.17,1.17,0,0,0-.69-.17h-.55Z"/></g></g></svg>