<svg xmlns="http://www.w3.org/2000/svg" width="114.01" height="107.73" viewBox="0 0 114.01 107.73"><defs><style>.cls-1{fill:#97d700;}</style></defs><g id="Layer_2" data-name="Layer 2"><g id="Layer_1-2" data-name="Layer 1"><path class="cls-1" d="M53.82,0H13.1a8.62,8.62,0,1,0,0,17.23h.15l40.58,0c19.94,0,34.31,15.46,34.31,35.58,0,21-14.37,37-34.31,37s-34.32-16-34.32-37c0-12.38,5.46-23,14.3-29.33l-25.33,0A53.44,53.44,0,0,0,0,52.78C0,83.26,22.29,107,53.82,107s53.81-23.76,53.81-54.24C107.63,23.18,85.34,0,53.82,0"/><path class="cls-1" d="M100.4,100.93a6.78,6.78,0,0,1,.9-3.4A6.61,6.61,0,0,1,103.79,95a6.79,6.79,0,0,1,6.81,0,6.57,6.57,0,0,1,2.5,2.49,6.81,6.81,0,1,1-11.82,6.77A6.75,6.75,0,0,1,100.4,100.93Zm.95,0a5.82,5.82,0,0,0,.78,2.93,5.84,5.84,0,0,0,8,2.14,6,6,0,0,0,2.14-2.13,5.85,5.85,0,0,0,0-5.87,5.91,5.91,0,0,0-2.13-2.14,5.73,5.73,0,0,0-2.94-.79,5.64,5.64,0,0,0-2.92.79A5.91,5.91,0,0,0,102.14,98,5.69,5.69,0,0,0,101.35,100.93ZM110,99.28a2.17,2.17,0,0,1-.38,1.28,2.32,2.32,0,0,1-1.08.83l2.15,3.58h-1.52l-1.87-3.21H106V105H104.7V96.9h2.36a3.38,3.38,0,0,1,2.2.59A2.19,2.19,0,0,1,110,99.28ZM106,100.65h1a1.75,1.75,0,0,0,1.17-.38,1.21,1.21,0,0,0,.44-1,1.16,1.16,0,0,0-.39-1,2.12,2.12,0,0,0-1.24-.29H106Z"/></g></g></svg>