<?xml version="1.0" encoding="UTF-8" standalone="no"?>
<svg width="100px" height="100px" viewBox="0 0 100 100" version="1.1" xmlns="http://www.w3.org/2000/svg" xmlns:xlink="http://www.w3.org/1999/xlink">
    <!-- Generator: Sketch 40.1 (33804) - http://www.bohemiancoding.com/sketch -->
    <title>Artboard</title>
    <desc>Created with Sketch.</desc>
    <defs></defs>
    <g id="Page-1" stroke="none" stroke-width="1" fill="none" fill-rule="evenodd">
        <g id="Artboard" fill="#53565A">
            <g id="Group" transform="translate(2.000000, 10.000000)">
                <path d="M92.3809524,0 L4.61904762,0 C2.07857143,0 0,2.072 0,4.60342857 L0,65.128 C0,67.6605714 2.07857143,69.7314286 4.61904762,69.7314286 L38.1071429,69.7314286 L38.1071429,76.5462857 L29.4464286,76.5462857 C28.489131,76.5462857 27.7142857,77.32 27.7142857,78.2731429 C27.7142857,79.2262857 28.489131,80 29.4464286,80 L67.6263214,80 C68.583619,80 69.3584643,79.2262857 69.3584643,78.2731429 C69.3584643,77.32 68.583619,76.5462857 67.6263214,76.5462857 L58.8928571,76.5462857 L58.8928571,69.7314286 L92.3809524,69.7314286 C94.9214286,69.7314286 97,67.6594286 97,65.128 L97,4.60342857 C97,2.072 94.9214286,0 92.3809524,0 L92.3809524,0 Z M4.61904762,3.45257143 L92.3809524,3.45257143 C93.0068333,3.45257143 93.5357143,3.97942857 93.5357143,4.60342857 L93.5357143,53.6822857 L3.46428571,53.6822857 L3.46428571,4.60342857 C3.46428571,3.97942857 3.99316667,3.45257143 4.61904762,3.45257143 L4.61904762,3.45257143 Z M55.4285714,76.5474286 L41.5714286,76.5474286 L41.5714286,69.7325714 L55.4285714,69.7325714 L55.4285714,76.5474286 L55.4285714,76.5474286 Z M92.3809524,66.2788571 L4.61904762,66.2788571 C3.99316667,66.2788571 3.46428571,65.752 3.46428571,65.128 L3.46428571,57.136 L93.5357143,57.136 L93.5357143,65.128 C93.5357143,65.752 93.0068333,66.2788571 92.3809524,66.2788571 L92.3809524,66.2788571 Z" id="Shape"></path>
                <path d="M32.3333333,47.9782857 L64.6666667,47.9782857 C65.1239524,47.9782857 65.5685357,47.7942857 65.891869,47.4731429 C66.2152024,47.152 66.3988095,46.7062857 66.3988095,46.2525714 C66.3976548,38.6354286 61.6007738,32.1531429 54.8615833,29.5942857 C57.49675,27.6491429 59.2150357,24.536 59.2150357,21.016 C59.213881,15.1177143 54.4193095,10.3382857 48.5011548,10.3371429 C42.583,10.3382857 37.7895833,15.1177143 37.7872738,21.016 C37.7884286,24.536 39.5044048,27.6491429 42.141881,29.5942857 C35.4015357,32.1531429 30.6046548,38.6354286 30.6035,46.2525714 C30.6035,46.7062857 30.7882619,47.152 31.1104405,47.4731429 C31.432619,47.7942857 31.8760476,47.9782857 32.3333333,47.9782857 L32.3333333,47.9782857 Z M43.3740119,15.9062857 C44.69275,14.5965714 46.4930238,13.7897143 48.5,13.7897143 C50.5069762,13.7897143 52.3095595,14.5954286 53.6259881,15.9062857 C54.9412619,17.2182857 55.7484405,19.0137143 55.7495952,21.016 C55.7484405,23.016 54.9412619,24.8114286 53.6259881,26.1257143 C52.30725,27.4354286 50.5069762,28.2411429 48.5,28.2422857 C46.4930238,28.2411429 44.6915952,27.4365714 43.3751667,26.1257143 C42.0598929,24.8125714 41.2527143,23.016 41.2504048,21.016 C41.2515595,19.0137143 42.0598929,17.2182857 43.3740119,15.9062857 L43.3740119,15.9062857 Z M38.2930595,36.08 C40.9120595,33.4731429 44.5091429,31.8651429 48.5,31.8651429 C52.4908571,31.8651429 56.0879405,33.472 58.7069405,36.08 C60.935631,38.304 62.4264286,41.2434286 62.8213571,44.5257143 L34.1797976,44.5257143 C34.5735714,41.2434286 36.064369,38.3051429 38.2930595,36.08 L38.2930595,36.08 Z" id="Shape"></path>
            </g>
        </g>
    </g>
</svg>