<svg height="40" viewBox="0 0 144 40" width="144" xmlns="http://www.w3.org/2000/svg">
    <g fill="#999999">
        <path d="m60 32.4a1.4971 1.4971 0 0 1 1.5-1c1.4 0 2.2 1.1 2.2 2.7s-.9 2.8-2.3 2.8a1.6223 1.6223 0 0 1 -1.6-1.1l-.1.9h-1v-7.7h1.3a19.3042 19.3042 0 0 1 0 3.4zm0 2.1c0 1 .6 1.4 1.1 1.4.8 0 1.3-.7 1.3-1.9s-.5-1.8-1.3-1.8c-.7 0-1.1.5-1.1 1.5z"/>
        <path d="m68.3 31.4h1.2l-2 5.6c-.6 1.5-1.1 2.1-2.2 2.1a1.396 1.396 0 0 1 -.9-.3l.3-.9a1.4932 1.4932 0 0 0 .7.3c.5 0 .7-.2.9-1l-2-5.6h1.3l1.2 4z"/>
        <path d="m72.5 35 1.1-.5a1.5689 1.5689 0 0 0 1.7 1.3c.8 0 1.3-.3 1.3-.9 0-1.5-3.9-.5-3.9-3.2a2.2987 2.2987 0 0 1 2.5-2.2c1.4 0 2.4.7 2.5 1.9l-1.2.3a1.2875 1.2875 0 0 0 -1.3-1.1c-.8 0-1.2.5-1.2.9 0 1.6 3.9.5 3.9 3.2a2.3906 2.3906 0 0 1 -2.6 2.2 2.5687 2.5687 0 0 1 -2.8-1.9z"/>
        <path d="m82.5 35.8a1.6257 1.6257 0 0 1 -1.7 1.1 1.7183 1.7183 0 0 1 -1.7-1.5v-4.1h1.3v3.5c0 .7.3.9.8.9a1.2686 1.2686 0 0 0 1.1-1.4v-3h1.3v5.4h-1.1z"/>
        <path d="m88.6 32.7a1.2683 1.2683 0 0 0 -.6-.1c-.8 0-1.3.6-1.3 1.6v2.6h-1.3v-5.4h1.1l.1 1.3a1.6906 1.6906 0 0 1 1.9-1.4h.1z"/>
        <path d="m91.7 35.4 1.3-4h1.3l-2 5.4h-1.3l-2-5.4h1.3z"/>
        <path d="m98.4 35.2 1.1.4a2.0892 2.0892 0 0 1 -2.2 1.5 2.3734 2.3734 0 0 1 -2.5-2.7c0-1.8.9-2.8 2.5-2.8a2.07 2.07 0 0 1 2.2 2.1v.3c0 .3-.1.5-.1.8h-3.4c.1.9.5 1.6 1.3 1.6.6-.4 1-.7 1.1-1.2zm-.1-1.5v-.3a.937.937 0 0 0 -.8-1.1h-.1c-.7 0-1.1.5-1.2 1.3z"/>
        <path d="m104.1 31.4h1.3l-2 5.6c-.6 1.5-1.1 2.1-2.2 2.1a1.396 1.396 0 0 1 -.9-.3l.3-.9a1.4932 1.4932 0 0 0 .7.3c.5 0 .7-.2.9-1l-2-5.6h1.4l1.2 4z"/>
        <path d="m110.3 35.2h-.8l-1.7-3.5v5.1h-1.4v-7.1h1.5l1.9 4 1.9-4h1.5v7.2h-1.3v-5.2z"/>
        <path d="m117.1 37c-1.5 0-2.5-1-2.5-2.8s1-2.8 2.5-2.8 2.5 1 2.5 2.8a2.5574 2.5574 0 0 1 -2.5 2.8zm0-4.6c-.8 0-1.2.7-1.2 1.9s.5 1.9 1.2 1.9 1.2-.7 1.2-1.9c0-1.4-.4-1.9-1.2-1.9z"/>
        <path d="m122.2 32.6a1.5224 1.5224 0 0 1 1.7-1.1 1.7183 1.7183 0 0 1 1.7 1.5v4h-1.3v-3.4c0-.7-.3-.9-.8-.9-.7 0-1.1.4-1.1 1.3v3h-1.3v-5.4h1.1z"/>
        <path d="m132.1 36.8h-1.5l-1.7-2.4h-.4v2.4h-1.4v-7.7h1.3v4.3h.5l1.6-2.1h1.5l-2 2.4z"/>
        <path d="m136 35.2 1.1.4a2.0892 2.0892 0 0 1 -2.2 1.5 2.3734 2.3734 0 0 1 -2.5-2.7c0-1.8.9-2.8 2.5-2.8a2.07 2.07 0 0 1 2.2 2.1v.3c0 .3-.1.5-.1.8h-3.4c0 .9.5 1.6 1.3 1.6.4-.4 1-.7 1.1-1.2zm-.1-1.5v-.3a.937.937 0 0 0 -.8-1.1h-.1c-.7 0-1.1.5-1.2 1.3z"/>
        <path d="m141.6 31.4h1.3l-2 5.6c-.6 1.5-1.1 2.1-2.2 2.1a1.396 1.396 0 0 1 -.9-.3l.3-.9a1.4932 1.4932 0 0 0 .7.3c.5 0 .7-.2.9-1l-2-5.6h1.3l1.2 4z"/>
    </g>
    <path d="m5.8 11.1h-5v-3.4h13.7v3.4h-5v13.3h-3.7z" fill="#999999"/>
    <path d="m13.1 18.2c0-3.7 2.5-6.7 6.3-6.7 4.2 0 6.2 3.3 6.2 6.9a2.4828 2.4828 0 0 1 -.1.9h-8.8a3.1123 3.1123 0 0 0 3.1 2.5 4.5717 4.5717 0 0 0 3.1-1.3l2.1 1.9a6.5889 6.5889 0 0 1 -5.2 2.4 6.4941 6.4941 0 0 1 -6.7-6.6zm8.9-1.2c-.2-1.6-1.1-2.7-2.7-2.7s-2.4 1-2.7 2.7z"
          fill="#999999"/>
    <path d="m26.8 18.2a6.5308 6.5308 0 0 1 6.5-6.7h.3a6.3443 6.3443 0 0 1 5.1 2.2l-2.2 2.3a4.0327 4.0327 0 0 0 -2.9-1.4 3.281 3.281 0 0 0 -3.1 3.5 3.2035 3.2035 0 0 0 3.3 3.5 3.9347 3.9347 0 0 0 2.9-1.3l2.1 2.2a6.9155 6.9155 0 0 1 -5.2 2.4 6.639 6.639 0 0 1 -6.6-6.5z"
          fill="#999999"/>
    <path d="m40.1 7.1h3.7v6.4a4.4062 4.4062 0 0 1 3.8-2.1c2.7 0 4.3 1.8 4.3 4.7v8.2h-3.7v-7.1c0-1.7-.8-2.5-2.2-2.5s-2.2.8-2.2 2.5v7.1h-3.7z"
          fill="#999999"/>
    <path d="m52.1 7.8h4l4.3 11.8 4.3-11.8h4l-6.7 16.8h-3.3z" fill="#999999"/>
    <path d="m67.7 20.8c0-2.8 2.1-4.1 5.2-4.1a11.1512 11.1512 0 0 1 3.1.5v-.2c0-1.5-.9-2.4-2.7-2.4a10.3884 10.3884 0 0 0 -3.5.7l-.9-2.7a11.6206 11.6206 0 0 1 4.9-1 6.2951 6.2951 0 0 1 4.3 1.4 5.6758 5.6758 0 0 1 1.3 4v7.3h-3.5v-1.3a4.6768 4.6768 0 0 1 -3.9 1.6c-2.3.1-4.3-1.3-4.3-3.8zm8.3-.9v-.7a6.4363 6.4363 0 0 0 -2.4-.5c-1.5 0-2.5.7-2.5 1.8v.1c0 .9.8 1.5 2 1.5 1.8 0 2.9-.8 2.9-2.2z"
          fill="#999999"/>
    <path d="m81.9 7.1h3.7v17.3h-3.7z" fill="#999999"/>
    <path d="m88.1 7.1h3.8v3.2h-3.8zm.1 4.6h3.7v12.7h-3.7z" fill="#999999"/>
    <path d="m93.8 18.1c0-4.3 2.7-6.6 5.7-6.6a5.2771 5.2771 0 0 1 4 1.9v-6.3h3.7v17.3h-3.7v-1.9a4.7518 4.7518 0 0 1 -4 2.1c-2.8.1-5.7-2.3-5.7-6.5zm9.8 0c0-2.2-1.4-3.6-3.1-3.6s-3.1 1.3-3.1 3.5v.1a3.2243 3.2243 0 0 0 3.1 3.5 3.281 3.281 0 0 0 3.1-3.5z"
          fill="#999999"/>
    <path d="m108.8 20.8c0-2.8 2.1-4.1 5.2-4.1a11.1512 11.1512 0 0 1 3.1.5v-.2c0-1.5-.9-2.4-2.7-2.4a10.3884 10.3884 0 0 0 -3.5.7l-.9-2.7a11.6206 11.6206 0 0 1 4.9-1 6.2951 6.2951 0 0 1 4.3 1.4 5.7209 5.7209 0 0 1 1.4 4v7.3h-3.5v-1.3a4.6768 4.6768 0 0 1 -3.9 1.6c-2.4.1-4.4-1.3-4.4-3.8zm8.3-.9v-.7a6.4363 6.4363 0 0 0 -2.4-.5c-1.5 0-2.5.7-2.5 1.8v.1c0 .9.8 1.5 2 1.5 1.8 0 2.9-.8 2.9-2.2z"
          fill="#999999"/>
    <path d="m123.3 20.8v-6h-1.5v-3.1h1.5v-3.3h3.7v3.3h3v3.1h-3v5.4c0 .8.4 1.2 1.1 1.2a3.7426 3.7426 0 0 0 1.8-.5v2.9a5.6564 5.6564 0 0 1 -2.8.8c-2.3.1-3.8-.9-3.8-3.8z"
          fill="#999999"/>
    <path d="m130.7 18.2c0-3.7 2.5-6.7 6.3-6.7 4.2 0 6.2 3.3 6.2 7a2.4828 2.4828 0 0 1 -.1.9h-8.9a3.1123 3.1123 0 0 0 3.1 2.5 4.5717 4.5717 0 0 0 3.1-1.3l2.1 1.9a6.5889 6.5889 0 0 1 -5.2 2.4 6.6792 6.6792 0 0 1 -6.6-6.7zm9-1.2c-.3-1.6-1.1-2.7-2.7-2.7-1.5 0-2.4 1-2.7 2.7z"
          fill="#999999"/>
</svg>
