<?xml version="1.0" encoding="utf-8"?>
<!-- Generator: Adobe Illustrator 25.2.0, SVG Export Plug-In . SVG Version: 6.00 Build 0)  -->
<svg version="1.1" id="Layer_1" xmlns="http://www.w3.org/2000/svg" xmlns:xlink="http://www.w3.org/1999/xlink" x="0px" y="0px"
	 viewBox="0 0 50 50" style="enable-background:new 0 0 50 50;" xml:space="preserve">
<style type="text/css">
	.st0{fill:#FFFFFF;}
</style>
<g>
	<rect x="1.7" y="34.7" class="st0" width="46.7" height="0.6"/>
	<path class="st0" d="M9.4,31.5h31.3v-18H9.4V31.5z M41.3,32.2H8.7V12.9h32.5V32.2z"/>
	<path class="st0" d="M41,37.6L41,37.6z M41,38.3c-0.3,0-0.6-0.2-0.6-0.6l0,0c0-0.3,0.3-0.6,0.6-0.6c0.3,0,0.6,0.3,0.6,0.6
		S41.3,38.3,41,38.3L41,38.3"/>
	<path class="st0" d="M43.4,37.6L43.4,37.6z M43.4,38.3c-0.3,0.1-0.6-0.1-0.7-0.5c-0.1-0.3,0.1-0.6,0.5-0.7c0.1,0,0.2,0,0.2,0
		c0.3-0.1,0.6,0.1,0.7,0.5c0.1,0.3-0.1,0.6-0.5,0.7C43.5,38.3,43.4,38.3,43.4,38.3"/>
	<path class="st0" d="M45.8,37.6L45.8,37.6z M45.8,38.3c-0.3,0-0.6-0.3-0.6-0.6s0.3-0.6,0.6-0.6c0.3,0,0.6,0.3,0.6,0.6l0,0
		C46.4,37.9,46.1,38.3,45.8,38.3L45.8,38.3"/>
	<path class="st0" d="M41.9,8.9H8.1c-1.8,0-3.3,1.5-3.3,3.3v21.8H0.3v3.7c0,1.8,1.5,3.3,3.3,3.3l0,0h42.8c1.8,0,3.3-1.5,3.3-3.3
		v-3.7h-4.5V12.3c0-0.9-0.3-1.7-1-2.4C43.6,9.3,42.9,8.9,41.9,8.9 M41.9,10.3c1.1,0,1.9,0.9,1.9,1.9l0,0v23.2h4.5v2.4
		c0,1.1-0.9,1.9-1.9,1.9l0,0H3.6c-1.1,0-1.9-0.9-1.9-1.9l0,0v-2.4h4.5V12.3c0-1.1,0.9-1.9,1.9-1.9L41.9,10.3"/>
	<path class="st0" d="M21.1,17.2v10.7l9.3-5.4L21.1,17.2z M20.5,29.1V16l11.2,6.5L20.5,29.1z"/>
</g>
</svg>
