<svg id="Grey" xmlns="http://www.w3.org/2000/svg" viewBox="0 0 480 270"><defs><style>.cls-1{fill:#272d35;}</style></defs><g id="AWS"><path class="cls-1" d="M290.27,134h0a46.33,46.33,0,0,0,7.72,2.66,59.1,59.1,0,0,0,10.4,1.18,33.53,33.53,0,0,0,9.51-1.48,28.79,28.79,0,0,0,7.42-3.55,18.22,18.22,0,0,0,4.76-5.9,17.32,17.32,0,0,0,1.78-7.69,15.21,15.21,0,0,0-3.27-9.45c-2.08-2.66-5.35-4.73-10.1-6.2L309,100.29c-3.56-1.19-6.23-2.37-7.42-3.55A6.94,6.94,0,0,1,299.48,92a6.48,6.48,0,0,1,3.27-5.91q3.12-1.77,8.91-1.77a35.23,35.23,0,0,1,12.77,2.36,6.75,6.75,0,0,0,2.67.89c.9,0,1.49-.59,1.49-2.07V82.26A4.31,4.31,0,0,0,328,80.2a6.37,6.37,0,0,0-2.08-1.78,14.13,14.13,0,0,0-2.68-.88,14.93,14.93,0,0,0-3.86-1.19,20.57,20.57,0,0,0-4.45-.59c-1.49,0-3-.29-4.46-.29a37.9,37.9,0,0,0-8.32.88,21.27,21.27,0,0,0-6.83,3.55,21.66,21.66,0,0,0-5.05,5.32,15.88,15.88,0,0,0-1.78,7.38,15.22,15.22,0,0,0,3.56,9.75c2.08,3,5.65,5.32,10.7,6.8l9.5,2.95c3.27,1.18,5.65,2.37,6.83,3.55a6.22,6.22,0,0,1,1.79,4.73,6.94,6.94,0,0,1-3.57,6.2c-2.08,1.48-5.35,2.07-9.8,2.07a74.81,74.81,0,0,1-7.72-.59,53.83,53.83,0,0,1-7.43-2.37l-1.78-.88h-1.19c-.89,0-1.49.59-1.49,2.07v3.25a3.69,3.69,0,0,0,.3,1.77,6.9,6.9,0,0,0,2.08,2.07"/><path class="cls-1" d="M177.39,101.47h0a56.69,56.69,0,0,0-7.13-.3c-6.83,0-12.18,1.77-16.34,5A17.62,17.62,0,0,0,148,119.78c0,5.62,1.49,9.75,4.75,13,3.27,3,7.73,4.73,13.37,4.73a24.86,24.86,0,0,0,19.61-9.16c.89,1.48,1.48,2.66,2.08,3.84a11.44,11.44,0,0,0,2.37,3,3.23,3.23,0,0,0,2.08.88,3.82,3.82,0,0,0,1.78-.29l4.16-3a2.23,2.23,0,0,0,1.19-2.06,3.17,3.17,0,0,0-.3-1.48,34.82,34.82,0,0,1-2.37-4.73,30,30,0,0,1-.6-5.91V97c0-7.39-1.78-12.71-5.64-16.25-3.57-3.55-9.51-5.32-17.53-5.32a39.86,39.86,0,0,0-10.39,1.18,45.44,45.44,0,0,0-8.32,2.95c-.89.59-1.49.89-1.78,1.48a3.78,3.78,0,0,0-.6,2.36v3.25c0,1.19.6,2.07,1.49,2.07.29,0,.59-.29,1.19-.29a5.32,5.32,0,0,0,2.08-.89A53.68,53.68,0,0,1,164,85.22a29.13,29.13,0,0,1,7.13-.59c5,0,8.62.88,10.69,3s3.27,5.61,3.27,10.64v4.72c-2.67-.59-5.34-.88-7.72-1.47m7.72,11.81h0a26.93,26.93,0,0,1-.59,5.62,10.69,10.69,0,0,1-2.38,4.43,14.46,14.46,0,0,1-6.24,4.14,19.69,19.69,0,0,1-6.83,1.18c-3.27,0-5.35-.59-7.13-2.37-1.48-1.47-2.37-3.84-2.37-7.09a9.13,9.13,0,0,1,3.26-7.38c2.08-2.07,5.35-3,9.81-3a45.27,45.27,0,0,1,6.23.59,38.37,38.37,0,0,1,6.24,1.19Z"/><path class="cls-1" d="M218.68,132.78h0a5.72,5.72,0,0,0,1.48,2.66,3.84,3.84,0,0,0,2.38.59h5.65c1.48,0,2.37-.29,2.67-.88a3.69,3.69,0,0,0,1.48-2.66l10.1-42.55,10.4,42.55a3.69,3.69,0,0,0,1.49,2.66A3.63,3.63,0,0,0,257,136h5.64a5.94,5.94,0,0,0,2.68-.59,5.58,5.58,0,0,0,1.19-2.66l16.33-51.4c0-.59.3-1.19.3-1.78a1.06,1.06,0,0,0,.3-.88,1.58,1.58,0,0,0-1.78-1.78h-6.24a5.93,5.93,0,0,0-2.68.6,11.51,11.51,0,0,0-1.18,2.65L260,124.81l-10.4-44.62a5.65,5.65,0,0,0-1.48-2.65,5.93,5.93,0,0,0-2.68-.6h-5.34a5.93,5.93,0,0,0-2.68.6,5.49,5.49,0,0,0-1.18,2.65l-10.4,44-11.29-44a11.46,11.46,0,0,0-1.19-2.65,5.85,5.85,0,0,0-2.67-.6h-6.54a1.58,1.58,0,0,0-1.78,1.78c0,.29.3,1.18.6,2.66Z"/><path class="cls-1" d="M317.9,165h0a200.93,200.93,0,0,1-76,15.36,201.78,201.78,0,0,1-99.22-26.29c-2.37-1.48-3.86,1.18-2.37,2.95,26.43,23.64,60.89,37.52,99.51,37.52,27.33,0,59.11-8.57,81.1-24.52,3.86-2.66.59-6.8-3-5"/><path class="cls-1" d="M303.93,155.83h0c-2.08,1.18-1.78,3.25.6,2.95,7.13-.88,22.87-2.66,25.54.89,3,3.54-3,18.32-5.64,24.82-.89,2.07.89,2.95,2.67,1.18,11.89-9.75,14.86-30.14,12.48-33.09s-23.17-5.61-35.65,3.25"/></g></svg>