<svg id="Layer_1" data-name="Layer 1" xmlns="http://www.w3.org/2000/svg" width="294.3" height="392.1" viewBox="0 0 294.3 392.1"><defs><style>.cls-1{fill:#272d35;}</style></defs><path class="cls-1" d="M81.3,176.6c2.1.7,4.2,1.4,6.2,2.2.2.1.4.1.5.2a1.42,1.42,0,0,0,.2.6c.4,1.8.8,3.5,1.3,5.3.1.2.1.4.2.6.5,1.8,1.1,3.6,1.7,5.4a4.87,4.87,0,0,0,.4,1.1c.6,1.8,1.3,3.5,2,5.2l.3.6c.7,1.6,1.4,3.1,2.1,4.6.1.1.1.3.2.4l-.2-.1.1.2c-.1,0-.3-.1-.4-.1-1.6-.5-3.2-.9-4.9-1.3-.3-.1-.5-.1-.8-.2-1.8-.4-3.6-.7-5.4-1-.4-.1-.8-.1-1.2-.2-1.8-.3-3.7-.5-5.6-.7h-.7a48.86,48.86,0,0,0-5.4-.3h-.7c-.3-.5-.6-1-.9-1.6-.2-.4-.5-.9-.7-1.3-.5-.8-.9-1.7-1.4-2.5a5.9,5.9,0,0,1-.4-.8,37.78,37.78,0,0,1-1.7-3.5,6.12,6.12,0,0,1-.5-1.2,25.57,25.57,0,0,1-1.1-2.4l-.6-1.5a22.88,22.88,0,0,0-1-2.3c-.2-.5-.4-1-.6-1.6-.3-.8-.6-1.5-.9-2.3-.2-.5-.4-1.1-.6-1.6a22.5,22.5,0,0,1-.8-2.4c-.2-.5-.4-1.1-.6-1.6l-.3-.9a.9.9,0,0,1,.5.1c2.3.3,4.5.7,6.7,1.1a5.16,5.16,0,0,0,1.1.2q3.3.6,6.6,1.5c.3.1.5.1.8.2,2.2.6,4.4,1.2,6.5,1.8-.1,0-.1,0,0,.1m-23.5-8.8A213.72,213.72,0,0,1,50.5,131a213,213,0,0,1,35,13.6v.7c-.1,2.4-.2,4.8-.1,7.1v.1c0,2.4.1,4.7.2,7a3.4,3.4,0,0,0,.1,1c.1,2.2.3,4.3.5,6.5,0,.4.1.8.1,1.2q.3,3.15.9,6.3v.3h0v.1a.35.35,0,0,1-.2-.1c-2-.7-4-1.4-6.1-2l-1.2-.3c-2.1-.6-4.2-1.2-6.3-1.7a3.55,3.55,0,0,0-1-.2c-2.2-.5-4.5-1-6.8-1.4h0c-2.3-.4-4.7-.8-7.1-1.1a3.63,3.63,0,0,0-.7-.3M89,154.9v-1.2c0-2.2,0-4.5.1-6.8v-.5c.3.1.5.3.8.4.5.3,1,.6,1.6.9l2.1,1.2,1.5.9a23.92,23.92,0,0,1,2.1,1.3c.5.3,1,.6,1.4.9.7.4,1.4.9,2.1,1.4a9.13,9.13,0,0,0,1.3.8c.8.5,1.5,1.1,2.3,1.6.3.2.7.5,1,.7,1.1.8,2.1,1.5,3.1,2.3.2.2.4.3.6.5.8.6,1.6,1.3,2.4,1.9.4.3.7.6,1.1.9s.9.8,1.4,1.2a2,2,0,0,1-.1.7c-.2,1.8-.4,3.5-.6,5.3a1.7,1.7,0,0,1-.1.7c-.2,1.9-.2,3.7-.3,5.6v1.2c0,1.8,0,3.7.1,5.5v.8c.1,1.7.2,3.4.4,5.1v.4l-.2-.1v.2c-.1-.1-.2-.2-.3-.2-1.3-1-2.7-1.9-4.2-2.9-.2-.1-.4-.3-.6-.4-1.5-1-3.1-1.9-4.7-2.8-.3-.2-.7-.4-1-.6-1.6-.9-3.3-1.7-5-2.6l-.6-.3c-1.6-.8-3.3-1.5-5-2.2l-.6-.3c0-.2-.1-.4-.1-.6-.4-2.1-.8-4.3-1-6.5v-.2c-.3-2.2-.5-4.4-.7-6.7a2.2,2.2,0,0,0-.1-.8c-.1-2.2-.2-4.5-.2-6.7m12.9,95.4c1.9.3,3.7.5,5.6.7-1.7.8-3.4,1.6-5,2.5l-1.5.9c-1.1.6-2.2,1.3-3.3,2l-1.8,1.2c-.9.6-1.9,1.3-2.8,1.9-.7.5-1.3,1-1.9,1.5s-1.5,1.1-2.2,1.8a16.2,16.2,0,0,1-2.2-.1H86c-1.1-.1-2.2-.1-3.4-.2-.3,0-.6-.1-.9-.1l-2.5-.3c-.4-.1-.8-.1-1.2-.2l-2.2-.3a5.85,5.85,0,0,0-1.3-.2c-.7-.1-1.4-.3-2.1-.4l-1.4-.3c-.7-.2-1.5-.3-2.2-.5l-1.3-.3a21.72,21.72,0,0,1-2.4-.7l-1.1-.3c-.1,0-.2-.1-.3-.1l.2-.2a6.07,6.07,0,0,1,1-.7c.6-.5,1.3-.9,1.9-1.4.4-.3.8-.5,1.2-.8l1.8-1.2c.4-.3.8-.5,1.2-.8.6-.4,1.2-.7,1.8-1.1.4-.2.8-.5,1.2-.7.6-.4,1.3-.7,1.9-1.1.4-.2.7-.4,1.1-.6a24,24,0,0,1,2.3-1.1c.3-.1.5-.3.8-.4,1-.5,2-.9,3.1-1.4l.6-.3,2.1-.9,2.7.9c.8.3,1.5.5,2.3.8l3.3.9c.7.2,1.4.4,2.2.6,1.2.3,2.5.5,3.8.7a12.23,12.23,0,0,1,1.7.3m-72.7-8.2A216.16,216.16,0,0,1,0,218.6a206.37,206.37,0,0,1,35.5-12.1c.5.6,1,1.3,1.5,1.9.3.3.5.7.8,1l2.7,3.3.1.1,2.7,3c.3.3.6.7.9,1,.6.7,1.3,1.4,1.9,2l1.1,1.1,1.8,1.8,1.1,1.1c.6.6,1.2,1.1,1.8,1.7.4.4.8.7,1.2,1.1.6.6,1.2,1.1,1.8,1.6a10,10,0,0,1,1.1,1l.3.3h-.1a.76.76,0,0,0-.4.2,7.84,7.84,0,0,1-1.4.5c-.7.3-1.5.6-2.3.9l-1.5.6a21.4,21.4,0,0,0-2.2,1,10.09,10.09,0,0,0-1.5.7,22.56,22.56,0,0,0-2.2,1.1c-.5.2-1,.5-1.4.7l-2.4,1.2c-.4.2-.8.4-1.3.7-1.1.6-2.2,1.2-3.4,1.9-.1.1-.2.1-.3.2-1.2.7-2.4,1.4-3.7,2.1a8.34,8.34,0,0,0-1.2.8,18,18,0,0,0-1.8,1m7.7-39.6a215.12,215.12,0,0,1-19.4-32.1,196.93,196.93,0,0,1,37.5.8,1.42,1.42,0,0,1,.2.6c.7,2.3,1.5,4.6,2.3,6.8v.1c.8,2.2,1.7,4.4,2.6,6.5.1.3.3.7.4,1,.9,2,1.8,4,2.7,5.9a5.36,5.36,0,0,1,.5,1.1c1,1.9,1.9,3.8,3,5.6a.35.35,0,0,0,.1.2H64.6a13.4,13.4,0,0,0-2,.1c-.7,0-1.3.1-2,.1s-1.3.1-1.9.1a14.92,14.92,0,0,0-2.1.2c-.6.1-1.3.1-1.9.2s-1.4.1-2.1.2l-2.1.3a12.25,12.25,0,0,1-1.9.2c-1.1.2-2.1.3-3.2.5-.4.1-.9.1-1.3.2-1.2.2-2.5.4-3.7.7l-1.3.3a10.32,10.32,0,0,0-2.2.4M55.1,317.4a215.35,215.35,0,0,1-37.5.8A205.38,205.38,0,0,1,37,286.1c.6.1,1.1.2,1.6.3s1.2.3,1.8.4a18.46,18.46,0,0,0,2.3.4l1.7.3c.8.1,1.6.3,2.3.4l1.6.3,2.4.3c.5.1,1,.1,1.5.2l2.8.3c.4,0,.7.1,1.1.1l3.8.3a6.15,6.15,0,0,1,1.3.1c.8,0,1.7.1,2.5.1h3.4a.35.35,0,0,1-.1.2c-1,1.8-2,3.7-3,5.6a5.36,5.36,0,0,0-.5,1.1c-.9,1.9-1.8,3.9-2.7,5.9a10.37,10.37,0,0,0-.4,1c-.9,2.1-1.8,4.3-2.6,6.5h0c-.8,2.2-1.6,4.5-2.3,6.8a.75.75,0,0,0-.4.7M91.3,143.6a21.16,21.16,0,0,0-2.1-1.1A200.36,200.36,0,0,1,95,105.4a211.88,211.88,0,0,1,28.3,24.7,18,18,0,0,0-.8,2.1,11.22,11.22,0,0,0-.5,1.3l-1.5,3.9c0,.1-.1.2-.1.4l-1.2,3.6c-.1.5-.3.9-.4,1.3-.3.9-.5,1.7-.8,2.6-.1.5-.3,1-.4,1.5-.2.8-.5,1.6-.7,2.4-.1.5-.3,1-.4,1.5l-.6,2.4-.3,1.5a22.11,22.11,0,0,0-.5,2.5c-.1.4-.2.9-.3,1.3,0,.2-.1.3-.1.5h0v.1l-.3-.3c-.4-.3-.7-.6-1.1-.9-.6-.5-1.3-1-1.9-1.5-.4-.3-.8-.6-1.3-1a23.07,23.07,0,0,0-1.9-1.4c-.4-.3-.9-.6-1.3-.9-.7-.5-1.4-.9-2.1-1.4-.4-.3-.9-.6-1.3-.9-.8-.5-1.5-1-2.3-1.5-.4-.2-.8-.5-1.2-.7-1.1-.7-2.3-1.4-3.4-2.1l-.1-.1c-1.2-.7-2.5-1.4-3.7-2.1a7.7,7.7,0,0,1-1.5-.6M55.4,265.5c.8-.7,1.5-1.4,2.3-2.1.3-.3.7-.6,1-.9l1.5-1.2c.8.3,1.6.5,2.3.7.2.1.4.1.6.2,1.2.4,2.3.7,3.5,1a3,3,0,0,0,1,.2l2.6.6c.4.1.8.2,1.3.3.8.2,1.5.3,2.3.5a5.85,5.85,0,0,0,1.3.2c.8.1,1.6.3,2.4.4.4.1.7.1,1.1.2,1.1.2,2.3.3,3.4.4h.3c.8.1,1.7.1,2.5.2l-.1.1h.2l-.3.3a39.84,39.84,0,0,0-3.5,3.6,2.65,2.65,0,0,0-.5.6q-1.8,1.95-3.6,4.2c-.2.3-.5.6-.7.9-1.2,1.5-2.3,2.9-3.4,4.5a1,1,0,0,1-.4.5l-3,4.5a1.76,1.76,0,0,1-.4.5H65.3c-3.5-.1-7.1-.3-10.8-.7h0c-1-.1-2-.2-3-.4-.4,0-.7-.1-1.1-.1a21.66,21.66,0,0,1-2.5-.4l-1.7-.3a15.52,15.52,0,0,1-2.1-.4c-.7-.1-1.4-.3-2.1-.4a12.86,12.86,0,0,1-1.9-.4c-.3-.1-.5-.1-.8-.2.2-.2.4-.5.6-.7l1.1-1.4c.5-.6,1-1.3,1.6-1.9a12.67,12.67,0,0,0,1.1-1.3c.5-.6,1.1-1.2,1.6-1.8a6.89,6.89,0,0,0,1.1-1.3c.6-.6,1.1-1.2,1.7-1.8a11.41,11.41,0,0,1,1.1-1.1c.6-.7,1.3-1.3,1.9-2l.9-.9c.9-.9,1.9-1.8,2.8-2.7.2.1.4,0,.6-.2m-1.8-32.1c.9-.4,1.9-.8,2.8-1.1.4-.2.9-.3,1.3-.5.6-.2,1.2-.4,1.7-.6.6.5,1.3,1,1.9,1.5.2.1.4.3.6.4l3,2.1a3.51,3.51,0,0,0,.8.5c.7.5,1.5,1,2.2,1.5.3.2.7.4,1.1.7.7.4,1.4.8,2,1.2.4.2.7.4,1.1.6.7.4,1.5.8,2.2,1.2.3.2.6.3.9.5,1,.5,2.1,1.1,3.1,1.6a.35.35,0,0,1,.2.1c.8.4,1.6.7,2.3,1.1l-.2.1.2.1c-.7.3-1.5.7-2.2,1-.1.1-.3.1-.4.2-1,.5-2.1,1-3.1,1.5-.3.2-.6.3-.9.5-.7.4-1.4.8-2.2,1.2-.4.2-.7.4-1.1.6-.7.4-1.3.8-2,1.2a6.73,6.73,0,0,0-1.1.7c-.7.5-1.5,1-2.2,1.5a9.22,9.22,0,0,1-.8.5l-3,2.1c-.2.1-.4.3-.6.4-.6.5-1.3,1-1.9,1.5a14.58,14.58,0,0,1-1.9-.7c-.4-.1-.8-.3-1.2-.4-1-.4-2-.8-3.1-1.2-.2-.1-.4-.1-.5-.2-1.2-.5-2.4-1-3.6-1.6-.3-.2-.7-.3-1-.5-.9-.4-1.7-.8-2.6-1.2-.4-.2-.9-.5-1.3-.7-.8-.4-1.5-.8-2.3-1.2-.5-.3-1-.5-1.5-.8l-2.1-1.2-1.5-.9a23.92,23.92,0,0,1-2.1-1.3l-1.5-.9c-.3-.2-.5-.3-.8-.5.3-.2.5-.3.8-.5l1.5-.9,2.1-1.2,1.5-.9,2.1-1.2c.5-.3,1-.5,1.5-.8a22.56,22.56,0,0,1,2.2-1.1c.5-.2.9-.5,1.4-.7.8-.4,1.7-.8,2.5-1.2.4-.2.7-.3,1.1-.5,1.2-.5,2.4-1.1,3.6-1.6a1.14,1.14,0,0,0,1,0m62.8,78.1v-5c0-.8.1-1.5.1-2.3a4.87,4.87,0,0,1,.1-1.2l.3-3.3c0-.4.1-.7.1-1.1.1-.7.2-1.3.3-2,.7-.6,1.4-1.3,2.1-1.9s1.2-1.1,1.8-1.6l2.4-2.4,1.6-1.6c.8-.9,1.6-1.8,2.4-2.8.4-.5.9-1,1.3-1.5,1.2-1.5,2.3-2.9,3.4-4.5a52.53,52.53,0,0,0-.3,5.6v1.8c0,1.3,0,2.5.1,3.8a16.35,16.35,0,0,0,.2,2.2c.1,1.1.2,2.3.3,3.4l.3,2.4a28.86,28.86,0,0,0,.4,2.9c-.4.6-.7,1.2-1.1,1.7a5.58,5.58,0,0,1-.5.8c-.6.9-1.2,1.8-1.9,2.8-.2.3-.4.5-.6.8-.5.7-1,1.3-1.5,2-.3.3-.5.7-.8,1l-1.4,1.7a9,9,0,0,1-.9,1c-.5.5-.9,1.1-1.4,1.6-.3.3-.6.7-.9,1-.5.5-1,1.1-1.5,1.6a9.43,9.43,0,0,1-1,1l-1.7,1.7-.9.9-.2.2v-.3c0-.4-.1-.8-.1-1.2a19.42,19.42,0,0,1-.2-2.4c0-.5-.1-.9-.1-1.4a14.77,14.77,0,0,1-.1-2.1,7.57,7.57,0,0,0-.1-1.5v-1.8M96.1,294.8c.7-1.8,1.4-3.5,2.2-5.2.1-.1.1-.3.2-.4l2.4-4.8a.76.76,0,0,0,.2-.4c.9-.3,1.8-.7,2.7-1.1.7-.3,1.5-.6,2.2-.9,1-.4,2-.9,3-1.4a20,20,0,0,0,2.1-1c1.1-.6,2.1-1.2,3.2-1.8a15.05,15.05,0,0,0,1.7-1c1.6-1,3.2-2,4.7-3.1-.8,1.7-1.5,3.4-2.2,5.2l-.6,1.8c-.4,1.2-.8,2.3-1.2,3.5l-.6,2.1-.9,3.3c-.2.7-.3,1.5-.5,2.3-.2,1-.4,1.9-.6,2.9-.1.1-.3.2-.4.3-1.4,1.1-2.9,2.2-4.4,3.3-.1.1-.2.1-.3.2-1.5,1.1-3.2,2.1-4.8,3.1-.3.2-.5.3-.8.5-1.6.9-3.2,1.8-4.9,2.7-.3.2-.6.3-.9.5-1.7.9-3.5,1.7-5.3,2.5a.1.1,0,0,0-.1.1v-.2l1.5-5.7c.1-.4.2-.7.3-1.1.6-1.8,1.1-3.6,1.8-5.3a3.18,3.18,0,0,1,.3-.9m-22.3-9h-.3a.31.31,0,0,0,.1-.2,6.07,6.07,0,0,1,.7-1c.4-.7.9-1.3,1.3-2a10.47,10.47,0,0,1,.8-1.1c.4-.6.9-1.2,1.3-1.7a10.63,10.63,0,0,1,.9-1.1c.4-.6.9-1.1,1.3-1.6s.6-.7.9-1.1c.5-.6.9-1.1,1.4-1.6.3-.3.6-.7.9-1a13.65,13.65,0,0,1,1.7-1.7l.7-.7c.8-.8,1.6-1.6,2.4-2.3.2-.2.5-.4.7-.6.5-.5,1-.9,1.6-1.4a9.7,9.7,0,0,0,1.7-.1,80.68,80.68,0,0,0,20.2-2.8c-1.3,1.3-2.6,2.7-3.9,4.1a17.38,17.38,0,0,1-1.3,1.5c-.8.9-1.6,1.9-2.3,2.8a21.41,21.41,0,0,0-1.3,1.9c-.6.9-1.3,1.8-1.9,2.7-.4.7-.9,1.4-1.3,2.1l-1.5,2.4c-.7.2-1.4.5-2.1.7a1.85,1.85,0,0,1-.7.2l-3.3.9c-.3.1-.6.1-.9.2-.8.2-1.6.4-2.5.6l-1.2.3c-.7.1-1.4.3-2.2.4a6.75,6.75,0,0,1-1.4.2l-2.1.3c-.5.1-.9.1-1.4.2l-2.2.3c-.5,0-.9.1-1.4.1-.8.1-1.6.1-2.4.2-.2-.2-.6-.1-1-.1M35.5,282A212.16,212.16,0,0,1,0,269.9a208.56,208.56,0,0,1,29.2-23.5c.7.4,1.3.8,2,1.2.4.2.8.5,1.2.7,1.2.7,2.4,1.5,3.7,2.2.1,0,.1.1.2.1,1.2.7,2.3,1.3,3.5,1.9l1.2.6c.8.4,1.6.8,2.4,1.3.5.2.9.5,1.4.7.8.4,1.5.7,2.3,1.1.5.2,1,.5,1.5.7.7.3,1.5.7,2.2,1l1.5.6c.8.3,1.5.6,2.3.9a7.84,7.84,0,0,0,1.4.5.76.76,0,0,1,.4.2h0l-.3.3c-.4.3-.8.7-1.2,1-.6.5-1.2,1-1.8,1.6-.4.4-.8.7-1.2,1.1-.6.5-1.1,1.1-1.7,1.6L49,266.9l-1.7,1.7a12,12,0,0,0-1.1,1.2c-.6.6-1.2,1.3-1.8,2-.3.4-.7.7-1,1.1a34.67,34.67,0,0,0-2.5,2.9c-.1.1-.1.2-.2.3L38,279.4c-.3.4-.6.7-.9,1.1a4.57,4.57,0,0,0-1.6,1.5m174.3,29.9c-2.1-.7-4.2-1.4-6.3-2.2-.2-.1-.3-.1-.5-.2a1.42,1.42,0,0,0-.2-.6c-.4-1.8-.8-3.5-1.3-5.2a6.37,6.37,0,0,1-.2-.7c-.5-1.8-1.1-3.6-1.6-5.4-.1-.4-.3-.8-.4-1.1-.6-1.7-1.2-3.4-1.9-5.1-.1-.2-.2-.5-.3-.7-.7-1.5-1.3-3.1-2.1-4.5-.1-.1-.1-.3-.2-.4l.2.1-.1-.2c.1,0,.3.1.4.1,1.6.5,3.3.9,4.9,1.3.2.1.5.1.7.2,1.8.4,3.6.7,5.4,1,.4.1.8.1,1.1.2,1.8.3,3.7.5,5.6.7h.6a49.33,49.33,0,0,0,5.5.3h.6c.1.2.2.3.3.5,1.1,1.9,2.2,3.8,3.2,5.8v.1c1,2,2,4,2.9,6.1.1.2.2.5.3.7.9,2,1.7,4.1,2.6,6.2.1.4.3.7.4,1.1.8,2.1,1.5,4.2,2.3,6.4.1.2.1.3.2.5a.9.9,0,0,1-.5-.1c-2.3-.3-4.5-.7-6.7-1.1a5,5,0,0,0-1.2-.2c-2.2-.4-4.4-.9-6.5-1.5-.3-.1-.5-.1-.8-.2-2.2-.6-4.4-1.2-6.5-1.8l.1-.1m23.4,8.7a204.33,204.33,0,0,1,7.3,36.8,217.46,217.46,0,0,1-35-13.5v-.7c.1-2.4.2-4.8.1-7.2h0c0-2.4-.1-4.7-.2-7v-1c-.1-2.2-.3-4.4-.6-6.5,0-.4-.1-.8-.1-1.2l-.9-6.3v-.2h0c.1,0,.2.1.3.1,2,.7,4,1.4,6,2,.4.1.8.2,1.1.3,2.1.6,4.2,1.2,6.3,1.7a3.55,3.55,0,0,0,1,.2c2.3.5,4.5,1,6.9,1.4h0c2.3.4,4.7.8,7.1,1.1a1.63,1.63,0,0,1,.7,0m-146-6.9h0v.2c-.4,2.1-.6,4.2-.9,6.3,0,.4-.1.8-.1,1.2-.2,2.1-.4,4.3-.6,6.5a3.4,3.4,0,0,1-.1,1c-.1,2.3-.2,4.7-.2,7s0,4.8.1,7.2v.7a201.84,201.84,0,0,1-35,13.5,204.33,204.33,0,0,1,7.3-36.8c.2,0,.4-.1.7-.1,2.4-.3,4.7-.7,7.1-1.1h.1c2.3-.4,4.6-.9,6.8-1.4a4.25,4.25,0,0,1,1.1-.2c2.1-.5,4.2-1.1,6.2-1.7a5.64,5.64,0,0,0,1.2-.4c2-.6,4-1.3,6-2a.37.37,0,0,0,.3.1ZM202,333.5v1.2c0,2.2,0,4.5-.1,6.8v.5c-.3-.1-.5-.3-.8-.4-.5-.3-1-.6-1.6-.9l-2.1-1.2c-.5-.3-1-.6-1.6-.9s-1.3-.8-2-1.2l-1.5-.9c-.7-.4-1.3-.9-2-1.3-.5-.3-.9-.6-1.4-.9l-2.1-1.5a10.47,10.47,0,0,1-1.1-.8c-1-.8-2.1-1.5-3.1-2.3-.3-.2-.5-.4-.8-.6-.7-.6-1.5-1.2-2.2-1.7-.4-.3-.8-.7-1.2-1s-.9-.8-1.3-1.1a1.7,1.7,0,0,1,.1-.7c.2-1.8.4-3.5.6-5.3a1.7,1.7,0,0,1,.1-.7c.2-1.9.2-3.8.3-5.6v-1.2c0-1.8,0-3.7-.1-5.5v-.7c-.1-1.7-.2-3.4-.4-5v-.4l.2.1v-.2c.1.1.2.2.3.2,1.4,1,2.8,2,4.2,2.9.2.1.4.3.6.4,1.5,1,3.1,1.9,4.7,2.8.3.2.7.4,1,.6,1.6.9,3.3,1.7,5,2.6a1.69,1.69,0,0,0,.5.2c1.6.8,3.3,1.5,5,2.2a1.42,1.42,0,0,0,.6.2c0,.2.1.4.1.6.4,2.1.7,4.2,1,6.4v.2c.3,2.2.5,4.4.7,6.6a2,2,0,0,0,.1.8c.2,2.3.3,4.5.3,6.7M254.1,286a206.71,206.71,0,0,1,19.4,32.1,205.68,205.68,0,0,1-37.5-.8c-.1-.2-.1-.4-.2-.6-.7-2.3-1.5-4.6-2.3-6.8h0c-.8-2.2-1.7-4.4-2.6-6.5-.1-.3-.3-.7-.4-1-.9-2-1.8-4-2.7-5.9a5.36,5.36,0,0,1-.5-1.1c-1-1.9-2-3.8-3-5.6a.35.35,0,0,0-.1-.2h3.5c.8,0,1.6-.1,2.4-.1a5.7,5.7,0,0,0,1.3-.1l3.8-.3c.5,0,.9-.1,1.4-.1l2.5-.3a9.85,9.85,0,0,1,1.7-.2l2.2-.3,1.8-.3a20.69,20.69,0,0,0,2.2-.4l1.8-.3c.7-.1,1.4-.3,2.2-.4a11.63,11.63,0,0,0,1.8-.4,3.32,3.32,0,0,1,1.3-.4m7.7-39.7A207.56,207.56,0,0,1,291,269.9,203.28,203.28,0,0,1,255.5,282c-.5-.6-.9-1.2-1.4-1.8-.3-.4-.6-.7-.9-1.1-.9-1.1-1.8-2.2-2.7-3.2l-.2-.2c-.9-1-1.7-2-2.6-2.9a4.74,4.74,0,0,0-1-1c-.6-.7-1.2-1.3-1.8-2-.4-.4-.7-.8-1.1-1.2-.6-.6-1.2-1.2-1.7-1.8l-1.2-1.2c-.6-.6-1.2-1.1-1.7-1.7-.4-.4-.8-.7-1.2-1.1-.6-.5-1.2-1.1-1.8-1.6-.4-.3-.8-.7-1.2-1l-.3-.3h.1c.1-.1.3-.1.4-.2.4-.2.9-.3,1.3-.5.8-.3,1.6-.6,2.3-.9.5-.2.9-.4,1.4-.6.8-.3,1.5-.7,2.3-1,.5-.2.9-.4,1.4-.6.8-.4,1.6-.7,2.3-1.1.4-.2.9-.4,1.3-.6.9-.4,1.7-.9,2.6-1.3.4-.2.7-.4,1.1-.6,2.5-1.3,4.9-2.7,7.4-4.2a6.73,6.73,0,0,0,1.1-.7,14.79,14.79,0,0,0,2.1-1.3m-6.3-39.9A203.28,203.28,0,0,1,291,218.5,208.56,208.56,0,0,1,261.8,242c-.6-.4-1.3-.8-1.9-1.2a14.8,14.8,0,0,0-1.3-.8c-1.2-.7-2.4-1.5-3.7-2.1a.35.35,0,0,1-.2-.1c-1.1-.6-2.3-1.3-3.4-1.9l-1.2-.6c-.8-.4-1.6-.9-2.5-1.3-.5-.2-.9-.5-1.4-.7-.8-.4-1.5-.7-2.3-1.1a10.09,10.09,0,0,1-1.5-.7c-.7-.3-1.5-.7-2.2-1-.5-.2-1-.4-1.4-.6-.8-.3-1.5-.6-2.3-.9a6.94,6.94,0,0,0-1.3-.5c-.1-.1-.3-.1-.4-.2h-.1c.1-.1.3-.2.4-.3.3-.3.7-.6,1-.9.7-.6,1.3-1.2,2-1.7.4-.3.7-.7,1.1-1,.6-.6,1.2-1.2,1.8-1.7l1.1-1.1,1.8-1.8,1.1-1.1c.6-.7,1.3-1.4,1.9-2,.3-.3.6-.7.9-1,.9-1,1.8-2,2.6-3l.1-.1,2.7-3.3a10.63,10.63,0,0,1,.9-1.1,22,22,0,0,0,1.4-1.8M89.8,341.6c-.3.1-.5.3-.8.4v-.5c-.1-2.3-.1-4.6-.1-6.8v-1.2c0-2.3.1-4.5.3-6.7a2.2,2.2,0,0,1,.1-.8c.2-2.3.4-4.5.7-6.7v-.2c.3-2.2.6-4.4,1-6.5,0-.2.1-.4.1-.6a1.42,1.42,0,0,1,.6-.2c1.7-.7,3.4-1.4,5-2.2.2-.1.3-.2.5-.2,1.7-.8,3.4-1.7,5-2.6.3-.2.7-.4,1-.6,1.6-.9,3.2-1.8,4.7-2.8a4.35,4.35,0,0,1,.7-.4c1.4-.9,2.8-1.9,4.2-2.9.1-.1.2-.2.3-.2v.2l.2-.1-.3,2.7v.2c-.1,1.2-.2,2.3-.2,3.5v4.8a19.27,19.27,0,0,0,.1,2.4v1.3a24.52,24.52,0,0,0,.2,2.7,3.75,3.75,0,0,0,.1,1c.1,1.2.2,2.4.4,3.6,0,.2.1.4.1.7l.3,2.4a17.41,17.41,0,0,0-1.4,1.2c-.4.3-.7.6-1.1.9-.8.7-1.7,1.3-2.5,2-.2.1-.3.3-.5.4a37.12,37.12,0,0,1-3.2,2.3,5.5,5.5,0,0,0-.9.7c-.8.5-1.5,1.1-2.3,1.6a5.67,5.67,0,0,1-1.3.8c-.7.5-1.4.9-2.1,1.4-.5.3-.9.6-1.4.9-.7.4-1.4.9-2.1,1.3l-1.5.9c-.7.4-1.4.8-2.2,1.2-.6.2-1.1.5-1.7.7m32.6,14.6c.3.7.6,1.5.9,2.2A201,201,0,0,1,95,383.1,219.25,219.25,0,0,1,89.2,346c.6-.3,1.3-.7,1.9-1s.9-.5,1.4-.8c1.2-.6,2.3-1.3,3.5-2a4.35,4.35,0,0,1,.7-.4c1-.6,2.1-1.2,3.1-1.9a14.8,14.8,0,0,1,1.3-.8c.7-.5,1.5-1,2.2-1.4.5-.3.9-.6,1.4-.9l2-1.4a12.13,12.13,0,0,0,1.4-1c.6-.5,1.3-.9,1.9-1.4a11.32,11.32,0,0,0,1.3-1c.6-.5,1.3-1,1.9-1.5l1.2-.9.3-.3v.1h0c0,.2.1.3.1.5.1.4.2.9.3,1.3.2.8.3,1.7.5,2.5.1.5.2,1,.3,1.4.2.8.4,1.6.6,2.5.1.5.3,1,.4,1.5a23.35,23.35,0,0,0,.7,2.5c.1.5.3,1,.4,1.5.3.9.5,1.8.8,2.7.1.4.3.8.4,1.3.4,1.3.8,2.5,1.3,3.8v.1c.5,1.3,1,2.7,1.5,4a2.84,2.84,0,0,0,.4,1.2M89.5,303.6c-.5,1.7-.9,3.5-1.3,5.3a1.42,1.42,0,0,1-.2.6c-.2.1-.4.1-.5.2-2,.8-4.1,1.5-6.2,2.2h-.1c-2.1.7-4.3,1.3-6.5,1.8-.2.1-.5.1-.7.2-2.2.5-4.3,1-6.6,1.5a4.25,4.25,0,0,1-1.1.2c-2.2.4-4.4.8-6.7,1.1a.9.9,0,0,0-.5.1l.3-.9c.2-.5.4-1.1.6-1.6l.9-2.4c.2-.5.4-1.1.6-1.6.3-.8.6-1.6.9-2.3l.6-1.5c.3-.8.7-1.6,1-2.4.2-.5.4-.9.6-1.4.4-.9.8-1.8,1.2-2.6.2-.3.3-.7.5-1,.6-1.2,1.2-2.4,1.7-3.5.1-.2.2-.3.3-.5.5-1,1-1.9,1.5-2.9.2-.4.4-.7.6-1.1.3-.6.7-1.1,1-1.7H72l5.5-.3h.6c1.9-.2,3.8-.4,5.6-.7.4-.1.8-.1,1.1-.2,1.8-.3,3.6-.6,5.4-1,.2-.1.5-.1.7-.2,1.7-.4,3.3-.8,4.9-1.3.1,0,.3-.1.4-.1l-.1.2.2-.1c-.1.1-.1.2-.2.4-.7,1.5-1.4,3-2.1,4.6l-.3.6c-.7,1.7-1.3,3.4-1.9,5.1-.1.4-.3.7-.4,1.1-.6,1.8-1.1,3.6-1.7,5.4a2.54,2.54,0,0,0-.2.7m78.8,43.2a19.45,19.45,0,0,1-.8,2.2c-.2.6-.4,1.1-.6,1.7-.3.8-.6,1.5-.9,2.3-.2.5-.4,1.1-.6,1.6a6.89,6.89,0,0,1-.3.8l-.6-.6c-.4-.5-.8-.9-1.2-1.4s-1.1-1.2-1.6-1.9a13.44,13.44,0,0,1-1.1-1.4c-.5-.6-1-1.3-1.6-1.9l-1-1.3c-.5-.7-1-1.4-1.6-2.1l-.9-1.2c-.6-.8-1.1-1.6-1.7-2.4l-.6-.9c-.7-1.1-1.5-2.2-2.2-3.3a2.09,2.09,0,0,0-.4-.6c-.5-.9-1.1-1.7-1.6-2.6-.2-.4-.5-.8-.7-1.3s-.6-1-.9-1.6a15.05,15.05,0,0,0,1.1-2.2l.3-.6c.6-1.1,1.1-2.2,1.6-3.3a2,2,0,0,1,.4-.8c.4-.8.7-1.7,1.1-2.5a11.73,11.73,0,0,1,.5-1.1c.3-.7.6-1.5.9-2.2a5.64,5.64,0,0,0,.4-1.2c.3-.8.5-1.5.8-2.3.1-.3.2-.7.3-1,.4-1.1.7-2.2,1-3.3a.37.37,0,0,1,.1-.3c.2-.8.5-1.7.7-2.5l.1.2v-.2c.5.7,1,1.4,1.4,2.1.1.1.1.2.2.2.7.9,1.4,1.9,2.1,2.8.2.3.4.5.6.8.5.7,1.1,1.3,1.6,2,.3.3.5.6.8.9.5.6,1.1,1.2,1.6,1.8.3.3.5.6.8.9.6.7,1.2,1.3,1.9,2a4.35,4.35,0,0,1,.6.7l2.6,2.6c.2.1.3.3.5.4a15.37,15.37,0,0,0,1.9,1.7c-.1.6-.2,1.1-.3,1.7s-.2,1-.3,1.6c-.2.9-.3,1.7-.5,2.6a5,5,0,0,0-.2,1.2c-.3,1.2-.6,2.5-.9,3.7-.1.5-.3,1-.4,1.4a21.72,21.72,0,0,1-.7,2.4c-.2.5-.3,1.1-.5,1.6-.2.7-.5,1.5-.7,2.2a8.71,8.71,0,0,1-.5,1.9m31.7-1.7c.6.3,1.2.7,1.8,1a201.86,201.86,0,0,1-5.8,37.1,207.39,207.39,0,0,1-28.2-24.7,18,18,0,0,0,.8-2.1c.2-.5.4-.9.6-1.4.5-1.3,1-2.6,1.5-4,0-.1.1-.2.1-.4L172,347c.1-.5.3-.9.4-1.4.3-.9.5-1.7.8-2.6a8.33,8.33,0,0,0,.4-1.5,21.72,21.72,0,0,1,.7-2.4c.1-.5.3-1,.4-1.6l.6-2.4.3-1.5c.2-.8.3-1.6.5-2.4.1-.5.2-.9.3-1.4,0-.1.1-.3.1-.4h0v-.1c.1.1.3.2.4.3.3.3.7.5,1,.8.7.6,1.4,1.1,2.1,1.6l1.2.9c.7.5,1.3,1,2,1.5a14.63,14.63,0,0,0,1.3.9c.7.5,1.4,1,2.1,1.4.4.3.9.6,1.3.9.7.5,1.5,1,2.2,1.5.4.3.8.5,1.2.8l3,1.8c.3.2.6.3.9.5,1.1.6,2.2,1.3,3.3,1.9a13,13,0,0,0,1.5,1m-37.9,12.3c.5.6,1.1,1.2,1.6,1.8a213.27,213.27,0,0,1-18.1,32.9,205,205,0,0,1-18.1-32.9c.5-.5,1-1.1,1.5-1.6a11,11,0,0,1,1-1.1c.9-1.1,1.8-2.1,2.7-3.2.1-.1.2-.2.2-.3l2.4-3a7.63,7.63,0,0,0,.8-1.1c.6-.7,1.1-1.5,1.7-2.2a14.63,14.63,0,0,0,.9-1.3c.5-.7,1-1.4,1.4-2,.3-.4.6-.9.9-1.3a22.63,22.63,0,0,0,1.3-2c.3-.4.6-.9.9-1.3.4-.7.9-1.4,1.3-2.1.3-.4.5-.9.8-1.3a.76.76,0,0,0,.2-.4h0a.76.76,0,0,1,.2.4c.2.4.5.8.7,1.2.4.7.9,1.4,1.3,2.1.3.4.6.9.9,1.3.4.7.9,1.3,1.3,2a14.63,14.63,0,0,0,.9,1.3c.5.7.9,1.3,1.4,2,.3.4.6.9.9,1.3.5.7,1.1,1.5,1.7,2.2a7.63,7.63,0,0,1,.8,1.1c.8,1,1.6,2.1,2.5,3.1,0,.1.1.1.1.2.9,1.1,1.8,2.2,2.8,3.3a2.44,2.44,0,0,1,1.1.9m-34.5-3.8a12,12,0,0,1-1.1,1.2c-.2.2-.4.5-.6.7-.1-.3-.2-.5-.3-.8-.2-.6-.5-1.2-.7-1.8a19.45,19.45,0,0,1-.8-2.2c-.2-.6-.4-1.2-.6-1.7-.3-.7-.5-1.5-.8-2.2a10.93,10.93,0,0,1-.5-1.7c-.2-.8-.5-1.5-.7-2.3-.2-.5-.3-1.1-.5-1.6-.2-.8-.5-1.7-.7-2.5a6.47,6.47,0,0,0-.4-1.3c-.3-1.3-.6-2.5-.9-3.7-.1-.3-.1-.7-.2-1-.2-.9-.4-1.8-.6-2.8l-.3-1.5c-.1-.6-.2-1.2-.3-1.7.6-.5,1.2-1.1,1.8-1.6.2-.2.4-.3.6-.5a31.89,31.89,0,0,0,2.6-2.6l.7-.7c.6-.6,1.2-1.3,1.8-1.9l.9-.9c.5-.6,1.1-1.2,1.6-1.8a8.74,8.74,0,0,0,.8-1c.5-.6,1.1-1.3,1.6-2,.2-.3.4-.5.6-.8.7-.9,1.4-1.9,2.1-2.8.1-.1.1-.2.2-.3.5-.7,1-1.4,1.4-2.1v.2l.1-.2.6,2.4c0,.1.1.2.1.4.3,1.1.6,2.2,1,3.3.1.3.2.7.3,1,.3.8.5,1.5.8,2.3.1.4.3.8.4,1.2.3.7.6,1.5.9,2.2.2.4.3.8.5,1.2a25.57,25.57,0,0,0,1.1,2.4c.1.3.3.6.4.9.5,1.1,1,2.2,1.6,3.3l.3.6c.4.7.7,1.4,1.1,2.1-.3.6-.7,1.2-1,1.7s-.4.7-.6,1.1c-.6,1-1.2,1.9-1.8,2.9-.1.1-.2.3-.3.4-.7,1.1-1.4,2.2-2.2,3.3a5.55,5.55,0,0,1-.6.8c-.6.8-1.1,1.6-1.7,2.4a10.63,10.63,0,0,1-.9,1.1c-.5.7-1.1,1.4-1.6,2.1a10.59,10.59,0,0,1-1,1.2c-.5.7-1.1,1.3-1.6,2-.3.4-.7.8-1,1.2a11.13,11.13,0,0,1-1.6,2.4M72.9,208.1c1.1,1.5,2.2,3,3.4,4.5.2.3.5.6.7.9l3.6,4.2c.2.2.3.4.5.6,1.2,1.2,2.3,2.4,3.6,3.6l.3.3h-.2l.1.1a22.86,22.86,0,0,0-2.5.2H82c-1.1.1-2.3.2-3.4.4a4.25,4.25,0,0,0-1.1.2,20,20,0,0,0-2.4.4,5.85,5.85,0,0,1-1.3.2,18.92,18.92,0,0,0-2.3.5c-.4.1-.8.2-1.3.3l-2.6.6a3,3,0,0,1-1,.2,35.74,35.74,0,0,0-3.5,1c-.2.1-.4.1-.6.2-.8.2-1.6.5-2.4.7L58.6,226c-.4-.3-.7-.6-1.1-.9l-2.3-2c-.2-.2-.4-.3-.6-.5-.9-.9-1.9-1.8-2.8-2.7l-.9-.9-2-2c-.3-.4-.7-.7-1-1.1a15.37,15.37,0,0,1-1.7-1.9c-.4-.4-.7-.8-1.1-1.2-.5-.6-1.1-1.2-1.6-1.9-.4-.4-.7-.9-1.1-1.3l-1.6-1.9-1.1-1.4a3,3,0,0,1-.5-.7c.3-.1.6-.1.9-.2l1.7-.3c.8-.2,1.7-.3,2.5-.5l1.7-.3c.8-.1,1.6-.3,2.4-.4a9.85,9.85,0,0,1,1.7-.2l2.4-.3c.6-.1,1.1-.1,1.7-.2a19.53,19.53,0,0,1,2.3-.2c.6-.1,1.1-.1,1.6-.2,1.1-.1,2.2-.1,3.2-.2.7,0,1.3-.1,2-.1s1.6-.1,2.4-.1h3.4c.1.2.2.3.3.5q1.5,2.4,3,4.5a4.23,4.23,0,0,0,.5.7m84.9,94.5a23.58,23.58,0,0,0,.4-2.8c.1-.8.3-1.6.4-2.5.1-1.1.2-2.2.3-3.4.1-.7.1-1.5.2-2.2.1-1.3.1-2.5.1-3.8v-1.8a52.53,52.53,0,0,0-.3-5.6c1.1,1.5,2.2,3,3.4,4.5a17.38,17.38,0,0,0,1.3,1.5c.8.9,1.6,1.9,2.4,2.8.5.5,1,1.1,1.6,1.6l2.4,2.4c.6.6,1.2,1.1,1.8,1.6s1.4,1.3,2.2,1.9c.1.7.2,1.5.3,2.2,0,.3.1.5.1.8.1,1.1.2,2.2.3,3.4a2.77,2.77,0,0,0,.1.9,20.9,20.9,0,0,1,.1,2.5v7a7.57,7.57,0,0,1-.1,1.5c0,.7-.1,1.4-.1,2.1,0,.5-.1.9-.1,1.4a19.42,19.42,0,0,0-.2,2.4c0,.4-.1.8-.1,1.2v.3l-.2-.2-.9-.9c-.6-.5-1.1-1.1-1.7-1.7a9.43,9.43,0,0,0-1-1c-.5-.5-1-1.1-1.5-1.6-.3-.3-.6-.7-.9-1-.5-.6-1-1.1-1.5-1.7-.3-.3-.6-.7-.9-1a22,22,0,0,1-1.4-1.8c-.2-.3-.5-.6-.7-.9-.5-.7-1.1-1.4-1.6-2.1-.2-.2-.3-.4-.5-.6-.7-.9-1.3-1.9-1.9-2.8-.1-.2-.3-.4-.4-.6a9.23,9.23,0,0,1-1.4-2M175,286.4l-.6-2.1c-.4-1.2-.8-2.4-1.3-3.6-.2-.6-.4-1.1-.6-1.7-.7-1.8-1.4-3.5-2.2-5.2,1.5,1.1,3.1,2.1,4.7,3.1a15.05,15.05,0,0,1,1.7,1c1.1.6,2.1,1.2,3.2,1.8a20,20,0,0,0,2.1,1c1,.5,2,1,3,1.4.7.3,1.5.6,2.3.9s1.7.7,2.6,1.1c.1.2.2.3.2.5q1.35,2.4,2.4,4.8c.1.1.1.2.2.4.8,1.7,1.5,3.4,2.2,5.2a3.55,3.55,0,0,0,.4.9c.6,1.7,1.2,3.5,1.8,5.3.1.3.2.7.3,1,.5,1.8,1.1,3.7,1.5,5.6v.2a.1.1,0,0,1-.1-.1c-1.8-.8-3.6-1.6-5.3-2.5a9.29,9.29,0,0,0-1-.5c-1.7-.9-3.3-1.7-4.9-2.7-.3-.2-.6-.3-.9-.5-1.6-1-3.2-2-4.8-3.1-.1-.1-.2-.2-.3-.2-1.5-1.1-3-2.1-4.4-3.3-.1-.1-.3-.2-.4-.3-.2-1-.4-1.9-.6-2.9-.2-.8-.3-1.5-.5-2.3a20.57,20.57,0,0,0-.7-3.2M237.7,255c-1,.4-2,.8-3.1,1.2a5.64,5.64,0,0,1-1.2.4c-.6.2-1.2.4-1.9.7-.6-.5-1.3-1-1.9-1.5-.2-.1-.4-.3-.6-.4l-3-2.1a5.55,5.55,0,0,1-.8-.6c-.7-.5-1.5-1-2.2-1.4-.4-.2-.7-.5-1.1-.7-.7-.4-1.3-.8-2-1.2-.4-.2-.7-.4-1.1-.6l-2.1-1.2a3.13,3.13,0,0,0-1-.5c-1-.5-2.1-1.1-3.1-1.6-.1-.1-.3-.1-.4-.2-.7-.3-1.5-.7-2.2-1l.2-.1-.2-.1c.8-.3,1.5-.7,2.3-1,.1,0,.2-.1.3-.1,1-.5,2.1-1,3.1-1.6.3-.2.6-.3.9-.5l2.1-1.2c.4-.2.7-.4,1.1-.6.7-.4,1.3-.8,2-1.2.4-.2.7-.5,1.1-.7.7-.5,1.5-.9,2.2-1.4l.9-.6,3-2.1a4.23,4.23,0,0,1,.7-.5c.6-.5,1.2-.9,1.8-1.4l1.8.6c.4.2.8.3,1.3.5l3,1.2a1.42,1.42,0,0,0,.6.2c1.2.5,2.4,1,3.6,1.6.3.2.7.3,1,.5.9.4,1.7.8,2.6,1.2a8.26,8.26,0,0,1,1.3.7c.8.4,1.5.8,2.3,1.2.5.3,1,.5,1.4.8.7.4,1.5.8,2.2,1.2a10.93,10.93,0,0,0,1.5.8c.7.4,1.5.9,2.2,1.3.5.3.9.6,1.4.9.3.2.5.3.8.5-.3.2-.5.3-.8.5-.5.3-1,.6-1.4.9-.7.4-1.5.9-2.2,1.3-.5.3-1,.6-1.4.8-.7.4-1.5.8-2.2,1.2-.5.3-.9.5-1.4.8-.8.4-1.5.8-2.3,1.2-.4.2-.9.4-1.3.6a21,21,0,0,0-2.6,1.3,9.25,9.25,0,0,0-1,.5c-1.2.5-2.4,1.1-3.6,1.6-.3-.2-.5-.2-.6-.1m-42.5,27a1.85,1.85,0,0,0-.7-.2c-.7-.2-1.4-.5-2.1-.7l-1.5-2.4a23.92,23.92,0,0,0-1.3-2.1c-.6-.9-1.3-1.8-1.9-2.7a21.41,21.41,0,0,1-1.3-1.9,31.12,31.12,0,0,0-2.3-2.8,18.26,18.26,0,0,0-1.3-1.6,50,50,0,0,0-3.9-4.1c1.8.5,3.6.9,5.5,1.3l1.9.3,3.6.6c.7.1,1.3.1,2,.2,1.2.1,2.4.3,3.6.3a14.77,14.77,0,0,1,2.1.1c1.1,0,2.1.1,3.2.1.5.5,1.1.9,1.6,1.4l.6.6c.8.8,1.6,1.5,2.4,2.3a5.72,5.72,0,0,1,.7.8c.5.6,1.1,1.1,1.6,1.7.3.3.6.7.9,1,.5.5.9,1.1,1.4,1.6.3.4.6.7.9,1.1l1.3,1.6.9,1.2a19.23,19.23,0,0,0,1.3,1.7,8.34,8.34,0,0,1,.8,1.2c.4.6.9,1.3,1.3,1.9.2.4.5.7.7,1.1,0,.1.1.1.1.2H217c-.4,0-.7-.1-1.1-.1-.8-.1-1.7-.1-2.5-.2-.4,0-.9-.1-1.3-.1l-2.2-.3c-.5-.1-.9-.1-1.4-.2l-2.1-.3a6.88,6.88,0,0,0-1.3-.2c-.7-.1-1.5-.3-2.2-.4l-1.2-.3c-.8-.2-1.6-.4-2.5-.6-.3-.1-.6-.1-.9-.2-.9-.3-2-.6-3.1-.9M174.7,177.1v4.8c0,.9-.1,1.7-.1,2.5a2.77,2.77,0,0,1-.1.9c-.1,1.1-.2,2.2-.3,3.4,0,.3-.1.5-.1.8-.1.7-.2,1.5-.3,2.2-.7.6-1.4,1.3-2.1,1.9s-1.3,1.1-1.8,1.6c-.8.8-1.6,1.6-2.3,2.4-.5.6-1.1,1.1-1.6,1.6-.8.9-1.6,1.9-2.4,2.8a17.41,17.41,0,0,1-1.2,1.4c-1.2,1.5-2.3,3-3.4,4.5a52.53,52.53,0,0,0,.3-5.6v-2c0-1.2,0-2.4-.1-3.6a16.41,16.41,0,0,0-.2-2.3c-.1-1.1-.1-2.2-.3-3.3a21.66,21.66,0,0,0-.4-2.5,25.12,25.12,0,0,0-.4-2.7c.4-.6.8-1.3,1.2-1.9.1-.2.3-.4.4-.6.6-.9,1.2-1.9,1.9-2.8.2-.2.3-.5.5-.7.5-.7,1-1.4,1.5-2,.3-.3.5-.7.8-1l1.4-1.7c.3-.4.6-.7.9-1.1.5-.5.9-1.1,1.4-1.6.3-.4.7-.7,1-1.1.5-.5,1-1,1.5-1.6l1-1,1.6-1.6a9,9,0,0,1,1-.9l.2-.2v.3c0,.4.1.8.1,1.1a21.05,21.05,0,0,1,.2,2.5c0,.4.1.9.1,1.3a17.7,17.7,0,0,1,.1,2.3,6.6,6.6,0,0,0,.1,1.4,14.08,14.08,0,0,0-.1,2.1m43.4,103.3c-1.1-1.5-2.2-3-3.4-4.5-.2-.3-.5-.6-.7-.9l-3.6-4.2c-.2-.2-.3-.4-.5-.6-1.2-1.2-2.3-2.4-3.5-3.6l-.3-.3h.2l-.1-.1c.8-.1,1.7-.1,2.5-.2h.3c1.1-.1,2.3-.2,3.5-.4a3.55,3.55,0,0,0,1-.2,20,20,0,0,0,2.4-.4,5.07,5.07,0,0,1,1.3-.2,18.92,18.92,0,0,0,2.3-.5c.4-.1.8-.2,1.3-.3l2.5-.6a3.55,3.55,0,0,1,1-.2c1.2-.3,2.3-.6,3.5-1a2.35,2.35,0,0,1,.8-.2c.7-.2,1.5-.5,2.2-.7l1.5,1.2c.4.3.7.6,1.1.9l2.4,2.1.5.5c1,.9,1.9,1.8,2.8,2.7l.8.8,2,2c.3.4.7.7,1,1.1.6.6,1.2,1.3,1.8,1.9.3.4.7.8,1,1.2.6.6,1.1,1.3,1.7,1.9.4.4.7.8,1.1,1.2.5.7,1.1,1.3,1.6,2,.3.4.7.9,1,1.3.2.2.4.5.6.7-.3.1-.6.1-.9.2a11.63,11.63,0,0,0-1.8.4c-.7.1-1.4.3-2.2.4s-1.4.3-2.2.4l-1.6.3c-.9.1-1.7.3-2.6.4-.3,0-.6.1-.9.1a114.07,114.07,0,0,1-16.3,1h-1.4c-.1-.2-.2-.3-.3-.5q-1.5-2.4-3-4.5a.92.92,0,0,0-.4-.6M202,146.9c.1,2.3.1,4.5.1,6.8v1.2c0,2.3-.1,4.5-.3,6.7a2,2,0,0,1-.1.8c-.2,2.2-.4,4.5-.7,6.6v.2c-.3,2.2-.6,4.3-1,6.4,0,.2-.1.4-.1.6a1.42,1.42,0,0,1-.6.2c-1.7.7-3.4,1.4-5,2.2l-.6.3c-1.7.8-3.4,1.7-5,2.6-.3.2-.7.4-1,.6-1.6.9-3.2,1.8-4.7,2.8-.2.1-.4.3-.6.4-1.4.9-2.8,1.9-4.2,2.9-.1.1-.2.1-.3.2v-.2l-.2.1v-.5c.2-1.6.3-3.3.4-5V182c.1-1.8.1-3.6.1-5.4v-1.2a54,54,0,0,0-.3-5.6,1.7,1.7,0,0,0-.1-.7c-.2-1.7-.4-3.5-.6-5.3a1.7,1.7,0,0,0-.1-.7l1.5-1.2c.3-.3.7-.6,1-.9a23.48,23.48,0,0,1,2.5-1.9,2.18,2.18,0,0,0,.5-.4c1-.8,2.1-1.6,3.1-2.3l1-.7c.8-.5,1.5-1.1,2.3-1.6a9.13,9.13,0,0,1,1.3-.8c.7-.5,1.4-.9,2.1-1.4.5-.3,1-.6,1.4-.9a23.92,23.92,0,0,0,2.1-1.3l1.5-.9,2.1-1.2c.5-.3,1-.6,1.6-.9a5.94,5.94,0,0,1,.8-.4,1.49,1.49,0,0,1,.1.6m9,92.9c-1,.5-2.1.9-3.1,1.4a4.88,4.88,0,0,1-.7.3,18,18,0,0,1-2.1.8l-2.7-.9c-.8-.2-1.5-.5-2.3-.7l-3.3-.9c-.7-.2-1.4-.4-2.2-.6-1.2-.3-2.4-.5-3.6-.7-.6-.1-1.3-.3-1.9-.4-1.9-.3-3.7-.5-5.6-.7,1.7-.8,3.4-1.6,5-2.5a8.64,8.64,0,0,0,1.6-1c1.1-.6,2.1-1.2,3.2-1.9.6-.4,1.3-.9,1.9-1.3.9-.6,1.8-1.2,2.7-1.9.7-.5,1.3-1,1.9-1.5s1.5-1.1,2.2-1.7a17.7,17.7,0,0,1,2.3.1h.7c1.1.1,2.3.1,3.4.2.3,0,.5.1.8.1l2.6.3c.4.1.8.1,1.2.2l2.2.3a5.85,5.85,0,0,0,1.3.2c.7.1,1.4.3,2.1.4l1.3.3c.7.2,1.5.3,2.2.5.4.1.8.2,1.3.3.8.2,1.6.4,2.5.7.3.1.7.2,1,.3.1,0,.2.1.3.1-.1.1-.2.1-.2.2a5.5,5.5,0,0,0-.9.7,24.26,24.26,0,0,1-2,1.4l-1.1.8c-.6.4-1.2.8-1.9,1.2-.4.3-.8.5-1.2.8a17.39,17.39,0,0,1-1.8,1.1c-.4.2-.8.5-1.2.7-.6.4-1.3.7-1.9,1.1-.4.2-.7.4-1.1.6a24,24,0,0,1-2.3,1.1c-.1.3-.4.4-.6.5m-3.8,7.2c.2.1.5.2.7.3,1,.4,2.1.9,3.1,1.4a5.94,5.94,0,0,1,.8.4c.7.4,1.5.7,2.2,1.1a10.91,10.91,0,0,1,1.1.6,18.58,18.58,0,0,1,1.9,1.1c.4.2.8.5,1.2.7.6.4,1.2.7,1.8,1.1.4.3.8.5,1.2.8l1.8,1.2c.4.3.8.5,1.2.8.6.5,1.3.9,1.9,1.4l1,.7.2.2c-.1,0-.2.1-.3.1-.4.1-.8.2-1.1.3-.8.2-1.6.4-2.3.6l-1.3.3c-.7.2-1.4.3-2.2.5l-1.4.3a15.52,15.52,0,0,1-2.1.4,5.85,5.85,0,0,1-1.3.2l-2.2.3c-.4.1-.8.1-1.2.2l-2.5.3c-.3,0-.6.1-.9.1-1.1.1-2.3.2-3.4.2h-.8c-.7,0-1.5.1-2.2.1-.7-.6-1.5-1.2-2.3-1.8-.6-.5-1.2-1-1.9-1.5-.9-.7-1.8-1.3-2.7-1.9-.6-.4-1.2-.9-1.9-1.3-1-.6-2.1-1.2-3.1-1.8-.6-.3-1.1-.7-1.7-1a46.63,46.63,0,0,0-5-2.5c1.9-.2,3.7-.4,5.6-.7l1.8-.3c1.2-.2,2.5-.4,3.7-.7.7-.2,1.4-.4,2.2-.6,1.1-.3,2.2-.5,3.3-.9a22.5,22.5,0,0,0,2.4-.8l2.7-.9a12.44,12.44,0,0,0,2,1M177,193.6c.1-.1.3-.2.4-.3,1.4-1.1,2.8-2.2,4.3-3.2.1-.1.2-.2.3-.2a56.56,56.56,0,0,1,4.8-3.1,5.58,5.58,0,0,0,.8-.5c1.6-.9,3.2-1.8,4.9-2.7.3-.2.6-.3.9-.5,1.7-.9,3.5-1.7,5.3-2.5a.1.1,0,0,0,.1-.1v.2c-.5,1.9-1,3.8-1.5,5.6-.1.3-.2.7-.3,1-.6,1.8-1.2,3.6-1.8,5.3a3.55,3.55,0,0,1-.4.9c-.7,1.8-1.4,3.5-2.2,5.2-.1.1-.1.2-.2.4q-1.2,2.55-2.4,4.8c-.1.2-.2.3-.3.5-.9.3-1.7.7-2.6,1s-1.5.6-2.3.9c-1,.4-2,.9-3,1.4a20,20,0,0,0-2.1,1c-1.1.6-2.2,1.2-3.2,1.8-.5.3-1.1.6-1.7.9-1.6,1-3.2,2-4.7,3.1.8-1.7,1.5-3.4,2.2-5.2.2-.6.4-1.1.6-1.7.4-1.2.9-2.4,1.3-3.6l.6-2.1.9-3.3c.2-.7.3-1.5.5-2.3a12,12,0,0,0,.8-2.7m58.7,29.3-2.4,2.1c-.3.3-.7.6-1,.9l-1.5,1.2c-.7-.2-1.5-.5-2.2-.7-.3-.1-.5-.2-.8-.3-1.2-.3-2.3-.7-3.5-1a3.55,3.55,0,0,0-1-.2l-2.5-.6-1.3-.3c-.8-.2-1.5-.3-2.3-.5a5.85,5.85,0,0,0-1.3-.2c-.8-.1-1.6-.3-2.4-.4-.4-.1-.7-.1-1.1-.2-1.2-.2-2.3-.3-3.4-.4h-.4c-.8-.1-1.7-.1-2.5-.2l.1-.1h-.1l.3-.3,3.6-3.6.5-.5q1.8-1.95,3.6-4.2c.2-.3.5-.6.7-.9,1.2-1.5,2.3-3,3.4-4.5.1-.2.2-.3.3-.5l3-4.5c.1-.2.2-.3.3-.5H225c2.6,0,5.3.2,8,.4h.3l3.7.3c.3,0,.7.1,1,.1,1,.1,2,.2,3,.4.5.1.9.1,1.4.2.9.1,1.8.3,2.7.4.5.1,1,.2,1.6.3a22.11,22.11,0,0,1,2.5.5l1.7.3c.3.1.6.1.9.2-.2.2-.4.5-.6.7a12.67,12.67,0,0,1-1.1,1.3c-.5.7-1.1,1.3-1.6,1.9-.4.4-.7.9-1.1,1.3-.5.6-1.1,1.2-1.6,1.9-.4.4-.7.8-1.1,1.2-.6.6-1.1,1.2-1.7,1.8a11.41,11.41,0,0,1-1.1,1.1c-.6.7-1.3,1.3-1.9,2l-.9.9c-.9.9-1.9,1.8-2.8,2.7-.2.2-.4.3-.6.5m-29.6-5.8-.6.6-2.4,2.4-.4.4c-.6.5-1.2,1.1-1.8,1.6h-.3c-.8,0-1.6.1-2.4.1a24.37,24.37,0,0,0-2.7.1,24.62,24.62,0,0,1-2.6.2l-2.9.3a29.31,29.31,0,0,0-2.9.5c-.9.1-1.7.3-2.6.4-1.8.4-3.6.8-5.4,1.3,1.3-1.3,2.6-2.7,3.9-4.1l1.2-1.5c.8-1,1.6-1.9,2.4-2.9a20.28,20.28,0,0,0,1.3-1.8c.7-.9,1.3-1.8,1.9-2.7.4-.7.9-1.4,1.3-2.1l1.5-2.4c.7-.2,1.4-.5,2.1-.7a1.85,1.85,0,0,1,.7-.2l3.3-.9c.3-.1.6-.1.9-.2l2.4-.6c.4-.1.8-.2,1.3-.3.7-.1,1.4-.3,2.1-.4a6.75,6.75,0,0,1,1.4-.2l2.1-.3c.5-.1.9-.1,1.4-.2a15,15,0,0,1,2.2-.2c.5,0,.9-.1,1.4-.1.8-.1,1.6-.1,2.4-.2.4,0,.8-.1,1.2-.1h.3a.31.31,0,0,0-.1.2c-.2.3-.5.7-.7,1-.4.7-.9,1.3-1.3,2a10.47,10.47,0,0,1-.8,1.1c-.4.6-.9,1.2-1.3,1.7a10.63,10.63,0,0,1-.9,1.1c-.4.6-.9,1.1-1.3,1.7-.3.4-.6.7-.9,1.1a21,21,0,0,0-1.4,1.7,6.47,6.47,0,0,0-.8.9,6.45,6.45,0,0,0-2.2,1.7M219.2,199l-5.4.3h-.6c-1.9.2-3.7.4-5.6.7-.4.1-.8.1-1.2.2-1.8.3-3.6.6-5.4,1-.3.1-.5.1-.8.2-1.6.4-3.3.8-4.9,1.3-.1,0-.3.1-.4.1l.1-.2-.2.1c.1-.1.1-.3.2-.4.7-1.5,1.4-3,2.1-4.6.1-.2.2-.5.3-.7.7-1.7,1.3-3.4,1.9-5.1.1-.4.3-.7.4-1.1.6-1.8,1.1-3.6,1.7-5.4.1-.2.1-.4.2-.6.5-1.7.9-3.5,1.3-5.3a1.42,1.42,0,0,1,.2-.6c.2-.1.4-.1.6-.2a64.52,64.52,0,0,1,6.2-2.1h.2c2.1-.7,4.3-1.3,6.5-1.8.3-.1.5-.1.8-.2,2.1-.5,4.3-1,6.5-1.4a5,5,0,0,1,1.2-.2c2.2-.4,4.4-.8,6.7-1.1a.9.9,0,0,0,.5-.1c-.1.2-.1.3-.2.5-.7,2.1-1.4,4.2-2.2,6.3-.2.4-.3.8-.5,1.2-.8,2.1-1.6,4.1-2.5,6.1a5.94,5.94,0,0,1-.4.8c-.9,2-1.9,4-2.9,6,0,.1-.1.1-.1.2-1,2-2.1,3.9-3.2,5.7-.1.2-.2.3-.3.5a2.81,2.81,0,0,0-.8-.1m-55.8-64a12.67,12.67,0,0,0,1.1-1.3c.2-.2.4-.5.6-.7.1.3.2.5.3.8.2.6.5,1.2.7,1.8a19.45,19.45,0,0,1,.8,2.2c.2.6.4,1.2.6,1.7a18.66,18.66,0,0,1,.7,2.2c.2.6.4,1.1.6,1.7.2.8.5,1.5.7,2.3.2.5.3,1.1.5,1.6.2.8.5,1.6.7,2.5.1.5.3.9.4,1.4.3,1.2.6,2.5.9,3.7.1.4.1.7.2,1l.6,2.7.3,1.5c.1.6.2,1.2.3,1.7-.6.6-1.2,1.1-1.9,1.7l-.4.4c-.9.9-1.8,1.7-2.6,2.6a4.35,4.35,0,0,0-.6.7c-.6.7-1.3,1.3-1.9,2-.3.3-.5.6-.8.9-.5.6-1.1,1.2-1.6,1.8-.3.3-.5.6-.8.9-.5.7-1.1,1.3-1.6,2-.2.3-.4.5-.6.8-.7.9-1.4,1.9-2.1,2.8,0,.1-.1.1-.1.2-.5.7-1,1.4-1.5,2.2v-.2l-.1.2a25,25,0,0,0-.7-2.6c0-.1,0-.2-.1-.2-.3-1.1-.6-2.2-1-3.3-.1-.3-.2-.7-.3-1-.3-.8-.5-1.5-.8-2.3-.1-.4-.3-.8-.4-1.2a19.45,19.45,0,0,1-.8-2.2c-.2-.4-.3-.8-.5-1.2-.3-.8-.7-1.6-1-2.4-.1-.3-.3-.6-.4-.9-.5-1.1-1-2.2-1.6-3.3l-.3-.6c-.4-.7-.7-1.4-1.1-2.1.3-.5.6-1.1.9-1.6s.5-.8.7-1.2c.5-.9,1-1.7,1.6-2.6.1-.2.3-.5.4-.7.7-1.1,1.4-2.2,2.1-3.2.2-.3.5-.7.7-1,.5-.7,1-1.5,1.6-2.2a14.63,14.63,0,0,0,.9-1.3c.5-.7,1-1.3,1.5-2,.3-.4.7-.9,1-1.3.5-.6,1-1.3,1.5-1.9.4-.4.7-.9,1.1-1.3a7.82,7.82,0,0,1,1.6-2.2m-34.5-4c-.5-.6-1-1.1-1.5-1.7a209.63,209.63,0,0,1,18.1-32.9,205,205,0,0,1,18.1,32.9c-.5.6-1.1,1.2-1.6,1.8a6.47,6.47,0,0,0-.8.9c-1,1.1-1.9,2.2-2.8,3.3h0c-.9,1.1-1.8,2.2-2.6,3.2-.3.3-.5.7-.8,1a19.52,19.52,0,0,0-1.7,2.3l-.9,1.2-1.5,2.1c-.3.4-.6.9-.9,1.3-.5.7-.9,1.4-1.3,2a9.13,9.13,0,0,0-.8,1.3c-.4.7-.9,1.4-1.3,2.1-.2.4-.5.8-.7,1.2a.76.76,0,0,0-.2.4h0c-.1-.1-.1-.2-.2-.4-.3-.4-.5-.9-.8-1.3a13.73,13.73,0,0,0-1.3-2c-.3-.4-.6-.9-.9-1.3-.4-.7-.9-1.3-1.3-2-.3-.4-.6-.9-.9-1.3-.5-.7-1-1.4-1.5-2a14.63,14.63,0,0,1-.9-1.3c-.5-.7-1.1-1.5-1.7-2.2-.3-.4-.5-.7-.8-1.1l-2.5-3.1c0-.1-.1-.1-.1-.2-.9-1.1-1.8-2.2-2.8-3.2a5.24,5.24,0,0,1-1.1-1m-6.2,10.7c.3-.8.5-1.6.8-2.3.2-.5.4-1.1.6-1.6.3-.8.6-1.5.9-2.3.2-.6.4-1.1.6-1.7.1-.3.2-.5.3-.8a4.35,4.35,0,0,1,.6.7c.4.4.8.9,1.2,1.3l1.6,1.9c.4.4.7.9,1.1,1.3.5.6,1,1.3,1.6,1.9l1,1.3c.5.7,1,1.3,1.5,2l.9,1.2c.6.8,1.1,1.5,1.6,2.3a8.65,8.65,0,0,1,.7,1c.7,1.1,1.5,2.2,2.2,3.3a2.09,2.09,0,0,0,.4.6c.6.9,1.1,1.8,1.7,2.7a7.46,7.46,0,0,0,.7,1.2,15.05,15.05,0,0,0,1,1.7,15.05,15.05,0,0,0-1.1,2.2l-.3.6c-.6,1.1-1.1,2.2-1.6,3.3-.1.3-.3.6-.4.9a24.43,24.43,0,0,0-1,2.4c-.2.4-.3.8-.5,1.2a19.45,19.45,0,0,0-.8,2.2c-.2.4-.3.8-.5,1.2-.3.8-.5,1.5-.8,2.3a4.87,4.87,0,0,1-.4,1.1c-.3,1.1-.7,2.2-1,3.3,0,.1-.1.3-.1.4l-.6,2.4-.1-.2v.2c-.4-.7-.9-1.3-1.3-2-.1-.1-.2-.3-.3-.4-.7-.9-1.3-1.8-2-2.8-.2-.3-.5-.6-.7-.9-.5-.6-1-1.3-1.5-1.9-.3-.3-.6-.7-.9-1-.5-.6-1-1.2-1.5-1.7-.3-.3-.6-.7-.9-1-.6-.6-1.2-1.3-1.8-1.9l-.7-.7-2.6-2.6c-.2-.2-.4-.3-.5-.5-.6-.6-1.2-1.1-1.8-1.6l.3-1.8c.1-.5.2-.9.3-1.4.2-1,.4-2.1.6-3.1a1.48,1.48,0,0,0,.1-.7c.3-1.3.6-2.5.9-3.8.1-.4.2-.7.3-1.1a27.59,27.59,0,0,1,.8-2.7c.1-.5.3-1,.4-1.4a22.5,22.5,0,0,1,.8-2.4,2.67,2.67,0,0,1,.2-1.8M116,202.1l.6,2.1c.4,1.2.8,2.4,1.3,3.6.2.6.4,1.1.6,1.7.7,1.7,1.4,3.5,2.2,5.2-1.5-1.1-3.1-2.1-4.7-3.1-.5-.3-1-.6-1.6-.9-1.1-.6-2.2-1.3-3.3-1.9-.6-.3-1.3-.6-2-.9-1-.5-2.1-1-3.1-1.5-.7-.3-1.5-.6-2.2-.9-.9-.4-1.8-.7-2.7-1.1a.76.76,0,0,1-.2-.4c-.9-1.6-1.7-3.2-2.5-4.9,0-.1-.1-.2-.1-.3-.8-1.7-1.5-3.5-2.2-5.2l-.3-.9c-.6-1.7-1.3-3.5-1.8-5.4-.1-.3-.2-.7-.3-1q-.9-2.85-1.5-5.7v-.2c.1,0,.1,0,.2.1,1.8.8,3.6,1.6,5.3,2.5.3.2.6.3.9.5,1.7.9,3.3,1.8,4.9,2.7a5.58,5.58,0,0,1,.8.5c1.6,1,3.2,2,4.8,3.1.1.1.2.1.3.2,1.5,1.1,3,2.2,4.4,3.3.1.1.3.2.4.3.2,1,.4,1.9.6,2.9.2.8.3,1.5.5,2.3a19.42,19.42,0,0,0,.7,3.3m-20.2,4.4c.3.1.5.2.8.3a17.23,17.23,0,0,1,2.1.7l1.5,2.4a23.92,23.92,0,0,0,1.3,2.1c.6.9,1.3,1.8,1.9,2.7.4.6.9,1.2,1.3,1.8.8,1,1.6,1.9,2.4,2.9l1.2,1.5a50,50,0,0,0,3.9,4.1c-1.8-.5-3.6-.9-5.4-1.3-.8-.2-1.5-.2-2.3-.4-1.1-.2-2.1-.4-3.2-.5l-2.8-.3a24.58,24.58,0,0,0-2.8-.2,24.37,24.37,0,0,0-2.7-.1c-.8,0-1.6-.1-2.4-.1h-.3c-.6-.5-1.1-1-1.7-1.5-.2-.2-.4-.3-.6-.5l-2.4-2.4a4.35,4.35,0,0,1-.6-.7c-.6-.6-1.2-1.2-1.7-1.8a6.47,6.47,0,0,1-.8-.9,11.51,11.51,0,0,1-1.4-1.7,10.63,10.63,0,0,1-.9-1.1,19.23,19.23,0,0,1-1.3-1.7c-.3-.4-.6-.7-.9-1.1-.4-.6-.9-1.2-1.3-1.8-.3-.4-.5-.7-.8-1.1-.5-.7-.9-1.4-1.4-2l-.6-.9c-.1-.1-.1-.2-.2-.2h.2c.4,0,.9.1,1.3.1.8.1,1.5.1,2.3.2.5,0,1,.1,1.4.1a14.92,14.92,0,0,0,2.1.2c.5.1,1,.1,1.4.2l2.1.3a6.75,6.75,0,0,0,1.4.2c.7.1,1.4.3,2.1.4l1.3.3,2.4.6c.3.1.6.1.9.2,1,.3,2.1.6,3.2,1m43.8-16.6a21.16,21.16,0,0,1-1.1-2.1c-.5-.9-.9-1.7-1.4-2.5a17.42,17.42,0,0,1,.5-2.2c.1-.2.1-.5.2-.7.3-1.1.5-2.2.8-3.3a2.92,2.92,0,0,0,.2-.9c.2-.8.5-1.6.7-2.4.1-.4.3-.8.4-1.2.2-.7.5-1.4.7-2.1.2-.4.3-.9.5-1.3a16.67,16.67,0,0,1,.8-2c.2-.4.4-.9.6-1.3.3-.7.6-1.3.9-2,.2-.4.4-.9.6-1.3a20,20,0,0,1,1-2.1l.6-1.2c0-.1.1-.1.1-.2,0,.1.1.2.1.3a9.29,9.29,0,0,1,.5,1c.4.8.7,1.5,1.1,2.3a6.12,6.12,0,0,1,.5,1.2l.9,2.1a6.94,6.94,0,0,1,.5,1.3c.3.7.5,1.3.8,2,.2.4.3.9.5,1.3.2.7.5,1.4.7,2.1.1.4.3.8.4,1.2.2.8.5,1.6.7,2.3.1.3.2.6.3,1,.3,1.1.6,2.2.8,3.3.1.3.1.6.2.9a15.52,15.52,0,0,1,.4,2.1c-.5.8-.9,1.7-1.3,2.5a21.16,21.16,0,0,0-1.1,2.1c-.5,1-1,2.1-1.4,3.1-.3.7-.6,1.3-.9,2-.5,1.2-.9,2.4-1.4,3.6-.2.5-.4,1.1-.6,1.6a55.17,55.17,0,0,0-1.6,5.4c-.5-1.8-1-3.6-1.6-5.4a8.65,8.65,0,0,0-.7-1.7c-.4-1.2-.9-2.4-1.3-3.5-.3-.7-.6-1.3-.9-2a35.31,35.31,0,0,1-1.7-3.3M132,200.5v1.8a52.53,52.53,0,0,0,.3,5.6c-1.1-1.5-2.2-3-3.4-4.5-.4-.5-.9-1-1.3-1.5-.8-.9-1.6-1.9-2.4-2.8-.5-.5-1-1.1-1.6-1.6l-2.4-2.4c-.6-.5-1.2-1-1.8-1.6s-1.4-1.3-2.2-1.9c-.1-.7-.2-1.5-.3-2.2,0-.3-.1-.5-.1-.8-.1-1.1-.2-2.2-.3-3.4a2.77,2.77,0,0,0-.1-.9,20.08,20.08,0,0,1-.1-2.5v-7a6.6,6.6,0,0,1,.1-1.4c0-.7.1-1.5.1-2.2,0-.5.1-.9.1-1.4a19.42,19.42,0,0,0,.2-2.4c0-.4.1-.8.1-1.2v-.3c.1.1.2.1.2.2a6,6,0,0,1,.8.8c.6.6,1.2,1.1,1.8,1.7a9.43,9.43,0,0,0,1,1c.5.5,1,1.1,1.5,1.6a10,10,0,0,0,1,1.1c.5.5.9,1.1,1.4,1.6.3.4.6.7.9,1.1l1.4,1.7c.3.3.5.7.8,1,.5.7,1,1.3,1.5,2,.2.3.4.5.6.8.6.9,1.3,1.8,1.9,2.8.2.2.3.5.5.7a17.39,17.39,0,0,1,1.1,1.8,28.86,28.86,0,0,0-.4,2.9c-.1.8-.2,1.6-.3,2.3-.1,1.1-.2,2.3-.3,3.4-.1.7-.1,1.5-.2,2.2-.1,1.4-.1,2.7-.1,3.9m-24.5,37c-1.9.2-3.7.4-5.6.7l-1.8.3c-1.2.2-2.5.4-3.7.7-.7.2-1.4.4-2.2.6-1.1.3-2.2.5-3.3.9a20.94,20.94,0,0,0-2.3.8l-2.7.9c-.7-.3-1.4-.5-2.1-.8-.2-.1-.5-.2-.7-.3-1-.4-2.1-.9-3.1-1.4-.3-.1-.5-.3-.8-.4-.8-.4-1.5-.7-2.3-1.1-.4-.2-.7-.4-1.1-.6-.6-.4-1.3-.7-1.9-1.1-.4-.2-.8-.5-1.2-.7-.6-.4-1.2-.7-1.8-1.1a8.34,8.34,0,0,1-1.2-.8l-1.8-1.2a10.47,10.47,0,0,1-1.1-.8l-2-1.4a8.65,8.65,0,0,0-1-.7l-.2-.2c.1,0,.2-.1.3-.1l1.2-.3c.8-.2,1.6-.4,2.3-.6l1.3-.3a14.19,14.19,0,0,1,2.2-.5l1.4-.3a15.52,15.52,0,0,1,2.1-.4,5.85,5.85,0,0,1,1.3-.2l2.2-.3c.4-.1.8-.1,1.2-.2l2.6-.3c.3,0,.6-.1.8-.1,1.1-.1,2.3-.2,3.4-.2h.7c.8,0,1.5-.1,2.3-.1.7.6,1.5,1.2,2.3,1.8.6.5,1.2,1,1.9,1.5.9.7,1.9,1.3,2.8,2l1.8,1.2c1.1.7,2.2,1.3,3.3,2l1.5.9c1.6.6,3.3,1.4,5,2.2m98-93a199.65,199.65,0,0,1,35-13.5,202.71,202.71,0,0,1-7.3,36.8c-.2,0-.5.1-.7.1-2.4.3-4.8.7-7.1,1.1h0c-2.3.4-4.6.9-6.9,1.4a3.55,3.55,0,0,1-1,.2c-2.1.5-4.2,1.1-6.3,1.7-.4.1-.8.2-1.1.3-2.1.6-4.1,1.3-6.1,2a.35.35,0,0,0-.2.1v-.1h0v-.2c.4-2.1.6-4.2.9-6.3,0-.4.1-.8.1-1.2.2-2.1.4-4.3.5-6.5a4.1,4.1,0,0,1,.1-1.1c.1-2.3.2-4.6.2-7v-.1c0-2.4,0-4.8-.1-7.2v-.5m-68,160.9c-.2-.7-.3-1.5-.5-2.2.5-.9.9-1.7,1.4-2.6a19.83,19.83,0,0,0,1.1-2c.5-1,1-2.1,1.4-3.1.3-.7.6-1.3.9-2,.5-1.1.9-2.3,1.3-3.4.2-.6.5-1.2.7-1.8a55.17,55.17,0,0,0,1.6-5.4c.5,1.8,1,3.6,1.6,5.4.2.6.5,1.2.7,1.8.4,1.2.9,2.4,1.3,3.5.3.7.6,1.3.9,2,.5,1,.9,2.1,1.4,3.1a21.16,21.16,0,0,0,1.1,2.1c.5.9.9,1.7,1.4,2.6-.1.7-.3,1.4-.4,2.1-.1.3-.1.6-.2.9-.3,1.1-.5,2.2-.8,3.2-.1.3-.2.7-.3,1a20.16,20.16,0,0,1-.7,2.3c-.1.4-.3.8-.4,1.3-.2.7-.5,1.4-.7,2-.2.4-.3.9-.5,1.3a16.67,16.67,0,0,1-.8,2c-.2.4-.3.9-.5,1.3l-.9,2.1a6.12,6.12,0,0,0-.5,1.2,24,24,0,0,1-1.1,2.3,9.29,9.29,0,0,0-.5,1c0,.1-.1.2-.1.3,0-.1-.1-.1-.1-.2l-.6-1.2c-.3-.7-.7-1.4-1-2.1-.2-.4-.4-.9-.6-1.3-.3-.7-.6-1.3-.9-2-.2-.5-.4-.9-.6-1.3-.3-.7-.5-1.3-.8-2-.2-.4-.3-.9-.5-1.3-.2-.7-.5-1.4-.7-2.1-.1-.4-.3-.8-.4-1.2a21.72,21.72,0,0,1-.7-2.4l-.3-.9c-.3-1.1-.6-2.2-.8-3.3a1.23,1.23,0,0,0,.1-1m31.2-173.1c-.3-.7-.6-1.5-.9-2.2A205.23,205.23,0,0,1,196,105.4a217.48,217.48,0,0,1,5.8,37.1c-.7.4-1.4.7-2.1,1.1l-1.2.6c-1.3.7-2.5,1.4-3.7,2.1h0c-1.2.7-2.4,1.4-3.6,2.2-.4.2-.7.5-1.1.7-.8.5-1.6,1-2.4,1.6a8.34,8.34,0,0,1-1.2.8l-2.1,1.5a14.63,14.63,0,0,1-1.3.9c-.7.5-1.3,1-2,1.5l-1.2.9c-.7.5-1.3,1-2,1.6-.4.3-.7.6-1.1.9a1.38,1.38,0,0,1-.4.3v-.1h0c0-.1-.1-.3-.1-.4-.1-.5-.2-1-.3-1.4-.2-.8-.3-1.6-.5-2.4l-.3-1.5-.6-2.4c-.1-.5-.3-1-.4-1.6a21.72,21.72,0,0,0-.7-2.4c-.1-.5-.3-1-.4-1.5-.3-.9-.5-1.8-.8-2.6-.1-.4-.3-.9-.4-1.3-.4-1.3-.8-2.5-1.3-3.8v-.1c-.5-1.3-1-2.7-1.5-4a4.67,4.67,0,0,0-.4-1.4M251.8,202l-1.3-.3c-1.3-.3-2.6-.5-3.9-.7-.3,0-.5-.1-.8-.1l-3.5-.6c-.6-.1-1.1-.1-1.7-.2l-2.4-.3c-.6-.1-1.2-.1-1.8-.2s-1.5-.1-2.2-.2a11.48,11.48,0,0,0-1.9-.1,15.48,15.48,0,0,0-2.2-.1c-.6,0-1.2-.1-1.8-.1a17.7,17.7,0,0,1-2.3-.1h-2a.35.35,0,0,1,.1-.2c1-1.8,2-3.7,3-5.6a5.36,5.36,0,0,0,.5-1.1,62.84,62.84,0,0,0,2.7-5.9c.1-.3.3-.6.4-.9a132.34,132.34,0,0,0,4.9-13.4c.1-.2.1-.4.2-.6a215.35,215.35,0,0,1,37.5-.8,202.11,202.11,0,0,1-19.4,32.1,6.46,6.46,0,0,0-2.1-.6M269.4,26.7c11.7,0,14.5,9.9,14.5,19.4,0,3.8-.5,11.4-4.3,16.5-3.4,4.6-8.6,5.2-11.1,5.2-13.9,0-14.8-13.2-14.8-19.6-.1-4.8-.1-21.5,15.7-21.5M244.2,93.3H254V67.1c2.8,4.6,8.5,7.9,16.2,7.9,12.6,0,24.1-8.6,24.1-28.3s-10.8-27.3-22.2-27.3c-4.3,0-13.1,1.3-18,9.6l-.2-8.7h-10c.2,5.1.3,6.3.3,8.6V93.3ZM211.3,25.5c13.8,0,14.8,15.3,14.8,20.5,0,8.6-3.1,20.5-15.3,20.5-14.7,0-14.7-16.5-14.7-20,.1-3.3.1-21,15.2-21M196.1,65a16.94,16.94,0,0,0,5.2,5.4,20.61,20.61,0,0,0,11.8,3.4c7.3,0,14.3-3.1,18.5-9,2.6-3.5,5-9.1,5-19.3,0-11.6-3.6-16.8-6.2-19.9-4.8-5.5-11.5-6.7-16.7-6.7-12,0-15.9,6.6-17.2,9V0h-9.9V63.5l-.2,9.5H196Z"/></svg>