<svg id="Layer_1" data-name="Layer 1" xmlns="http://www.w3.org/2000/svg" width="462.62" height="90.4" viewBox="0 0 462.62 90.4"><defs><style>.cls-1{fill:#272d35;fill-rule:evenodd;}</style></defs><polygon class="cls-1" points="184.32 77 230.32 77 230.32 90.4 184.32 90.4 184.32 77"/><polygon class="cls-1" points="243.02 77 288.92 77 288.92 90.4 243.02 90.4 243.02 77"/><polygon class="cls-1" points="302.22 77 348.12 77 348.12 90.4 302.22 90.4 302.22 77"/><polygon class="cls-1" points="361.22 77 407.12 77 407.12 90.4 361.22 90.4 361.22 77"/><polygon class="cls-1" points="419.82 77 462.62 77 462.62 90.4 419.82 90.4 419.82 77"/><path class="cls-1" d="M35.52,38.3c-.3,6.1-2.3,7.9-5.3,7.9-5.8,0-6.3-6.6-6.3-15.5,0-9.4.6-15.5,6.5-15.5,2.8,0,5.2,1.3,5.6,7.9h21.1C57,6,44.62,0,29.92,0,10.22,0-.58,12.3,0,30.4c0,18.5,9.5,30.9,29.9,30.9,14.4,0,27.3-7,27.3-23.1l-21.7.1Z"/><path class="cls-1" d="M176.82,37.4c-1.1-4.4-4.2-6.9-9.8-7.3v-.2c8.6-2.1,11.4-7.1,11.4-13.7,0-10.9-7.3-14.6-19.6-14.6h-34.1V59.3h22.4V38.7h2.6c3.7,0,5.1,1.1,5.6,4,.8,5,0,3.6,2,16.5h22.4C178.62,48.7,178.12,42.3,176.82,37.4Zm-29-12.7h-1.9v-11H148c4.5,0,7.4.9,7.4,5.1S152.22,24.7,147.82,24.7Z"/><path class="cls-1" d="M103,1.6H73.12L54.42,59.9h22.1l2.3-9.4h16.7l2.2,9.4h23.9Zm-20.3,35,5.1-21.9H88l4.6,21.9Z"/><path class="cls-1" d="M185.12,60.1h23.5V23.9c0-4.6,2-6.5,4.3-6.5s4.1,2.2,4.1,6.3V60.2h23.5V23.9c0-4.6,2-6.5,4.3-6.5s4.1,2.2,4.1,6.3V60.2h23.5V21.4c0-15.4-7.1-21.2-16.9-21.2-5.5,0-11.4,2.2-15.4,10.5-3-7.2-8.4-10.5-15.9-10.5-5.5,0-11.4,2.2-15.4,10.5h-.2L208,1.9h-22.9V60.1Z"/><polygon class="cls-1" points="379.22 60.2 402.72 60.2 386.62 29.3 399.72 2.7 375.22 2.7 368.72 21 360.82 2.7 336.32 2.7 350.62 29.3 334.92 60.2 358.72 60.2 368.72 39.1 379.22 60.2"/><path class="cls-1" d="M306.82,1.1c-14.2,0-28,3.3-28.9,18.8h22.3c.3-4.8,2.1-6,5.5-6,3.8,0,5.2,1.7,5.2,4.6v6h-3.2c-21,0-32.1,5.8-32.1,20.1,0,11.3,8,17.5,19.4,17.5,6.1,0,12-1.9,15.9-7.2l.7,5.5h23.6v-39C335.22,8.1,328.32,1.1,306.82,1.1Zm2.3,39.2c0,4.7-1.5,7.8-6.1,7.8-4.1,0-6.2-2.3-6.2-6,0-3.2,1.6-6.7,8.7-6.7h3.7v4.9Z"/><path class="cls-1" d="M408.92,1.8a6.19,6.19,0,0,0-6.1,6.1,6.1,6.1,0,1,0,6.1-6.1Zm0,11.5a5.35,5.35,0,1,1,5.3-5.4A5.29,5.29,0,0,1,408.92,13.3ZM410,7.8a1.61,1.61,0,0,0,1.2-1.6c0-1.6-1.7-1.6-2.2-1.6h-2.3v6.5h.9v-3h1.1c1.1,0,1.3.2,1.4,1.2a8.92,8.92,0,0,0,.3,1.7h.9a11.21,11.21,0,0,1-.4-2.1C410.92,8.2,410.72,7.9,410,7.8Zm-1-.4h-1.4v-2H409c.5,0,1.3,0,1.3,1S409.52,7.4,409,7.4Z"/></svg>