<svg id="Grey" xmlns="http://www.w3.org/2000/svg" viewBox="0 0 480 270"><defs><style>.cls-1{fill:#272d35;}</style></defs><g id="Cisco"><rect class="cls-1" x="182.96" y="157.76" width="11.52" height="45.63"/><path class="cls-1" d="M287.33,170.84a20.11,20.11,0,0,0-9.69-2.44c-7.44,0-12.61,5.19-12.61,12.18,0,6.78,5,12.18,12.61,12.18a20.36,20.36,0,0,0,9.69-2.42v12.25a37,37,0,0,1-10.49,1.62c-12.95,0-24.32-8.93-24.32-23.63C252.52,167,262.8,157,276.84,157a35.11,35.11,0,0,1,10.49,1.64Z"/><path class="cls-1" d="M167.13,170.84a20,20,0,0,0-9.67-2.44c-7.46,0-12.62,5.19-12.62,12.18,0,6.78,4.95,12.18,12.62,12.18a20.24,20.24,0,0,0,9.67-2.42v12.25a36.75,36.75,0,0,1-10.5,1.62c-12.94,0-24.3-8.93-24.3-23.63,0-13.63,10.29-23.63,24.3-23.63a35,35,0,0,1,10.5,1.64Z"/><path class="cls-1" d="M347.67,180.58c0,13-10.08,23.63-24.11,23.63s-24.1-10.58-24.1-23.63S309.52,157,323.56,157s24.11,10.59,24.11,23.63m-24.11-12a12,12,0,1,0,11.91,12,11.8,11.8,0,0,0-11.91-12"/><path class="cls-1" d="M238.15,168.14a38.93,38.93,0,0,0-9-1.4c-4.62,0-7.13,1.55-7.13,3.74,0,2.78,3.39,3.75,5.28,4.35l3.18,1c7.47,2.38,10.88,7.5,10.88,13.06,0,11.46-10.08,15.31-18.89,15.31A67.57,67.57,0,0,1,210,203v-10.5a42.86,42.86,0,0,0,10.88,1.7c5.72,0,8.36-1.67,8.36-4.26,0-2.31-2.28-3.65-5.14-4.55l-2.45-.79c-6.42-2-11.77-5.8-11.77-13.35,0-8.54,6.39-14.27,17-14.27a48.52,48.52,0,0,1,11.22,1.46Z"/><path class="cls-1" d="M120.12,108.72a5.72,5.72,0,0,0-11.43,0v12a5.72,5.72,0,0,0,11.43,0Z"/><path class="cls-1" d="M151.52,93a5.72,5.72,0,0,0-11.43,0v27.7a5.72,5.72,0,0,0,11.43,0Z"/><path class="cls-1" d="M182.93,71.49a5.72,5.72,0,0,0-11.43,0v60.6a5.72,5.72,0,0,0,11.43,0Z"/><path class="cls-1" d="M214.33,93a5.72,5.72,0,0,0-11.43,0v27.7a5.72,5.72,0,0,0,11.43,0Z"/><path class="cls-1" d="M245.7,108.72a5.7,5.7,0,0,0-11.4,0v12a5.7,5.7,0,1,0,11.4,0Z"/><path class="cls-1" d="M277.12,93a5.7,5.7,0,1,0-11.4,0v27.7a5.7,5.7,0,1,0,11.4,0Z"/><path class="cls-1" d="M308.54,71.49a5.7,5.7,0,0,0-11.4,0v60.6a5.7,5.7,0,1,0,11.4,0Z"/><path class="cls-1" d="M340,93a5.74,5.74,0,0,0-11.47,0v27.7a5.74,5.74,0,0,0,11.47,0Z"/><path class="cls-1" d="M371.31,108.72a5.7,5.7,0,0,0-11.4,0v12a5.7,5.7,0,1,0,11.4,0Z"/><polygon class="cls-1" points="364.72 197.39 364.72 198.11 362.69 198.11 362.69 203.4 361.85 203.4 361.85 198.11 359.81 198.11 359.81 197.39 364.72 197.39"/><polygon class="cls-1" points="365.15 197.39 366.46 197.39 368.25 202.32 368.29 202.32 370.02 197.39 371.31 197.39 371.31 203.4 370.45 203.4 370.45 198.47 370.43 198.47 368.6 203.4 367.81 203.4 366.03 198.47 365.99 198.47 365.99 203.4 365.15 203.4 365.15 197.39"/></g></svg>