<svg id="Grey" xmlns="http://www.w3.org/2000/svg" viewBox="0 0 480 270"><defs><style>.cls-1{fill:#272d35;}</style></defs><g id="Citrix"><path class="cls-1" d="M166.62,101.66a9.95,9.95,0,1,0-10-10A10,10,0,0,0,166.62,101.66Z"/><rect class="cls-1" x="158.66" y="105.94" width="16.03" height="58.22"/><path class="cls-1" d="M296,168.34a10,10,0,1,0,9.95,9.95A10,10,0,0,0,296,168.34Z"/><rect class="cls-1" x="287.94" y="105.94" width="16.03" height="58.22"/><path class="cls-1" d="M142.46,142.72l-.51.65a15.83,15.83,0,0,1-5.94,4.86,17.51,17.51,0,0,1-7.11,1.55,14.46,14.46,0,0,1-10.55-4,13.9,13.9,0,0,1-4.1-10.33c0-4.51,1.36-8.19,4-10.94a14.21,14.21,0,0,1,10.6-4.15,17.61,17.61,0,0,1,7.15,1.53,13.39,13.39,0,0,1,5.88,4.85l.53.76,8.78-13.38-.4-.36a33.31,33.31,0,0,0-14.78-8.1,38.85,38.85,0,0,0-8.74-.91,28.58,28.58,0,0,0-21.25,8.68c-5.61,5.75-8.46,13.06-8.46,21.73s2.84,16,8.45,21.65,12.76,8.6,21.26,8.6a34.84,34.84,0,0,0,8.69-.92,32.25,32.25,0,0,0,15.12-9.11l.35-.38Z"/><polygon class="cls-1" points="181.41 105.94 181.41 120.26 196.67 120.26 196.67 164.17 212.75 164.17 212.75 120.26 227.94 120.26 227.94 105.94 181.41 105.94"/><path class="cls-1" d="M266.22,141.21a16,16,0,0,0,8.91-5.49,17.61,17.61,0,0,0,3.38-11.11c0-6.42-2-11.2-5.86-14.2s-10.51-4.47-19.86-4.47h-18v58.23h16.09V143.69L263,164.17h19Zm-4.35-14.72c0,2.3-.68,3.94-2.08,5s-3.74,1.65-6.85,1.65h-2.07V119.26h2.32c3.2,0,5.48.56,6.77,1.67S261.87,123.89,261.87,126.49Z"/><polygon class="cls-1" points="337.63 145.75 349.59 164.17 368.11 164.17 347.51 133.4 366.13 105.94 347.56 105.94 337.64 121.21 327.69 105.94 309.12 105.94 327.74 133.4 307.14 164.17 325.66 164.17 337.63 145.75"/><path class="cls-1" d="M375.31,105.82a7.09,7.09,0,1,0,7.08,7.08A7.1,7.1,0,0,0,375.31,105.82Zm0,13a5.91,5.91,0,1,1,5.9-5.92A5.93,5.93,0,0,1,375.31,118.82Z"/><path class="cls-1" d="M378.62,111.24c0-2-1.62-2.32-2.58-2.32h-3.58v7.88h1.25v-3.24h1.77l2,3.19,0,0h1.51l-2.13-3.34A2.09,2.09,0,0,0,378.62,111.24Zm-1.26,0c0,.83-.45,1.2-1.48,1.2h-2.17V110h2.17C376.91,110,377.36,110.41,377.36,111.24Z"/></g></svg>