<svg id="Grey" xmlns="http://www.w3.org/2000/svg" viewBox="0 0 480 270"><defs><style>.cls-1{fill:#282d34;}</style></defs><path class="cls-1" d="M450.89,142.77c0-5.08-2.84-7.35-8.47-8.5s-9.07-1.69-9.07-5.62c0-2.84,2.27-4.53,6.2-4.53,5.08,0,6.8,2.26,6.8,5.07l.55.58h2.27l.57-.58c0-5.62-4.53-7.89-10.19-7.89-6.17.09-9.49,3.39-9.49,7.35,0,4.51,3.38,6.77,9.07,7.89s8.46,1.7,8.46,6.23c0,2.81-1.69,5.08-7.34,5.08-5.08,0-7.35-2.84-7.35-6.23l-.54-.54h-2.3l-.58.54c0,5.08,4,9.07,10.74,9.07,7.34,0,10.73-3.38,10.73-7.89m-24.19-5.65.27-.64v-1.69c0-7.89-4.5-13.55-12.42-13.55s-12.4,5.66-12.4,13.55v1.12c0,7.92,3.93,14.69,13,14.69a10.4,10.4,0,0,0,11.31-8.46l-.57-.58h-2.27l-.55.58a7.55,7.55,0,0,1-7.92,5.65,9.79,9.79,0,0,1-9.31-10.13l.54-.57Zm-3.38-2.85h-17l-.54-.54a9.07,9.07,0,0,1,18.14,0Zm-24.86,15.27V122.36l-.57-.57h-2.27l-.54.57v27.21l.54.55H398Zm0-32.77v-3.42l-.57-.54h-2.27l-.54.54v3.39l.54.57H398Zm-21.46,31.08c-5.66,0-9.07-4-9.07-11.88s3.38-11.85,9.07-11.85,9.07,4,9.07,11.85-3.39,11.88-9.07,11.88m9.07-1.69c0,7.31-1.7,13-8.47,13-5.08,0-6.77-2.24-7.35-5.08l-.57-.58H367.5l-.57.58c.57,4.53,4,7.92,10.73,7.92,7.35,0,11.85-4.54,11.85-15.81V122.42l-.57-.57h-1.69l-.55.57-.57,3.39h-.58a9.46,9.46,0,0,0-9.07-4.51c-7.89,0-11.85,6.2-11.85,14.67s4,14.69,11.85,14.69a9.46,9.46,0,0,0,9.07-4.5Zm-36.89-22.07c5.65,0,9.58,4.53,9.58,11.85s-3.93,11.88-9.58,11.88-9.62-4.54-9.62-11.88,4-11.85,9.62-11.85m0,26.54c7.35,0,13-5.08,13-14.69s-5.62-14.58-13-14.58-13,5.08-13,14.67,5.65,14.69,13,14.69m-17-1.12V111.14l-.55-.57h-2.26l-.58.57v38.4l.58.55h2.26ZM312,124.21c5.65,0,9.61,4.53,9.61,11.85s-4,11.88-9.61,11.88-9.58-4.53-9.58-11.88,3.93-11.85,9.58-11.85m0,26.54c7.35,0,13-5.08,13-14.69s-5.65-14.67-13-14.67-13,5.08-13,14.67,5.65,14.69,13,14.69m-16.39-1.12v-17c0-7.32-3.93-11.28-10.16-11.28a10.31,10.31,0,0,0-9.07,4.51h-.48l-.58-3.39-.57-.57H273l-.55.57v27.21l.55.55h2.26l.58-.55V134.27c0-6,2.81-10.15,9.07-10.15,4.5,0,7.32,2.84,7.32,8.46v17l.57.55h2.27Zm-28.78,0v-17c0-7.32-4-11.19-10.16-11.19a10.29,10.29,0,0,0-9.07,4.51H247V111.14l-.57-.57h-2.24l-.57.57v38.4l.57.55h2.24l.57-.55V134.27c0-6,2.85-10.15,9.07-10.15,4.51,0,7.35,2.84,7.35,8.46v17l.55.55h2.26ZM218.23,136c0-7.89,3.93-11.85,9.59-11.85a7.73,7.73,0,0,1,8.46,6.77l.58.57h2.26l.55-.57c-.55-5.63-5.08-9.5-11.85-9.5-7.35,0-13,4.51-13,14.67s5.63,14.69,13,14.69c6.77,0,11.3-4,11.85-9.58l-.55-.58h-2.26l-.58.58a7.73,7.73,0,0,1-8.46,6.77c-5.66,0-9.59-4-9.59-11.88M212,137.21l.58-.58v-1.69c0-7.89-4.54-13.55-12.43-13.55s-12.43,5.66-12.43,13.55v1.12c0,7.92,4,14.69,13,14.69A10.39,10.39,0,0,0,212,142.29l-.57-.58h-2.09l-.57.58a7.54,7.54,0,0,1-7.92,5.65,9.83,9.83,0,0,1-9.66-10c0-.08,0-.16,0-.25l.57-.57Zm-3.38-2.84H191.68l-.48-.64a9.07,9.07,0,1,1,18.14,0ZM193.5,112.93v-1.69l-.58-.58H163.47l-.57.58v1.69l.57.54H175.9l.55.58v35.49l.57.55h2.27l.54-.55V114l.58-.58h12.42Z"/><path class="cls-1" d="M162.9,142.26v7.83H137.38V110.57h9.07v31.69ZM45,150.09A19.77,19.77,0,0,0,64.21,135.3l22.38,17.48,22.34-17.45v14.76h25.49v-7.83h-16.6V110.57h-9.07v14.78L87.31,142.11l-4.8-3.75,10.37-7.9L104,121.73l-6.38-5L76.31,133.49l-4.78-3.75L93,113l-6.38-5L64.21,125.35a19.8,19.8,0,0,0-19.14-14.78h-16v39.52Zm-7-7.83V118.37h7a12.1,12.1,0,0,1,0,23.83Z"/></svg>