<svg id="Grey" xmlns="http://www.w3.org/2000/svg" viewBox="0 0 480 270"><defs><style>.cls-1{fill:#272d35;}</style></defs><path class="cls-1" d="M82.47,119.65H84.8L91.44,113l.33-2.82a29.83,29.83,0,0,0-48.54,14.55,3.65,3.65,0,0,1,2.33-.14l13.27-2.18s.68-1.12,1-1.05a16.56,16.56,0,0,1,22.66-1.73Z"/><path class="cls-1" d="M100.9,124.75a29.92,29.92,0,0,0-9-14.53l-9.31,9.32a16.57,16.57,0,0,1,6.08,13.13v1.66a8.29,8.29,0,1,1,0,16.58H72.06l-1.65,1.68v9.94l1.65,1.66H88.65a21.57,21.57,0,0,0,12.25-39.44Z"/><path class="cls-1" d="M55.46,164.09H72V150.82H55.46a8.28,8.28,0,0,1-3.43-.75l-2.33.72L43,157.43l-.58,2.33A21.43,21.43,0,0,0,55.46,164.09Z"/><path class="cls-1" d="M55.46,121a21.56,21.56,0,0,0-13,38.66l9.61-9.62a8.29,8.29,0,1,1,11-11l9.62-9.62A21.51,21.51,0,0,0,55.46,121Z"/><path class="cls-1" d="M154.54,154.82a21.2,21.2,0,0,1-15.38-6.31,21.1,21.1,0,0,1,0-30.37,21.25,21.25,0,0,1,15.38-6.43,20.61,20.61,0,0,1,14.74,5.94l-4.15,4.22a15.32,15.32,0,0,0-21.54.46,15.71,15.71,0,0,0,0,22,15.63,15.63,0,0,0,21.8.26,12.36,12.36,0,0,0,3.19-7.25h-14v-6h19.77a18.41,18.41,0,0,1,.23,3.63,18.6,18.6,0,0,1-5.1,13.74A19.75,19.75,0,0,1,154.54,154.82Zm46-4a14.24,14.24,0,0,1-19.72,0,14.16,14.16,0,0,1,0-19.79,14.26,14.26,0,0,1,19.72,0,14.14,14.14,0,0,1,0,19.79ZM185.14,147a7.55,7.55,0,0,0,10.67.36c.12-.12.24-.23.35-.36a8.94,8.94,0,0,0,0-12,7.68,7.68,0,0,0-10.84-.23l-.22.23a8.91,8.91,0,0,0,0,12Zm45.7,3.89a14.25,14.25,0,0,1-19.73,0,14.16,14.16,0,0,1,0-19.79,14.25,14.25,0,0,1,19.73,0,14.16,14.16,0,0,1,0,19.79ZM215.47,147a7.54,7.54,0,0,0,10.66.36c.12-.12.24-.23.35-.36a8.23,8.23,0,0,0,2.33-6,8.32,8.32,0,0,0-2.33-6,7.67,7.67,0,0,0-10.83-.23c-.08.08-.15.16-.23.23a8.91,8.91,0,0,0,0,12Zm35.31,20.29a12.2,12.2,0,0,1-7.76-2.47,14.26,14.26,0,0,1-4.52-5.73l5.31-2.21a8.94,8.94,0,0,0,2.64,3.47,6.66,6.66,0,0,0,4.35,1.47,7,7,0,0,0,5.43-2.1,8.51,8.51,0,0,0,1.93-6.05v-2H258a8.86,8.86,0,0,1-7.29,3.15,12.66,12.66,0,0,1-9.32-4.06,13.4,13.4,0,0,1-4-9.75,13.56,13.56,0,0,1,4-9.83,12.61,12.61,0,0,1,9.32-4.08,10,10,0,0,1,4.29,1,8.47,8.47,0,0,1,3,2.21h.21V128H264v24.8a14.45,14.45,0,0,1-3.7,10.83A13,13,0,0,1,250.78,167.26Zm.42-17.89a6.75,6.75,0,0,0,5.26-2.33,8.56,8.56,0,0,0,2.12-6,8.79,8.79,0,0,0-2.12-6.08,6.79,6.79,0,0,0-5.26-2.33,7.2,7.2,0,0,0-5.45,2.33,8.52,8.52,0,0,0-2.33,6,8.33,8.33,0,0,0,2.33,6A7.19,7.19,0,0,0,251.2,149.37Zm23-36.1V154h-6.08V113.27Zm16.68,41.55a13.21,13.21,0,0,1-9.81-4,13.44,13.44,0,0,1-3.93-9.87A13.66,13.66,0,0,1,281,131a12.48,12.48,0,0,1,9.32-3.89,11.66,11.66,0,0,1,4.66.91,10.8,10.8,0,0,1,3.56,2.32,16.56,16.56,0,0,1,2.33,2.82,17.47,17.47,0,0,1,1.38,2.73l.62,1.58-18.63,7.66a7,7,0,0,0,6.71,4.2,7.94,7.94,0,0,0,6.82-3.85l4.66,3.15a15.44,15.44,0,0,1-4.47,4.24A12.68,12.68,0,0,1,290.91,154.82Zm-7.78-14.27,12.39-5.15a4.24,4.24,0,0,0-1.93-2.12,6.4,6.4,0,0,0-3.19-.82,7.19,7.19,0,0,0-5,2.22A7.38,7.38,0,0,0,283.13,140.55Z"/><path class="cls-1" d="M334.67,154.82A19.19,19.19,0,0,1,315.15,136c0-.26,0-.52,0-.78a19.18,19.18,0,0,1,18.74-19.63h.77a17.42,17.42,0,0,1,13.82,6.15L345.13,125a12.66,12.66,0,0,0-10.43-4.77,14.22,14.22,0,0,0-10.37,4.15,16.09,16.09,0,0,0,0,21.7,14.22,14.22,0,0,0,10.37,4.15,14.82,14.82,0,0,0,11.64-5.45l3.36,3.35a18.42,18.42,0,0,1-6.45,4.92A19.69,19.69,0,0,1,334.67,154.82Z"/><path class="cls-1" d="M358.71,154h-4.82V116.37h4.82Z"/><path class="cls-1" d="M366.58,131.35a13.48,13.48,0,0,1,19,0,14.69,14.69,0,0,1,0,19.56,13.65,13.65,0,0,1-19-19.56Zm3.59,16.53a8.12,8.12,0,0,0,11.49.32l.32-.32a10.41,10.41,0,0,0,0-13.51,8.12,8.12,0,0,0-11.49-.31l-.32.31a10.35,10.35,0,0,0,0,13.49Z"/><path class="cls-1" d="M416,154h-4.66v-3.57h-.14a9,9,0,0,1-3.4,3.22,9.53,9.53,0,0,1-4.77,1.28,9.06,9.06,0,0,1-7.32-2.94,11.65,11.65,0,0,1-2.49-7.87V128.27h4.82v14.95q0,7.2,6.36,7.2a5.92,5.92,0,0,0,4.89-2.33,8.77,8.77,0,0,0,1.89-5.56V128.27H416Z"/><path class="cls-1" d="M432.4,154.82a11.27,11.27,0,0,1-8.61-3.93,15,15,0,0,1,0-19.52,11.31,11.31,0,0,1,8.61-3.94,11,11,0,0,1,5.27,1.26,8.9,8.9,0,0,1,3.49,3.15h.21l-.21-3.57v-11.9H446V154h-4.65v-3.57h-.21a9,9,0,0,1-3.5,3.15A10.9,10.9,0,0,1,432.4,154.82Zm.8-4.4a7.71,7.71,0,0,0,5.8-2.51,11,11,0,0,0,0-13.56,7.86,7.86,0,0,0-11.12-.52,6.5,6.5,0,0,0-.53.52,11,11,0,0,0,0,13.51A7.68,7.68,0,0,0,433.2,150.42Z"/></svg>