<?xml version="1.0" encoding="utf-8"?>
<!-- Generator: Adobe Illustrator 25.1.0, SVG Export Plug-In . SVG Version: 6.00 Build 0)  -->
<svg version="1.1" id="Layer_1" xmlns="http://www.w3.org/2000/svg" xmlns:xlink="http://www.w3.org/1999/xlink" x="0px" y="0px"
	 viewBox="0 0 842 595" style="enable-background:new 0 0 842 595;" xml:space="preserve">
<style type="text/css">
	.st0{fill:#272D35;}
</style>
<g>
	<polygon class="st0" points="814.1,148.1 683,148.1 691.1,125.5 814.1,125.5 	"/>
	<path class="st0" d="M464.6,125.5l121.7,0l8,22.7c0.1,0-129.6,0-129.6,0C464.7,148.1,464.6,125.5,464.6,125.5z"/>
	<path class="st0" d="M368,125.5c20.1,1.9,37.5,9.1,52.4,22.6c0,0-220.6,0-220.6,0c0,0,0-22.6,0-22.6L368,125.5z"/>
	<g>
		<rect x="26.6" y="125.5" class="st0" width="153.3" height="22.6"/>
		<path class="st0" d="M103.2,136.8"/>
	</g>
	<path class="st0" d="M814.1,190.5H668c0,0,8-22.5,7.9-22.5h138.2V190.5z"/>
	<polygon class="st0" points="609.4,190.5 464.6,190.5 464.6,168 601.5,168 	"/>
	<path class="st0" d="M437.5,168c2.9,7.4,6.3,13.8,6.3,22.5H199.7V168H437.5z"/>
	<g>
		<rect x="26.6" y="168" class="st0" width="153.3" height="22.5"/>
		<path class="st0" d="M103.2,179.3"/>
	</g>
	<polygon class="st0" points="653.1,233 661.1,210.4 770.8,210.5 770.8,233 	"/>
	<polygon class="st0" points="616.4,210.4 624.4,233 507.8,233 507.8,210.4 	"/>
	<path class="st0" d="M445.8,210.4c0,7.8-1,15.8-3.2,22.6h-66.8v-22.6H445.8z"/>
	<g>
		<rect x="69.3" y="210.5" class="st0" width="65.9" height="22.5"/>
		<path class="st0" d="M102.2,221.8"/>
	</g>
	<g>
		<rect x="244.1" y="210.4" class="st0" width="65.8" height="22.6"/>
		<path class="st0" d="M277,221.7"/>
	</g>
	<path class="st0" d="M572.6,257.4c0,0,0,17.1,0,17.1h-64.8v-22.5h123.5l7.7,21c0,0,7.4-21,7.4-21h124.4v22.5h-64.5
		c0,0,0-17.1,0-17.1l-6,17.1l-121.8,0L572.6,257.4z"/>
	<path class="st0" d="M244.1,252.1h188.8v0c-4.1,7.5-11.6,16.7-18.7,22.5c0,0-170.1,0-170.1,0C244.1,274.5,244.1,252.1,244.1,252.1z
		"/>
	<g>
		<rect x="69.3" y="252.1" class="st0" width="65.9" height="22.5"/>
		<path class="st0" d="M102.2,263.3"/>
	</g>
	<g>
		<rect x="706.3" y="294.5" class="st0" width="64.5" height="22.5"/>
		<path class="st0" d="M738.5,305.7"/>
	</g>
	<path class="st0" d="M572.6,294.5h-64.8V317c0,0,64.8,0,64.8,0C572.6,317,572.7,294.5,572.6,294.5z"/>
	<path class="st0" d="M693.3,294.5c-0.3,0-7.6,22.5-7.9,22.5l-91.8,0c-0.1,0-8.1-22.6-8.1-22.5H693.3z"/>
	<path class="st0" d="M244.1,294.5h169.7c7.8,6.5,14.8,14.4,20.2,22.5c0.3,0-190,0-190,0C244.1,317,244.1,294.5,244.1,294.5z"/>
	<path class="st0" d="M135.2,317v-22.5H69.4c0,0,0,22.5,0,22.5C69.4,317,135.1,317,135.2,317z"/>
	<g>
		<rect x="706.3" y="336.9" class="st0" width="64.5" height="22.5"/>
		<path class="st0" d="M738.5,348.1"/>
	</g>
	<g>
		<rect x="507.8" y="336.9" class="st0" width="64.8" height="22.5"/>
		<path class="st0" d="M540.2,348.1"/>
	</g>
	<path class="st0" d="M670.3,359.5c0-0.1,8-22.6,8.1-22.6h-78.1c-0.1,0,8,22.5,8,22.5S670.3,359.6,670.3,359.5z"/>
	<path class="st0" d="M244.1,359.4c0,0.1,0-22.5,0-22.5h66.7c0,0,0.1,22.5,0,22.5C310.8,359.4,244.1,359.4,244.1,359.4z"/>
	<path class="st0" d="M443.4,336.9c3.2,6.8,3.6,14.9,4.2,22.6h-70.7v-22.6H443.4z"/>
	<g>
		<rect x="69.4" y="336.9" class="st0" width="65.8" height="22.5"/>
		<path class="st0" d="M102.3,348.1"/>
	</g>
	<g>
		<rect x="706.3" y="378.4" class="st0" width="107.8" height="22.5"/>
		<path class="st0" d="M760.2,389.7"/>
	</g>
	<g>
		<rect x="464.6" y="378.4" class="st0" width="107.9" height="22.5"/>
		<path class="st0" d="M518.6,389.7"/>
	</g>
	<polygon class="st0" points="655.8,400.9 622.9,400.9 615,378.4 663.4,378.4 	"/>
	<path class="st0" d="M26.6,378.4v22.5h153.2c0.1,0-0.1-22.5,0-22.5C179.8,378.5,26.4,378.4,26.6,378.4z"/>
	<path class="st0" d="M444.8,378.4c-1.6,7.4-3.1,16.5-8.5,22.5l-2,0H199.7v-22.5H444.8z"/>
	<polygon class="st0" points="640.9,443.4 637.9,443.4 630.2,420.8 648.8,420.8 	"/>
	<g>
		<rect x="706.3" y="420.8" class="st0" width="107.8" height="22.6"/>
		<path class="st0" d="M760.2,432.2"/>
	</g>
	<path class="st0" d="M199.7,443.4v-22.5c0,0,221.3,0,221.9,0c-14.9,14.2-35.2,22.2-57.2,22.5L199.7,443.4"/>
	<g>
		<rect x="464.6" y="420.8" class="st0" width="107.9" height="22.6"/>
		<path class="st0" d="M518.6,432.2"/>
	</g>
	<path class="st0" d="M179.7,420.9c0,0-0.1,22.4,0,22.4c0.1,0-153.1,0.1-153.2,0c0,0,0-22.6,0-22.6
		C26.5,420.9,179.7,421,179.7,420.9z"/>
</g>
</svg>
