<?xml version="1.0" encoding="utf-8"?>
<!-- Generator: Adobe Illustrator 25.1.0, SVG Export Plug-In . SVG Version: 6.00 Build 0)  -->
<svg version="1.1"
	 id="svg9110" xmlns:cc="http://creativecommons.org/ns#" xmlns:dc="http://purl.org/dc/elements/1.1/" xmlns:rdf="http://www.w3.org/1999/02/22-rdf-syntax-ns#"
	 xmlns="http://www.w3.org/2000/svg" xmlns:xlink="http://www.w3.org/1999/xlink" x="0px" y="0px" viewBox="0 0 715.7 198.8"
	 style="enable-background:new 0 0 715.7 198.8;" xml:space="preserve">
<style type="text/css">
	.st0{fill:none;stroke:#272D35;stroke-width:1.2372;stroke-linecap:round;stroke-linejoin:round;stroke-miterlimit:11.3247;}
	.st1{fill:none;stroke:#272D35;stroke-width:0.5776;stroke-miterlimit:11.3247;}
	.st2{fill:#272D35;}
</style>
<g id="layer1" transform="translate(-12.765 -392.37)">
	<g id="g10346" transform="matrix(2.265 0 0 2.265 -828.33 -747.86)">
		<g id="g1120" transform="matrix(1.25 0 0 -1.25 143.53 688.48)">
			<g>
				<defs>
					<path id="SVGID_1_" d="M364.2,138.2c4.4-0.8,8.5-1.6,10.6-2.2l0.2,0.5c-2.2,0.7-6.3,1.5-10.7,2.2L364.2,138.2L364.2,138.2z
						 M374.5,133.5c-8.1-4.9-11.9-10.9-13.7-15.8c-3.6,0.3-7.2,0.6-10.7,0.8l0-0.5c3.4-0.2,7-0.4,10.5-0.7l0.1-0.1
						c4.7-4.3,7.4-9.6,7.4-14c0-0.8-0.1-1.5-0.3-2.2c-0.8,0-1.7,0.1-2.5,0.1c-0.9,0-1.8,0-2.7-0.1l0-0.5c0.9,0,1.8,0.1,2.7,0.1
						c0.9,0,1.9,0,2.8-0.1c3.6-1,5.1-2.5,5.1-3.3c0-0.2,0-0.3-0.1-0.5c-1.7-0.1-3.3-0.2-5-0.4l0.1-0.5c6.1,0.6,12.5,0.7,18.2,1.6
						c3.7-1.1,7.6-2.6,11.9-4.4l0.2,0.5c-4.2,1.8-8.1,3.3-11.7,4.4c0.1,0.5,0.2,0.9,0.2,1.4c0,5.1-5.1,11.4-9.5,15.9
						c3.9-0.7,7.6-1.5,11.2-2.4l0.1,0.5c-3.7,1-7.6,1.8-11.7,2.5c1,4.5,4.5,7.4,5.8,8.4c0.2,0.1,0.2,0.3,0.2,0.5
						c0,0.6-0.6,1.4-1.4,2.3c-2.4,2.8-7,6.7-7,6.7l-0.2,0.1L374.5,133.5L374.5,133.5z M361.4,117.6c1.7,4.8,5.4,10.5,13.2,15.3
						c0.5-0.4,2.2-1.9,4-3.6c1-1,2.1-2,2.8-2.9c0.8-0.9,1.2-1.7,1.2-2c0-0.1,0-0.1,0-0.1c-1.3-1.1-4.9-4-6-8.8
						C371.6,116.5,366.5,117.2,361.4,117.6 M368.5,100.9c0.2,0.7,0.2,1.4,0.2,2.2c0,4.5-2.6,9.7-7.2,14c5-0.5,10.1-1.2,15-2l0,0
						c4.5-4.4,9.9-11.1,9.8-16c0-0.4,0-0.9-0.1-1.3C379.6,99.7,373.8,100.6,368.5,100.9 M373.9,97c0,1.1-1.2,2.3-3.5,3.2
						c4.5-0.3,9.4-1.2,14.8-2.7c-3.6-0.5-7.5-0.7-11.4-1C373.8,96.7,373.9,96.8,373.9,97"/>
				</defs>
				<clipPath id="SVGID_2_">
					<use xlink:href="#SVGID_1_"  style="overflow:visible;"/>
				</clipPath>
			</g>
		</g>
		<g id="g1636" transform="matrix(1.25 0 0 -1.25 668.22 574.47)">
			<path id="path1638" class="st0" d="M0,0c-0.2,0-0.4,0-0.5-0.1c0-0.5-0.2-0.9-0.6-1.3c0.3-0.1,1.3,0,2.9,0.3C1-0.6,0.4-0.3,0,0z"
				/>
		</g>
		<g id="g1640" transform="matrix(1.25 0 0 -1.25 648.99 585.25)">
			<path id="path1642" class="st1" d="M0,0c-1.4,0.8-2.6,1.9-3.5,3.6L-2-1.8c1.3-0.8,2.6-1.5,3.8-1.9c0.1,0,0.3-0.1,0.4-0.1
				c3.2-1.1,6-0.9,8.3,0.6L11,0.1C6.8-1.3,3.4-1.5,0.8-0.4C0.5-0.2,0.2-0.1,0,0z"/>
		</g>
		<g id="g1644" transform="matrix(1.25 0 0 -1.25 667.72 526.09)">
			<path id="path1646" class="st0" d="M0,0l-1.8,1.8C-2,1.9-2.3,2.1-2.5,2.2C-7.9,5.1-17.6,7-31.6,8l-4.1-0.4L-16-5.6
				c2,3.2,7.8,4.7,17.3,4.2C1.4-1.3,0,0,0,0z"/>
		</g>
		<g id="g1648" transform="matrix(1.25 0 0 -1.25 611.12 516.75)">
			<path id="path1650" class="st0" d="M0,0c0.1-0.3,0.3-0.6,0.5-0.9l9.6-10l13.3-13.8l0.8-0.9l-0.4,5.2L2,1.2l26.3-16.8l1,2.5l0,0
				L9.6,0.1l-0.6,0L3.2,2.6l-3.4,1.1c-0.5-0.8-0.5-1.8,0.1-3.2C-0.2,0.4,0,0,0,0z"/>
		</g>
		<g id="g1652" transform="matrix(1.25 0 0 -1.25 647.78 533.05)">
			<path id="path1654" class="st0" d="M0,0L0,0l14.2-5.9l7.6,1.6c1.1,1.6-0.4,4.4-4.5,8.5C7.8,4.7,2,3.2,0,0z"/>
		</g>
		<g id="g1656" transform="matrix(1.25 0 0 -1.25 647.82 533.05)">
			<path id="path1658" class="st1" d="M0,0L0,0l8.5-11.9C6.9-9,8.8-7,14.2-5.9C14.2-5.9,0,0,0,0z"/>
		</g>
		<g id="g1660" transform="matrix(1.25 0 0 -1.25 670.51 552.91)">
			<path id="path1662" class="st0" d="M0,0l1.4,1L-4,10c-5.4-1.2-7.3-3.2-5.7-6C-9.7,4,0,0,0,0z"/>
		</g>
		<g id="g1664" transform="matrix(1.25 0 0 -1.25 672.22 551.65)">
			<path id="path1666" class="st0" d="M0,0l-1.4-1c-3.1-4-7.2-7-12.1-9.1l7.7-5.7l0.6-0.6l1.9-1.8c0.4-0.3,1-0.6,1.8-1
				C1.4-20.5,4.6-19,8-14.8C3.5-12.6,2.8-11,5.9-10C5.9-10,0,0,0,0z"/>
		</g>
		<g id="g1668" transform="matrix(1.25 0 0 -1.25 675.04 538.35)">
			<path id="path1670" class="st1" d="M0,0l-7.6-1.6l5.3-9c3.1-0.6,5.4,0,7,1.7C2.1-5.5,0.5-2.5,0,0z"/>
		</g>
		<g id="g1672" transform="matrix(1.25 0 0 -1.25 658.43 547.87)">
			<path id="path1674" class="st0" d="M0,0l-8.5,11.8l-1-2.5c-0.8-3-2.3-4.6-4.6-4.8l0.4-5.2l6.8-6.5C-3.5-6.6-1.2-4.2,0,0z"/>
		</g>
		<g id="g1676" transform="matrix(1.25 0 0 -1.25 670.51 552.91)">
			<path id="path1678" class="st0" d="M0,0l-9.7,4c-1.2-4.2-3.5-6.6-6.9-7.2l4.4-5.9C-7.2-7-3.1-4,0,0z"/>
		</g>
		<g id="g1680" transform="matrix(1.25 0 0 -1.25 661.98 570.69)">
			<path id="path1682" class="st0" d="M0,0c0.8-0.1,1.5-0.3,2.4-0.5l-7.7,5.7l-4.4,5.9l-6.8,6.5l4.3-20.7c0,0,0,0,0,0
				C-9.7,0-5.6,1,0,0z"/>
		</g>
		<g id="g1688" transform="matrix(1.25 0 0 -1.25 667.59 574.55)">
			<path id="path1690" class="st0" d="M0,0c0.1,0,0.3,0.1,0.5,0.1l-1.9,1.8C-2.8,0.8-4.5-0.2-6.6-1c1.2,1.5,1.9,2.9,2.1,4.1
				c-5.6,1-9.7,0-12.2-3.1c0,0,0,0,0,0c0,0,0,0,0,0c-0.8-0.6-1.4-1.3-1.7-2.1c-0.1-0.3-0.1-0.5-0.2-0.8c-0.1-0.6,0-1.3,0.2-2
				c0.9-1.6,2.1-2.8,3.5-3.6c0.3-0.1,0.5-0.2,0.8-0.4c2.7-1.1,6-0.9,10.2,0.5C-7.5-4-6.2-1.1,0,0z"/>
		</g>
		<g id="g1692" transform="matrix(1.25 0 0 -1.25 648.99 585.25)">
			<path id="path1694" class="st0" d="M0,0c-1.4,0.8-2.6,1.9-3.5,3.6L-2-1.8c1.3-0.8,2.6-1.5,3.8-1.9c0.1,0,0.3-0.1,0.4-0.1
				c3.2-1.1,6-0.9,8.3,0.6L11,0.1C6.8-1.3,3.4-1.5,0.8-0.4C0.5-0.3,0.2-0.1,0,0z"/>
		</g>
		<g id="g1696" transform="matrix(1.25 0 0 -1.25 637.04 570.15)">
			<path id="path1698" class="st0" d="M0,0c1.9-2.6,3.9-5.4,6-8.5c-0.2,0.7-0.3,1.4-0.2,2C5.9-6.2,6-5.9,6-5.7
				c0.3,0.8,0.8,1.5,1.7,2.1c0,0,0,0,0,0c0,0-0.1,0.1-0.1,0.1C2.9,2.3-0.9,9.6-3.8,18.2c0,0,0,0.1-0.1,0.1c-0.1,0.4-0.3,0.9-0.4,1.4
				c-0.3-0.3-0.5-0.7-0.8-1c0,0-0.1,0-0.1-0.1C-6,17.3-6.6,15.8-7,14.3c-0.2-0.8-0.4-1.6-0.5-2.4c-0.1-0.8-0.1-1.7-0.1-2.6
				C-7,8.4-6.3,7.7-5.5,6.8C-4.4,5.5-3.2,4.1-2,2.6c0.5-0.6,1-1.3,1.5-2C-0.4,0.6,0,0,0,0z"/>
		</g>
		<g id="g1700" transform="matrix(1.25 0 0 -1.25 646.61 574.51)">
			<path id="path1702" class="st0" d="M0,0C0,0,0,0,0,0l-4.2,20.6L-5,21.5l-7,1.7c0.1-0.5,0.3-0.9,0.4-1.4c0,0,0-0.1,0.1-0.1
				C-8.6,13-4.7,5.8,0,0z"/>
		</g>
		<g id="g1704" transform="matrix(1.25 0 0 -1.25 686.32 564.09)">
			<path id="path1706" class="st0" d="M0,0h-5.4c-3.1-1-2.4-2.7,2.2-4.9C-1.4-4.2-0.3-2.6,0,0z"/>
		</g>
		<g id="g1708" transform="matrix(1.25 0 0 -1.25 679.54 564.09)">
			<path id="path1710" class="st0" d="M0,0h5.4c0.7,1,0.8,2.1,0.1,3.3l-4.5,8.3c-1.5-1.8-3.9-2.3-7-1.7C-5.9,10,0,0,0,0z"/>
		</g>
		<g id="g1712" transform="matrix(1.25 0 0 -1.25 622.49 545.04)">
			<path id="path1714" class="st0" d="M0,0c1.3-3.4,2.7-7,4-10.9C4-10,4.1-9.1,4.1-8.3c0.1,0.9,0.3,1.7,0.5,2.4c0.4,1.6,1,3,1.9,4.3
				c0,0,0,0.1,0.1,0.1c0.2,0.4,0.5,0.7,0.8,1L1,11.8l-9.6,10l-0.4-0.2l0-0.9l0-0.5l-0.1-1.9c0.4-0.6,0.8-1.3,1.2-2
				c1.3-2.2,2.6-4.6,3.8-7.2l0.2-0.4C-3.4,7.8-3,6.9-2.6,5.9C-1.8,4.2-1,2.4-0.2,0.5C-0.2,0.5,0,0,0,0z"/>
		</g>
		<g id="g1716" transform="matrix(1.25 0 0 -1.25 631.61 545.54)">
			<path id="path1718" class="st0" d="M0,0l7-1.7L-6.3,12.1C-6.3,12.1,0,0,0,0z"/>
		</g>
		<g id="g1720" transform="matrix(1.25 0 0 -1.25 613.69 515.22)">
			<path id="path1722" class="st1" d="M0,0l21.7-21.6c2.3,0.2,3.8,1.8,4.6,4.8L0,0z"/>
		</g>
		<g id="g2088" transform="matrix(1.25 0 0 -1.25 399.11 559.93)">
			<path id="path2090" class="st2" d="M0,0L0,0l-0.1-8.6h-4.5V0h0.1c0,1.2-0.4,2.2-1.3,3c-0.9,0.8-1.9,1.3-3.2,1.3v0.1h-8.9V-8.6
				h-4.5V8.6h13.3V8.6c2.5,0,4.6-0.8,6.3-2.5C-0.9,4.4,0,2.3,0,0"/>
		</g>
		<g id="g2092" transform="matrix(1.25 0 0 -1.25 429.36 556.01)">
			<path id="path2094" class="st2" d="M0,0c0,0.7-0.4,1.1-1.1,1.1h-14.5c-0.6,0-1.1-0.2-1.6-0.6C-17.6,0-17.8-0.5-17.8-1h16.7
				C-0.4-1,0-0.7,0,0 M4.5-7.5C4-8.8,3.2-9.8,2.1-10.6c-1.2-0.8-2.4-1.2-3.9-1.2h-13.8c-1.8,0-3.4,0.6-4.7,1.9c-1.3,1.2-2,2.8-2,4.6
				V-1c0,1.8,0.6,3.3,2,4.5c1.3,1.2,2.9,1.9,4.7,1.9h14.5c1.5,0,2.9-0.5,3.9-1.6c1.1-1,1.6-2.3,1.6-3.8c0-1.5-0.5-2.7-1.6-3.8
				c-1.1-1-2.4-1.6-3.9-1.6h-16.7c0-0.6,0.2-1.1,0.6-1.5c0.4-0.4,0.9-0.6,1.6-0.6C-15.6-7.5,4.5-7.5,4.5-7.5z"/>
		</g>
		<g id="g2096" transform="matrix(1.25 0 0 -1.25 453.29 554.71)">
			<path id="path2098" class="st2" d="M0,0h-8.5v-12.9h-4.2v23.9h4.2V4.3H0C0,4.3,0,0,0,0z"/>
		</g>
		<g id="g2100" transform="matrix(1.25 0 0 -1.25 503.55 549.34)">
			<path id="path2102" class="st2" d="M0,0l-8.1-17.2h-1.3v-0.1h-3.8l-6,12.8L-25.1-17h-1.3h-3.8l-8,17.2h4.2l6.4-13.1l6.3,13.1h4.3
				L-17.1,0h0.1l6.4-13.1L-4.3,0L0,0L0,0z"/>
		</g>
		<g id="g2104" transform="matrix(1.25 0 0 -1.25 533.73 562.68)">
			<path id="path2106" class="st2" d="M0,0v4.3c0,0.6-0.2,1.1-0.6,1.5c-0.4,0.4-0.9,0.6-1.6,0.6h-13.4c-0.6,0-1.1-0.2-1.6-0.6
				c-0.4-0.4-0.6-0.9-0.6-1.5V0c0-0.6,0.2-1.1,0.6-1.5c0.4-0.4,0.9-0.6,1.6-0.6h13.4c0.6,0,1.1,0.2,1.6,0.6C-0.2-1.1,0-0.6,0,0
				 M4.5,0c0-1.8-0.7-3.3-2-4.6C1.2-5.8-0.4-6.4-2.2-6.4h-13.4c-1.8,0-3.4,0.6-4.7,1.9c-1.3,1.2-2,2.8-2,4.6v4.3
				c0,1.8,0.6,3.3,1.9,4.5c1.3,1.2,2.9,1.9,4.7,1.9h13.4c1.9,0,3.4-0.6,4.7-1.9c1.3-1.2,1.9-2.8,1.9-4.5C4.5,4.3,4.5,0,4.5,0z"/>
		</g>
		<g id="g2108" transform="matrix(1.25 0 0 -1.25 568.31 560.07)">
			<path id="path2110" class="st2" d="M0,0h-4.3c0,1.2-0.4,2.2-1.2,3s-1.8,1.3-3,1.3v0.1H-17v-13h-4.2V8.6h12.7V8.6
				c2.3,0,4.4-0.8,6-2.5C-0.8,4.4,0,2.3,0,0"/>
		</g>
		<g id="g2112" transform="matrix(1.25 0 0 -1.25 604.06 570.73)">
			<path id="path2114" class="st2" d="M0,0h-4.5v2.1c0,1.2-0.4,2.2-1.3,3C-6.6,6-7.6,6.4-8.9,6.4h-13.4V0h-4.5v17.2h4.5v-6.4h13.3
				c1.2,0,2.3,0.4,3.2,1.2c0.9,0.8,1.3,1.8,1.3,3.1v2.1H0V15c0-2.6-1-4.7-3-6.4c2-1.7,3-3.9,3-6.4C0,2.1,0,0,0,0z"/>
		</g>
		<g id="g2202" transform="matrix(1.25 0 0 -1.25 419.14 527.16)">
			<path id="path2204" class="st2" d="M0,0c0-2-0.7-3.7-2.1-5.1c-1.4-1.4-3.1-2.1-5.1-2.1h-23.9c-2,0-3.7,0.7-5.1,2.1
				C-37.6-3.7-38.2-2-38.2,0v4.7h4.7V0c0-0.7,0.2-1.2,0.7-1.7c0.5-0.5,1-0.7,1.7-0.7h23.9c0.7,0,1.2,0.2,1.7,0.7
				C-5-1.2-4.8-0.7-4.8,0v19H0C0,19,0,0,0,0z"/>
		</g>
		<g id="g2206" transform="matrix(1.25 0 0 -1.25 459.34 536.3)">
			<path id="path2208" class="st2" d="M0,0h-5v14.4h-17.4c-0.7,0-1.3-0.2-1.7-0.7c-0.5-0.5-0.7-1-0.7-1.7V7.2c0-0.7,0.2-1.2,0.7-1.7
				c0.5-0.5,1.1-0.7,1.7-0.7H-10V0h-12.4c-2,0-3.8,0.7-5.3,2.1c-1.5,1.4-2.2,3.1-2.2,5.1V12c0,2,0.7,3.6,2.2,5
				c1.5,1.4,3.2,2.1,5.3,2.1H0C0,19.1,0,0,0,0z"/>
		</g>
		<g id="g2210" transform="matrix(1.25 0 0 -1.25 493.16 524.31)">
			<path id="path2212" class="st2" d="M0,0c0,1.3-0.5,2.4-1.4,3.4c-1,0.9-2.1,1.4-3.5,1.4h-12.4c-0.7,0-1.3-0.2-1.8-0.7
				c-0.5-0.5-0.7-1-0.7-1.7v-4.8c0-0.7,0.2-1.2,0.7-1.7c0.5-0.5,1.1-0.7,1.8-0.7h12.5c1.4,0,2.5,0.5,3.5,1.4C-0.5-2.5,0-1.4,0,0
				 M5-9.6c0-2-0.7-3.7-2.2-5.1c-1.4-1.4-3.2-2.1-5.3-2.1h-24.5v4.8h24.5c0.7,0,1.3,0.2,1.8,0.7c0.5,0.5,0.7,1,0.7,1.7v1.3
				c-1.5-0.9-3.2-1.3-5-1.3h-12.4c-2.1,0-3.8,0.7-5.3,2.1c-1.5,1.4-2.2,3.1-2.2,5.1v4.8c0,2,0.7,3.6,2.2,5c1.5,1.4,3.2,2.1,5.3,2.1
				H-5c2.7,0,5.1-0.9,7-2.8C4,4.9,5,2.6,5,0C5,0,5-9.6,5-9.6z"/>
		</g>
		<g id="g2214" transform="matrix(1.25 0 0 -1.25 534.74 527.39)">
			<path id="path2216" class="st2" d="M0,0c0-2-0.7-3.7-2.1-5.1c-1.4-1.4-3.1-2.1-5-2.1H-19c-2,0-3.6,0.7-5,2.1
				C-25.4-3.7-26.1-2-26.1,0v12h4.7V0c0-0.7,0.2-1.3,0.7-1.7c0.4-0.5,1-0.7,1.7-0.7h11.9c0.6,0,1.2,0.2,1.6,0.7
				C-5-1.3-4.7-0.7-4.7,0v12H0C0,12,0,0,0,0z"/>
		</g>
		<g id="g2218" transform="matrix(1.25 0 0 -1.25 574.78 536.3)">
			<path id="path2220" class="st2" d="M0,0h-5v14.4h-17.4c-0.7,0-1.3-0.2-1.8-0.7c-0.5-0.5-0.7-1-0.7-1.7V7.2c0-0.7,0.2-1.2,0.7-1.7
				c0.5-0.5,1.1-0.7,1.8-0.7H-10V0h-12.4c-2,0-3.8,0.7-5.3,2.1c-1.5,1.4-2.2,3.1-2.2,5.1V12c0,2,0.7,3.6,2.2,5
				c1.5,1.4,3.2,2.1,5.3,2.1H0C0,19.1,0,0,0,0z"/>
		</g>
		<g id="g2222" transform="matrix(1.25 0 0 -1.25 583.47 536.3)">
			<path id="path2224" class="st2" d="M0,0v14.4h9.5c1.3,0,2.4-0.5,3.4-1.4c1.5,1.5,1.8,1.8,3.4,3.4c-1.9,1.9-4.1,2.8-6.7,2.8H-4.7
				V0C-4.7,0,0,0,0,0z"/>
		</g>
	</g>
</g>
</svg>
