<svg id="Layer_1" data-name="Layer 1" xmlns="http://www.w3.org/2000/svg" width="295.1" height="74.9" viewBox="0 0 295.1 74.9"><defs><style>.cls-1,.cls-2{fill:#272d35;}.cls-2{fill-rule:evenodd;}</style></defs><path class="cls-1" d="M277,0H213.6a5.46,5.46,0,0,0-5.5,5.4V69.5a5.46,5.46,0,0,0,5.5,5.4H277a5.46,5.46,0,0,0,5.5-5.4V5.4A5.4,5.4,0,0,0,277,0ZM230.7,62.7H219.5V28.9h11.2Zm-5.6-38.5h0c-3.8,0-6.3-2.6-6.3-5.8s2.5-5.8,6.3-5.8,6.2,2.5,6.3,5.8S229,24.2,225.1,24.2Zm46.1,38.5H260V44.6c0-4.5-1.6-7.6-5.7-7.6a6.21,6.21,0,0,0-5.8,4.1,7.32,7.32,0,0,0-.4,2.7V62.7H236.9s.1-30.6,0-33.8h11.2v4.8a11.21,11.21,0,0,1,10.1-5.6c7.4,0,12.9,4.8,12.9,15.2V62.7Zm-23-28.9v-.1c-.1,0-.1,0,0,.1Z"/><polygon class="cls-1" points="0 62.7 31 62.7 31 52.5 11.2 52.5 11.2 14.6 0 14.6 0 62.7"/><path class="cls-2" d="M46.7,62.7V28.9H35.5V62.7ZM41.1,24.3c3.9,0,6.4-2.6,6.4-5.8s-2.4-5.8-6.3-5.8-6.4,2.5-6.4,5.8a5.93,5.93,0,0,0,6.3,5.8Z"/><path class="cls-2" d="M52,62.7H63.2V43.8a7.32,7.32,0,0,1,.4-2.7A6.21,6.21,0,0,1,69.4,37c4.1,0,5.7,3.1,5.7,7.6V62.7H86.3V43.3c0-10.4-5.5-15.2-12.9-15.2a11.18,11.18,0,0,0-10.2,5.7h.1V28.9H52c.1,3.2,0,33.8,0,33.8Z"/><path class="cls-1" d="M102.1,14.6H90.9V62.7h11.2v-11l2.8-3.5,8.8,14.5h13.8l-14.8-21,12.9-14.3H112.1s-9.2,12.8-10,14.3V14.6Z"/><path class="cls-2" d="M157.6,48.6a33.3,33.3,0,0,0,.4-4.4c0-8.7-4.4-17.6-16.1-17.6-12.5,0-18.3,9.9-18.3,18.8,0,11.1,7,18,19.3,18A35.27,35.27,0,0,0,156,61.2l-1.5-7.4a30.49,30.49,0,0,1-10,1.5c-5.2,0-9.8-2.2-10.2-6.7ZM134.2,41c.3-2.9,2.2-7.1,7-7.1,5.1,0,6.3,4.5,6.3,7.1Z"/><path class="cls-2" d="M185.6,14.6v16h-.1c-1.6-2.4-5-4-9.5-4-8.6,0-16.3,6.9-16.2,18.7,0,11,6.9,18.1,15.4,18.1,4.7,0,9.1-2,11.3-5.9h.2l.4,5.1h10c-.1-2.4-.3-6.5-.3-10.5V14.6Zm0,32.4a19.48,19.48,0,0,1-.2,2.5,6.66,6.66,0,0,1-6.6,5.3c-4.7,0-7.7-3.7-7.7-9.7,0-5.5,2.6-10,7.8-10a6.7,6.7,0,0,1,6.6,5.3,13.4,13.4,0,0,1,.1,2V47Z"/><path class="cls-2" d="M248.2,33.6v.1h-.1Z"/><path class="cls-2" d="M289.5,62.1h.9V60.2h.6l1.2,1.9h.9l-1.2-2a1.23,1.23,0,0,0,1.1-1.3c0-.9-.5-1.4-1.7-1.4h-1.8v4.7Zm.8-4h.6c.5,0,1.1,0,1.1.7s-.6.7-1.1.7h-.6V58.1Zm-3.4,1.6a4.1,4.1,0,1,0,4.1-4.1,4.12,4.12,0,0,0-4.1,4.1Zm.8,0a3.4,3.4,0,1,1,3.4,3.4,3.37,3.37,0,0,1-3.4-3.4Z"/></svg>