<?xml version="1.0" encoding="utf-8"?>
<!-- Generator: Adobe Illustrator 25.1.0, SVG Export Plug-In . SVG Version: 6.00 Build 0)  -->
<svg version="1.1" id="Layer_1" xmlns="http://www.w3.org/2000/svg" xmlns:xlink="http://www.w3.org/1999/xlink" x="0px" y="0px"
	 viewBox="0 0 335 130" style="enable-background:new 0 0 335 130;" xml:space="preserve">
<style type="text/css">
	.st0{fill:#272D35;}
</style>
<path class="st0" d="M60.1,64.4c-5.3,0-9.2,0.2-12.4,0.2v-4c4.2,0,8-0.4,8-6.8V38.3H23.1v15.5c0,6.4,3.7,6.8,8,6.8v4
	c-3.2,0-7.1-0.2-12.4-0.2s-9.9,0.2-12.4,0.2v-4c4.2,0,8-0.4,8-6.8V18.9c0-6.4-3.7-6.8-8-6.8v-4c3.2,0,7.1,0.2,12.4,0.2
	s9.9-0.2,12.4-0.2v4c-4.2,0-8,0.4-8,6.8v14h32.6V19c0-6.4-3.7-6.9-8-6.9v-4c2.5,0,7.1,0.2,12.4,0.2s9.2-0.2,12.4-0.2v4
	c-4.2,0-8,0.4-8,6.8v34.9c0,6.4,3.7,6.8,8,6.8v4C70,64.6,65.4,64.4,60.1,64.4 M134.1,64.4c-5.3-0.1-8.6,0.2-11.8,0.2v-4
	c3.2,0,8.3-0.1,5.9-5.6l-4.8-11.3h-22.8l-3.7,8.9c-1.8,4.5-0.3,7.9,5.5,7.9v4c-3.2,0-5.1-0.2-10.4-0.2s-7.2,0.2-10.4,0.2v-4
	c4.2,0.1,7.2-2.1,9.8-8.1L110.8,8h7.3l20.6,47.4c1.5,3.4,3.2,5.1,7.4,5.1v4C143,64.6,139.4,64.4,134.1,64.4 M112.5,16.4L102.7,39h19
	C121.7,39,112.5,16.4,112.5,16.4z M207.4,18.9v45.7h-4.5l-37.8-42v31.2c0,5.3,4.9,6.8,9.1,6.8v4c-3.2,0-6.1-0.2-11.3-0.2
	c-5.3,0-8.3,0.2-11.5,0.2v-4c4.2,0,8-1.5,8-6.8V20.5c0-5.7-4.6-8.4-11.5-8.4v-4c0,0,5.3,0.1,8.5,0.1s8.4-0.1,8.4-0.1l36.8,40.4V18.9
	c0-5.3-4.9-6.8-9.1-6.8v-4c3.2,0,6.2,0.2,11.5,0.2s8.2-0.2,11.3-0.2v4C211.1,12.1,207.4,13.6,207.4,18.9 M256.8,64.6
	c-6,0-12.4-0.1-18.8-0.1c-5.3,0-9.9,0.1-12.4,0.1v-4c4.2,0,8-0.4,8-6.8V18.9c0-6.4-4.8-6.8-9-6.8v-4c3.2,0,8.2,0.1,13.5,0.1
	s10.1-0.1,16.1-0.1c7.4,0,13.1,0.1,17.4,0c0,0-0.2,3.4-0.2,6.6s0.2,6.5,0.2,6.5h-4c0-7.8-2.6-8.3-14.2-8.3c0,0-5.9,0-10.8,0.2v20.4
	h8.9c8.5,0,10.6-1.4,10.6-7.8h4c0,0-0.2,7-0.2,10.2s0.2,10.2,0.2,10.2h-4c0-6.4-2.1-8-10.6-8h-8.9v16.4c0,5.3,8.7,5.1,14.5,5.1
	c10.9,0,14-0.8,14-9.9h4c0,0-0.2,4.2-0.2,7.4s0.2,7.4,0.2,7.4L256.8,64.6L256.8,64.6L256.8,64.6z M305.5,65.7
	c-10.1,0-13.3-1.8-17.7-1.8c0,0,0.2-4.5,0.2-7.6c0-3.2-0.2-7.6-0.2-7.6h4c0,7.4,2,11.9,13.1,11.9c7.5,0,13.2-2.9,13.2-10
	c0-6.3-7.6-8.6-15.3-11.7c-7.5-3.1-15.1-7-15.1-16.5c0-10.6,9.6-15.3,21.1-15.3c6.9,0,11.7,1.5,15.9,1.5c0,0-0.2,3.8-0.2,7
	s0.2,7,0.2,7h-4c0-7.4-3.8-10.3-12.2-10.3c-6.3,0-11.8,1.4-11.8,8c0,6.2,7,8.8,14.4,11.8c8,3.2,16.5,6.6,16.5,15.3
	C327.7,60.7,315.3,65.7,305.5,65.7"/>
<path class="st0" d="M27.8,124c-7.5,0-9.2-0.2-12.7-0.2c-3.6,0-7.2,0.1-8.7,0.1l0.4-2.8c2.3,0,3.1,0,4.2-0.7
	c1.3-0.8,1.6-1.9,2.1-5.4l5.2-32.6c0,0,0.4-2.5,0.4-3.4c0-2.8-2.2-2.8-5.5-2.8l0.4-2.8c2.1,0,5.3,0.1,8.4,0.1c3.3,0,5.8-0.1,10-0.1
	c9,0,14.5,4.1,14.5,10.7C46.5,94.2,34.9,97,34.9,97c3,0.7,12.4,2.9,12.4,12.1C47.2,117.5,38.9,124,27.8,124 M26.6,98.9h-4.7
	l-2.1,12.9c-0.1,0.3-0.6,3.2-0.6,4.8c0,3.4,2.1,4,9,4c5.5,0,12.1-3.3,12.1-11.2C40.2,102.3,34.7,98.9,26.6,98.9 M30.2,76.5
	c-4.2,0-4.8,0.1-4.8,0.1l-3,18.9c0,0,3.3,0.1,5,0.1c8.5,0,12.3-5.2,12.3-10.7C39.7,79.2,36.2,76.5,30.2,76.5 M76.8,95.4
	c-1.1-0.6-1.6-0.9-3.6-0.9c-4.2,0-8.4,7.3-11.1,13.7c-2,4.7-3.9,11.2-4.4,15.8H52c0-3.2,2-10.3,3.7-17c1.1-4.4,2.4-9.8,2.4-12.4
	c0-1.5-0.4-2.4-1.4-2.4c-2.3,0-4.1,2-4.4,2.6L51,92.7c2.2-2.5,5.2-3.9,9.1-3.9c3,0,3.9,1.6,3.9,3.7c0,3-2.5,11-3.2,13.3
	c2.2-5,7.9-17,15.2-17c2.7,0,4.3,1.5,5,2.1L76.8,95.4L76.8,95.4z M106.4,106.3c-1.3,5.7-2.4,10.5-2.4,12.4c0,1,0.2,2,1.6,2
	c1.6,0,2.7-0.4,4.1-1.7l1.2,2.1c-2.4,1.9-5.3,2.8-8.2,2.8c-4.5,0-4.7-2.4-4.7-3.8c0-1.2,0.8-5.8,2.1-9.9
	c-1.8,3.8-8.2,14.1-17.1,14.1c-6.6,0-6.6-7.1-6.6-9.9c0-5.6,3.6-26,21.6-26c3.1,0,7,1.1,8.5,2.2l2.3-2.2h3
	C110.4,91.2,108.1,99.5,106.4,106.3 M96.9,92c-5.3,0-8.2,3.7-10.6,8.7c-2,4.2-3.5,10.1-3.5,14.1c0,2.9,0.2,6.1,3.1,6.1
	c7.5,0,17-20.5,18.1-26.3C103.1,93.3,101.2,92,96.9,92 M144.2,124c-3.9,0-5.1-1.2-5.1-3.5c0-2.2,1.8-7.9,3.5-13.8
	c1.2-4.4,2.5-9.8,2.5-11.9c0-1.6-0.7-2.6-3.3-2.6c-2.9,0-6.2,2.5-9.3,6.8c-4.3,5.8-8.1,14.7-9.6,24.7h-5.7c0-3.1,1.9-10.1,3.6-16.7
	c1.3-5,2.4-10.1,2.4-12.7c0-1.5-0.4-2.4-1.4-2.4c-2.3,0-4.1,2-4.4,2.6l-1.3-2.1c2.2-2.5,5.2-3.9,9.1-3.9c3,0,3.9,1.6,3.9,3.7
	c0,3-1.8,9.2-2.4,11.6c1.1-2.5,6.7-15.3,18.3-15.3c4.9,0,6.4,2.1,6.4,5.4c0,2.3-1.6,8.2-3,13.2c-1.5,5.5-2.8,10.3-2.8,12
	c0,1.3,0.7,1.7,1.6,1.7c1.5,0,3.6-1.3,4.2-1.8l1.3,2.1C150.3,123,147.7,124,144.2,124 M189.2,98.1c-3.2,9.7-4.9,17.6-4.9,20.7
	c0,1,0.2,2,1.6,2c1.6,0,2.7-0.4,4.1-1.7l1.2,2.1c-2.4,1.9-5.3,2.8-8.2,2.8c-4.5,0-4.7-2.4-4.7-3.8c0-1.2,0.8-5.8,2.1-9.9
	c-1.8,3.8-8.2,14.1-17.1,14.1c-6.6,0-6.6-7.1-6.6-9.9c0-5.6,3.6-26,21.6-26c4.9,0,7.3,1.9,7.3,1.9c1.3-3.3,4.4-12.9,4.4-16.2
	c0-2.4-1-3-5.1-3l0.4-2.8c2.7,0,6.4-0.6,9.3-1.4h2.8C196.8,73.8,192.6,87.7,189.2,98.1 M177.1,92c-5.3,0-8.2,3.7-10.6,8.7
	c-2,4.2-3.5,10.1-3.5,14.1c0,2.9,0.2,6.1,3.1,6.1c7.5,0,17-20.5,18.1-26.3C183.3,93.3,181.5,92,177.1,92 M217.2,95
	c0,0-3.1-2.4-8.1-2.4c-3.5,0-5.5,1.7-5.5,4.1c0,3,2.3,4.6,6.7,7c4.3,2.4,7.3,4.4,7.3,8.8c0,5.4-5.9,11.5-14.8,11.5
	c-6.7,0-9.5-2.6-9.5-2.6l3.1-4.4c0,0,3.8,2.7,9.1,2.7c4.1,0,6.9-1.6,6.9-4.5c0-3-1.6-4.2-6.7-7.1c-4.2-2.4-7-4.7-7-9.1
	c0-4.7,4.7-10.5,13.5-10.5c5.5,0,8.1,2.4,8.1,2.4L217.2,95z M255.4,76.1c-2,0-3.1,0-4.2,0.7c-1.3,0.8-1.6,1.9-2.1,5.4l-5.2,32.6
	c0,0-0.4,2.5-0.4,3.4c0,2.8,2.1,2.8,4.8,2.8l-0.4,2.8c-2.1,0-4.9-0.1-8.4-0.1s-6.4,0.1-8.4,0.1l0.4-2.8c2,0,3.1,0,4.2-0.7
	c1.3-0.8,1.6-1.9,2.1-5.4l5.2-32.6c0,0,0.4-2.5,0.4-3.4c0-2.8-2.1-2.8-4.8-2.8l0.4-2.8c2.1,0,4.9,0.1,8.4,0.1c3.6,0,6.3-0.1,8.4-0.1
	L255.4,76.1z M283.7,124c-3.9,0-5.1-1.2-5.1-3.5c0-2.2,1.8-7.9,3.5-13.8c1.2-4.4,2.5-9.8,2.5-11.9c0-1.6-0.7-2.6-3.3-2.6
	c-2.9,0-6.2,2.5-9.3,6.8c-4.3,5.8-8.1,14.7-9.6,24.7h-5.7c0-3.1,1.9-10.1,3.6-16.7c1.3-5,2.4-10.1,2.4-12.7c0-1.5-0.4-2.4-1.4-2.4
	c-2.3,0-4.1,2-4.4,2.6l-1.3-2.1c2.2-2.5,5.2-3.9,9.1-3.9c3,0,3.9,1.6,3.9,3.7c0,3-1.8,9.2-2.4,11.6c1.1-2.5,6.7-15.3,18.3-15.3
	c4.9,0,6.4,2.1,6.4,5.4c0,2.3-1.6,8.2-3,13.2c-1.5,5.5-2.8,10.3-2.8,12c0,1.3,0.7,1.7,1.6,1.7c1.5,0,3.6-1.3,4.2-1.8l1.3,2.1
	C289.7,123,287.1,124,283.7,124 M325.1,96.8c0,0-3.2-4.7-9-4.7c-8.8,0-12.1,12.1-12.1,19.2c0,5.5,2.3,9.3,7.5,9.3
	c4.6,0,7.4-3,9.1-5.9l1.7,2.2c-1.9,4.1-6.6,7.5-12.7,7.5c-6.7,0-12.1-3.5-12.1-12.4c0-12.2,8-23.6,20.3-23.6c6.3,0,9.3,2.3,11,4.2
	L325.1,96.8L325.1,96.8z"/>
</svg>
