<svg id="Grey" xmlns="http://www.w3.org/2000/svg" viewBox="0 0 480 270"><defs><style>.cls-1{fill:#272d35;}</style></defs><g id="Microsoft"><path class="cls-1" d="M64.32,97.48H100v35.7H64.32V97.48Z"/><path class="cls-1" d="M103.65,97.48h35.7v35.7H103.66q0-17.85,0-35.7Z"/><path class="cls-1" d="M386.2,111.08a14,14,0,0,1,11.25-1.32c0,2.21,0,4.41,0,6.62a7.34,7.34,0,0,0-5.69-.52,4.5,4.5,0,0,0-2.57,3.6,48.4,48.4,0,0,0-.15,5.78c3.77,0,7.53,0,11.3,0,0-2.44,0-4.89,0-7.33,2.56-.73,5.09-1.55,7.64-2.31,0,3.22,0,6.44,0,9.66,2.54,0,5.09,0,7.63,0v6.27c-2.55-.1-5.11,0-7.66,0,0,3.6,0,7.2,0,10.81a59.88,59.88,0,0,0,.13,6,3.88,3.88,0,0,0,1.66,3.08,5.76,5.76,0,0,0,5.87-.55v6.33a15,15,0,0,1-7.05,1.08,8.6,8.6,0,0,1-6.09-2.79c-1.71-2-2.15-4.79-2.18-7.37,0-5.53,0-11.06,0-16.59h-11.3v26h-7.72q0-13,0-26c-1.79,0-3.59,0-5.38,0,0-2.06,0-4.12,0-6.18,1.78,0,3.56,0,5.35,0,.13-2.74-.29-5.55.53-8.22a10.51,10.51,0,0,1,4.36-6Z"/><path class="cls-1" d="M220.91,111.53a4.74,4.74,0,0,1,4.28,1.52,4.38,4.38,0,0,1,.53,5,4.78,4.78,0,0,1-5.14,2.15,4.36,4.36,0,0,1-3.58-4.3,4.48,4.48,0,0,1,3.91-4.38Z"/><path class="cls-1" d="M161.75,112.49H173q5.24,13.31,10.51,26.61c.9,2.22,1.73,4.46,2.67,6.67,4.49-11.09,9.05-22.15,13.52-33.25,3.59-.06,7.2,0,10.8,0q0,22.52,0,45c-2.6,0-5.2,0-7.79,0,0-11.07,0-22.14,0-33.22,0-.49,0-1,0-1.49a5.07,5.07,0,0,0-.4.72c-4.47,11.33-9,22.64-13.45,34-1.85.07-3.7,0-5.55,0-4.6-11.34-9.14-22.7-13.72-34a7.69,7.69,0,0,0-.39-.69c-.1,4.85,0,9.71,0,14.56q0,10.08,0,20.16h-7.35v-45Z"/><path class="cls-1" d="M242.16,125.21a21.18,21.18,0,0,1,11.47,0,9,9,0,0,1,2.2.92c-.05,2.45,0,4.92,0,7.38a12.2,12.2,0,0,0-8.81-2.71,9.07,9.07,0,0,0-6.41,3.56,12.43,12.43,0,0,0-2,8.94,9.64,9.64,0,0,0,3.11,6.41,9.81,9.81,0,0,0,7.23,2.15,14.67,14.67,0,0,0,6.92-2.84c0,2.33,0,4.66,0,7a18.73,18.73,0,0,1-10.55,2.18A15.62,15.62,0,0,1,235.21,154a16.13,16.13,0,0,1-4.67-10.8,19.59,19.59,0,0,1,3.05-12,15.6,15.6,0,0,1,8.57-6Z"/><path class="cls-1" d="M312.25,132.77a13.63,13.63,0,0,0-6.74-6.81,20.44,20.44,0,0,0-11.05-1.3,15.41,15.41,0,0,0-10.15,5.42,17.24,17.24,0,0,0-3.56,9.86c-.31,4.16.38,8.58,2.83,12.05a14.62,14.62,0,0,0,8.91,5.82,22,22,0,0,0,9,0,14.92,14.92,0,0,0,8.86-5.48,17,17,0,0,0,3.4-9.39A21.22,21.22,0,0,0,312.25,132.77Zm-7.45,14.82a7,7,0,0,1-3.79,3.72,10.4,10.4,0,0,1-6.29.28,7.74,7.74,0,0,1-4.85-4,15,15,0,0,1-1.17-8.07,10.31,10.31,0,0,1,3-6.74,8.15,8.15,0,0,1,5.08-2,8.28,8.28,0,0,1,6.46,2.2,10.48,10.48,0,0,1,2.67,6.73A16.92,16.92,0,0,1,304.8,147.59Z"/><path class="cls-1" d="M326.48,124.72a20.42,20.42,0,0,1,10.69,1.12v7.09a13.62,13.62,0,0,0-8.11-2.39,4.11,4.11,0,0,0-3.68,2,3.32,3.32,0,0,0,1.12,3.94c2.18,1.47,4.8,2.09,7.06,3.4a10.24,10.24,0,0,1,4.43,4.21A9.41,9.41,0,0,1,336,155c-2.86,2.67-7,3.41-10.75,3.26a22.75,22.75,0,0,1-7.84-1.8c0-2.49,0-5,0-7.46a16.72,16.72,0,0,0,7,3,9,9,0,0,0,5.33-.49,3.07,3.07,0,0,0,.92-4.38,9.19,9.19,0,0,0-3.37-2.21,32.45,32.45,0,0,1-6.66-3.41,8,8,0,0,1-2.88-4.38,9.84,9.84,0,0,1,1.06-7.7,11.54,11.54,0,0,1,7.68-4.72Z"/><path class="cls-1" d="M374.08,133.71a13.75,13.75,0,0,0-6.63-7.5A19.94,19.94,0,0,0,356,124.65a15.06,15.06,0,0,0-13.63,13.57,21.65,21.65,0,0,0,1.22,11.21,14.27,14.27,0,0,0,7.85,7.6,20.83,20.83,0,0,0,10.87.93,15.1,15.1,0,0,0,9.48-5.56,17.61,17.61,0,0,0,3.5-11A20.57,20.57,0,0,0,374.08,133.71Zm-7,10.94a10,10,0,0,1-2,4.73,7.17,7.17,0,0,1-4.51,2.43,10.19,10.19,0,0,1-5.52-.6A7.83,7.83,0,0,1,351,147a15.18,15.18,0,0,1-.91-7,11.11,11.11,0,0,1,2.33-6.42,7.88,7.88,0,0,1,5.63-2.71,8.5,8.5,0,0,1,6.19,1.82,9,9,0,0,1,2.8,5.15A19.93,19.93,0,0,1,367.12,144.65Z"/><path class="cls-1" d="M273.09,125.74a8.71,8.71,0,0,1,7.16-.61c0,2.58,0,5.15,0,7.73a8.19,8.19,0,0,0-5.22-1.23,6.41,6.41,0,0,0-4.83,3.86,14.3,14.3,0,0,0-1.1,6.59v15.43h-7.61q0-16.12,0-32.25c2.54,0,5.08,0,7.62,0,0,1.85,0,3.7,0,5.54a9.89,9.89,0,0,1,4-5Z"/><path class="cls-1" d="M217.7,125.25c2.56,0,5.12,0,7.68,0,0,10.74,0,21.49,0,32.24H217.7q0-16.12,0-32.26Z"/><path class="cls-1" d="M64.32,136.82H100v35.7H64.32v-35.7Z"/><path class="cls-1" d="M103.66,136.82h35.69v35.7h-35.7q0-17.85,0-35.7Z"/></g></svg>