<?xml version="1.0" encoding="utf-8"?>
<!-- Generator: Adobe Illustrator 25.1.0, SVG Export Plug-In . SVG Version: 6.00 Build 0)  -->
<svg version="1.1" id="Layer_1" xmlns="http://www.w3.org/2000/svg" xmlns:xlink="http://www.w3.org/1999/xlink" x="0px" y="0px"
	 viewBox="0 0 748.3 179.4" style="enable-background:new 0 0 748.3 179.4;" xml:space="preserve">
<style type="text/css">
	.st0{fill:#272D35;}
</style>
<g>
	<path class="st0" d="M605.2,57.2c0-2.8-2.3-5.1-5.1-5.1h-7.6c-2.8,0-5.1,2.3-5.1,5.1v79.4c0,2.8,2.3,5.1,5.1,5.1h7.6
		c2.8,0,5.1-2.3,5.1-5.1V57.2"/>
	<path class="st0" d="M614.9,59.3v3.8c0,1.6,1.3,2.8,2.8,2.8h52.3c2.4,0,4.3-1.9,4.3-4.3v-6.4c0-2.4-2-4.6-4.3-4.3
		c0,0-50.6,5-52.2,5.1C616,56.2,614.9,57.7,614.9,59.3"/>
	<path class="st0" d="M572.5,141.7c-13,0-21.2-9.9-21.2-20.9l0-31.8h-3.7c-2,0-3.6-1.6-3.6-3.6v-5.3c0-2,1.6-3.6,3.6-3.6l3.7,0
		l0-19.5c0-2.8,2.2-5,5-5l7.4,0c2.8,0,5,2.3,5,5v19.5h11.5c2,0,3.6,1.6,3.6,3.6v5.3c0,2-1.6,3.6-3.6,3.6l-11.5,0l0,29.4
		c0,5.8,3.5,9.7,9.7,9.7l1,0c2.2,0,3.9,1.7,3.9,3.9v5.8c0,2.2-1.7,3.9-3.9,3.9H572.5"/>
	<path class="st0" d="M450.6,87.9c7.8,0,14.5,5.5,15.2,13h-30.2C436.2,93.4,442.8,87.9,450.6,87.9V74.3c-21.1,0-32.9,16.5-32.9,33.8
		c0,18.5,12.6,34.8,33,34.8c13.9,0,27.7-7.3,30.3-19.4c0.4-1.6-0.7-3.8-3-3.8H468c-1.8,0-3.3,0.9-4.2,2.2c-2.8,4.2-7,6.4-13.2,6.4
		c-8.7,0-14.8-6.9-15.2-14.5l42.3,0c3.9,0,5.6-2.1,5.6-5.7c0-16.9-10-33.8-32.8-33.8V87.9"/>
	<path class="st0" d="M643.4,87.9c7.8,0,14.5,5.5,15.2,13h-30.2C629.1,93.4,635.7,87.9,643.4,87.9V74.3c-21,0-32.9,16.5-32.9,33.8
		c0,18.5,12.6,34.8,33,34.8c13.9,0,27.7-7.3,30.3-19.4c0.4-1.6-0.7-3.8-3-3.8h-10c-1.8,0-3.3,0.9-4.2,2.2c-2.8,4.2-7,6.4-13.2,6.4
		c-8.7,0-14.8-6.9-15.2-14.5l42.3,0c3.9,0,5.6-2.1,5.6-5.7c0-16.9-10-33.8-32.8-33.8V87.9"/>
	<path class="st0" d="M537.1,52.9H400c-3.1,0-5.6,2.5-5.6,5.7l0.5,53.8c0,0-29.5-53.4-31.1-56.1c-1.4-2.6-4.6-4.9-8.9-4.9h-11.3
		c-3.1,0-5.6,2.5-5.6,5.7l0,79c0,3.1,2.5,5.6,5.6,5.6h7.2c3.1,0,5.6-2.5,5.6-5.7L356,80.7c0,0,29.8,53.9,31.1,56
		c1.7,2.9,4.6,5,8.9,5l10.4,0c3.1,0,5.6-2.5,5.6-5.7l0-69.7l125.1,0c2.1,0,3.9-1.7,3.9-3.8v-5.7C540.9,54.7,539.2,52.9,537.1,52.9"
		/>
	<path class="st0" d="M514.9,87.2c6,0,10.4,2.2,12,5.9c0.8,1.8,2.3,2.1,4.3,2.1h8.2c1.4,0,2.9-1.2,2.9-2.9c0-9.5-11.4-18-27.5-18
		c-16.6,0-27.6,7.9-27.6,20.6c0,9.7,7.6,15.4,17,17.9c4.3,1.1,11.6,2.9,15.1,3.9c3.8,1,7.3,2.2,7.3,5.5c0,5.2-5.5,6.9-11.4,6.9
		c-5.7,0-11.3-2.5-12.9-6.6c-0.9-2.3-2.6-2.7-5.1-2.7H489c-1.5,0-3.1,1.3-3.1,3.1v1.1c0,9.2,12.4,18.9,29.4,18.9
		c12.1,0,29-5,29-21.3c0-9.4-6.3-15.9-16.5-18.5c-4-1-13.6-3.5-15.7-4c-3.7-1-7.2-2.2-7.2-5.4C504.8,88.9,509.3,87.2,514.9,87.2"/>
	<path class="st0" d="M211.4,34.7c1.5,0,2.7-1.2,2.7-2.7c0-1.5-1.2-2.7-2.7-2.7c-1.5,0-2.7,1.2-2.7,2.7
		C208.6,33.5,209.9,34.7,211.4,34.7"/>
	<path class="st0" d="M174.5,29.8c1.3,0,2.3-1,2.3-2.3c0-1.3-1-2.3-2.3-2.3c-1.3,0-2.3,1-2.3,2.3C172.2,28.8,173.2,29.8,174.5,29.8"
		/>
	<g>
		<path class="st0" d="M146.8,86.4l-1.1-1.2c3.1-2.9,6.5-7.6,7-10.3c0.5-2.5,4.2-2.1,3.5,0.6C155.3,79,150.9,83.3,146.8,86.4"/>
		<path class="st0" d="M123.4,30.8c-5.8,2.5-6.6,8.4-2.6,12c4.9,4.3,12.9,0.6,12.2-6c6.6,0.3,10.8-6.4,9.7-11.2
			c2.9-2.5,3.2-7.8-0.3-9.9c-3.7-2.2-7.3-1.4-9.5,2.9C126.9,18.2,121.2,22.9,123.4,30.8l-2.8-1.2c-3.7-7.7,2.7-15.5,10.6-13.7
			c1.6-3.8,7.4-7.8,13.8-3.9c5.1,3.1,6.1,11,0.8,14.8c2.5,7.4-2.5,13.4-10.2,12.7c-0.9,9.5-9.8,10.7-15.6,6.2
			c-3.3-2.5-4.6-6.1-5.2-8.7c-0.7-2.8-0.7-5.3-3.4-8.2c-2.1-2.2-5.8-2.1-5.8-2.1c0-6.9-6.4-13.2-14.4-10.1c-2.8-2.4-6.3-2.7-8.8,0.3
			c-1.5,1.8-2.3,6.4,2.2,8.5c-0.2,6.3,4.6,10.3,11.5,9.7c0.3,3.3,4,6.4,7.2,6.9l0,1.7c-3.5-0.3-5.4,0.9-7.7,3.8
			c-8.2-0.4-14,3.3-13.7,9.2c-5.8,1.1-6.9,7.2-3.6,10.4c3.3,3.2,8.1,2,9.7-1.9c5.8,1.1,11-3.1,11.2-7.9c5.4,0,7.8-2.2,8.7-7.2
			l2.1,0.2c0.6,5.4-1.9,10.5-8.4,9.9c-0.2,6.4-6.4,10-12.3,7.8c-2.7,5.1-9,7.2-14.2,2.2c-5.1-4.8-3.2-13.1,3.4-15.1
			c0.2-6.3,4.8-12.3,13.9-10c0,0,1.2-2.8,4-3c-1.9-0.8-3.3-1.8-3.7-3.8c-6.8,1.5-12.6-4.8-11.1-11.2c-6.2-3.3-6.3-9.3-3.2-13
			c3.2-3.8,8.5-4.6,13.2-0.5c8-4.5,17.1,1,16.6,10.2c5.6-0.4,9,4.5,8.4,9.7c0.9-2.3,2-3.3,4.1-3.8L123.4,30.8"/>
	</g>
	<path class="st0" d="M137.2,19.8l1.4,1c-2.6,5.6-7.3,11.5-11.3,14.7l-1.5-1.1C128.6,29.7,134.7,22.1,137.2,19.8"/>
	<path class="st0" d="M97.9,50.4l0.9,1.4c-3.3,3.4-9.5,8-12.8,9.6l-1.3-1.4C87.9,56.5,93.9,52,97.9,50.4"/>
	<path class="st0" d="M105.8,33.8l-1.6,2c-4.4-2.9-13-10.6-14.9-13.3l1.4-1.4C94.8,23.2,103,30.5,105.8,33.8"/>
	<path class="st0" d="M97.7,106.8c0.5,2.5,0.1,5.3,2.3,8c0.8,0.9,5.2,6.7,8.3,9.7c-4.3,1.7-12.9,5.2-19.1,6c-1.2,0.2-2.6,1-3.8,1.7
		c-0.8,1.3-1.6,3.7-1.9,6.4c-0.2,1.9-0.2,4-0.2,6.2c0,1.9,1,7.9,3.2,12c2.1,4,4.2,5.8,6.7,7c0.5-0.2,1.6-0.4,3.3-0.4
		c4.7-0.1,8.3,2.5,10,4.7c0.6,0.8,1.9,1,3.5,1c3.8,0,7.9-1.2,11.9-2.7c0.8-0.7,3.2-2.3,5.6-4.1c2.3-1.8,15.3-12.9,21.1-15.6
		c3,1.6,8,3.8,13.1,3.8c0.3,0,1.3,0,2.3-0.2c1.6-0.4,3.7-1.1,6.2-1.6c4.6-0.9,10.1-1.7,11.7-1.7c4.3,0.1,16.8,0.4,19.7,0.4
		c3.1,0,7.5-0.3,9.2-0.4c2.6-0.9,8.4-2.5,14-5.1c5.6-2.5,17.3-10.6,19.2-12.5c0.9-0.8,1.8-1.7,2.4-2.6c0.2-0.3,0.3-0.4,0.3-0.7
		c0-0.2-0.1-8.2-0.1-8.2s2.8-3.1,3.9-4.2c0.1-0.1,0.1-0.2,0.1-0.4c-0.5-1.6-1-6.6-0.7-11.6l-2.8-1.3c-0.1,6.3-2.4,11.6-4.5,14.9
		c-4.2,0.7-12.3,3.2-15.2,6.5l1.6,0.5c2.7-1.5,5.6-2.6,9-2.6c2.9,0,4.2,0.8,4.2,1.6c0,0.6-0.6,2-0.8,2.4c-0.3,0.5-0.4,1.1-0.9,1.7
		c-4,4.3-8.5,8-14,11.1c-3.7,2.1-7.2,3.5-12.6,5c-1.6,0.5-3.9,1.1-5.3,1.6c-2.1-0.1-12.8-0.4-19.1-0.4c-6.3,0-19.2,0.9-23.3,2
		c-1.9,0.5-2.3,1.2-4.5,1.2c-4.1,0-9.4-2.1-12.6-3.6c-0.5,0.1-1.7,0.7-2.8,1.3c-2.3,1.2-7.5,8.3-10.5,6.1c-1.5,3.1-8.1,6.1-10.4,9.4
		c0.3-1.7,2.9-12.7,3.2-15c0-0.4,0.1-0.7-0.2-1.1c-2.4-4-9.2-6.6-13-7.3c-1.1-0.2-1.7-0.4-2.4-0.5l-6-1.8l-5.6,1.8l6.4,1.2l-8.1,5.4
		c1.4-0.5,10.2-3,10.8-3.2c0.7-0.2,1.7-0.4,2.7-0.1c1.2,0.4,4.6,1.2,6.6,1.9c1.2,0.4,3.1,2.6,3.6,3.8c0.2,0.5,0.3,1.5,0.4,3.7
		c0.1,1.4-0.3,3.4-0.6,4.9c-0.9,4-2.7,7.1-3.3,8.2c-0.8,1.5-1.9,2-3,2.6c-1.8,0.8-3.9,1.4-6.4,1.4c-1.7,0-2.8-0.1-3.5-1
		c-2.2-3-7.7-5.9-13.3-4.8c-3.4-2.1-6.9-8.8-6.9-14.2c0-3.2,1.6-8.3,2.5-10.8c5.6-0.7,16.8-5,22.3-7.5c1.1-0.1,4.3-1.2,7.3-1.2
		c7.3,0,14.6,6.4,19,10.7c0.7-1.2,2.1-3,5.8-3c5.2,0,8.2,4.7,9.7,9.6l2.7-2c-0.5-2.8-1.9-5.8-4.1-8c-1.8-1.8-5.2-3.3-7.9-3.3
		c-1.6,0-3.3,0.4-4.3,0.4c-3.7,0-5.2-1.7-8-3.5c-3-2-8.5-5-12.4-5c-2.5,0-3.7,1-5.8,1c-3.1,0-4.2-1.3-5.7-3.1
		c-0.6-0.8-3.8-3.5-4.6-4.7c-0.5-0.6-1.3-3.2-1.6-4.5L97.7,106.8"/>
	<path class="st0" d="M102,109.8c0.9,1,1.7,2,2.9,2.9c1.1,0.8,2.4,1.5,3.7,2.2c1.8,1,3.8,2.2,5.9,2.8c1.8,0.5,4.1,0.8,6.2,0.8
		c3.1,0,6.7-0.6,9.7,0.8c2,0.9,2.2,3.1,3.8,3.7c2.5,1,9.4,1.2,13.3,1.2c7.6,0,15.9-1,20.7-2.1l-2.4-2.6c-3.4,0.5-13.3,1.6-17.8,1.6
		c-6.4,0-12.4-1-12.4-3.7c0-1.8,2-4.5,5.7-4.5c4,0,10.1,2.4,11.2,2.8c1.1,0.3,1.6,0.2,2.3-0.1l2.4-1.2c-3.1-1.5-14-5.2-17.8-5.2
		c-1.8,0-2.8,0.3-3.9,1.8c-1.5,1.9-5.3,3.6-11.5,3.6c-3.4,0-8.3-0.6-9.3-1.1c-1.9-0.8-5.5-2.9-7.9-4.6c-3-2.2-5.6-4.6-7.5-7.4
		c-0.6-0.9-0.8-1.8-0.8-2.7c0-0.7,0.2-1.4,0.3-2c0.5,0.7,1.1,1.3,1.9,2c3.3,3.2,8.1,5.6,13.1,6.5c1.4,0.3,2.7,0.5,4.1,0.5
		c2.1,0,4.1-1.1,5.3-2.2l-2-2.3c-0.6,0.2-1.9,0.2-2.8,0.2c-7.2,0-16.4-4.7-18.5-10.2c-0.2-0.5-0.5-0.8-0.2-1.3
		c0.2-0.5,0.5-1.6,0.6-2.5c0.4,0.5,1.3,1.2,2.4,1.9c2.7,1.7,7.8,4.1,8.8,4.7c2.6-0.7,4.5-1.6,6.1-2.4c1.5-0.8,3.6-1.5,5.9-1.5
		c5.3,0,11.3,3,17,5.8l3.9-1.5c-5.1-3.6-16.1-8.5-22.2-8.5c-3.6,0-7,2.6-9.4,2.6c-3,0-11.4-4.1-11.4-7.6c0-2.7,5.5-4.2,14.3-5.2
		c-1.5,2.3-3,4.6-4.3,7l2.2,1.3c13.8-20,28.2-33.1,40.4-41c4.4-2.9,5.4-4.6,6.9-7.7c3.8-7.7,7.3-13.6,13.4-13.6
		c2.9,0,5.2,1.6,6.8,3.6l4.5,1.3l-4.5,3.1l4.6,1.8c-6,1.7-14.2,7.5-17.6,16.1c-6.4,0.3-9.5,5.5-11.6,9.9c-1.4,2.9-3.7,4.1-6.9,6.3
		l-26.2,18.3l3.6,0.5l24.2-16.2c4.8-3.2,7.1-5.6,8.2-7.9c2.2-4.5,4.7-7.8,9.4-7.8c2.3,0,4.8,1,6.8,2.9l4.2,1.4l-4.6,2.8l3.9,2.4
		c-11.1,3.5-18,11.4-22,26.7l2.9,0.7c1.5-5,2.9-9.7,5.5-13.7c6.4-0.1,13-0.3,19.3-0.3c17.1,0,31.2,0.7,38.9,3l-2.7-4.7
		c-8.2-1.4-20.1-2.1-36.2-2.1c-5.4,0-10.9,0.2-16.3,0.3c3.5-3.7,8.6-6.8,16.4-9.3l-5.5-3l6.1-3.4l-8.4-3.1c-1.5-1.3-3.3-2.5-5.6-3.1
		c2.7-8.2,11.8-13,20.5-16.3l-6.1-2.5l6.2-3.4l-9.5-3c-2.5-2.9-4.9-4.2-8.5-4.2c-8.8,0-12.5,7.7-16,14.5c-1.8,3.6-3,5.1-6.1,7.1
		c-6.8,4.4-15.4,11.2-23.7,19.9c-4.3-3.1-13.1-12.2-15.5-17.2c-0.9,1.2-1.9,3.7-1.9,3.7c0.9,1,11.3,11.4,15.1,15.9
		c-0.3,0.3-0.6,0.6-0.9,1c-4.1,0.8-14.8,1.8-18.4,1.3l-2,3.6c2.7-0.3,13.3-1.5,17.7-1.8c-1.3,1.6-2.6,3.3-3.9,5
		C104.9,73.2,95.8,76,95.8,81c0,0.8,0.3,1.8,0.3,2.7c0,2.1-0.8,2.9-2.3,3.8c-1,0.6-1,1-0.6,1.6c0.4,0.6,2.5,3.7,2.5,4.3
		c0,1-1,2-1.8,2.9c-0.7,0.8-0.7,1-0.1,2l4,8.4L102,109.8"/>
	<path class="st0" d="M271,63c-0.9,0.9-1.6,1.9-2.3,2.9l-2.2-3.1c7.3-9.8,26.7-14.4,38.1-15.2v-5.2c-1.4,0.4-3,0.9-4.4,1.3
		c-2,0.5-3.9,0.9-5.5,0.9c-1.6,0-2.9-0.7-3.5-1.5c-1.5-2.2-0.1-5.5,4.9-8.6l-3.9-3.3c-3,3.9-6,8.3-9.1,10.9c-2.8,2.4-5.7,3.5-8,1.8
		c-1.3-0.9-1.7-1.4-1.9-3.8c0.2-3.6,2.4-9.1,4.3-12.7l-4.7-0.6c-0.8,5.4-3.1,10.1-5.5,13.9c-3,4.8-6.8,8.1-10.8,10.9l-2.6-2.6
		c3.2-1.9,7.2-4.9,9.9-9.2c3.2-4.9,5.8-11,5.8-16.5l13.5,1.3c-1.9,2.4-5,7.9-6.2,11.9c-0.6,2.1-0.6,3.7,0.2,4.2
		c1.4,1.1,3.9-0.6,6.4-3.2c3.4-3.7,6.8-9.2,8.3-11.2l9.8,8.1c-4.3,2.3-8.5,4.9-7.7,6.4c0.8,1.3,3.5,0.9,6.6,0
		c2.5-0.8,5.1-1.9,7.2-3.1V51c-4.7-0.1-12.7,0.8-20.4,3.1c1.8,2.6,7.1,3.5,10.4,4L296,68.8C287.6,65.3,281.2,63.2,271,63l3.4-2.9
		c7.5,0.2,15,2.3,19.3,4.5l0.6-4.1c-3.8-0.5-8.7-2.7-10.7-5.2c-3.3,1.3-6.5,2.8-9.2,4.7L271,63"/>
	<path class="st0" d="M230.8,97l3.1-6.7c-3.3-3.9-7-8.8-10.1-13.8l-2.7-4.7c-6.2-11.9-4-17.5-7.3-22.8c-2.8-4.3-16.1-1.6-18.4-1.2
		l3.9-6.4l-7.6,0.6l6.5-7.7c0.7-1,1-1.9,1.8-4.6c1.1-4,4.6-11,14.8-11c11.3,0,14.8,9.2,19.8,13.1c5.6,4.5,12.9,10.8,19.5,17.2
		l2.6,2.6c3.3,3.4,6.8,6.9,9.9,11.2l2.2,3.1c13.6,19.9,30.5,57.9,38,75.3c0.7,1.7,1.2,3.4,1.7,4.7c-5.1-2.8-10.7-6.3-16.4-10.3
		l-3.4-2.4c-2.1-1.5-4.2-3.1-6.2-4.7l-3.4-2.7c-2.1-1.7-4.1-3.4-6.1-5.1l6.8,39.7c0.5,2.3,2.5,1.9,4.1-0.1c1.6-2.1,2.2-2.6,1.6-5.3
		l-6.4-29.1l3.4,2.7l6.1,24.7c0.6,2.2,1.5,2.9,4.1,3.1c2.6,0.1,3.2-0.9,2.6-2.6l-6.6-20.5l3.4,2.4l6.3,18.5c1.6,4.7,0,5.3-2.8,5.3
		c-2.8,0-5.4-0.7-6.9,0.3c-1.6,1-3.5,3.7-5.8,6.1c-2.1,2.1-5.1,1.6-5.7-2.4l-7.5-45.5c-4.9-4.4-9.6-9-13.7-13.8
		c-1.8-0.8-3.9-1.7-5.7-2.6l-2.8-1.3c-1-0.5-1.7-0.8-2-0.9c-2.1,2.5-4.1,5.3-6.4,7.3c-1.2,1.1-2.1,1.7-3.9,1.7c-0.6,0-1.3,0-1.9-0.4
		c-0.7-0.4-1.4-1.2-2.1-2.3c-0.6-0.8-1.4-1.9-2.1-3.1c-1.5-2.5-3.1-5.6-4.5-8.2c-1.6-2.8-3-5-3.2-5.3c-0.3-0.5-1.1-1.2-1.1-1.2
		c-0.8,1.3-1.4,3.8-1.4,5.2l-2.8-1c0.4-1.9,1.1-4.3,1.5-5.5c0-1-1.1-2.3-2-2.3c-1.3,0-2.6,1.4-3.3,4.1l-2.9,1.3
		c0.3-4.4,1.8-9.2,6.2-9.2c3.5,0,5.7,2.7,7.3,5.2C224.1,88.1,229.6,95.6,230.8,97l2.2,2.7c0.4,1.7,1.1,2.7,1.5,3.2
		c0.7,1.2,1.6,1.1,2.7,0c0.5-0.5,2.2-1.8,3.8-3.5c1.4-1.4,2.7-3.2,3.3-4.1c1.6,0.7,4.5,2.1,6.9,3.2c-10.2-12.6-20-27.9-24.3-38.3
		c-1.8-4.3,1.7-5.7,3.3-1.5c4.5,11.5,17.7,31.8,27.3,42.5c11.2,12.3,31.7,30.2,45,37.3c-1.9-3.8-4.5-9.2-7.4-15.5
		c-16.2-9.2-32.6-26-40.2-40.5l3.4,0.4c7.1,12.6,24.1,29.3,34.1,34.2c-9.2-19.5-21.1-44.1-30.4-54.7c-11.6-13.2-24.2-23.3-30.2-28.6
		c-5.9-5.2-8.4-11.8-16.9-11.8c-7.1,0-10.8,5.1-12.2,10.2c-0.3,1-0.5,1.6-1.2,2.7l-3.3,4l7.2-0.9l-4.2,5.8c0,0,11.3-2.5,15.2,2.8
		c4.3,5.8,1.5,12.3,8.5,24.9c3.1,5.6,10.5,15.5,13,17.8l-4.9,10.2L230.8,97"/>
	<path class="st0" d="M119.7,98.8l-1.7-1.2c1-0.8,2.8-2,4.7-2.8c1-0.4,2.1-0.6,2.9-0.6c1.9,0,3.6,0.8,5.2,1.7
		c2.5,1.4,5.4,2.9,7.6,2.9c0.8,0,1.6-0.2,2.6-0.2c2.2,0,4.2,1,5.4,1c0.7,0,1.2-0.7,1.7-1.3c1.2-1.7,2.8-3,5-3.9c2.3-0.9,5-1.3,8-1.3
		c2.3,0,4.6,0.3,5.7,0.6c0,0-1.8,2.1-2.2,2.6c-2.4,0-6.8-0.1-9.7,1.1c-1.8,0.7-2.4,1.8-2.4,3.2c0,2.1,2.4,2.9,5,3.8
		c1.6,0.5,3.3,0.6,4.8,0.6c1.8,0,5.3-0.7,8.7-1.4c4.1-0.9,8-2,9.1-2.4l1.5,2.7c-4.6,1.6-9.3,3-13.7,3.9c-2.5,0.5-4.8,0.8-6.9,0.8
		c-3.5,0-7.3-1.5-10.5-3c-2.6-1.3-5-2.5-7.1-2.5c-2.4,0-4.6,0.8-6.8,2.1c-1.1,0.6-4.3,2.8-7.2,4c-2.2,0.9-4,1.4-6.3,1.4
		c-2,0-3.2-0.3-4.2-1.1l3.5-2.1c0.4,0.4,1.2,0.5,1.7,0.5c0.5,0,1.1-0.1,2.5-0.6c0.8-0.3,1.9-1,2.6-1.5c1.4-0.9,1.8-1.4,2.4-1.8
		c1.1-0.8,1.4-1.9,0.1-3.1c-0.6-0.6-1.3-1.1-2.1-1.6c-1.2-0.7-2.1-1.4-4.2-1.4C122.5,97.6,120.7,98.3,119.7,98.8"/>
	<path class="st0" d="M168.2,100.2c0,0-2.1-0.6-2.8-0.6c1.4-1.9,3.2-3.5,4.7-4.5c2.8-1.9,5.8-3,10.3-3.2c1.2-0.1,3.7-0.3,5.1-0.2
		c1.3,0.1,3.4,0.1,5.3,0.5c1.4,0.3,2.7,0.6,3.7,0.8c0.7,0.1,2.9,0.1,3.7-0.1c3.2-0.5,7-1.7,9-2.8l0.8,3c-4.3,2.2-9.1,4.3-13.5,4.3
		c-2.3,0-4.6-0.2-6.9-0.4c-3.9-0.4-7.3-0.9-8.5-0.9C175.9,96.1,171.3,97.6,168.2,100.2"/>
	<path class="st0" d="M165.1,117.1l-4-1.8c5.6-2.8,14.1-5.7,17.6-6.2c3.5-0.6,7.5-1,9.8-1.8c1.1,2.7,3.1,5.5,6.1,5.5
		c1.1,0,2.9-0.8,4.7-1.6c2-0.9,4.1-1.9,5.1-2.3c1.1-0.5,4.8-2.1,8-3.5c1.2-0.5,4.5-2.1,4.7-2.2l2.1,1.1c-0.6,2.8-1.7,6.2-2.9,8.6
		c-0.5,1-0.9,1.7-1.4,2.3c-0.9,1-2.4,2.4-4.3,3.8c-2.1,1.5-4.7,3-7.4,4.6c-2.1,1.2-4.3,2.5-6.4,3.5l-1.1-2c3.3-1.9,6.7-4.3,9.7-6.5
		c1.4-1.1,2.8-2.1,3.8-3c0.7-0.7,1.2-1.2,1.5-1.7c0.9-1.3,2.3-3.9,2.8-5.1c-1.2,0.6-6,2.8-8.1,3.9c-2.4,1.3-6.2,3.2-8.4,4.2
		c-1.7,0.8-3.2,1.2-4.3,1.2c-2.4,0-3.5-1.7-4.1-2.8c-1.5-2.7-3.2-3-7.5-3C176,112.2,169.2,114.3,165.1,117.1"/>
	<path class="st0" d="M188.6,104.5c0,0-0.6-2.4-0.9-3.2c0,0,0.7-0.2,1.6-0.2c1.5,0,5.2,0.4,6.7,0.4c5.8,0,7.9-1.8,9.6-3.4
		c1.4-1.3,2.9-2.4,6.9-2.4c3.5,0,7.5,1.4,8.6,2l-0.2,3.2c-1.7-0.9-4-1.6-6.1-1.6c-1.4,0-2.7,0.1-3.6,0.6c-1,0.5-1.6,1.3-2.6,2.1
		c-1,0.8-2.4,1.7-4.3,2.3c-1.8,0.7-4.1,1.1-7.5,1.1C192.4,105.4,189.9,104.7,188.6,104.5"/>
	<path class="st0" d="M151.9,128.4l2.7-1.1c2.4,0.9,6,2,8.4,2c1.5,0,2.7-0.5,3.7-1c0.8-0.4,9.7-4.7,14.1-6.3
		c1.4-0.5,2.8-0.8,3.5-0.8c1.1,0,1.1,0.5,1.4,1c0.8,1.3,7.4,10.7,8.1,11.4c5.6-1.7,11.3-4.2,14.6-7.4c3.4-3.3,6.3-7.1,9-10.1
		c1.1-1.1,2.4-2.2,3-2.5c2.8-1.5,11.7-1.6,15.4-1.5l-2.2,3.1c-6.6,0-10.2,0.7-11.9,1.9c-0.7,0.5-1.8,1.6-2.8,2.9
		c-2.2,2.9-4.7,6.9-5.7,7.7c1.9,1.3,4,2.5,7.3,2.5c5.6,0,9.5-3.5,11.7-5.4l1.9,1.1c-1.4,1.8-2.9,3.6-5,5c-2.2,1.5-5,2.5-6.7,3
		c-3.2-0.6-10.3-2-12-2.4c-6.1,2.5-16.1,6.5-19.5,7.6c-0.5,0.1-1.3,0.3-2.3,0.4c-2.7,0.1-6.4,0.1-9.7,0.1c-2.4,0-4.6,0-5.8-0.2
		l-3-3.1c2.6,0.5,3.6,0.7,6.1,0.7c5.8,0,9.5-1,10.7-1.3c1-0.3,1.2-0.9,0.9-1.8c-0.5-1.5-1.3-2.9-2.6-4.4c-0.7-0.8-2.3-2.2-2.9-2.6
		c-0.8-0.5-1.6-0.7-3.8,0.1c-2,0.7-8.3,4.1-11,5.5c-1.3,0.7-2.4,0.9-4.8,0.4C160.4,132.1,154.3,129.9,151.9,128.4"/>
	<path class="st0" d="M169.3,58.8c1.3,0,2.3-1,2.3-2.3c0-1.3-1-2.3-2.3-2.3c-1.3,0-2.3,1-2.3,2.3C167,57.8,168,58.8,169.3,58.8"/>
</g>
</svg>
