<svg id="Grey" xmlns="http://www.w3.org/2000/svg" viewBox="0 0 480 270"><defs><style>.cls-1{fill:#272d35;}</style></defs><path id="Oracle" class="cls-1" d="M216,141.89h23.21L227,122.1l-22.51,35.75H194.16L221.57,115a6.53,6.53,0,0,1,10.66-.08l27.49,43H249.47l-4.83-8H221.13l-5.12-8m106.5,8V112.59h-8.72v40.93a4.17,4.17,0,0,0,1.29,3,4.35,4.35,0,0,0,3.17,1.34h39.64l5.17-8H322.51m-143.95-6.66a15.3,15.3,0,0,0,0-30.6H140.49v45.26h8.7V120.59H178a7.32,7.32,0,1,1,0,14.64H153.44l26,22.63h12.63l-17.45-14.66h3.95M87,157.85h26.3a22.63,22.63,0,0,0,0-45.26H87a22.63,22.63,0,1,0,0,45.26m25.7-8H87.53a14.65,14.65,0,0,1,0-29.3h25.13a14.65,14.65,0,1,1,0,29.3m165.23,8h26.86l5.08-8H278.48a14.65,14.65,0,1,1,0-29.3H304l5.15-8H277.89a22.63,22.63,0,1,0,0,45.26m106.42-8a14.66,14.66,0,0,1-14.1-10.67h37.18l5.13-8H370.21a14.61,14.61,0,0,1,14.1-10.66h25.53l5.1-8H383.72a22.63,22.63,0,0,0,0,45.26h26.86l5.1-8H384.31"/></svg>