<svg id="Grey" xmlns="http://www.w3.org/2000/svg" viewBox="0 0 480 270"><defs><style>.cls-1{fill:#272d35;}</style></defs><path class="cls-1" d="M208.82,111c-5.36,0-10.94,1.47-17.83,5.14l3.83,9.47c6-3.34,10.93-4.81,14.55-4.81,4.1,0,5.91,1.53,5.91,3.55v.12c0,1.41-1.1,2.18-3.83,2.45l-4.75.49c-11.82,1.26-16.69,6.41-16.69,13.51v.49c0,6.77,5.57,12,13.45,12a14.79,14.79,0,0,0,12.4-6l.89,5.36h10.72V128.48c0-11.52-6.62-17.49-18.65-17.49m-1,33.2c-4,0-5.86-1.53-5.86-3.89v-.12c0-2.09,1.2-3.62,5.52-4.26l1.87-.28a14.22,14.22,0,0,0,6-1.83v3.06c0,4.65-2.91,7.32-7.5,7.32"/><polygon class="cls-1" points="108.01 111.26 94.29 97.54 80.59 111.26 87.39 118.06 53.03 152.46 66.72 166.18 80.44 152.46 73.61 145.63 108.01 111.26"/><rect class="cls-1" x="32.21" y="111.9" width="48.64" height="19.39" transform="translate(-69.43 75.59) rotate(-45)"/><rect class="cls-1" x="80.16" y="132.43" width="48.64" height="19.39" transform="translate(-69.9 115.51) rotate(-45)"/><rect class="cls-1" x="234.42" y="97.05" width="12.19" height="55.69"/><path class="cls-1" d="M169.55,111c-5.55,0-10,2.45-12.44,6.27l-.92-5.6H145.47v55h12.19v-19c2.33,3.58,6.71,5.85,11.92,5.85,9.74,0,17.67-8.64,17.67-20.55v-1.41c0-11.89-8-20.49-17.7-20.49m5.14,21.56c0,6.25-3.27,10.78-8.7,10.78s-8.69-4.53-8.69-10.78v-.7c0-6.28,3.27-10.79,8.69-10.79s8.7,4.54,8.7,10.79Z"/><path class="cls-1" d="M411,111c-12.47,0-21.23,8.63-21.23,20.55V133c0,11.91,8.76,20.55,21.23,20.55s21.23-8.64,21.23-20.55v-1.41c0-11.95-8.76-20.55-21.23-20.55m8.7,21.56c0,6.25-3.28,10.78-8.7,10.78s-8.7-4.53-8.7-10.78v-.7c0-6.28,3.28-10.79,8.7-10.79s8.7,4.54,8.7,10.79Z"/><path class="cls-1" d="M443.69,113.47v-.19c0-1.19-.88-2-2.51-2H438.4v6.4h1.31v-2.14h1.47l1.11,2.14h1.47l-1.35-2.54a1.65,1.65,0,0,0,1.28-1.65m-4-1h1.47c.83,0,1.2.28,1.2.92v.07c0,.55-.34.91-1.2.91h-1.47Z"/><path class="cls-1" d="M440.91,107.83a6.62,6.62,0,1,0,6.61,6.62,6.48,6.48,0,0,0-6.61-6.62m0,12.31a5.7,5.7,0,1,1,5.63-5.69,5.45,5.45,0,0,1-5.63,5.69"/><rect class="cls-1" x="341.69" y="97.05" width="12.19" height="55.69"/><path class="cls-1" d="M377.9,143.33c-3.55,0-4.87-1.74-4.87-5.48V121.06h14.33v-9.4H373v-9.4l-12.19,1.83V139c0,9.53,4.87,14.43,14.61,14.43A28.55,28.55,0,0,0,389,149.73l-3.49-8.63a18.82,18.82,0,0,1-7.63,2.23"/><path class="cls-1" d="M316.09,111c-5.36,0-10.94,1.47-17.83,5.14l3.83,9.47c6-3.34,10.93-4.81,14.55-4.81,4.1,0,5.91,1.53,5.91,3.55v.12c0,1.41-1.1,2.18-3.83,2.45l-4.75.49c-11.82,1.26-16.69,6.41-16.69,13.51v.49c0,6.77,5.57,12,13.45,12a14.79,14.79,0,0,0,12.4-6l.89,5.36h10.72V128.48c0-11.52-6.62-17.49-18.65-17.49m-1,33.2c-4,0-5.85-1.53-5.85-3.89v-.12c0-2.09,1.2-3.62,5.52-4.26l1.87-.28a14.22,14.22,0,0,0,6-1.83v3.06c0,4.65-2.91,7.32-7.51,7.32"/><path class="cls-1" d="M273.26,111C260.8,111,252,119.62,252,131.54V133c0,11.91,8.76,20.55,21.22,20.55s21.23-8.64,21.23-20.55v-1.41c0-11.95-8.76-20.55-21.23-20.55m8.7,21.56c0,6.25-3.27,10.78-8.7,10.78s-8.7-4.53-8.7-10.78v-.7c0-6.28,3.28-10.79,8.7-10.79s8.7,4.54,8.7,10.79Z"/><polygon class="cls-1" points="323.13 162.63 326.26 162.63 330.57 168.3 330.61 168.3 330.61 162.63 333.48 162.63 333.48 172.65 330.45 172.65 326.04 166.83 326.01 166.83 326.01 172.65 323.13 172.65 323.13 162.63"/><polygon class="cls-1" points="337.28 162.63 346.04 162.63 346.17 165.05 340.29 165.05 340.29 166.43 344.91 166.43 344.91 168.63 340.29 168.63 340.29 170.19 346.35 170.19 346.23 172.65 337.28 172.65 337.28 162.63"/><polygon class="cls-1" points="352.44 165.2 348.92 165.2 349.05 162.63 358.85 162.63 358.97 165.2 355.45 165.2 355.45 172.65 352.44 172.65 352.44 165.2"/><polygon class="cls-1" points="361.39 162.63 364.57 162.63 366.23 169.58 366.38 169.58 368.5 162.63 371.44 162.63 373.49 169.58 373.67 169.58 375.26 162.63 378.33 162.63 375.69 172.65 371.77 172.65 369.94 166.61 369.84 166.61 367.98 172.65 364.02 172.65 361.39 162.63"/><path class="cls-1" d="M380.53,167.62c0-3.28,2.21-5.3,5.73-5.3s5.73,2.06,5.73,5.3-2.21,5.3-5.73,5.3-5.73-2-5.73-5.3m8.46,0a2.73,2.73,0,1,0-2.73,2.76,2.52,2.52,0,0,0,2.73-2.76"/><path class="cls-1" d="M395.24,162.63h5.85c2.66,0,4,1.25,4,3.58a3.17,3.17,0,0,1-2,3.22l2.39,3.22h-3.4L400.23,170h-2v2.64h-3v-10Zm5.45,5a1.3,1.3,0,1,0,0-2.6h-2.45v2.63h2.45Z"/><polygon class="cls-1" points="408.96 162.63 411.96 162.63 411.96 166.31 413.19 166.31 416.13 162.63 419.5 162.63 419.53 162.63 415.67 167.44 419.74 172.62 419.71 172.65 416.22 172.65 413.19 168.79 411.96 168.79 411.96 172.65 408.96 172.65 408.96 162.63"/><path class="cls-1" d="M422,172v-2.76h0a10.54,10.54,0,0,0,4.72,1.26c1.07,0,1.62-.24,1.62-.77s-.37-.64-2.51-1c-2.36-.36-3.92-1.07-3.92-3.09,0-1.87,1.65-3.31,4.87-3.31a10.33,10.33,0,0,1,3.89.8v2.73l0,0a8.89,8.89,0,0,0-4.08-1.11c-1.13,0-1.59.28-1.59.74s.7.64,2.45,1c2.36.4,3.92,1.07,3.92,3.18,0,1.66-1.22,3.31-4.78,3.31a12.46,12.46,0,0,1-4.59-1"/></svg>