<?xml version="1.0" encoding="utf-8"?>
<!-- Generator: Adobe Illustrator 25.1.0, SVG Export Plug-In . SVG Version: 6.00 Build 0)  -->
<svg version="1.1"
	 id="svg8" inkscape:version="0.92.3 (2405546, 2018-03-11)" sodipodi:docname="spirit.svg" xmlns:cc="http://creativecommons.org/ns#" xmlns:dc="http://purl.org/dc/elements/1.1/" xmlns:inkscape="http://www.inkscape.org/namespaces/inkscape" xmlns:rdf="http://www.w3.org/1999/02/22-rdf-syntax-ns#" xmlns:serif="http://www.serif.com/" xmlns:sodipodi="http://sodipodi.sourceforge.net/DTD/sodipodi-0.dtd" xmlns:svg="http://www.w3.org/2000/svg"
	 xmlns="http://www.w3.org/2000/svg" xmlns:xlink="http://www.w3.org/1999/xlink" x="0px" y="0px" viewBox="0 0 286.2 79.7"
	 style="enable-background:new 0 0 286.2 79.7;" xml:space="preserve">
<style type="text/css">
	.st0{fill:#272D35;}
</style>
<sodipodi:namedview  bordercolor="#666666" borderopacity="1.0" fit-margin-bottom="0.5" fit-margin-left="0.5" fit-margin-right="0.5" fit-margin-top="0.5" id="base" inkscape:current-layer="layer1" inkscape:cx="132.00376" inkscape:cy="37.772239" inkscape:document-units="px" inkscape:pageopacity="0" inkscape:pageshadow="2" inkscape:window-height="1001" inkscape:window-maximized="1" inkscape:window-width="1920" inkscape:window-x="-9" inkscape:window-y="-9" inkscape:zoom="3.959798" pagecolor="#00ffff" showgrid="false" units="px">
	</sodipodi:namedview>
<g id="layer1" transform="translate(-67.967274,-64.201443)" inkscape:groupmode="layer" inkscape:label="Layer 1">
	<g id="g83" transform="matrix(0.26458333,0,0,0.26458333,68.099555,64.333713)">
		<g id="g51" transform="matrix(0.24,0,0,0.24,-35.9996,-104.631)">
			<g id="Layer-1" transform="scale(4.16667)" serif:id="Layer 1">
				<g id="g12" transform="translate(272.885,153.166)">
					<path id="path10" inkscape:connector-curvature="0" class="st0" d="M659.8,13.8h35.6l11.7-55.1h68l-11.8,55.1h44.9l-9.6,44.9
						h-44.9L739,128.6c-3.3,15.7,0,17.9,18.3,17.9c8.3,0,15.1-0.3,24.2-0.6l-9,42.3c-14.2,1.9-32.4,3.2-52.3,3.2
						c-44.3,0-60.2-10.9-52.2-48.4l18-84.4h-35.6L659.8,13.8z"/>
				</g>
				<g id="g16" transform="translate(248.461,166.742)">
					<path id="path14" inkscape:connector-curvature="0" class="st0" d="M591.9,0.2h68L623,174h-68L591.9,0.2z"/>
				</g>
				<g id="g20" transform="translate(251.886,115.492)">
					<path id="path18" inkscape:connector-curvature="0" class="st0" d="M601.5-9.5h68l-8.7,41h-68L601.5-9.5z"/>
				</g>
				<g id="g24" transform="matrix(-0.20794,0.978142,0.978142,0.20794,227.971,144.752)">
					<path id="path22" inkscape:connector-curvature="0" class="st0" d="M-68.2,427.5h177.7l-13.8,64.7l-177.7,0L-68.2,427.5z"/>
				</g>
				<g id="g28" transform="translate(239.017,143.886)">
					<path id="path26" inkscape:connector-curvature="0" class="st0" d="M565.7,15.4c-30.4,0-78.7,29.9-91.4,83.1l-3.3,12h1.1
						C481.8,87.4,506,75,538.6,75c8.8,0,18.8,1.2,26.8,3L578.6,16C574.3,15.6,569.8,15.4,565.7,15.4"/>
				</g>
				<g id="g32" transform="translate(175.427,166.742)">
					<path id="path30" inkscape:connector-curvature="0" class="st0" d="M388.9,0.2h68L420,174h-68L388.9,0.2z"/>
				</g>
				<g id="g36" transform="translate(178.848,115.492)">
					<path id="path34" inkscape:connector-curvature="0" class="st0" d="M398.4-9.5h68l-8.7,41h-68L398.4-9.5z"/>
				</g>
				<g id="g40" transform="translate(130.968,147.398)">
					<path id="path38" inkscape:connector-curvature="0" class="st0" d="M265.4,151c31.1,0,51.4-15.4,57.5-44.2
						c6.1-28.9-7.6-44.3-38.7-44.3c-31.8,0-52.1,17.3-57.8,44.3C220.6,133.7,233.6,151,265.4,151 M176.9,19.6H243l-4.9,23.1h0.6
						C256.9,25,283,15.1,310.6,15.1c61.6,0,94.4,34,81.6,94.3c-10.7,50.4-56.6,91-120.4,91c-30.1,0-51.1-9.9-59.9-22.7h-0.6
						l-16.7,78.6h-68L176.9,19.6z"/>
				</g>
				<g id="g44" transform="translate(57.1279,135.083)">
					<path id="path42" inkscape:connector-curvature="0" class="st0" d="M60.1,151.5c-0.4,6.4,1.1,11.5,6.5,14.8
						c5.4,3.5,14.2,5.4,29,5.4c15.1,0,31.7-2.9,34.4-15.4c2-9.3-4.2-11.9-20.5-13.8l-59.1-7.4c-38.7-4.8-55.9-18.9-49.6-48.4
						c10-47.1,53.5-61.9,118.6-61.9c46.2,0,102.8,8.3,96.1,57.7h-76.3c0.9-7.4-2.9-12.2-9.1-14.7c-6.1-2.9-14.9-3.9-23.6-3.9
						c-19.6,0-32,4.5-34.6,16.4c-1.2,5.5,2.3,10.3,19.2,12.2l57.3,6.4c45.7,5.1,65.7,19.6,58.5,53.5c-8.7,41-51.9,60.3-124.1,60.3
						c-48.1,0-111.4-8.6-101.8-61.2H60.1z"/>
				</g>
				<g id="g48" transform="translate(317.526,124.509)">
					<path id="path46" inkscape:connector-curvature="0" class="st0" d="M783.9,56.1c0.8,0,1.4-0.2,1.9-0.6c0.5-0.4,0.7-0.9,0.7-1.6
						c0-0.6-0.2-1.1-0.6-1.5c-0.4-0.4-1.1-0.6-2-0.6h-1.7v4.3H783.9z M778.7,49.2h5.9c1.6,0,2.9,0.4,4,1.1c1.1,0.7,1.7,1.9,1.7,3.6
						c0,0.8-0.2,1.6-0.7,2.3c-0.5,0.7-1.1,1.3-2,1.6l3.1,5.6H787l-2.3-4.6h-2.4v4.6h-3.6V49.2z M784.2,67.5c1.5,0,2.8-0.3,4.1-0.8
						c1.3-0.5,2.4-1.3,3.3-2.3c0.9-1,1.6-2.1,2.2-3.5c0.5-1.4,0.8-2.9,0.8-4.5s-0.3-3.2-0.8-4.5c-0.5-1.4-1.2-2.6-2.2-3.6
						c-0.9-1-2-1.8-3.3-2.3c-1.3-0.5-2.7-0.8-4.1-0.8c-1.5,0-2.9,0.3-4.2,0.8c-1.3,0.5-2.4,1.3-3.3,2.3c-0.9,1-1.6,2.2-2.2,3.6
						c-0.5,1.4-0.8,2.9-0.8,4.5s0.3,3.2,0.8,4.5c0.5,1.3,1.2,2.5,2.2,3.5c0.9,1,2,1.7,3.3,2.3C781.3,67.2,782.7,67.5,784.2,67.5
						 M784.2,70.6c-1.9,0-3.7-0.3-5.3-1c-1.7-0.7-3.1-1.7-4.4-2.9c-1.3-1.3-2.2-2.7-2.9-4.5c-0.7-1.7-1.1-3.6-1.1-5.7
						c0-2.1,0.4-4,1.1-5.8c0.7-1.8,1.7-3.3,2.9-4.5c1.3-1.3,2.7-2.2,4.4-2.9c1.7-0.7,3.4-1,5.3-1c1.9,0,3.7,0.3,5.3,1
						c1.7,0.7,3.1,1.7,4.4,2.9c1.3,1.3,2.2,2.8,2.9,4.5c0.7,1.8,1.1,3.7,1.1,5.8c0,2.1-0.4,4-1.1,5.7c-0.7,1.7-1.7,3.2-2.9,4.5
						c-1.3,1.3-2.7,2.2-4.4,2.9C787.9,70.2,786.1,70.6,784.2,70.6"/>
				</g>
			</g>
		</g>
	</g>
</g>
</svg>
