<?xml version="1.0" encoding="utf-8"?>
<!-- Generator: Adobe Illustrator 25.1.0, SVG Export Plug-In . SVG Version: 6.00 Build 0)  -->
<svg version="1.1" id="Layer_1" xmlns="http://www.w3.org/2000/svg" xmlns:xlink="http://www.w3.org/1999/xlink" x="0px" y="0px"
	 viewBox="0 0 226.6 43.2" style="enable-background:new 0 0 226.6 43.2;" xml:space="preserve">
<style type="text/css">
	.st0{fill:#272D35;}
</style>
<g>
	<path class="st0" d="M172.2,21.7c1.7,0,2.3-0.7,2.3-2.2c0-1.5-0.8-2.2-2.3-2.2H170v11.1c0,0.3-0.3,0.6-0.6,0.6H168
		c-0.3,0-0.6-0.3-0.6-0.6v-12c0-0.3,0.3-0.6,0.6-0.6h4.5c2.7,0,4.4,1.2,4.4,3.8c0,2-1.3,2.9-2.7,3.3l2.9,5.4
		c0.1,0.1,0.1,0.2,0.1,0.4c0,0.2-0.2,0.4-0.4,0.4h-1.7c-0.2,0-0.4-0.2-0.5-0.4l-3.1-6c-0.1-0.1-0.2-0.4-0.2-0.6
		c0-0.2,0.1-0.4,0.5-0.4H172.2z"/>
	<path class="st0" d="M184.9,29.3c-2.6,0-5.8-0.9-5.8-6.9c0-6,3.2-6.9,5.8-6.9c2.6,0,5.8,0.9,5.8,6.9
		C190.7,28.3,187.5,29.3,184.9,29.3 M184.9,17c-2.7,0-3.2,2.5-3.2,5.4c0,3,0.5,5.4,3.2,5.4c2.6,0,3.3-2.3,3.3-5.4
		C188.1,19.5,187.6,17,184.9,17"/>
	<path class="st0" d="M198.2,29.3c-3.6,0-5-2-5-4.4v-8.5c0-0.3,0.3-0.6,0.6-0.6h1.3c0.3,0,0.6,0.3,0.6,0.6V25c0,2.2,1.1,2.8,2.5,2.8
		c1.9,0,2.5-1.1,2.5-2.8v-8.6c0-0.3,0.3-0.6,0.6-0.6h1.1c0.3,0,0.6,0.3,0.6,0.6v8.5C203.2,27.7,201.4,29.3,198.2,29.3"/>
	<path class="st0" d="M210.2,22.4h0.7c1.3,0,2.4-0.7,2.4-2.5c0-2-1-2.6-2.5-2.6h-2.1v11.1c0,0.3-0.2,0.6-0.6,0.6h-1.3
		c-0.3,0-0.6-0.3-0.6-0.6v-12c0-0.3,0.3-0.6,0.6-0.6h4.8c2.6,0,4.1,1.6,4.1,4.1c0,2.3-1.4,3.9-4.1,3.9c-0.5,0-1-0.1-1.3-0.1
		c-0.5-0.1-0.8-0.4-0.8-0.7C209.4,22.7,209.7,22.4,210.2,22.4"/>
	<path class="st0" d="M146.1,29h-1.3c-0.4,0-0.6-0.3-0.6-0.6v-5.3h-5.1v5.3c0,0.4-0.3,0.6-0.7,0.6h-1.3c-0.4,0-0.6-0.3-0.6-0.6v-12
		c0-0.3,0.3-0.6,0.6-0.6h1.3c0.3,0,0.6,0.3,0.6,0.6v4.8h5.1v-4.8c0-0.3,0.3-0.6,0.6-0.6h1.3c0.3,0,0.6,0.3,0.6,0.6v12
		C146.8,28.7,146.5,29,146.1,29"/>
	<path class="st0" d="M11.5,29.3c-4.1,0-5.5-2.3-5.5-5v-9.5C6,14.4,6.3,14,6.7,14h1.1c0.4,0,0.7,0.4,0.7,0.7v9.7
		c0,2.5,1.4,3.1,3,3.1c2.1,0,3-1.1,3-3.1v-9.7c0-0.4,0.3-0.7,0.7-0.7h1c0.4,0,0.7,0.4,0.7,0.7v9.5C17,27.4,15.1,29.3,11.5,29.3"/>
	<path class="st0" d="M68.6,29h-4.8c-0.3,0-0.6-0.3-0.6-0.6v-12c0-0.3,0.3-0.7,0.6-0.7h4.8c3.1,0,5.6,1.7,5.6,6.7
		C74.3,27.6,71.6,29,68.6,29 M68,17.3h-2.3v10.2H68c3,0,3.7-2.3,3.7-5C71.7,19.7,71,17.3,68,17.3"/>
	<path class="st0" d="M87.9,29h-1.1c-0.4,0-0.7-0.3-0.7-0.7v-6.1H80v6.1c0,0.4-0.3,0.7-0.7,0.7h-1.1c-0.4,0-0.7-0.3-0.7-0.7V14.9
		c0-0.4,0.3-0.7,0.7-0.7h1.2c0.4,0,0.7,0.3,0.7,0.7v5.5H86v-5.5c0-0.4,0.3-0.7,0.7-0.7h1.2c0.4,0,0.7,0.3,0.7,0.7v13.4
		C88.6,28.7,88.3,29,87.9,29"/>
	<path class="st0" d="M123.6,29h-6.4c-0.4,0-0.7-0.3-0.7-0.7v-12c0-0.3,0.3-0.6,0.6-0.6h1.3c0.3,0,0.6,0.3,0.6,0.6v10.7h4.5
		c0.3,0,0.6,0.3,0.6,0.6v0.6C124.2,28.7,123.9,29,123.6,29"/>
	<path class="st0" d="M37,29h-1.3c-0.4,0-0.7-0.3-0.7-0.7V16.4c0-0.3,0.3-0.7,0.6-0.7H37c0.3,0,0.6,0.3,0.6,0.7v11.9
		C37.6,28.7,37.4,29,37,29"/>
	<path class="st0" d="M49.3,17.6h-3v10.7c0,0.4-0.3,0.7-0.6,0.7h-1.3c-0.4,0-0.6-0.3-0.6-0.7V17.6h-3c-0.3,0-0.6-0.3-0.6-0.6v-0.6
		c0-0.3,0.3-0.7,0.6-0.7h8.6c0.3,0,0.6,0.3,0.6,0.7V17C49.9,17.4,49.6,17.6,49.3,17.6"/>
	<path class="st0" d="M133.5,17.6h-3.2v10.7c0,0.4-0.3,0.7-0.6,0.7h-1.3c-0.4,0-0.6-0.3-0.6-0.7V17.6h-3.2c-0.3,0-0.6-0.3-0.6-0.6
		v-0.6c0-0.3,0.3-0.7,0.6-0.7h9.1c0.3,0,0.6,0.3,0.6,0.7V17C134.2,17.4,133.9,17.6,133.5,17.6"/>
	<path class="st0" d="M60.3,29h-7.5c-0.3,0-0.6-0.2-0.6-0.6v-12c0-0.3,0.3-0.7,0.6-0.7H60c0.3,0,0.6,0.3,0.6,0.7V17
		c0,0.3-0.3,0.6-0.6,0.6h-5.2v3.7h4.7c0.3,0,0.6,0.3,0.6,0.6v0.5c0,0.3-0.3,0.6-0.6,0.6h-4.7v4.2l5.5,0c0.3,0,0.6,0.3,0.6,0.6v0.6
		C60.9,28.8,60.6,29,60.3,29"/>
	<path class="st0" d="M100.2,29h-7.5c-0.3,0-0.6-0.2-0.6-0.6v-12c0-0.3,0.3-0.7,0.6-0.7h7.2c0.3,0,0.6,0.3,0.6,0.7V17
		c0,0.3-0.3,0.6-0.6,0.6h-5.2v3.7h4.7c0.3,0,0.6,0.3,0.6,0.6v0.5c0,0.3-0.3,0.6-0.6,0.6h-4.7v4.2l5.5,0c0.3,0,0.6,0.3,0.6,0.6v0.6
		C100.8,28.8,100.5,29,100.2,29"/>
	<path class="st0" d="M30.4,29h-2c-0.6,0-0.9-0.3-1-0.6c-1-2.1-4.7-10.5-4.7-10.5v10.5c0,0.3-0.3,0.6-0.6,0.6h-0.9
		c-0.3,0-0.6-0.3-0.6-0.6v-12c0-0.3,0.3-0.6,0.6-0.6h1.9c0.6,0,0.9,0.2,1.1,0.6c1,2.2,4.7,10.5,4.7,10.5V16.4c0-0.3,0.3-0.6,0.6-0.6
		h0.9c0.3,0,0.6,0.3,0.6,0.6v12C31.1,28.7,30.8,29,30.4,29"/>
	<path class="st0" d="M163.9,28.6c-0.7,0.3-1.8,0.8-4.1,0.8c-3.7,0-7.1-1.6-7.1-7.8c0-4.9,2.1-7.8,7.1-7.8c2.3,0,3.6,0.6,3.9,0.7
		c0.5,0.2,0.5,0.3,0.5,0.5c0,0.1-0.1,0.4-0.1,0.5c-0.1,0.4-0.2,1-0.2,1.3c0,0.2-0.1,0.4-0.3,0.4c-0.2,0-0.4-0.3-0.6-0.4
		c-0.2-0.2-1.3-1.4-3.2-1.4c-3.6,0-4.2,3.4-4.2,6c0,3.6,1.2,6,4.2,6c1.1,0,1.7-0.2,1.9-0.2v-4.9c0-0.3,0.2-0.4,0.5-0.4h1.6
		c0.3,0,0.5,0.1,0.5,0.4v5.4C164.3,28.4,164.3,28.4,163.9,28.6"/>
	<path class="st0" d="M114,28.2l-3.8-11.8c-0.1-0.4-0.5-0.6-0.9-0.6h-1.7c-0.5,0-0.8,0.2-0.9,0.6l-3.8,11.9c0,0.1-0.1,0.2-0.1,0.3
		c0,0.3,0.2,0.5,0.5,0.5h0.9c0.5,0,0.8-0.2,0.9-0.6l0.8-2.5h4.8l0.8,2.5c0.1,0.3,0.4,0.6,0.9,0.6h1.2c0.3,0,0.5-0.2,0.5-0.5
		C114.1,28.4,114.1,28.3,114,28.2 M106.3,24.3l2-6.6l1.9,6.6H106.3z"/>
	<path class="st0" d="M218.7,15.5c1.1,0,1.9,0.9,1.9,1.9s-0.9,1.9-1.9,1.9c-1,0-1.9-0.9-1.9-1.9S217.7,15.5,218.7,15.5 M218.7,19
		c0.9,0,1.5-0.7,1.5-1.6s-0.7-1.6-1.5-1.6c-0.9,0-1.5,0.7-1.5,1.6S217.8,19,218.7,19 M218,16.3h0.9c0.5,0,0.8,0.2,0.8,0.6
		c0,0.4-0.2,0.6-0.6,0.6l0.6,1h-0.4l-0.6-1h-0.3v1H218V16.3z M218.3,17.2h0.4c0.3,0,0.5-0.1,0.5-0.3c0-0.3-0.2-0.3-0.5-0.3h-0.4
		V17.2z"/>
</g>
</svg>
