<svg id="Grey" xmlns="http://www.w3.org/2000/svg" viewBox="0 0 480 270"><defs><style>.cls-1{fill:#272d35;}</style></defs><g id="vmware"><path class="cls-1" d="M213.77,157.63l-15.24-42.45a6.72,6.72,0,0,1-.48-2,3.69,3.69,0,0,1,3.79-3.58,3.92,3.92,0,0,1,3.78,3.1l12.64,36.55L231,112.57a3.83,3.83,0,0,1,3.7-3H235a4,4,0,0,1,3.88,3l12.61,36.66,12.8-36.74a3.69,3.69,0,0,1,3.61-2.91,3.61,3.61,0,0,1,3.7,3.49,7,7,0,0,1-.5,2l-15.32,42.53c-.79,2.22-2.34,3.39-4.09,3.39h-.29c-1.94,0-3.4-1.17-4.08-3.39l-12.53-36-12.6,36c-.68,2.22-2.13,3.39-4.08,3.39H218c-1.85,0-3.4-1.17-4.18-3.39"/><path class="cls-1" d="M324.8,113.28a3.75,3.75,0,1,1,7.5,0v8.61c3.7-8.36,11.89-12.31,17.31-12.31a3.58,3.58,0,0,1,3.68,3.79,3.7,3.7,0,0,1-3.29,3.79c-9.74,1.17-17.7,8.47-17.7,23v17a3.75,3.75,0,1,1-7.5,0V113.28"/><path class="cls-1" d="M377.31,161.41c-13.52,0-24.57-10.48-24.57-25.87v-.21c0-14.34,10-25.88,23.61-25.88,14.58,0,22.86,12,22.86,25.21a3.41,3.41,0,0,1-3.42,3.46H360.17c1.05,10.78,8.56,16.84,17.34,16.84a20,20,0,0,0,14.19-5.76,3.1,3.1,0,0,1,2.09-.88,3.17,3.17,0,0,1,2.1,5.6,24.93,24.93,0,0,1-18.58,7.49m14.58-28.75c-.77-9.07-5.91-17-15.71-17-8.6,0-15.07,7.19-16,17Z"/><path class="cls-1" d="M271.75,145.84v-.19c0-10.57,8.72-16.19,21.43-16.19a52.4,52.4,0,0,1,15.39,2.14v-1.75c0-9-5.52-13.67-14.91-13.67A25.42,25.42,0,0,0,282,118.47a4.06,4.06,0,0,1-1.35.29,3.34,3.34,0,0,1-3.31-3.23,3,3,0,0,1,2.06-3.08c4.94-2.15,8.65-2.87,15-2.87,7.08,0,12.5,1.86,16.18,5.53,3.4,3.39,5.14,8.25,5.14,14.64v27.66a3.54,3.54,0,0,1-3.6,3.68,3.44,3.44,0,0,1-3.58-3.49v-4.79a22,22,0,0,1-18.11,8.63c-9.31,0-18.71-5.32-18.71-15.6M308.67,142V137.1A52.79,52.79,0,0,0,293.94,135c-9.39,0-14.64,4-14.64,10.35v.21c0,6.28,5.83,10,12.62,10,9.19,0,16.75-5.61,16.75-13.55"/><path class="cls-1" d="M78,112.73a7.07,7.07,0,0,0-9.51-3.53A6.92,6.92,0,0,0,65,118.68l15.9,34.56c2.51,5.42,5.13,8.26,10.09,8.26,5.28,0,7.59-3.09,10.08-8.26,0,0,13.88-30.19,14-30.53a2,2,0,0,1,2-1.27,2.21,2.21,0,0,1,2.2,2.24v29.55c0,4.53,2.52,8.27,7.39,8.27s7.46-3.74,7.46-8.27V129.05c0-4.66,3.35-7.7,7.92-7.7s7.57,3.13,7.57,7.7v24.18c0,4.53,2.53,8.27,7.39,8.27s7.49-3.74,7.49-8.27V129.05c0-4.66,3.32-7.7,7.88-7.7s7.58,3.13,7.58,7.7v24.18c0,4.53,2.54,8.27,7.38,8.27s7.5-3.74,7.5-8.27V125.7c0-10.11-8.13-17.2-17.92-17.2a23,23,0,0,0-15.89,6.77c-3.25-4.22-7.74-6.75-15.34-6.75-8,0-15,6.75-15,6.75a18,18,0,0,0-13.37-6.75c-7.11,0-12.73,3.12-16.18,11L91,143.43l-13-30.7"/><path class="cls-1" d="M403.52,116.1v0a6.08,6.08,0,1,1,12.16,0v0a6.08,6.08,0,1,1-12.16,0m11,0v0a4.88,4.88,0,0,0-4.9-4.94,4.94,4.94,0,0,0-4.93,5v0a4.92,4.92,0,1,0,9.83,0"/><path class="cls-1" d="M407.27,113.53a.66.66,0,0,1,.64-.66h2a2.39,2.39,0,0,1,1.72.59,2,2,0,0,1,.5,1.37h0a1.78,1.78,0,0,1-1.16,1.78l.9,1.09a.86.86,0,0,1,.21.5.61.61,0,0,1-.63.6.75.75,0,0,1-.63-.34l-1.26-1.61h-1v1.3a.65.65,0,1,1-1.3,0Zm2.6,2.19c.63,0,1-.33,1-.81v0c0-.56-.38-.84-1-.84h-1.3v1.68Z"/></g></svg>