<svg id="Layer_1" data-name="Layer 1" xmlns="http://www.w3.org/2000/svg" width="583.1" height="143.8" viewBox="0 0 583.1 143.8"><defs><style>.cls-1{fill:#272d35;}</style></defs><path class="cls-1" d="M143.8,71.9a71.82,71.82,0,1,1-41.1-65,18.28,18.28,0,0,0-5.1-.6c-15,0-31.5,6.4-43.5,16.4C41.8,32.9,32.1,50.2,32.2,68c.1,27.1,20.6,43.9,40.4,43.9a38.4,38.4,0,0,0,38.7-38.4c-.1-18.3-10-31.5-31.9-36.8,0-.2-.1-.7-.1-1.2,0-13.8,10.4-26,23.4-28.7h0A72.13,72.13,0,0,1,143.8,71.9Z"/><polygon class="cls-1" points="190.2 101.7 168.2 49.2 182.5 49.2 196.3 84 209.5 49.2 223.2 49.2 201.9 101.7 190.2 101.7"/><path class="cls-1" d="M274.8,75.2a31.83,31.83,0,0,1-1.6,10.1,28.1,28.1,0,0,1-4.7,8.9,23.12,23.12,0,0,1-18.8,8.7,23.79,23.79,0,0,1-11-2.4,22.15,22.15,0,0,1-7.8-6.3,28.1,28.1,0,0,1-4.7-8.9,31.83,31.83,0,0,1-1.6-10.1,31.23,31.23,0,0,1,1.6-10,27.6,27.6,0,0,1,4.7-8.8,23.81,23.81,0,0,1,7.8-6.2,24.06,24.06,0,0,1,11-2.3,25.11,25.11,0,0,1,11,2.3,23.81,23.81,0,0,1,7.8,6.2,25.76,25.76,0,0,1,4.7,8.8,34.26,34.26,0,0,1,1.6,10m-13.3,0a24.46,24.46,0,0,0-.8-6.2,15,15,0,0,0-2.3-5.1,12,12,0,0,0-3.7-3.4,9.69,9.69,0,0,0-5.1-1.3,9.22,9.22,0,0,0-5.1,1.3,13.29,13.29,0,0,0-3.7,3.4,15,15,0,0,0-2.3,5.1,25.07,25.07,0,0,0-.8,6.2,24.67,24.67,0,0,0,.8,6.3,19.64,19.64,0,0,0,2.2,5.1,10,10,0,0,0,3.7,3.4,10.82,10.82,0,0,0,5.2,1.3,9.22,9.22,0,0,0,5.1-1.3,10.94,10.94,0,0,0,3.7-3.4,16.93,16.93,0,0,0,2.3-5.1,25.88,25.88,0,0,0,.8-6.3"/><path class="cls-1" d="M316.4,101.7l-.5-4a15.59,15.59,0,0,1-4.9,3.6,14.73,14.73,0,0,1-7.2,1.6,19.36,19.36,0,0,1-9.5-2.3,20.17,20.17,0,0,1-6.9-6.1,27.77,27.77,0,0,1-4.3-8.8,35.83,35.83,0,0,1-1.5-10.4,34.14,34.14,0,0,1,1.5-10,25.54,25.54,0,0,1,4.6-8.8,22.82,22.82,0,0,1,7.8-6.2,23.78,23.78,0,0,1,11-2.3,30.15,30.15,0,0,1,8.9,1.5V29.1h13.5v72.6Zm-1.1-40.9a20.26,20.26,0,0,0-7.3-1.5,11.81,11.81,0,0,0-10.1,4.8,15.41,15.41,0,0,0-2.4,5,22.39,22.39,0,0,0-.8,5.7,25.89,25.89,0,0,0,.7,6.3,16.32,16.32,0,0,0,2.2,5.2,11.55,11.55,0,0,0,3.7,3.6,9.85,9.85,0,0,0,5.2,1.4,10.89,10.89,0,0,0,5.1-1.4,9.15,9.15,0,0,0,3.7-3.2V60.8Z"/><path class="cls-1" d="M367.9,101.6l-.5-3.9a15,15,0,0,1-5.6,3.8,19.89,19.89,0,0,1-7.4,1.4,20.16,20.16,0,0,1-6.5-1.1,16.15,16.15,0,0,1-5.5-3.3,16.92,16.92,0,0,1-3.9-5.2,16,16,0,0,1-1.5-7,15.23,15.23,0,0,1,1.5-6.9,15.66,15.66,0,0,1,4.1-5.1,21.81,21.81,0,0,1,6-3.4,41.37,41.37,0,0,1,7.1-2,46,46,0,0,1,5.7-.8c2.1-.2,3.8-.3,5.2-.5v-.8c0-2.9-.7-5-2.2-6.2a9.54,9.54,0,0,0-6.2-1.8,21.18,21.18,0,0,0-4.4.5,17.82,17.82,0,0,0-3.7,1.4,25.17,25.17,0,0,0-2.9,1.6,11.55,11.55,0,0,0-2,1.5l-4.5-9.5c.6-.5,1.5-1.1,2.7-1.9a30.49,30.49,0,0,1,4.4-2.1,28.43,28.43,0,0,1,5.8-1.7,29.87,29.87,0,0,1,6.9-.7,27.41,27.41,0,0,1,7.9,1.1,16.61,16.61,0,0,1,6.2,3.6,17.23,17.23,0,0,1,4.1,6.2,24.41,24.41,0,0,1,1.5,9.1v33.7Zm-1.1-24.5c-1.5.1-3,.2-4.5.4s-3,.4-4.4.7c-2.9.6-4.9,1.6-6.1,3a7.48,7.48,0,0,0-1.7,4.6A5.22,5.22,0,0,0,352,90a8.09,8.09,0,0,0,5.4,1.6,12.63,12.63,0,0,0,5.1-1.1,15.13,15.13,0,0,0,4.2-2.7V77.1Z"/><path class="cls-1" d="M421.8,41.1a22.47,22.47,0,0,0-2.6-.9,17.79,17.79,0,0,0-5.1-.6,6.77,6.77,0,0,0-4.7,1.7c-1.3,1.1-1.9,3-1.9,5.5v2.4h11.3V60.1H407.6v41.6H394.1V60.1h-7V49.2h7V46.4a24,24,0,0,1,1.3-8.6A15.93,15.93,0,0,1,399,32a14.72,14.72,0,0,1,5.5-3.3,21.72,21.72,0,0,1,6.9-1,30.19,30.19,0,0,1,8.1.9,18.2,18.2,0,0,1,3.8,1.3Z"/><path class="cls-1" d="M471.9,75.2a31.83,31.83,0,0,1-1.6,10.1,28.1,28.1,0,0,1-4.7,8.9,23.12,23.12,0,0,1-18.8,8.7,23.79,23.79,0,0,1-11-2.4,22.15,22.15,0,0,1-7.8-6.3,28.1,28.1,0,0,1-4.7-8.9,31.83,31.83,0,0,1-1.6-10.1,31.23,31.23,0,0,1,1.6-10,27.6,27.6,0,0,1,4.7-8.8,23.81,23.81,0,0,1,7.8-6.2,24.06,24.06,0,0,1,11-2.3,25.11,25.11,0,0,1,11,2.3,23.81,23.81,0,0,1,7.8,6.2,25.76,25.76,0,0,1,4.7,8.8,31.23,31.23,0,0,1,1.6,10m-13.3,0a24.46,24.46,0,0,0-.8-6.2,15,15,0,0,0-2.3-5.1,12,12,0,0,0-3.7-3.4,10.72,10.72,0,0,0-5.1-1.3,9.22,9.22,0,0,0-5.1,1.3,13.29,13.29,0,0,0-3.7,3.4,15,15,0,0,0-2.3,5.1,25.07,25.07,0,0,0-.8,6.2,24.67,24.67,0,0,0,.8,6.3,19.64,19.64,0,0,0,2.2,5.1,10,10,0,0,0,3.7,3.4,10.82,10.82,0,0,0,5.2,1.3,9.22,9.22,0,0,0,5.1-1.3,10.94,10.94,0,0,0,3.7-3.4,16.93,16.93,0,0,0,2.3-5.1,21.78,21.78,0,0,0,.8-6.3"/><path class="cls-1" d="M513.8,101.7v-30c0-4-.8-7.1-2.5-9.3a8.32,8.32,0,0,0-7-3.3,10.8,10.8,0,0,0-5.8,1.6,24.48,24.48,0,0,0-4.6,3.6v37.2H480.4V49.2h12.3l.7,4.1a23.67,23.67,0,0,1,7.1-4,24.5,24.5,0,0,1,8-1.4,20.56,20.56,0,0,1,7.6,1.3,15.1,15.1,0,0,1,6,4,18,18,0,0,1,3.9,7.1,35.37,35.37,0,0,1,1.4,10.4v31Z"/><path class="cls-1" d="M548.9,78.8q.45,6.6,4.2,9.6c2.5,2,5.7,2.9,9.6,2.9a27.56,27.56,0,0,0,5.1-.5,18,18,0,0,0,4.3-1.3,32.61,32.61,0,0,0,3.2-1.5,13.31,13.31,0,0,0,2-1.4l3.6,11a17.54,17.54,0,0,1-2.4,1.5,21.43,21.43,0,0,1-4.2,1.7,51.77,51.77,0,0,1-5.9,1.4,41.83,41.83,0,0,1-7.4.6,28.21,28.21,0,0,1-9.7-1.6,21.45,21.45,0,0,1-8.1-5.1,24,24,0,0,1-5.5-8.5,32.1,32.1,0,0,1-2.1-12.2,32.64,32.64,0,0,1,1.9-11.7,25.36,25.36,0,0,1,5.2-8.6,22.6,22.6,0,0,1,7.7-5.3,24.58,24.58,0,0,1,9.4-1.8,26,26,0,0,1,9.3,1.6,18.6,18.6,0,0,1,7.3,5.1,23.7,23.7,0,0,1,4.9,8.9,41,41,0,0,1,1.8,12.9v2.4H548.9Zm20.3-9.7a13,13,0,0,0-1.1-4.7,11.44,11.44,0,0,0-2.3-3.3,9.53,9.53,0,0,0-3-1.9,9.06,9.06,0,0,0-3.2-.6,10.68,10.68,0,0,0-6.7,2.6,11,11,0,0,0-3.7,7.8h20Z"/></svg>