<?xml version="1.0" encoding="utf-8"?>
<!-- Generator: Adobe Illustrator 25.2.3, SVG Export Plug-In . SVG Version: 6.00 Build 0)  -->
<svg version="1.1" id="Layer_1" xmlns="http://www.w3.org/2000/svg" xmlns:xlink="http://www.w3.org/1999/xlink" x="0px" y="0px"
	 viewBox="0 0 50 50" style="enable-background:new 0 0 50 50;" xml:space="preserve">
<style type="text/css">
	.st0{fill:#FFFFFF;}
</style>
<g id="Layer_5">
	<path class="st0" d="M45.4,32.8c-0.4-0.2-0.9-0.4-1.4-0.4V17.6c0.5,0,1-0.2,1.4-0.4c1.6-0.9,2.2-3.1,1.3-4.7
		c-0.6-1.1-1.8-1.7-3-1.7c-0.6,0-1.2,0.2-1.7,0.5c-0.4,0.2-0.8,0.6-1.1,1L28.1,4.9c0.8-1.7,0.1-3.8-1.7-4.6
		c-1.7-0.8-3.8-0.1-4.6,1.7c-0.4,0.9-0.4,2,0,2.9L9.1,12.2c-0.3-0.4-0.6-0.8-1.1-1c-0.5-0.3-1.1-0.5-1.7-0.5c-1.9,0-3.4,1.5-3.4,3.4
		c0,1.2,0.7,2.4,1.7,3C5,17.4,5.5,17.6,6,17.6v14.7c-0.5,0-1,0.2-1.4,0.4c-1.7,0.9-2.2,3.1-1.3,4.7s3.1,2.2,4.7,1.3
		c0.4-0.2,0.8-0.6,1.1-1l12.8,7.3c-0.2,0.5-0.3,1-0.3,1.5c0,1.9,1.5,3.4,3.4,3.4c1.9,0,3.4-1.5,3.4-3.4c0-0.5-0.1-1-0.3-1.5
		l12.8-7.4c0.3,0.4,0.7,0.8,1.1,1c1.7,0.9,3.8,0.4,4.7-1.3C47.6,35.8,47,33.7,45.4,32.8L45.4,32.8L45.4,32.8z M40.9,33.8L36,31
		c2.2-2.6,1.9-6.4-0.6-8.6c-0.4-0.3-0.8-0.6-1.2-0.8c0-0.3,0.1-0.6,0.1-0.9c0-0.2,0-0.5,0-0.7l6.6-3.8c0.6,0.8,1.5,1.4,2.5,1.5v14.8
		C42.4,32.4,41.5,33,40.9,33.8L40.9,33.8z M17.7,31.9c-2.2,0-4.1-1.8-4.1-4.1c0-2.1,1.5-3.8,3.6-4l0.7-0.1l-0.1-0.7
		c-0.1-0.3-0.1-0.6-0.1-0.9c0-2.2,1.8-4.1,4.1-4.1c0.5,0,1,0.1,1.5,0.3l0.5,0.2l0.3-0.4c1.4-2.3,4.4-3,6.7-1.5
		c1.4,0.9,2.3,2.4,2.3,4.1c0,0.4,0,0.8-0.1,1.1l-0.1,0.5l0.5,0.2c2.5,1,3.7,3.9,2.6,6.4c-0.8,1.8-2.5,3-4.5,3L17.7,31.9z M9.1,33.8
		c-0.6-0.8-1.5-1.3-2.5-1.4V17.6c1-0.1,1.9-0.6,2.5-1.5l7.6,4.4c-0.2,0.5-0.3,1.1-0.3,1.6c0,0.2,0,0.3,0,0.5
		c-2.8,0.7-4.6,3.6-3.9,6.4c0.2,0.8,0.5,1.5,1,2.1L9.1,33.8z M42.3,11.8c0.4-0.2,0.9-0.4,1.4-0.4c1.6,0,2.8,1.2,2.8,2.8
		c0,1-0.5,2-1.4,2.5c-1.3,0.8-3.1,0.3-3.8-1c0,0,0,0,0,0C40.4,14.4,40.8,12.6,42.3,11.8C42.2,11.8,42.2,11.8,42.3,11.8L42.3,11.8z
		 M40.6,12.8c-0.4,0.9-0.4,2,0,2.9l-6.4,3.7c-0.7-3.3-4-5.3-7.3-4.6c-0.5,0.1-1.1,0.3-1.6,0.6V6.8c1-0.1,1.9-0.6,2.5-1.4L40.6,12.8z
		 M25,0.6c1.6,0,2.8,1.3,2.8,2.8S26.6,6.3,25,6.3c-1.6,0-2.8-1.3-2.8-2.8c0,0,0,0,0,0C22.2,1.9,23.4,0.6,25,0.6
		C25,0.6,25,0.6,25,0.6z M22.2,5.4c0.6,0.8,1.5,1.4,2.5,1.4v8.8c-0.6,0.4-1,0.9-1.4,1.4c-0.5-0.1-1-0.2-1.5-0.2
		c-2.1,0-4,1.2-4.8,3.1l-7.5-4.3c0.4-0.9,0.4-2,0-2.9L22.2,5.4z M3.9,12.8c0.8-1.3,2.5-1.8,3.9-1c1.3,0.8,1.8,2.5,1,3.9
		c-0.8,1.3-2.5,1.8-3.9,1c0,0,0,0,0,0C3.5,15.9,3.1,14.2,3.9,12.8z M7.7,38.2c-1.3,0.8-3.1,0.3-3.9-1c-0.8-1.3-0.3-3.1,1-3.9
		s3.1-0.3,3.9,1c0,0,0,0,0,0C9.5,35.7,9.1,37.4,7.7,38.2C7.8,38.2,7.7,38.2,7.7,38.2z M9.4,37.2c0.4-0.9,0.4-2,0-2.9l4.7-2.7
		c1,1,2.3,1.5,3.7,1.5h6.9v10c-1,0.1-1.9,0.6-2.5,1.4L9.4,37.2z M25,49.4c-1.6,0-2.8-1.3-2.8-2.8c0-1.6,1.3-2.8,2.8-2.8
		c1.6,0,2.8,1.3,2.8,2.8c0,0,0,0,0,0C27.8,48.1,26.6,49.4,25,49.4z M27.8,44.6c-0.6-0.8-1.5-1.3-2.5-1.4v-10h6.1
		c1.6,0,3.1-0.6,4.2-1.7l5,2.9c-0.4,0.9-0.4,2,0,2.9L27.8,44.6z M46.1,37.2c-0.5,0.9-1.4,1.4-2.5,1.4c-1.6,0-2.8-1.3-2.8-2.8
		c0-1.6,1.3-2.8,2.8-2.8c1.6,0,2.8,1.3,2.8,2.8C46.5,36.3,46.4,36.8,46.1,37.2z"/>
</g>
</svg>
