<?xml version="1.0" encoding="utf-8"?>
<!-- Generator: Adobe Illustrator 25.2.3, SVG Export Plug-In . SVG Version: 6.00 Build 0)  -->
<svg version="1.1" id="Final" xmlns="http://www.w3.org/2000/svg" xmlns:xlink="http://www.w3.org/1999/xlink" x="0px" y="0px"
	 viewBox="0 0 50 50" style="enable-background:new 0 0 50 50;" xml:space="preserve">
<style type="text/css">
	.st0{fill:#FFFFFF;}
</style>
<path class="st0" d="M32.1,39.5h14.8v-23H32.1V39.5z M32.8,17.2h13.3v21.5H32.8L32.8,17.2z"/>
<rect x="38.3" y="14.4" class="st0" width="2.4" height="0.7"/>
<path class="st0" d="M39.5,40.7c-1,0-1.8,0.8-1.8,1.8c0,1,0.8,1.8,1.8,1.8c1,0,1.8-0.8,1.8-1.8c0,0,0,0,0,0
	C41.3,41.5,40.5,40.7,39.5,40.7z M39.5,43.6c-0.6,0-1.1-0.5-1.1-1.1s0.5-1.1,1.1-1.1s1.1,0.5,1.1,1.1C40.5,43.1,40.1,43.6,39.5,43.6
	z"/>
<path class="st0" d="M47.1,11.5H31.8c-1.6,0-2.9,1.3-2.9,2.9v11.3c-0.8-0.4-1.5-0.8-2.2-1.2c-1.1-0.6-2-1.1-2.9-1.5l-0.1-0.7
	c0.6-1,1.1-2.1,1.3-3.3c0-0.1,0.1-0.3,0.1-0.4c0.5-0.4,0.8-1,0.9-1.6l0.6-3.3v-0.2c0-0.7-0.2-1.3-0.6-1.8C25.8,4.6,21.5,3,17.8,3
	s-8,1.5-8.2,8.8c-0.4,0.5-0.6,1.2-0.6,1.8v0.1v0.1L9.7,17c0.1,0.6,0.4,1.2,0.9,1.6c0,0.1,0.1,0.3,0.1,0.4c0.2,1.2,0.7,2.3,1.3,3.3
	L11.8,23C11,23.4,10,23.9,9,24.5c-1.4,0.8-3,1.6-4.4,2.2c-1.5,0.6-5,2.1-4.6,6.1C0.2,33.9,0.4,35,0.8,36l0.3,0.9h27.8v7.2
	c0,1.6,1.3,2.9,2.9,2.9h15.3c1.6,0,2.9-1.3,2.9-2.9V14.4C50,12.8,48.7,11.5,47.1,11.5L47.1,11.5z M2.1,35.5
	c-0.3-0.9-0.5-1.9-0.7-2.8C1.2,30.2,2.9,29,5.2,28c2.7-1.1,6.3-3.4,8-4l0.3-2.1c-1-1.2-1.1-2.3-1.6-4.1c-0.4-0.2-0.6-0.6-0.7-1
	l-0.6-3.2c0-0.5,0.2-0.9,0.6-1.1c0-4.8,1.8-7.9,6.8-7.9s6.8,3.1,6.8,7.9c0.4,0.2,0.6,0.7,0.6,1.1l-0.6,3.2c-0.1,0.4-0.4,0.8-0.8,1
	c-0.5,1.8-0.6,2.9-1.6,4.1l0.2,2.1c1.5,0.6,4.6,2.4,7.1,3.6v7.9L2.1,35.5z M48.6,44.1c0,0.8-0.7,1.5-1.5,1.5c0,0,0,0,0,0H31.8
	c-0.8,0-1.5-0.7-1.5-1.5v-8.6l0,0v-7.6l0,0V14.4c0-0.8,0.7-1.5,1.5-1.5h15.3c0.8,0,1.5,0.6,1.5,1.4c0,0,0,0,0,0V44.1z"/>
<path class="st0" d="M43.5,24.8l-5.3,5.3l-2.5-2.5c-0.3-0.3-0.7-0.3-1-0.1s-0.3,0.7-0.1,1c0,0,0.1,0.1,0.1,0.1l3.5,3.5l6.3-6.3
	c0.3-0.3,0.2-0.7-0.1-1C44.2,24.6,43.8,24.6,43.5,24.8L43.5,24.8z"/>
</svg>
