<?xml version="1.0" encoding="UTF-8" standalone="no"?><svg width="722" height="454" viewBox="0 0 722 454" xmlns="http://www.w3.org/2000/svg" xmlns:xlink="http://www.w3.org/1999/xlink"><svg width="32" height="21" viewBox="-1 -1 32 21" id="ns-burger" x="278.21000000000004" y="290" xmlns="http://www.w3.org/2000/svg"><g fill="#53565A" fill-rule="evenodd"><rect width="26" height="3" rx="1.5"/><rect y="8" width="30" height="3" rx="1.5"/><rect y="16" width="22" height="3" rx="1.5"/></g></svg><svg data-name="Layer 1" viewBox="-1 -1 22 22" width="22" height="22" id="ns-facebook-icon" x="278.21000000000004" y="311" xmlns="http://www.w3.org/2000/svg"><path d="M17.56 1.5H2.44a.94.94 0 00-.94.94v15.12a.94.94 0 00.94.94h8.14v-6.58H8.37V9.35h2.22V7.46a3.09 3.09 0 013.3-3.39 18.17 18.17 0 012 .1v2.29H14.5c-1.07 0-1.27.51-1.27 1.25v1.64h2.54l-.33 2.57h-2.21v6.58h4.33a.94.94 0 00.94-.94V2.44a.94.94 0 00-.94-.94z" fill="#fff"/></svg><svg viewBox="-1 -1 74.61 76.48" width="74.61" height="76.48" id="ns-factory" y="376.58" xmlns="http://www.w3.org/2000/svg"><g data-name="Layer 2"><g data-name="Layer 1" fill="#789c4a"><path d="M46.3 55.32h6.36v6.36H46.3zM57.95 55.32h6.36v6.36h-6.36zM34.65 55.32h6.36v6.36h-6.36zM23 55.32h6.36v6.36H23zM11.35 55.32h6.36v6.36h-6.36zM24.13 21.81a5.32 5.32 0 010-10.63h.41A7.11 7.11 0 0134.69 6a10 10 0 112.21 11.2 7.07 7.07 0 01-8.09 1.8 5.26 5.26 0 01-4.68 2.81zm0-9.43A4.11 4.11 0 1028 18l.24-.63.6.31a5.89 5.89 0 007.58-1.73l.44-.59.49.55A8.8 8.8 0 1035.57 7l-.25.7-.64-.39a5.9 5.9 0 00-9 4.58l-.05.68-.67-.14a4.28 4.28 0 00-.83-.05z"/><path d="M26.61 25.64V45h.19l22.53-16v14.81L70.2 29v40.21a2.86 2.86 0 01-2.86 2.86H5.27a2.86 2.86 0 01-2.86-2.86V45h3.76V25.64h6.29V45h7.85V25.64h6.3M29 23.23H17.9v19.35h-3V23.23H3.76v19.35H0v26.63a5.28 5.28 0 005.27 5.27h62.07a5.28 5.28 0 005.27-5.27V24.32L68.8 27 51.74 39.14V24.32L47.94 27 29 40.46V23.23z"/></g></g></svg><svg data-name="Layer 1" viewBox="-1 -1 20.69 20.69" width="20.69" height="20.69" id="ns-instagram-icon" x="310.21000000000004" y="290" xmlns="http://www.w3.org/2000/svg"><path d="M9.34 1.68c2.49 0 2.79 0 3.78.05a5.17 5.17 0 011.74.32 2.89 2.89 0 011.07.7 2.89 2.89 0 01.7 1.07 5.17 5.17 0 01.32 1.73c0 1 .05 1.28.05 3.78s0 2.79-.05 3.78a5.17 5.17 0 01-.32 1.74 3.09 3.09 0 01-1.77 1.77 5.17 5.17 0 01-1.74.32c-1 0-1.28.05-3.78.05s-2.79 0-3.78-.05a5.17 5.17 0 01-1.74-.32 2.89 2.89 0 01-1.07-.7 2.9 2.9 0 01-.7-1.07 5.17 5.17 0 01-.32-1.73c0-1-.05-1.28-.05-3.78s0-2.79.05-3.78a5.17 5.17 0 01.32-1.74 2.89 2.89 0 01.7-1.07 2.89 2.89 0 011.07-.7 5.17 5.17 0 011.73-.32c1 0 1.28-.05 3.78-.05M9.34 0C6.8 0 6.48 0 5.49.06a6.86 6.86 0 00-2.27.43 4.58 4.58 0 00-1.66 1.07A4.58 4.58 0 00.49 3.22a6.86 6.86 0 00-.44 2.27c0 1-.06 1.31-.06 3.85s0 2.86.06 3.85a6.86 6.86 0 00.43 2.27 4.58 4.58 0 001.08 1.65 4.58 4.58 0 001.65 1.08 6.86 6.86 0 002.27.43c1 0 1.31.06 3.85.06s2.86 0 3.85-.06a6.86 6.86 0 002.27-.43 4.78 4.78 0 002.73-2.73 6.86 6.86 0 00.43-2.27c0-1 .06-1.31.06-3.85s0-2.86-.06-3.85a6.86 6.86 0 00-.43-2.27 4.58 4.58 0 00-1.08-1.65A4.58 4.58 0 0015.45.49a6.86 6.86 0 00-2.26-.44c-1 0-1.31-.06-3.85-.06z" fill="#fff"/><path d="M9.34 4.54a4.8 4.8 0 104.8 4.8 4.8 4.8 0 00-4.8-4.8zm0 7.91a3.11 3.11 0 113.11-3.11 3.11 3.11 0 01-3.11 3.11z" fill="#fff"/><circle cx="14.33" cy="4.36" r="1.12" fill="#fff"/></svg><svg data-name="Layer 1" viewBox="-1 -1 22 22" width="22" height="22" id="ns-linkedin-icon" x="300.21000000000004" y="311" xmlns="http://www.w3.org/2000/svg"><path d="M19 15.22a.3.3 0 00.3-.32c0-.23-.14-.33-.42-.33h-.45v1.18h.17v-.52h.21l.33.51h.18l-.32-.52zm-.2-.12h-.2v-.4h.25c.13 0 .28 0 .28.19s-.13.21-.29.21z" fill="#fff"/><path d="M18.86 14A1.12 1.12 0 1020 15.16 1.11 1.11 0 0018.86 14zm0 2.09a1 1 0 111-1 1 1 0 01-1 1.04zM15.76 1.5H1.28A1.24 1.24 0 000 2.73v14.54a1.24 1.24 0 001.28 1.23h14.48A1.24 1.24 0 0017 17.27V2.73a1.24 1.24 0 00-1.24-1.23zM5.06 16H2.54V7.87h2.52zM3.8 6.77A1.46 1.46 0 115.26 5.3 1.46 1.46 0 013.8 6.77zM14.51 16H12v-4c0-.94 0-2.15-1.31-2.15s-1.51 1-1.51 2.08v4H6.64V7.87h2.42V9a2.65 2.65 0 012.39-1.31c2.55 0 3 1.68 3 3.86z" fill="#fff"/></svg><svg version="1.1" id="ns-logo-col-neg" viewBox="-1 -1 722 290" xml:space="preserve" width="722" height="290" xmlns="http://www.w3.org/2000/svg"><style>.fst0{fill:#fff}.fst1{fill:#93d500}.fst2{fill:#789c4a}</style><path class="fst0" d="M222.5 120.1h-2.9c-1.8 0-2.7 1-2.7 2.7v29.3L197 121.9c-.7-1.3-1.7-1.8-3.3-1.8h-3.5c-1.8 0-2.7 1-2.7 2.7v41.5c0 1.8.9 2.7 2.7 2.7h3c1.8 0 2.7-.9 2.7-2.7v-29.9l20 30.9c.7 1.3 1.8 1.8 3.2 1.8h3.5c1.8 0 2.7-.9 2.7-2.7v-41.5c-.1-1.8-1.1-2.8-2.8-2.8zM262.5 159.8h-19.6v-13.1h13.9c1.8 0 2.7-.9 2.7-2.7v-1.8c0-1.8-1-2.7-2.7-2.7h-13.9v-12.1h18.6c1.8 0 2.7-.9 2.7-2.7v-1.8c0-1.8-1-2.7-2.7-2.7h-24.3c-1.8 0-2.7 1-2.7 2.7v41.5c0 1.8.9 2.7 2.7 2.7h25.3c1.8 0 2.7-.9 2.7-2.7v-1.8c0-1.9-1-2.8-2.7-2.8zM307.7 120.1h-33.2c-1.8 0-2.7 1-2.7 2.7v1.8c0 1.8.9 2.7 2.7 2.7h12.4v37c0 1.8.9 2.7 2.7 2.7h2.9c1.8 0 2.7-.9 2.7-2.7v-37h12.4c1.8 0 2.7-.9 2.7-2.7v-1.8c.1-1.7-.8-2.7-2.6-2.7zM323.4 133.1c0-3.1 2.7-5.2 7-5.2 3.6 0 6.1 1.4 8 2.5 1.4.7 2.7 1 3.7-.9l1.2-2.2c.8-1.4.6-2.7-.8-3.7-2-1.4-6.5-3.5-11.9-3.5-8.8 0-15.6 5.3-15.6 13.4 0 14.4 21.6 12.6 21.6 21.4 0 3.1-2.6 5.3-6.9 5.3-4.6 0-7.9-2.3-9.4-3.4-1.6-.9-2.7-.8-3.8.6l-1.4 2.1c-1.3 1.8-.7 2.9.4 3.8 2.3 1.8 7.6 4.7 14.2 4.7 9.7 0 15.3-6.2 15.3-13.7 0-14.8-21.6-12.6-21.6-21.2zM389.5 156.6c-1-1.5-2.3-1.5-3.8-.5-2.2 1.6-6.1 4-11.3 4-10 0-15.6-7.9-15.6-16.6 0-8.5 5.4-15.9 15.5-15.9 4.8 0 8.4 2 10.4 3.3 1.6 1 2.8.8 3.7-.7l1.2-1.9c.9-1.4.8-2.7-.5-3.8-2.5-1.8-7.6-4.6-15.1-4.6-14 0-23.9 10.3-23.9 23.7 0 13.6 9.4 24.1 23.9 24.1 8.2 0 13.8-3.6 16.4-5.7 1.3-1.1 1.4-2.5.4-3.8l-1.3-1.6zM485.1 120.1h-3c-1.8 0-2.7 1-2.7 2.7v27.6c0 6.3-4.1 9.8-10.3 9.8-6.2 0-10.2-3.5-10.2-9.8v-27.6c0-1.8-.9-2.7-2.7-2.7h-2.9c-1.8 0-2.7 1-2.7 2.7v27.7c0 10.4 7.4 17.4 18.6 17.4 11.1 0 18.6-7 18.6-17.4v-27.7c-.1-1.7-1-2.7-2.7-2.7zM529.9 120.1h-33.2c-1.8 0-2.7 1-2.7 2.7v1.8c0 1.8.9 2.7 2.7 2.7h12.4v37c0 1.8.9 2.7 2.7 2.7h2.9c1.8 0 2.7-.9 2.7-2.7v-37h12.4c1.8 0 2.7-.9 2.7-2.7v-1.8c.1-1.7-.8-2.7-2.6-2.7z"/><path class="fst1" d="M419.1 120.1H401c-2.1 0-3.9 1.7-3.9 3.9 0 2.1 1.7 3.9 3.9 3.9h17.3-.2 1.1c8.9 0 15.3 6.9 15.3 15.9 0 9.4-6.4 16.6-15.3 16.6s-15.3-7.2-15.3-16.6c0-5.6 2.5-10.4 6.5-13.2-.1 0-.1.1-.2.1h-5.4c-1.8 0-3.2-1.2-3.7-2.8-3.7 4.2-5.9 9.7-5.9 15.9 0 13.6 9.9 24.2 23.9 24.2 14 0 23.9-10.6 23.9-24.2 0-13.4-9.9-23.7-23.9-23.7zM401 127.8z"/><path class="fst2" d="M404.7 130.6h5.4c.1 0 .1-.1.2-.1 2.2-1.5 4.8-2.5 7.7-2.6h.2H401c.5 1.5 2 2.7 3.7 2.7z"/><path class="fst0" d="M525.4 163.1c0-.7.2-1.3.5-1.9s.8-1.1 1.4-1.4c.6-.3 1.2-.5 1.9-.5s1.3.2 1.9.5c.6.3 1.1.8 1.4 1.4s.5 1.2.5 1.9-.2 1.3-.5 1.9c-.3.6-.8 1.1-1.4 1.4-.6.4-1.2.5-2 .5-.7 0-1.4-.2-2-.5-.6-.4-1.1-.8-1.4-1.4-.1-.6-.3-1.3-.3-1.9zm.5 0c0 .6.1 1.1.4 1.7s.7.9 1.2 1.2c.5.3 1.1.4 1.6.4.6 0 1.1-.1 1.7-.4.5-.3.9-.7 1.2-1.2.3-.5.4-1.1.4-1.7 0-.6-.1-1.1-.4-1.7-.3-.5-.7-.9-1.2-1.2-.5-.3-1.1-.4-1.7-.4-.6 0-1.1.1-1.7.4s-.9.7-1.2 1.2c-.1.5-.3 1-.3 1.7zm4.9-1c0 .3-.1.5-.2.7-.1.2-.3.4-.6.5l1.2 2h-.9l-1.1-1.8h-.7v1.8h-.8v-4.6h1.3c.6 0 1 .1 1.2.3.5.3.6.7.6 1.1zm-2.2.8h.6c.3 0 .5-.1.7-.2.2-.1.2-.3.2-.5 0-.3-.1-.4-.2-.5-.1-.1-.4-.2-.7-.2h-.5v1.4z"/></svg><svg width="48" height="48" viewBox="-1 -1 48 48" id="ns-logo-orb" x="230.21" y="290" xmlns="http://www.w3.org/2000/svg"><g fill="none" fill-rule="evenodd"><path d="M22.809 0H5.554a3.675 3.675 0 00-3.672 3.678 3.675 3.675 0 003.672 3.679H22c-.066.005-.133.017-.2.023.333-.02.667-.035 1.008-.035 8.453 0 14.544 6.598 14.544 15.189 0 8.964-6.091 15.811-14.544 15.811-8.452 0-14.543-6.847-14.543-15.811 0-5.356 2.368-9.937 6.2-12.628-.057.039-.119.074-.173.114H9.124c-1.672 0-3.068-1.128-3.512-2.66C2.06 11.335 0 16.635 0 22.533 0 35.544 9.447 45.69 22.809 45.69c13.362 0 22.81-10.146 22.81-23.156C45.619 9.897 36.17 0 22.809 0" fill="#53565A"/><path d="M9.124 10.02h5.169c.054-.04.116-.075.173-.114 2.066-1.45 4.559-2.349 7.335-2.525.067-.007.134-.018.2-.025H5.614h.001l-.003.004c.444 1.533 1.84 2.66 3.512 2.66" fill="#FFF"/></g></svg><svg version="1.1" id="ns-logo-orb-green" x="74.61" y="376.58" viewBox="-1 -1 74.6 74.6" xml:space="preserve" width="74.6" height="74.6" xmlns="http://www.w3.org/2000/svg"><style>.hst0{fill:#93d500}.hst1{fill:#789c4a}</style><path class="hst0" d="M36.3 0H8.8C5.6 0 3 2.6 3 5.8c0 3.2 2.6 5.8 5.8 5.8H35h-.3c.5 0 1.1-.1 1.6-.1 13.5 0 23.1 10.5 23.1 24.1 0 14.2-9.7 25.1-23.1 25.1-13.5 0-23.1-10.9-23.1-25.1 0-8.5 3.8-15.8 9.9-20.1-.1.1-.2.1-.3.2h-8.2c-2.7 0-4.9-1.8-5.6-4.2C3.3 18 0 26.4 0 35.8c0 20.7 15 36.8 36.3 36.8s36.3-16.1 36.3-36.8C72.6 15.7 57.6 0 36.3 0zM8.9 11.7z"/><path class="hst1" d="M14.5 15.9h8.2c.1-.1.2-.1.3-.2 3.3-2.3 7.3-3.7 11.7-4h.3H8.9c.7 2.4 3 4.2 5.6 4.2z"/></svg><svg viewBox="-1 -1 73.88 86.58" width="73.88" height="86.58" id="ns-network" y="290" xmlns="http://www.w3.org/2000/svg"><g data-name="Layer 2"><g data-name="Layer 1" fill="#789c4a"><path d="M35.94 28.47a7.64 7.64 0 11-7.59 7.64 7.62 7.62 0 017.59-7.64m0-1.21a8.85 8.85 0 108.8 8.85 8.84 8.84 0 00-8.8-8.85z"/><path d="M52.32 82.86a.59.59 0 01-.57-.4L38.27 44.37a.6.6 0 011.14-.4l13.47 38.08a.59.59 0 01-.36.77.51.51 0 01-.2.04zM19.56 82.86a.48.48 0 01-.2 0 .61.61 0 01-.37-.77l13.39-37.88a.61.61 0 011.14.41L20.13 82.46a.6.6 0 01-.57.4z"/><path d="M54.27 56.16a.59.59 0 01-.44-.19.6.6 0 010-.85 26 26 0 10-36-.15.6.6 0 11-.84.86 27.21 27.21 0 1137.7.17.58.58 0 01-.42.16z"/><path d="M48.46 50.19a.6.6 0 01-.41-1 17.71 17.71 0 10-24.5-.26.6.6 0 010 .85.59.59 0 01-.85 0 18.92 18.92 0 1126.17.22.57.57 0 01-.41.19zM49.15 73.91a.63.63 0 01-.43-.17l-19-19a.6.6 0 11.85-.85l19.05 19a.59.59 0 010 .85.58.58 0 01-.47.17zM45.36 84.58a.61.61 0 01-.43-.18L25.65 65.12a.61.61 0 010-.85.59.59 0 01.85 0l19.29 19.28a.61.61 0 01-.43 1z"/><path d="M23 73.6a.6.6 0 01-.43-.18.59.59 0 010-.85l18.81-18.66a.6.6 0 01.85 0 .59.59 0 010 .85L23.45 73.43a.63.63 0 01-.45.17zM26.54 84.58a.61.61 0 01-.43-1L45.4 64.27a.6.6 0 11.85.85L27 84.4a.6.6 0 01-.46.18z"/><path d="M59.8 62.71a1.21 1.21 0 01-.9-.38 1.25 1.25 0 010-1.76 33.45 33.45 0 10-46.12-.11 1.24 1.24 0 11-1.73 1.79 35.94 35.94 0 1149.57.12 1.23 1.23 0 01-.82.34z"/></g></g></svg><svg viewBox="-1 -1 60.94 73.97" width="60.94" height="73.97" id="ns-office" x="149.20999999999998" y="376.58" xmlns="http://www.w3.org/2000/svg"><g data-name="Layer 2"><g data-name="Layer 1" fill="#789c4a"><path d="M7.61 19.82h6.74v6.74H7.61zM19.97 19.82h6.74v6.74h-6.74zM32.32 19.82h6.74v6.74h-6.74zM44.67 19.82h6.74v6.74h-6.74zM7.61 32.1h6.74v6.74H7.61zM19.97 32.1h6.74v6.74h-6.74zM32.32 32.1h6.74v6.74h-6.74zM44.67 32.1h6.74v6.74h-6.74zM7.61 7.52h6.74v6.74H7.61zM19.97 7.52h6.74v6.74h-6.74zM32.32 7.52h6.74v6.74h-6.74zM44.67 7.52h6.74v6.74h-6.74zM7.61 44.39h6.74v6.74H7.61zM44.67 44.39h6.74v6.74h-6.74zM7.61 56.67h6.74v6.74H7.61zM44.67 56.67h6.74v6.74h-6.74zM39.67 71.37h-1.2V45.03H20.75v26.34h-1.2V43.83h20.12v27.54zM29.51 44.95v25.48"/><path d="M28.91 44.95h1.21v25.48h-1.21z"/><path d="M53.17 2.41a3.37 3.37 0 013.36 3.36v63.78H2.41V5.77a3.37 3.37 0 013.36-3.36h47.4m0-2.41H5.77A5.77 5.77 0 000 5.77V72h58.94V5.77A5.78 5.78 0 0053.17 0z"/></g></g></svg><svg version="1.1" id="ns-quote" x="153.31" y="290" viewBox="-1 -1 76.9 61.2" xml:space="preserve" width="76.9" height="61.2" xmlns="http://www.w3.org/2000/svg"><style>.kst0{opacity:.3252}.kst1{fill-rule:evenodd;clip-rule:evenodd;fill:#fff}</style><g id="kSolutions-Product-Page" class="kst0"><g id="kSolutions-Detail-Page-New" transform="translate(-195 -2563)"><g id="kGroup-6" transform="translate(-51 2433)"><g id="kGroup" transform="translate(246 118)"><path id="kFill-1-Copy" class="kst1" d="M58.4 12L44.7 43.9v27.3h30.2V40.8h-12L71.2 12H58.4zm-44.7 0L0 43.9v27.3h30.2V40.8h-12L26.5 12H13.7z"/></g></g></g></g></svg><svg width="22" height="22" viewBox="-1 -1 22 22" id="ns-search" x="322.21000000000004" y="311" xmlns="http://www.w3.org/2000/svg"><path d="M19.755 18.58l-4.808-4.809A8.431 8.431 0 008.429 0 8.428 8.428 0 000 8.429a8.428 8.428 0 008.429 8.428 8.384 8.384 0 005.338-1.906l4.809 4.804a.833.833 0 001.18-1.175zM8.43 15.18c-3.727 0-6.756-3.029-6.756-6.751A6.763 6.763 0 018.43 1.673c3.722 0 6.755 3.033 6.755 6.756 0 3.722-3.033 6.75-6.755 6.75z" fill="#53565A" fill-rule="evenodd"/></svg><svg viewBox="-1 -1 64.87 70.78" width="64.87" height="70.78" id="ns-skull" x="210.14999999999998" y="376.58" xmlns="http://www.w3.org/2000/svg"><g data-name="Layer 2"><g data-name="Layer 1" fill="#789c4a"><path d="M31.43 0A31.47 31.47 0 000 31.43v15.83l.92.74 12.49 9.79v6.31a4.69 4.69 0 004.69 4.68 5 5 0 004.54-2.89 4.81 4.81 0 008.79.08 4.82 4.82 0 008.8-.08 5 5 0 004.54 2.89 4.69 4.69 0 004.69-4.68v-6.32L61.94 48l.93-.73V31.43A31.47 31.47 0 0031.43 0zm29 46.09L47.27 56.43h-.22v7.67a2.28 2.28 0 01-2.28 2.27 2.59 2.59 0 01-2.6-2.6v-2a2 2 0 00-4 0V64a2.4 2.4 0 01-4.8 0v-2.4a2 2 0 10-3.95 0V64a2.41 2.41 0 01-4.81 0v-2.26a2 2 0 10-3.95 0v2a2.6 2.6 0 01-2.6 2.6 2.28 2.28 0 01-2.28-2.27v-7.64h-.23L2.41 46.09V31.43a29.11 29.11 0 0129-29 29.11 29.11 0 0129 29z"/><path d="M19.32 29.53a7.8 7.8 0 107.8 7.8 7.8 7.8 0 00-7.8-7.8zM32.44 44.81a1.16 1.16 0 00-1-.58 1.13 1.13 0 00-1 .58l-2.62 4.53a1.16 1.16 0 001 1.74h5.24a1.17 1.17 0 001-1.74z"/><circle cx="43.55" cy="37.33" r="7.8"/></g></g></svg><svg data-name="Layer 1" viewBox="-1 -1 22 22" width="22" height="22" id="ns-twitter-icon" x="344.21000000000004" y="311" xmlns="http://www.w3.org/2000/svg"><path d="M20 3.82a8.17 8.17 0 01-2.35.64 4.1 4.1 0 001.8-2.26 8.18 8.18 0 01-2.59 1 4.09 4.09 0 00-7 3.73 11.6 11.6 0 01-8.43-4.27 4.09 4.09 0 001.26 5.45A4.07 4.07 0 01.84 7.6v.05a4.09 4.09 0 003.28 4 4.1 4.1 0 01-1.85.07 4.09 4.09 0 003.82 2.84A8.2 8.2 0 011 16.31a8.32 8.32 0 01-1-.06 11.56 11.56 0 006.26 1.84A11.55 11.55 0 0017.93 6.47v-.53A8.3 8.3 0 0020 3.82z" fill="#fff"/></svg><svg viewBox="-1 -1 79.43 74.47" width="79.43" height="74.47" id="ns-worldwide" x="73.88" y="290" xmlns="http://www.w3.org/2000/svg"><g data-name="Layer 2"><g data-name="Layer 1" fill="#789c4a"><path d="M77.14 22c-.58-1.76-2.34-4.11-7.37-5.34A36 36 0 003.5 36.24c0 .55.06 1.09.09 1.64-3.83 4.26-3.92 7.39-3.3 9.26.8 2.47 3.24 4.25 7 5.25A36 36 0 0075 29.89c2.1-2.84 2.91-5.55 2.14-7.89zm-2.3.75a5 5 0 01-.62 3.91 35.89 35.89 0 00-2.67-6.89 5.41 5.41 0 013.29 2.95zm-40-19.94a32.85 32.85 0 00-6.65 1.65 32.85 32.85 0 016.65-1.68zm-6.71 1.64a33.45 33.45 0 00-6 2.88 33.45 33.45 0 016-2.88zm-11.39 7a33.88 33.88 0 00-8.65 12.9 33.77 33.77 0 018.65-12.93zm-14.16 35c-.53-1.61.23-3.43 1.33-5A35.6 35.6 0 006 49.42c-1.81-.75-3-1.77-3.42-3.03zm36.94 23.61A33.51 33.51 0 0110.34 53a38.48 38.48 0 004.92.36h.51c7.86 0 17.59-1.76 27.45-5l1.28-.43 1.25 3.34 6.11-7.43-9.49-1.58 1.28 3.41-1.18.4C32.63 49.25 23 51 15.29 50.91A32.64 32.64 0 019 50.3a33.7 33.7 0 01-.9-25.95c2.19 3 5.81 7.8 6.14 8.16l9.09 1.71L25.62 36c-1.31 1.38-3.33 3.52-4.89 5.26 1.45 5.38 1.65 5.51 1.75 5.58s.61.54 1.3 1.16a107.83 107.83 0 0016.84-3.8l.19-.07-.89-2.4h-1.05l-3.12-3.6-8.47-3.61c-.11-.05-.25-.16-.33-.07l-2.45-2.12-1.87-.23 1.71-1.61a.3.3 0 000-.38L23.66 29a.29.29 0 00-.35-.12l-3.38 1.23-1.47-.54-1.74-2.48.94-3.48 6.23.33 1.43 3a.29.29 0 00.45.1l1.4-1.22-.09-2.38 3.69-3.78 5.88-2.39 3.4.19a.4.4 0 00.22-.08.27.27 0 00.09-.21c.06-2 .09-2.93.09-3.39l3-.22a.33.33 0 00.23-.15.31.31 0 000-.28L42.13 10a.29.29 0 00-.27-.16l-3.81.27-2.7 2.89-3.57-2 .75-1.37 6.7-1.83a.29.29 0 00.21-.31l-.19-2.41a.31.31 0 00-.25-.23l-2-.53-2.15-1.54a32.69 32.69 0 014.67-.37A33.68 33.68 0 0172.4 29.22c-3.16 3.67-9 7.8-16.6 11.47l1.05 2.17c7.06-3.41 12.51-7.06 16-10.6a34.85 34.85 0 01.25 4 33.72 33.72 0 01-33.58 33.8z"/><path d="M54.45 12.37l.55 2.16-2.2.07a.28.28 0 00-.28.24l-.68 3.72a.29.29 0 00.13.3l2.78 1.82a.33.33 0 00.17 0 .26.26 0 00.2-.08l2.1-2.18 6.87-.19A31.17 31.17 0 0053.92 8.8l-2.63 1.91a.28.28 0 00-.11.27.29.29 0 00.17.24zM67.82 23.77H66l-6-3.06L52.26 23 48 32.54a.31.31 0 00.05.31L53 38.43l2.53-.17a60.25 60.25 0 0013.93-9.08 31.62 31.62 0 00-1.64-5.41zM61.35 43l-.92 7.15 2 4.39 1.57.9a30.8 30.8 0 006-17.13v-.48C67.5 39.62 61.35 43 61.35 43zM27.18 59.06l3.47 7.69a.29.29 0 00.24.17l2.57.24a.24.24 0 00.2-.08.28.28 0 00.1-.21l-.15-7.23 8.47-8.51a108.36 108.36 0 01-15 3.53z"/></g></g></svg><svg data-name="Layer 1" viewBox="-1 -1 22 22" width="22" height="22" id="ns-youtube-icon" x="366.21000000000004" y="311" xmlns="http://www.w3.org/2000/svg"><path data-name="The Sharpness" d="M7.93 7l4.74 3.16.66-.35z" fill-rule="evenodd" opacity=".12"/><path d="M19.8 6a4.33 4.33 0 00-.8-2 2.86 2.86 0 00-2-.85C14.2 3 10 3 10 3s-4.2 0-7 .2A2.86 2.86 0 001 4a4.32 4.32 0 00-.8 2A30.25 30.25 0 000 9.24v1.52A30.25 30.25 0 00.2 14a4.32 4.32 0 00.8 2 3.39 3.39 0 002.21.85C4.8 17 10 17 10 17s4.2 0 7-.21a2.86 2.86 0 002-.79 4.33 4.33 0 00.8-2 30.29 30.29 0 00.2-3.24V9.24A30.29 30.29 0 0019.8 6zM7.94 12.59V7l5.4 2.82z" fill="#fff"/></svg></svg>