<svg id="White" xmlns="http://www.w3.org/2000/svg" viewBox="0 0 480 270"><defs><style>.cls-1{fill:#fff;}</style></defs><path class="cls-1" d="M289.67,84,244.21,57.71a8.44,8.44,0,0,0-8.42,0l-30.14,17.4h0l-.31.17a12.14,12.14,0,0,1,2.48,1.07l1.21.71h0l8.59,5-3.7,2.14-8-4.61a8,8,0,0,0-8.47.36,11.09,11.09,0,0,1,2.37,1l1.85,1.08,8,4.59L206,88.79l-8.08-4.67a7.93,7.93,0,0,0-9.18,1.07,8.4,8.4,0,0,0-2.58,6.06v20.68a8.4,8.4,0,0,0,4.21,7.29l45.46,26.25a8.36,8.36,0,0,0,8.23.11l30.18-17.42.3-.18a11.26,11.26,0,0,1-2.47-1.07l-1.22-.71h0L224.87,99.69l3.71-2.14,45.31,26.16h0a7.94,7.94,0,0,0,8.47-.37,11.4,11.4,0,0,1-2.3-1l-.48-.29-.81-.46h0L232.84,95.08,236.55,93l45.34,26.16a7.94,7.94,0,0,0,8.87-.68c.21-.18.42-.35.62-.54a8.39,8.39,0,0,0,2.51-6V91.25A8.41,8.41,0,0,0,289.67,84Zm-11.56,24.15L274,110.47l-11.69-6.75,3.55-2L240,86.73l-25.88,14.94L240,116.61l3.55-2,11.69,6.75L240,130.11l-38.1-22V95.23l38.1-22,38.11,22Z"/><path class="cls-1" d="M223.24,208.4h13.53a8.41,8.41,0,0,0,4.21-1.13l6.42-3.7a3.2,3.2,0,0,0,1.58-2.73L249,171H238.47l-.06,27.77H221.59V171H211.05v29.84a3.14,3.14,0,0,0,1.58,2.73l6.4,3.7A8.43,8.43,0,0,0,223.24,208.4Z"/><rect class="cls-1" x="267.65" y="171" width="10.48" height="37.4"/><path class="cls-1" d="M329.7,180.64V171H309a8.41,8.41,0,0,0-4.21,1.13l-6.41,3.7a3.15,3.15,0,0,0-1.58,2.74v22.27a3.14,3.14,0,0,0,1.58,2.73l6.41,3.7A8.41,8.41,0,0,0,309,208.4H329.7V199h-.06v-.25H307.32V180.64Z"/><path class="cls-1" d="M191.73,203.42l0-24.86a3.14,3.14,0,0,0-1.58-2.73l-6.39-3.7a8.47,8.47,0,0,0-4.22-1.13H162.5a8.44,8.44,0,0,0-4.22,1.13l-6.4,3.7a3.17,3.17,0,0,0-1.58,2.73v22.28a3.19,3.19,0,0,0,1.58,2.74l6.4,3.69a8.44,8.44,0,0,0,4.22,1.13h7.31v0h8.74l7.11,4.11a7.31,7.31,0,0,0,3.6.93,8.36,8.36,0,0,0,4.16-1.14l6.82-3.94Zm-10.56-4.66H160.85V180.64h20.39Z"/></svg>